<svg width="24" height="24" viewBox="0 0 24 24" fill="none" xmlns="http://www.w3.org/2000/svg">
<path d="M5.06107 20.8859L5.54602 20.3138L5.06107 20.8859ZM3.95491 19.5954L4.59156 19.1989L3.95491 19.5954ZM20.0451 19.5954L19.4084 19.1989L20.0451 19.5954ZM18.9389 20.8859L19.4239 21.4581L18.9389 20.8859ZM18.9389 2.11407L19.4239 1.54195L18.9389 2.11407ZM20.0451 3.40459L19.4084 3.80105L20.0451 3.40459ZM5.06107 2.11407L5.54602 2.68619L5.06107 2.11407ZM3.95491 3.40459L4.59156 3.80105L3.95491 3.40459ZM9 1.03375L8.97005 0.284348L9 1.03375ZM15 1.03375L15.03 0.284348L15 1.03375ZM20.9711 15L21.7208 15.022L20.9711 15ZM15 21.9662L15.03 22.7156L15 21.9662ZM12 21.25C10.1057 21.25 8.75516 21.2486 7.71131 21.1167C6.68947 20.9875 6.05148 20.7422 5.54602 20.3138L4.57612 21.4581C5.385 22.1437 6.3416 22.4555 7.52321 22.6048C8.68281 22.7514 10.1446 22.75 12 22.75V21.25ZM2.25 11.5C2.25 13.673 2.24924 15.3544 2.37258 16.6825C2.49668 18.0189 2.75203 19.0826 3.31827 19.9919L4.59156 19.1989C4.20288 18.5748 3.98078 17.7781 3.86615 16.5438C3.75076 15.3013 3.75 13.7017 3.75 11.5H2.25ZM5.54602 20.3138C5.18375 20.0067 4.86082 19.6313 4.59156 19.1989L3.31827 19.9919C3.66581 20.5499 4.08945 21.0455 4.57612 21.4581L5.54602 20.3138ZM19.4084 19.1989C19.1392 19.6313 18.8163 20.0067 18.454 20.3138L19.4239 21.4581C19.9105 21.0455 20.3342 20.55 20.6817 19.9919L19.4084 19.1989ZM21.75 11.5C21.75 9.32701 21.7508 7.64557 21.6274 6.31745C21.5033 4.98107 21.248 3.91738 20.6817 3.00812L19.4084 3.80105C19.7971 4.42518 20.0192 5.22185 20.1339 6.45615C20.2492 7.69873 20.25 9.2983 20.25 11.5H21.75ZM18.454 2.68619C18.8163 2.99327 19.1392 3.36868 19.4084 3.80105L20.6817 3.00812C20.3342 2.45005 19.9105 1.95446 19.4239 1.54195L18.454 2.68619ZM3.75 11.5C3.75 9.2983 3.75076 7.69873 3.86615 6.45615C3.98078 5.22185 4.20288 4.42518 4.59156 3.80105L3.31827 3.00812C2.75203 3.91738 2.49668 4.98107 2.37258 6.31745C2.24924 7.64557 2.25 9.32701 2.25 11.5H3.75ZM4.57612 1.54195C4.08945 1.95446 3.66581 2.45005 3.31827 3.00812L4.59156 3.80105C4.86082 3.36868 5.18375 2.99327 5.54602 2.68619L4.57612 1.54195ZM12 0.25C10.8359 0.25 9.83256 0.249872 8.97005 0.284348L9.02995 1.78315C9.85613 1.75013 10.8262 1.75 12 1.75V0.25ZM8.97005 0.284348C7.08557 0.359674 5.68748 0.59992 4.57612 1.54195L5.54602 2.68619C6.24387 2.09467 7.18605 1.85686 9.02995 1.78315L8.97005 0.284348ZM12 1.75C13.1738 1.75 14.1439 1.75013 14.97 1.78315L15.03 0.284348C14.1674 0.249872 13.1641 0.25 12 0.25V1.75ZM14.97 1.78315C16.8139 1.85686 17.7561 2.09467 18.454 2.68619L19.4239 1.54195C18.3125 0.59992 16.9144 0.359674 15.03 0.284348L14.97 1.78315ZM20.25 11.5C20.25 12.8673 20.2499 14.0063 20.2214 14.978L21.7208 15.022C21.7501 14.0236 21.75 12.8602 21.75 11.5H20.25ZM20.2214 14.978C20.1576 17.1508 19.9491 18.3308 19.4084 19.1989L20.6817 19.9919C21.4555 18.7493 21.6568 17.1989 21.7208 15.022L20.2214 14.978ZM12 22.75C13.1641 22.75 14.1674 22.7501 15.03 22.7156L14.97 21.2168C14.1439 21.2499 13.1738 21.25 12 21.25V22.75ZM15.03 22.7156C16.9144 22.6403 18.3125 22.4001 19.4239 21.4581L18.454 20.3138C17.7561 20.9053 16.8139 21.1431 14.97 21.2168L15.03 22.7156Z" fill="#010C80"/>
<path d="M8 5C8 5.55228 7.55228 6 7 6C6.44772 6 6 5.55228 6 5C6 4.44772 6.44772 4 7 4C7.55228 4 8 4.44772 8 5Z" fill="#010C80"/>
<path d="M8 11C8 11.5523 7.55228 12 7 12C6.44772 12 6 11.5523 6 11C6 10.4477 6.44772 10 7 10C7.55228 10 8 10.4477 8 11Z" fill="#010C80"/>
<path d="M13 5C13 5.55228 12.5523 6 12 6C11.4477 6 11 5.55228 11 5C11 4.44772 11.4477 4 12 4C12.5523 4 13 4.44772 13 5Z" fill="#010C80"/>
<path d="M13 11C13 11.5523 12.5523 12 12 12C11.4477 12 11 11.5523 11 11C11 10.4477 11.4477 10 12 10C12.5523 10 13 10.4477 13 11Z" fill="#010C80"/>
<path d="M13 17C13 17.5523 12.5523 18 12 18C11.4477 18 11 17.5523 11 17C11 16.4477 11.4477 16 12 16C12.5523 16 13 16.4477 13 17Z" fill="#010C80"/>
<path d="M18 5C18 5.55228 17.5523 6 17 6C16.4477 6 16 5.55228 16 5C16 4.44772 16.4477 4 17 4C17.5523 4 18 4.44772 18 5Z" fill="#010C80"/>
<path d="M18 11C18 11.5523 17.5523 12 17 12C16.4477 12 16 11.5523 16 11C16 10.4477 16.4477 10 17 10C17.5523 10 18 10.4477 18 11Z" fill="#010C80"/>
<path d="M8 17C8 17.5523 7.55228 18 7 18C6.44772 18 6 17.5523 6 17C6 16.4477 6.44772 16 7 16C7.55228 16 8 16.4477 8 17Z" fill="#010C80"/>
<path d="M18 17C18 17.5523 17.5523 18 17 18C16.4477 18 16 17.5523 16 17C16 16.4477 16.4477 16 17 16C17.5523 16 18 16.4477 18 17Z" fill="#010C80"/>
</svg>
