<svg width="26" height="24" viewBox="0 0 26 24" fill="none" xmlns="http://www.w3.org/2000/svg">
<path d="M12.8321 10.4007C13.7199 10.4007 14.451 9.66958 14.451 8.75566C14.451 7.84174 13.746 7.13672 12.8321 7.13672C11.9182 7.13672 11.2131 7.86786 11.2131 8.75566C11.2131 9.64347 11.9443 10.4007 12.8321 10.4007ZM12.8321 7.92008C13.3021 7.92008 13.6677 8.31176 13.6677 8.75566C13.6677 9.22568 13.276 9.61736 12.8321 9.61736C12.3882 9.61736 11.9965 9.22568 11.9965 8.75566C11.9965 8.31176 12.3621 7.92008 12.8321 7.92008Z" fill="#010C80"/>
<path d="M12.8584 0.950195C13.0947 0.950477 13.2998 1.15529 13.2998 1.3916V1.55078H15.9395C16.1758 1.55097 16.3808 1.75581 16.3809 1.99219V3.9502C16.3809 4.1866 16.1758 4.39239 15.9395 4.39258H13.2998V5.18555C15.053 5.39161 16.4072 6.89132 16.4072 8.70312V14.4238H23.5635C23.7999 14.4238 24.0057 14.6288 24.0059 14.8652V22.3623H24.6084C24.8349 22.3623 25.0496 22.5058 25.0498 22.751C25.0498 22.9875 24.8449 23.1933 24.6084 23.1934H1.10742C0.870945 23.1933 0.666016 22.9875 0.666016 22.751C0.666211 22.5146 0.871057 22.3096 1.10742 22.3096H1.70996V14.8135C1.70996 14.577 1.91583 14.3711 2.15234 14.3711H9.30859V8.65039C9.30881 6.83876 10.6629 5.33883 12.416 5.13281V1.3916C12.4161 1.15512 12.6219 0.950195 12.8584 0.950195ZM20.2197 22.3359H23.1221V17.9707H20.2197V22.3359ZM16.4072 22.3359H19.3359V17.9707H16.4072V22.3359ZM10.1924 22.3359H11.085V17.5293C11.085 17.2928 11.2899 17.0869 11.5264 17.0869H14.2158C14.4523 17.087 14.6572 17.2928 14.6572 17.5293V22.3359H15.5498V12.8262H10.1924V22.3359ZM11.9678 22.3359H13.748V17.9707H11.9678V22.3359ZM6.37988 22.3359H9.30859V17.9707H6.37988V22.3359ZM2.59375 22.3359H5.49609V17.9707H2.59375V22.3359ZM16.4072 17.0869H23.1221V15.3076H16.4072V17.0869ZM2.59375 17.0869H9.30859V15.3076H2.59375V17.0869ZM12.8584 6.03711C11.3715 6.03711 10.1924 7.21624 10.1924 8.70312V11.9434H15.5234V8.70312C15.5234 7.2422 14.3447 6.03737 12.8584 6.03711ZM13.2998 3.48242H15.4971V2.4082H13.2998V3.48242Z" fill="#010C80" stroke="#010C80" stroke-width="0.1"/>
</svg>
