<svg width="36" height="38" viewBox="0 0 36 38" fill="none" xmlns="http://www.w3.org/2000/svg">
<path d="M18.0002 11.8194C18.6511 11.8194 19.2753 11.5525 19.7356 11.0773C20.1958 10.6022 20.4544 9.95774 20.4544 9.28578C20.4544 8.61383 20.1958 7.96939 19.7356 7.49425C19.2753 7.01911 18.6511 6.75217 18.0002 6.75217C17.3494 6.75217 16.7252 7.01911 16.2649 7.49425C15.8047 7.96939 15.5461 8.61383 15.5461 9.28578C15.5461 9.95774 15.8047 10.6022 16.2649 11.0773C16.7252 11.5525 17.3494 11.8194 18.0002 11.8194ZM19.4564 0.494163C19.0345 0.17317 18.5243 0 18.0002 0C17.4762 0 16.966 0.17317 16.5441 0.494163L1.00135 12.3261C-0.903053 13.777 0.0900492 16.8984 2.45746 16.8984H3.2755V29.1307C2.30624 29.5476 1.47824 30.2515 0.895917 31.1536C0.313594 32.0557 0.0030139 33.1155 0.00333697 34.1996V36.7332C0.00333697 37.4325 0.553061 38 1.2304 38H34.7701C35.0955 38 35.4076 37.8665 35.6378 37.629C35.8679 37.3914 35.9972 37.0692 35.9972 36.7332V34.1996C35.9972 33.1158 35.6864 32.0563 35.1041 31.1546C34.5218 30.2528 33.694 29.5492 32.725 29.1324V16.8984H33.5414C35.9104 16.8984 36.9036 13.777 34.9975 12.3261L19.4564 0.494163ZM5.72963 28.7101V16.8984H9.81983V28.7101H5.72963ZM30.2709 16.8984V28.7101H26.1807V16.8984H30.2709ZM23.7265 16.8984V28.7101H19.2273V16.8984H23.7265ZM16.7732 16.8984V28.7101H12.274V16.8984H16.7732ZM2.45746 14.3648L18.0002 2.53287L33.5414 14.3648H2.45746ZM2.45746 34.1996C2.45746 32.5679 3.74015 31.2437 5.32061 31.2437H30.6799C32.2603 31.2437 33.543 32.5679 33.543 34.1996V35.4664H2.45746V34.1996Z" fill="#4E4E4E"/>
</svg>
