<svg width="36" height="35" viewBox="0 0 36 35" fill="none" xmlns="http://www.w3.org/2000/svg">
<path d="M12.416 5.96027C14.0934 0.79775 21.397 0.79775 23.0744 5.96027C23.8246 8.26901 25.9761 9.83215 28.4036 9.83215C33.8318 9.83215 36.0887 16.7783 31.6972 19.9689C29.7333 21.3958 28.9115 23.925 29.6617 26.2337C31.3391 31.3962 25.4304 35.6892 21.0389 32.4986C19.0749 31.0717 16.4155 31.0717 14.4516 32.4986C10.0601 35.6892 4.15139 31.3962 5.82879 26.2337C6.57895 23.925 5.75716 21.3958 3.79322 19.9689C-0.598277 16.7783 1.65865 9.83215 7.08684 9.83215C9.5144 9.83215 11.6659 8.26901 12.416 5.96027Z" stroke="#4E4E4E" stroke-width="2.55594"/>
</svg>
