<svg width="33" height="36" viewBox="0 0 33 36" fill="none" xmlns="http://www.w3.org/2000/svg">
<path d="M9.40234 27.9355C9.76258 27.9419 10.0957 28.149 10.2559 28.4814L10.3115 28.627C10.4135 28.9715 10.3151 29.3489 10.0479 29.6016L10.0488 29.6025L9.10059 30.5508H26.668C26.9257 30.5476 27.1746 30.6473 27.3584 30.8281L27.4238 30.8994C27.5671 31.072 27.6465 31.2905 27.6465 31.5166C27.6464 31.7426 27.5669 31.9604 27.4238 32.1328L27.3584 32.2041C27.1746 32.3849 26.9258 32.4837 26.668 32.4805V32.4814H9.10156L10.0469 33.4141L10.1143 33.4844C10.2609 33.6549 10.3441 33.8725 10.3477 34.0996C10.3512 34.3268 10.2744 34.5466 10.1328 34.7217L10.0684 34.7939C9.9085 34.9552 9.69763 35.0537 9.47363 35.0752L9.37695 35.0801C9.1177 35.079 8.87034 34.9739 8.68945 34.7881V34.7891L6.09473 32.1953V32.1963C5.91158 32.0148 5.80865 31.7676 5.80859 31.5098C5.80859 31.2516 5.91164 31.0047 6.09473 30.8232L8.68945 28.2305C8.83814 28.0764 9.03421 27.976 9.24609 27.9453L9.40234 27.9355ZM31.4238 8.94238C31.9575 8.94238 32.3903 9.37506 32.3906 9.9082V25.4658L32.3857 25.5645C32.3359 26.051 31.9241 26.4307 31.4238 26.4307H2.01758C1.484 26.4307 1.05132 25.9988 1.05078 25.4658V9.9082L1.05469 9.81543C1.09659 9.3575 1.45996 8.98631 1.92676 8.94238H31.4238ZM16.7207 10.874C12.9451 10.8741 9.9026 13.9136 9.90234 17.6865C9.90234 21.4594 12.9449 24.4999 16.7207 24.5C20.4965 24.5 23.5391 21.4597 23.5391 17.6865C23.5388 13.9138 20.4963 10.874 16.7207 10.874ZM22.1748 10.874C24.1763 12.4769 25.4706 14.93 25.4707 17.6865C25.4707 20.4431 24.1763 22.8968 22.1748 24.5H30.458V10.874H22.1748ZM2.9834 24.5H11.2676C9.26562 22.8971 7.9707 20.4435 7.9707 17.6865C7.97076 14.9304 9.26494 12.477 11.2666 10.874H2.9834V24.5ZM24.0771 0.28125C24.33 0.285182 24.573 0.388595 24.752 0.571289H24.7529L27.3467 3.16406L27.4121 3.23535C27.5546 3.40758 27.6337 3.62509 27.6338 3.85059C27.6338 4.10825 27.5297 4.35489 27.3467 4.53613L27.3477 4.53711L24.7529 7.12988C24.5948 7.29206 24.3854 7.39255 24.1621 7.41602L24.0654 7.42188C23.8383 7.42276 23.6189 7.34354 23.4453 7.2002L23.374 7.13477C23.1917 6.95045 23.0907 6.69997 23.0947 6.44043L23.1006 6.34473C23.1265 6.12126 23.2299 5.91228 23.3945 5.75586L24.3398 4.82324H6.68359C6.49306 4.81363 6.30953 4.74755 6.15625 4.63379L6.08203 4.57324C5.89207 4.4008 5.77883 4.1596 5.7666 3.90332V3.80664C5.77844 3.58454 5.86608 3.37173 6.01758 3.20605L6.08594 3.13867C6.25158 2.98992 6.46429 2.90195 6.68848 2.8916H24.3418L23.3926 1.94434V1.94336C23.1209 1.68251 23.0254 1.2876 23.1484 0.931641C23.2718 0.57474 23.5927 0.322524 23.9688 0.286133L24.0771 0.28125Z" fill="#4E4E4E" stroke="#4E4E4E" stroke-width="0.202551"/>
</svg>
