<svg width="32" height="32" viewBox="0 0 32 32" fill="none" xmlns="http://www.w3.org/2000/svg">
<path d="M9.25 18.25C9.84674 18.25 10.419 18.0129 10.841 17.591C11.2629 17.169 11.5 16.5967 11.5 16C11.5 15.4033 11.2629 14.831 10.841 14.409C10.419 13.9871 9.84674 13.75 9.25 13.75C8.65326 13.75 8.08097 13.9871 7.65901 14.409C7.23705 14.831 7 15.4033 7 16C7 16.5967 7.23705 17.169 7.65901 17.591C8.08097 18.0129 8.65326 18.25 9.25 18.25ZM16 18.25C16.5967 18.25 17.169 18.0129 17.591 17.591C18.0129 17.169 18.25 16.5967 18.25 16C18.25 15.4033 18.0129 14.831 17.591 14.409C17.169 13.9871 16.5967 13.75 16 13.75C15.4033 13.75 14.831 13.9871 14.409 14.409C13.9871 14.831 13.75 15.4033 13.75 16C13.75 16.5967 13.9871 17.169 14.409 17.591C14.831 18.0129 15.4033 18.25 16 18.25ZM25 16C25 16.5967 24.7629 17.169 24.341 17.591C23.919 18.0129 23.3467 18.25 22.75 18.25C22.1533 18.25 21.581 18.0129 21.159 17.591C20.7371 17.169 20.5 16.5967 20.5 16C20.5 15.4033 20.7371 14.831 21.159 14.409C21.581 13.9871 22.1533 13.75 22.75 13.75C23.3467 13.75 23.919 13.9871 24.341 14.409C24.7629 14.831 25 15.4033 25 16ZM31.75 16C31.75 24.6985 24.6985 31.75 16 31.75C7.3015 31.75 0.25 24.6985 0.25 16C0.25 7.3015 7.3015 0.25 16 0.25C24.6985 0.25 31.75 7.3015 31.75 16ZM29.5 16C29.5 8.54463 23.4554 2.5 16 2.5C8.54463 2.5 2.5 8.54463 2.5 16C2.5 23.4554 8.54463 29.5 16 29.5C23.4554 29.5 29.5 23.4554 29.5 16Z" fill="#4E4E4E"/>
</svg>
