<svg width="36" height="39" viewBox="0 0 36 39" fill="none" xmlns="http://www.w3.org/2000/svg">
<path d="M28.0062 11.2236H22.0023C22.3359 11.3042 22.6062 11.5227 22.8132 11.8792C23.0202 12.2358 23.1237 12.5981 23.1237 12.9662C23.1237 13.7023 22.7729 14.2601 22.0713 14.6397C21.5423 14.9272 20.8637 15.0882 20.0355 15.1227C20.4726 15.2607 20.8004 15.4735 21.0189 15.7611C21.0649 15.8186 21.2375 16.1176 21.5365 16.6582C22.1001 17.6704 22.6464 18.1764 23.1755 18.1764C23.5435 18.1764 24.0439 17.9924 24.6765 17.6244L24.2106 19.1081C23.5896 19.3151 23.0202 19.4186 22.5026 19.4186C21.5595 19.4186 20.7429 19.0678 20.0528 18.3662C19.8112 18.1132 19.3512 17.4633 18.6726 16.4167C18.224 15.7151 17.8099 15.3643 17.4304 15.3643C17.3384 15.3643 17.2464 15.3758 17.1543 15.3988L17.1716 13.7425C17.8847 14.0876 18.5173 14.2601 19.0694 14.2601C19.5525 14.2601 19.955 14.1163 20.2771 13.8288C20.5991 13.5412 20.7601 13.1559 20.7601 12.6729C20.7601 11.9483 20.4726 11.4652 19.8975 11.2236H16.9646V10.1885H28.0062V11.2236ZM26.6605 17.8141L25.5563 16.8997C25.9589 16.3707 26.1602 15.8301 26.1602 15.278C26.1602 14.7029 25.9819 14.2774 25.6254 14.0013C25.4873 13.8978 25.3608 13.846 25.2458 13.846C25.1308 13.846 25.033 13.915 24.9525 14.0531C24.8835 14.1796 24.849 14.3061 24.849 14.4326C24.849 14.6512 25.0043 14.7604 25.3148 14.7604C25.4528 14.7604 25.6081 14.7374 25.7806 14.6914L25.4528 15.6058C25.2918 15.6748 25.102 15.7093 24.8835 15.7093C24.596 15.7093 24.3142 15.6461 24.0381 15.5195C23.348 15.1975 23.003 14.6799 23.003 13.9668C23.003 13.5412 23.141 13.2077 23.417 12.9662C23.6931 12.7131 24.0439 12.5866 24.4694 12.5866C25.3091 12.5866 25.9992 12.9662 26.5397 13.7253C26.7123 13.9668 26.856 14.3406 26.9711 14.8467C27.0746 15.2953 27.1263 15.6978 27.1263 16.0544C27.1263 16.7215 26.9711 17.3081 26.6605 17.8141Z" fill="#4E4E4E"/>
<path d="M5.84933 35.9497L1.62964 35.2903L3.95926 22.939L7.87126 23.7302L5.84933 35.9497Z" stroke="#4E4E4E" stroke-width="2.17255"/>
<path d="M7.65133 25.1822L10.9727 23.4187C12.0385 22.8528 13.264 22.6629 14.4511 22.8797L21.4439 24.1569C21.9646 24.252 22.4428 24.5069 22.8121 24.8862V24.8862C23.4645 25.5561 23.6976 26.5295 23.4195 27.4223L23.0356 28.6547M23.0356 28.6547V28.6547C22.0099 29.5418 20.631 29.9036 19.3019 29.6344L14.4644 28.6547M23.0356 28.6547L29.9954 25.1547C30.4164 24.943 30.8888 24.8552 31.3578 24.9015L31.4712 24.9127C32.9137 25.0552 33.8979 26.4392 33.559 27.8485V27.8485C33.4334 28.3707 33.1355 28.8353 32.7134 29.1674L23.2091 36.645C22.0661 37.5443 20.5887 37.9026 19.1607 37.6269L6.15686 35.1161" stroke="#4E4E4E" stroke-width="2.17255"/>
<path d="M32.3232 22.7255C35.7726 17.8826 36.3877 9.7876 29.764 4.5383C25.656 1.28273 19.6547 1.21038 15.3209 4.15861C10.4963 7.44072 7.61394 12.8408 10.3686 20.6374" stroke="#4E4E4E" stroke-width="2.30034"/>
</svg>
