<svg width="26" height="35" viewBox="0 0 26 35" fill="none" xmlns="http://www.w3.org/2000/svg">
<path d="M18.4173 7.99919C18.4173 10.9907 15.9922 13.4159 13.0007 13.4159V15.9159C17.3729 15.9159 20.9173 12.3714 20.9173 7.99919H18.4173ZM13.0007 13.4159C10.0091 13.4159 7.58398 10.9907 7.58398 7.99919H5.08398C5.08398 12.3714 8.6284 15.9159 13.0007 15.9159V13.4159ZM7.58398 7.99919C7.58398 5.00764 10.0091 2.58252 13.0007 2.58252V0.0825197C8.6284 0.0825197 5.08398 3.62693 5.08398 7.99919H7.58398ZM13.0007 2.58252C15.9922 2.58252 18.4173 5.00764 18.4173 7.99919H20.9173C20.9173 3.62693 17.3729 0.0825197 13.0007 0.0825197V2.58252ZM8.00065 20.9159H18.0007V18.4159H8.00065V20.9159ZM18.0007 31.7492H8.00065V34.2492H18.0007V31.7492ZM8.00065 31.7492C5.00911 31.7492 2.58398 29.3241 2.58398 26.3325H0.0839845C0.0839845 30.7048 3.6284 34.2492 8.00065 34.2492V31.7492ZM23.4173 26.3325C23.4173 29.3241 20.9922 31.7492 18.0007 31.7492V34.2492C22.3729 34.2492 25.9173 30.7048 25.9173 26.3325H23.4173ZM18.0007 20.9159C20.9922 20.9159 23.4173 23.341 23.4173 26.3325H25.9173C25.9173 21.9603 22.3729 18.4159 18.0007 18.4159V20.9159ZM8.00065 18.4159C3.6284 18.4159 0.0839845 21.9603 0.0839845 26.3325H2.58398C2.58398 23.341 5.00911 20.9159 8.00065 20.9159V18.4159Z" fill="#4E4E4E"/>
</svg>
