<svg width="19" height="20" viewBox="0 0 19 20" fill="none" xmlns="http://www.w3.org/2000/svg">
<path d="M9.50013 6.17832C9.84365 6.17832 10.1731 6.03879 10.416 5.79041C10.6589 5.54204 10.7954 5.20518 10.7954 4.85393C10.7954 4.50268 10.6589 4.16582 10.416 3.91745C10.1731 3.66908 9.84365 3.52955 9.50013 3.52955C9.15662 3.52955 8.82717 3.66908 8.58426 3.91745C8.34136 4.16582 8.2049 4.50268 8.2049 4.85393C8.2049 5.20518 8.34136 5.54204 8.58426 5.79041C8.82717 6.03879 9.15662 6.17832 9.50013 6.17832ZM10.2686 0.258313C10.046 0.0905209 9.7767 0 9.50013 0C9.22356 0 8.95425 0.0905209 8.73163 0.258313L0.528489 6.4432C-0.476612 7.20163 0.047526 8.83327 1.29699 8.83327H1.72874V15.2274C1.21718 15.4454 0.780182 15.8133 0.472845 16.2848C0.165508 16.7564 0.00159067 17.3104 0.00176118 17.8771V19.2014C0.00176118 19.567 0.291893 19.8636 0.649377 19.8636H18.3509C18.5226 19.8636 18.6874 19.7939 18.8088 19.6697C18.9303 19.5455 18.9985 19.3771 18.9985 19.2014V17.8771C18.9985 17.3106 18.8345 16.7567 18.5272 16.2853C18.2199 15.814 17.7829 15.4462 17.2715 15.2283V8.83327H17.7024C18.9527 8.83327 19.4769 7.20163 18.4709 6.4432L10.2686 0.258313ZM3.02397 15.0076V8.83327H5.18269V15.0076H3.02397ZM15.9763 8.83327V15.0076H13.8176V8.83327H15.9763ZM12.5223 8.83327V15.0076H10.1477V8.83327H12.5223ZM8.85252 8.83327V15.0076H6.47792V8.83327H8.85252ZM1.29699 7.50888L9.50013 1.324L17.7024 7.50888H1.29699ZM1.29699 17.8771C1.29699 17.0242 1.97397 16.3319 2.8081 16.3319H16.1922C17.0263 16.3319 17.7033 17.0242 17.7033 17.8771V18.5393H1.29699V17.8771Z" fill="#010C80"/>
</svg>
