<svg width="21" height="26" viewBox="0 0 21 26" fill="none" xmlns="http://www.w3.org/2000/svg">
<path d="M10.9316 0.950195C12.7072 0.950195 14.1523 2.3861 14.1523 4.15137V8.17676H18.5977C19.398 8.17676 20.0498 8.82417 20.0498 9.62012V16.3799C20.0498 17.1761 19.398 17.8232 18.5977 17.8232H14.1523V21.8506C14.1522 23.6152 12.707 25.0498 10.9316 25.0498H4.16992C2.39466 25.0496 0.950335 23.6151 0.950195 21.8506V4.15137L0.954102 3.98633C1.0406 2.29741 2.4501 0.950365 4.16992 0.950195H10.9316ZM1.90234 22.5107C2.19027 23.4851 3.09675 24.1992 4.16992 24.1992H10.9316C12.0046 24.1992 12.911 23.4851 13.1992 22.5107H1.90234ZM9.9043 22.9307C10.1401 22.9307 10.332 23.121 10.332 23.3564C10.3318 23.5913 10.1403 23.7812 9.9043 23.7812H5.19727C4.96158 23.7812 4.76882 23.5916 4.76855 23.3564C4.76855 23.1211 4.96113 22.9307 5.19727 22.9307H9.9043ZM1.80566 21.6602H13.2959V17.8232H6.70508C5.90489 17.8231 5.25293 17.1757 5.25293 16.3799V9.62012C5.25293 8.82402 5.9049 8.17694 6.70508 8.17676H13.2959V4.33984H1.80566V21.6602ZM6.10938 16.3799C6.10938 16.7061 6.37691 16.9727 6.70605 16.9727H18.5977C18.9268 16.9727 19.1943 16.7061 19.1943 16.3799V13.0352H6.10938V16.3799ZM12.0361 14.4111C12.2723 14.4111 12.4639 14.6015 12.4639 14.8369C12.4637 15.0722 12.2719 15.2617 12.0361 15.2617H7.82227C7.58626 15.2617 7.39472 15.0721 7.39453 14.8369C7.39453 14.6015 7.58644 14.4111 7.82227 14.4111H12.0361ZM6.10938 12.1836H19.1943V10.8779H6.10938V12.1836ZM6.70605 9.02734C6.37691 9.02734 6.10938 9.2939 6.10938 9.62012V10.0273H19.1943V9.62012C19.1943 9.29387 18.9268 9.02734 18.5977 9.02734H6.70605ZM4.16992 1.80078C3.09737 1.80081 2.19181 2.51494 1.90332 3.48926H13.1982C12.9098 2.51493 12.0042 1.80079 10.9316 1.80078H4.16992ZM7.55078 2.21973C7.78688 2.21973 7.97852 2.41061 7.97852 2.64551C7.97844 2.87912 7.78672 3.07031 7.55078 3.07031C7.31637 3.07023 7.1241 2.87919 7.12402 2.64551C7.12402 2.41055 7.31621 2.21981 7.55078 2.21973Z" fill="#010C80" stroke="#010C80" stroke-width="0.1"/>
</svg>
