<svg width="541" height="537" viewBox="0 0 541 537" fill="none" xmlns="http://www.w3.org/2000/svg">
<path fill-rule="evenodd" clip-rule="evenodd" d="M220.1 151.321C220.1 124.547 241.804 102.844 268.577 102.844C295.349 102.844 317.054 124.547 317.054 151.321C317.054 178.094 295.349 199.798 268.577 199.798C241.804 199.798 220.1 178.094 220.1 151.321ZM268.577 130.455C257.053 130.455 247.711 139.797 247.711 151.321C247.711 162.844 257.053 172.186 268.577 172.186C280.1 172.186 289.442 162.844 289.442 151.321C289.442 139.797 280.1 130.455 268.577 130.455ZM374.804 243.626C374.804 236.001 368.623 229.82 360.998 229.82C353.374 229.82 347.193 236.001 347.193 243.626V326.324C332.241 344.796 323.286 368.321 323.286 393.938C323.286 431.783 342.832 465.062 372.38 484.231H14.3057C6.68104 484.231 0.5 490.412 0.5 498.037C0.5 505.662 6.68104 511.843 14.3057 511.843H522.817C530.442 511.843 536.623 505.662 536.623 498.037C536.623 490.412 530.442 484.231 522.817 484.231H489.294C518.842 465.062 538.389 431.783 538.389 393.938C538.389 347.569 509.046 308.054 467.916 292.949V243.626C467.916 236.001 461.735 229.82 454.11 229.82C446.485 229.82 440.304 236.001 440.304 243.626V286.797C437.185 286.525 434.027 286.386 430.837 286.386C410.308 286.386 391.123 292.138 374.804 302.118V243.626ZM83.6567 229.975C91.2814 229.975 97.4624 236.157 97.4624 243.781V405.58C97.4624 413.205 91.2814 419.386 83.6567 419.386C76.032 419.386 69.8509 413.205 69.8509 405.58V243.781C69.8509 236.157 76.032 229.975 83.6567 229.975ZM189.915 243.781C189.915 236.157 183.734 229.975 176.109 229.975C168.484 229.975 162.303 236.157 162.303 243.781V405.58C162.303 413.205 168.484 419.386 176.109 419.386C183.734 419.386 189.915 413.205 189.915 405.58V243.781ZM268.561 229.975C276.186 229.975 282.367 236.157 282.367 243.781V405.58C282.367 413.205 276.186 419.386 268.561 419.386C260.937 419.386 254.756 413.205 254.756 405.58V243.781C254.756 236.157 260.937 229.975 268.561 229.975ZM507.012 393.938C507.012 436.008 472.907 470.113 430.837 470.113C388.767 470.113 354.662 436.008 354.662 393.938C354.662 351.868 388.767 317.763 430.837 317.763C472.907 317.763 507.012 351.868 507.012 393.938ZM431.732 377.354C438.663 377.354 444.282 382.973 444.282 389.905V442.618C444.282 449.549 438.663 455.168 431.732 455.168C424.8 455.168 419.181 449.549 419.181 442.618V389.905C419.181 382.973 424.8 377.354 431.732 377.354ZM431.105 369.816C439.076 369.816 445.538 363.354 445.538 355.382C445.538 347.411 439.076 340.949 431.105 340.949C423.134 340.949 416.672 347.411 416.672 355.382C416.672 363.354 423.134 369.816 431.105 369.816Z" fill="#333333"/>
<path fill-rule="evenodd" clip-rule="evenodd" d="M265.723 51.8431C265.083 51.9444 264.763 52.0507 264.72 52.0651L264.717 52.0659L264.715 52.0667L56.6294 135.3C55.6768 135.681 54.0633 136.834 52.634 138.954C51.2004 141.081 50.7442 143.006 50.7442 143.981V220.743C50.7442 225.832 54.9657 230.054 60.0553 230.054H82.493C82.7219 230.043 82.9522 230.037 83.1839 230.037C83.4156 230.037 83.646 230.043 83.8748 230.054H174.961C175.19 230.043 175.42 230.037 175.652 230.037C175.883 230.037 176.114 230.043 176.343 230.054H267.444C267.673 230.043 267.904 230.037 268.135 230.037C268.367 230.037 268.597 230.043 268.826 230.054H476.23C481.32 230.054 485.542 225.832 485.542 220.743V143.981C485.542 143.006 485.085 141.081 483.652 138.954C482.223 136.834 480.609 135.681 479.656 135.3L271.569 52.0659L276.693 39.2557L271.569 52.0659C271.572 52.0672 271.571 52.0669 271.566 52.0651C271.523 52.0508 271.203 51.9444 270.563 51.8431C269.879 51.7347 269.044 51.6663 268.143 51.6663C267.242 51.6663 266.407 51.7347 265.723 51.8431ZM281.945 257.673H347.282V315.269C347.282 322.896 353.465 329.079 361.092 329.079C368.719 329.079 374.901 322.896 374.901 315.269V257.673H440.533V287.184C440.533 294.811 446.716 300.994 454.343 300.994C461.97 300.994 468.152 294.811 468.152 287.184V257.673H476.23C496.574 257.673 513.161 241.086 513.161 220.743V143.981C513.161 136.4 510.38 129.193 506.554 123.516C502.723 117.833 497.054 112.512 489.914 109.656L484.785 122.478L489.914 109.656L281.826 26.4218C277.356 24.6336 272.346 24.0469 268.143 24.0469C263.94 24.0469 258.93 24.6336 254.459 26.4218L46.3718 109.656L51.5006 122.478L46.3718 109.656C39.2321 112.512 33.5625 117.833 29.7318 123.516C25.9054 129.193 23.1247 136.4 23.1247 143.981V220.743C23.1247 241.086 39.7119 257.673 60.0553 257.673H69.3742V391.894H60.0553C39.7119 391.894 23.1247 408.482 23.1247 428.825V484.378H13.8097C6.18283 484.378 0 490.561 0 498.188C0 505.814 6.18283 511.997 13.8097 511.997L36.9345 511.997H499.351L522.468 511.997C530.095 511.997 536.278 505.814 536.278 498.188C536.278 490.561 530.095 484.378 522.468 484.378H500.132L412.138 474.399C375.999 453.909 363.636 437.205 358.425 426.457C356.072 421.604 354.977 417.654 353.824 413.496C353.602 412.696 353.378 411.887 353.142 411.063C353.109 410.948 353.075 410.828 353.04 410.704C351.89 406.655 349.317 397.595 340.128 393.23C338.276 392.351 336.252 391.894 334.202 391.894H281.945V257.673ZM376.156 484.378H50.7442V428.825C50.7442 423.735 54.9657 419.514 60.0553 419.514H326.828L326.887 419.729L326.947 419.945L327.026 420.235L327.104 420.52C328.255 424.719 330.034 431.208 333.573 438.507C340.129 452.029 352.14 467.505 376.156 484.378ZM254.325 257.673H189.462V391.894H254.325V257.673ZM96.9937 257.673H161.842V391.894H96.9937V257.673ZM268.137 102.89C241.357 102.89 219.646 124.6 219.646 151.381C219.646 178.162 241.357 199.872 268.137 199.872C294.917 199.872 316.628 178.162 316.628 151.381C316.628 124.6 294.917 102.89 268.137 102.89ZM247.266 151.381C247.266 139.854 256.611 130.509 268.137 130.509C279.664 130.509 289.009 139.854 289.009 151.381C289.009 162.908 279.664 172.252 268.137 172.252C256.611 172.252 247.266 162.908 247.266 151.381Z" fill="#333333"/>
</svg>
