<svg width="560" height="560" viewBox="0 0 560 560" fill="none" xmlns="http://www.w3.org/2000/svg">
<path d="M279.701 263.441C309.365 263.441 337.587 248.418 359.172 221.145C378.54 196.667 389.655 165.911 389.655 136.771C389.655 107.184 377.929 79.9438 356.628 60.0406C336.19 40.967 308.873 30.4531 279.701 30.4531C250.528 30.4531 223.212 40.967 202.784 60.0406C181.484 79.9438 169.758 107.184 169.758 136.771C169.758 165.922 180.861 196.678 200.241 221.145C221.814 248.428 250.037 263.441 279.701 263.441ZM226.64 85.5775C240.571 72.5634 259.415 65.3903 279.701 65.3903C299.986 65.3903 318.83 72.5634 332.762 85.5775C346.911 98.799 354.707 116.977 354.707 136.782C354.707 178.336 321.243 228.514 279.701 228.514C238.158 228.514 204.695 178.336 204.695 136.782C204.695 116.977 212.49 98.7881 226.64 85.5775Z" fill="#333333"/>
<path d="M113.009 340.675C101.676 363.089 98.0406 389.947 101.884 422.799C106.098 458.774 111.677 489.409 118.927 516.453C120.968 524.084 127.89 529.401 135.795 529.401H423.579C431.483 529.401 438.405 524.084 440.458 516.453C447.707 489.366 453.275 458.73 457.468 422.81C461.322 389.969 457.686 363.111 446.354 340.686C434.77 317.747 413.654 297.386 386.906 283.334C381.032 280.256 374.852 277.439 368.553 274.982C363.498 273.006 357.81 273.497 353.169 276.292C330.417 290.027 305.011 297.287 279.681 297.287C254.363 297.287 228.946 290.027 206.193 276.292C201.553 273.486 195.865 273.006 190.81 274.982C184.51 277.45 178.331 280.256 172.457 283.345C145.697 297.386 124.593 317.748 113.009 340.675ZM188.681 314.276C191.061 313.031 193.506 311.83 195.996 310.695C222.155 324.8 250.902 332.225 279.67 332.225C308.439 332.225 337.186 324.811 363.345 310.695C365.834 311.83 368.28 313.02 370.66 314.265C391.022 324.953 406.82 339.922 415.161 356.43C423.415 372.763 425.828 392.557 422.76 418.716V418.727C419.419 447.277 415.216 472.203 409.953 494.453H149.409C144.158 472.235 139.932 447.31 136.592 418.727C133.524 392.546 135.947 372.752 144.201 356.419C152.521 339.944 168.33 324.964 188.681 314.276Z" fill="#333333"/>
</svg>
