<svg width="537" height="537" viewBox="0 0 537 537" fill="none" xmlns="http://www.w3.org/2000/svg">
<path fill-rule="evenodd" clip-rule="evenodd" d="M108.3 43.5226C144.207 25.9494 203.116 5.17188 267.585 5.17188C330.708 5.17188 388.066 25.0861 423.783 42.4252L425.802 43.4055C436.571 48.7316 445.262 53.765 451.379 57.8474L397.328 136.861C521.935 264.248 618.185 531.883 267.585 531.883C-83.0144 531.883 10.6456 269.105 136.335 136.861L82.6354 57.8474C86.7763 55.1405 92.0292 51.9946 98.2918 48.6584C101.394 46.9904 104.73 45.2784 108.3 43.5372V43.5226ZM362.591 135.807L405.858 72.5526C365.62 75.4498 317.744 84.9021 271.653 98.2466C238.731 107.757 202.15 106.309 168.277 100.061C159.741 98.4785 151.264 96.5946 142.861 94.413L170.955 135.778C231.166 157.214 302.366 157.214 362.591 135.807V135.807ZM154.055 160.711C224.508 187.927 309.184 187.927 379.638 160.682C409.046 191.683 433.647 226.912 452.622 265.199C472.405 305.554 483.174 345.895 481.418 380.661C479.721 414.212 466.523 442.876 436.381 464.18C404.966 486.377 352.129 502.619 267.57 502.619C182.924 502.619 129.839 486.655 98.1308 464.707C67.7692 443.666 54.4394 415.397 52.5519 382.299C50.5765 347.914 61.1116 307.778 80.821 267.145C99.6233 228.399 125.859 191.102 154.055 160.711V160.711ZM137.228 62.4711C148.933 65.9536 161.166 68.9824 173.574 71.2796C205.033 77.074 236.58 77.9226 263.503 70.1237C294.877 60.9837 326.787 53.7953 359.05 48.5999C332.127 40.4937 300.639 34.4361 267.57 34.4361C217.163 34.4361 170.15 48.4975 137.228 62.4711V62.4711Z" fill="#333333"/>
<path d="M286.96 379.682V370.096C286.96 362.64 288.558 355.746 291.753 349.415C295.008 343.083 299.712 337.994 305.866 334.148C312.02 330.302 319.535 328.379 328.411 328.379C337.464 328.379 345.068 330.302 351.222 334.148C357.435 337.935 362.11 342.995 365.246 349.326C368.442 355.598 370.039 362.522 370.039 370.096V379.682C370.039 387.138 368.442 394.031 365.246 400.363C362.051 406.694 357.347 411.783 351.133 415.63C344.92 419.476 337.346 421.399 328.411 421.399C319.417 421.399 311.842 419.476 305.688 415.63C299.534 411.783 294.86 406.694 291.664 400.363C288.528 394.031 286.96 387.138 286.96 379.682ZM315.274 370.096V379.682C315.274 383.469 316.192 387.108 318.026 390.599C319.92 394.091 323.381 395.836 328.411 395.836C333.559 395.836 337.021 394.15 338.796 390.777C340.571 387.345 341.459 383.646 341.459 379.682V370.096C341.459 366.131 340.601 362.403 338.885 358.912C337.228 355.362 333.737 353.587 328.411 353.587C323.44 353.587 320.008 355.362 318.115 358.912C316.221 362.403 315.274 366.131 315.274 370.096ZM192.697 275.655V266.069C192.697 258.495 194.325 251.572 197.579 245.3C200.893 238.968 205.627 233.909 211.781 230.122C217.935 226.275 225.39 224.352 234.148 224.352C243.202 224.352 250.805 226.275 256.959 230.122C263.173 233.909 267.877 238.968 271.072 245.3C274.267 251.572 275.865 258.495 275.865 266.069V275.655C275.865 283.23 274.238 290.153 270.983 296.425C267.788 302.698 263.084 307.698 256.871 311.426C250.657 315.154 243.083 317.018 234.148 317.018C225.213 317.018 217.639 315.124 211.426 311.337C205.272 307.55 200.597 302.52 197.402 296.248C194.265 289.975 192.697 283.111 192.697 275.655ZM221.278 266.069V275.655C221.278 279.62 222.195 283.318 224.029 286.75C225.923 290.123 229.296 291.81 234.148 291.81C239.355 291.81 242.817 290.123 244.533 286.75C246.308 283.318 247.196 279.62 247.196 275.655V266.069C247.196 262.105 246.367 258.377 244.711 254.886C243.054 251.335 239.533 249.56 234.148 249.56C229.178 249.56 225.775 251.365 223.941 254.974C222.166 258.584 221.278 262.282 221.278 266.069ZM206.1 413.766L331.074 231.986H355.305L230.331 413.766H206.1Z" fill="#333333"/>
</svg>
