<svg width="546" height="537" viewBox="0 0 546 537" fill="none" xmlns="http://www.w3.org/2000/svg">
<mask id="path-1-outside-1_179_1725" maskUnits="userSpaceOnUse" x="-0.015625" y="2.27344" width="546" height="532" fill="black">
<rect fill="white" x="-0.015625" y="2.27344" width="546" height="532"/>
<path d="M505.877 246.587C506.916 254.593 507.452 263.102 507.452 272.146C507.452 323.565 491.875 358.135 476.969 379.607C471.081 388.131 464.223 395.944 456.535 402.888C454.024 405.138 451.384 407.241 448.63 409.186L448.328 409.387C445.919 410.892 443.933 412.986 442.556 415.471C441.179 417.955 440.456 420.749 440.456 423.59V479.565C440.456 484.007 438.692 488.267 435.551 491.408C432.409 494.549 428.149 496.314 423.707 496.314H377.346C376.316 496.314 375.327 495.904 374.599 495.176C373.87 494.447 373.461 493.459 373.461 492.428C373.461 471.76 356.712 455.011 336.077 455.011H276.853C256.218 455.011 239.469 471.76 239.469 492.428C239.469 493.459 239.06 494.447 238.331 495.176C237.602 495.904 236.614 496.314 235.583 496.314H189.222C184.78 496.314 180.52 494.549 177.379 491.408C174.238 488.267 172.474 484.007 172.474 479.565V451.092C172.464 447.584 171.353 444.167 169.297 441.324C167.242 438.481 164.346 436.356 161.017 435.247L159.677 434.611C157.017 433.303 154.444 431.826 151.973 430.189C144.603 425.432 132.98 416.589 117.403 400.811C103.353 386.349 92.0382 369.461 84.0058 350.967C77.8422 336.831 64.9455 324.403 47.6941 321.489C45.1261 321.055 42.7939 319.728 41.1086 317.742C39.4233 315.757 38.4931 313.24 38.4822 310.635V260.154C38.4822 257.856 39.2966 255.633 40.7808 253.879C42.2649 252.125 44.3227 250.954 46.5887 250.574C65.0125 247.458 78.0767 233.356 83.1683 217.813C87.523 204.481 95.3615 186.995 108.359 173.83C119.319 162.9 131.582 153.36 144.871 145.424C150.196 142.222 155.674 139.282 161.285 136.614L162.156 136.212L162.324 136.145C165.344 134.85 167.916 132.696 169.721 129.95C171.526 127.204 172.483 123.988 172.474 120.703V50.4576C180.948 57.8272 190.83 65.7996 201.483 72.9012C216.021 82.6826 233.339 91.861 251.126 95.1772C255.239 84.0051 260.634 73.3484 267.205 63.4213C265.163 63.2045 263.119 62.9923 261.075 62.7848C249.184 61.5789 234.88 54.9798 220.107 45.098C206.807 35.9516 194.311 25.6863 182.757 14.414C179.142 10.9646 174.604 8.63809 169.692 7.7165C164.781 6.79491 159.708 7.31781 155.088 9.22181C150.347 11.0831 146.275 14.3273 143.402 18.5328C140.528 22.7384 138.986 27.7109 138.976 32.8043V110.318C118.96 120.899 100.609 134.364 84.5082 150.281C66.3189 168.705 56.437 191.818 51.3454 207.395C49.3355 213.358 44.9808 216.875 41.028 217.545C30.9583 219.239 21.8137 224.444 15.2159 232.238C8.61803 240.031 4.99329 249.909 4.98438 260.121V310.602C4.97917 321.132 8.70414 331.324 15.4985 339.369C22.2928 347.415 31.7173 352.793 42.1 354.551C46.2872 355.221 50.8094 358.638 53.2882 364.366C62.9691 386.626 76.6119 406.942 93.5527 424.327C110.603 441.612 124.069 452.03 133.717 458.294C135.626 459.533 137.401 460.605 138.976 461.543V479.565C138.976 486.163 140.275 492.697 142.8 498.793C145.326 504.89 149.027 510.429 153.693 515.095C158.358 519.76 163.898 523.462 169.994 525.987C176.09 528.512 182.624 529.812 189.222 529.812H235.583C256.218 529.812 272.967 513.063 272.967 492.428C272.967 490.251 274.709 488.509 276.853 488.509H336.077C338.221 488.509 339.963 490.251 339.963 492.428C339.963 513.063 356.712 529.812 377.346 529.812H423.707C437.034 529.812 449.814 524.518 459.237 515.095C468.66 505.672 473.954 492.891 473.954 479.565V432.031C485.585 422.373 495.84 411.17 504.437 398.735C523.028 372.037 540.95 330.868 540.95 272.146C540.95 247.827 537.566 226.053 531.135 206.591C524.868 221.167 516.344 234.664 505.877 246.587ZM500.853 102.111C510.904 126.406 512.497 153.373 505.377 178.682C498.257 203.991 482.837 226.173 461.593 241.663C447.189 252.115 428.196 251.378 411.782 244.578L309.949 202.404C293.535 195.604 279.566 182.707 276.786 165.154C272.451 136.866 278.613 107.969 294.11 83.9093C309.607 59.8497 333.368 42.2891 360.917 34.5369C388.466 26.7848 417.898 29.3765 443.668 41.8237C469.438 54.2708 489.765 75.7137 500.819 102.111H500.853ZM441.897 214.597C453.926 205.839 463.405 194.034 469.357 180.397C475.31 166.76 477.521 151.783 475.765 137.007C474.008 122.231 468.346 108.191 459.361 96.3294C450.377 84.4683 438.394 75.2152 424.646 69.5222C410.899 63.8292 395.883 61.9019 381.143 63.9386C366.403 65.9753 352.472 71.9025 340.784 81.1103C329.095 90.318 320.071 102.474 314.639 116.327C309.208 130.18 307.566 145.23 309.882 159.929C310.273 161.829 311.245 163.561 312.662 164.886C314.806 167.164 318.223 169.576 322.778 171.452L424.612 213.659C428.335 215.267 432.347 216.099 436.403 216.104C438.346 216.181 440.265 215.655 441.897 214.597ZM164.099 245.08C170.762 245.08 177.152 242.433 181.864 237.722C186.576 233.01 189.222 226.62 189.222 219.957C189.222 213.294 186.576 206.903 181.864 202.192C177.152 197.48 170.762 194.833 164.099 194.833C157.436 194.833 151.046 197.48 146.334 202.192C141.623 206.903 138.976 213.294 138.976 219.957C138.976 226.62 141.623 233.01 146.334 237.722C151.046 242.433 157.436 245.08 164.099 245.08Z"/>
</mask>
<path d="M505.877 246.587C506.916 254.593 507.452 263.102 507.452 272.146C507.452 323.565 491.875 358.135 476.969 379.607C471.081 388.131 464.223 395.944 456.535 402.888C454.024 405.138 451.384 407.241 448.63 409.186L448.328 409.387C445.919 410.892 443.933 412.986 442.556 415.471C441.179 417.955 440.456 420.749 440.456 423.59V479.565C440.456 484.007 438.692 488.267 435.551 491.408C432.409 494.549 428.149 496.314 423.707 496.314H377.346C376.316 496.314 375.327 495.904 374.599 495.176C373.87 494.447 373.461 493.459 373.461 492.428C373.461 471.76 356.712 455.011 336.077 455.011H276.853C256.218 455.011 239.469 471.76 239.469 492.428C239.469 493.459 239.06 494.447 238.331 495.176C237.602 495.904 236.614 496.314 235.583 496.314H189.222C184.78 496.314 180.52 494.549 177.379 491.408C174.238 488.267 172.474 484.007 172.474 479.565V451.092C172.464 447.584 171.353 444.167 169.297 441.324C167.242 438.481 164.346 436.356 161.017 435.247L159.677 434.611C157.017 433.303 154.444 431.826 151.973 430.189C144.603 425.432 132.98 416.589 117.403 400.811C103.353 386.349 92.0382 369.461 84.0058 350.967C77.8422 336.831 64.9455 324.403 47.6941 321.489C45.1261 321.055 42.7939 319.728 41.1086 317.742C39.4233 315.757 38.4931 313.24 38.4822 310.635V260.154C38.4822 257.856 39.2966 255.633 40.7808 253.879C42.2649 252.125 44.3227 250.954 46.5887 250.574C65.0125 247.458 78.0767 233.356 83.1683 217.813C87.523 204.481 95.3615 186.995 108.359 173.83C119.319 162.9 131.582 153.36 144.871 145.424C150.196 142.222 155.674 139.282 161.285 136.614L162.156 136.212L162.324 136.145C165.344 134.85 167.916 132.696 169.721 129.95C171.526 127.204 172.483 123.988 172.474 120.703V50.4576C180.948 57.8272 190.83 65.7996 201.483 72.9012C216.021 82.6826 233.339 91.861 251.126 95.1772C255.239 84.0051 260.634 73.3484 267.205 63.4213C265.163 63.2045 263.119 62.9923 261.075 62.7848C249.184 61.5789 234.88 54.9798 220.107 45.098C206.807 35.9516 194.311 25.6863 182.757 14.414C179.142 10.9646 174.604 8.63809 169.692 7.7165C164.781 6.79491 159.708 7.31781 155.088 9.22181C150.347 11.0831 146.275 14.3273 143.402 18.5328C140.528 22.7384 138.986 27.7109 138.976 32.8043V110.318C118.96 120.899 100.609 134.364 84.5082 150.281C66.3189 168.705 56.437 191.818 51.3454 207.395C49.3355 213.358 44.9808 216.875 41.028 217.545C30.9583 219.239 21.8137 224.444 15.2159 232.238C8.61803 240.031 4.99329 249.909 4.98438 260.121V310.602C4.97917 321.132 8.70414 331.324 15.4985 339.369C22.2928 347.415 31.7173 352.793 42.1 354.551C46.2872 355.221 50.8094 358.638 53.2882 364.366C62.9691 386.626 76.6119 406.942 93.5527 424.327C110.603 441.612 124.069 452.03 133.717 458.294C135.626 459.533 137.401 460.605 138.976 461.543V479.565C138.976 486.163 140.275 492.697 142.8 498.793C145.326 504.89 149.027 510.429 153.693 515.095C158.358 519.76 163.898 523.462 169.994 525.987C176.09 528.512 182.624 529.812 189.222 529.812H235.583C256.218 529.812 272.967 513.063 272.967 492.428C272.967 490.251 274.709 488.509 276.853 488.509H336.077C338.221 488.509 339.963 490.251 339.963 492.428C339.963 513.063 356.712 529.812 377.346 529.812H423.707C437.034 529.812 449.814 524.518 459.237 515.095C468.66 505.672 473.954 492.891 473.954 479.565V432.031C485.585 422.373 495.84 411.17 504.437 398.735C523.028 372.037 540.95 330.868 540.95 272.146C540.95 247.827 537.566 226.053 531.135 206.591C524.868 221.167 516.344 234.664 505.877 246.587ZM500.853 102.111C510.904 126.406 512.497 153.373 505.377 178.682C498.257 203.991 482.837 226.173 461.593 241.663C447.189 252.115 428.196 251.378 411.782 244.578L309.949 202.404C293.535 195.604 279.566 182.707 276.786 165.154C272.451 136.866 278.613 107.969 294.11 83.9093C309.607 59.8497 333.368 42.2891 360.917 34.5369C388.466 26.7848 417.898 29.3765 443.668 41.8237C469.438 54.2708 489.765 75.7137 500.819 102.111H500.853ZM441.897 214.597C453.926 205.839 463.405 194.034 469.357 180.397C475.31 166.76 477.521 151.783 475.765 137.007C474.008 122.231 468.346 108.191 459.361 96.3294C450.377 84.4683 438.394 75.2152 424.646 69.5222C410.899 63.8292 395.883 61.9019 381.143 63.9386C366.403 65.9753 352.472 71.9025 340.784 81.1103C329.095 90.318 320.071 102.474 314.639 116.327C309.208 130.18 307.566 145.23 309.882 159.929C310.273 161.829 311.245 163.561 312.662 164.886C314.806 167.164 318.223 169.576 322.778 171.452L424.612 213.659C428.335 215.267 432.347 216.099 436.403 216.104C438.346 216.181 440.265 215.655 441.897 214.597ZM164.099 245.08C170.762 245.08 177.152 242.433 181.864 237.722C186.576 233.01 189.222 226.62 189.222 219.957C189.222 213.294 186.576 206.903 181.864 202.192C177.152 197.48 170.762 194.833 164.099 194.833C157.436 194.833 151.046 197.48 146.334 202.192C141.623 206.903 138.976 213.294 138.976 219.957C138.976 226.62 141.623 233.01 146.334 237.722C151.046 242.433 157.436 245.08 164.099 245.08Z" fill="#333333"/>
<path d="M505.877 246.587C506.916 254.593 507.452 263.102 507.452 272.146C507.452 323.565 491.875 358.135 476.969 379.607C471.081 388.131 464.223 395.944 456.535 402.888C454.024 405.138 451.384 407.241 448.63 409.186L448.328 409.387C445.919 410.892 443.933 412.986 442.556 415.471C441.179 417.955 440.456 420.749 440.456 423.59V479.565C440.456 484.007 438.692 488.267 435.551 491.408C432.409 494.549 428.149 496.314 423.707 496.314H377.346C376.316 496.314 375.327 495.904 374.599 495.176C373.87 494.447 373.461 493.459 373.461 492.428C373.461 471.76 356.712 455.011 336.077 455.011H276.853C256.218 455.011 239.469 471.76 239.469 492.428C239.469 493.459 239.06 494.447 238.331 495.176C237.602 495.904 236.614 496.314 235.583 496.314H189.222C184.78 496.314 180.52 494.549 177.379 491.408C174.238 488.267 172.474 484.007 172.474 479.565V451.092C172.464 447.584 171.353 444.167 169.297 441.324C167.242 438.481 164.346 436.356 161.017 435.247L159.677 434.611C157.017 433.303 154.444 431.826 151.973 430.189C144.603 425.432 132.98 416.589 117.403 400.811C103.353 386.349 92.0382 369.461 84.0058 350.967C77.8422 336.831 64.9455 324.403 47.6941 321.489C45.1261 321.055 42.7939 319.728 41.1086 317.742C39.4233 315.757 38.4931 313.24 38.4822 310.635V260.154C38.4822 257.856 39.2966 255.633 40.7808 253.879C42.2649 252.125 44.3227 250.954 46.5887 250.574C65.0125 247.458 78.0767 233.356 83.1683 217.813C87.523 204.481 95.3615 186.995 108.359 173.83C119.319 162.9 131.582 153.36 144.871 145.424C150.196 142.222 155.674 139.282 161.285 136.614L162.156 136.212L162.324 136.145C165.344 134.85 167.916 132.696 169.721 129.95C171.526 127.204 172.483 123.988 172.474 120.703V50.4576C180.948 57.8272 190.83 65.7996 201.483 72.9012C216.021 82.6826 233.339 91.861 251.126 95.1772C255.239 84.0051 260.634 73.3484 267.205 63.4213C265.163 63.2045 263.119 62.9923 261.075 62.7848C249.184 61.5789 234.88 54.9798 220.107 45.098C206.807 35.9516 194.311 25.6863 182.757 14.414C179.142 10.9646 174.604 8.63809 169.692 7.7165C164.781 6.79491 159.708 7.31781 155.088 9.22181C150.347 11.0831 146.275 14.3273 143.402 18.5328C140.528 22.7384 138.986 27.7109 138.976 32.8043V110.318C118.96 120.899 100.609 134.364 84.5082 150.281C66.3189 168.705 56.437 191.818 51.3454 207.395C49.3355 213.358 44.9808 216.875 41.028 217.545C30.9583 219.239 21.8137 224.444 15.2159 232.238C8.61803 240.031 4.99329 249.909 4.98438 260.121V310.602C4.97917 321.132 8.70414 331.324 15.4985 339.369C22.2928 347.415 31.7173 352.793 42.1 354.551C46.2872 355.221 50.8094 358.638 53.2882 364.366C62.9691 386.626 76.6119 406.942 93.5527 424.327C110.603 441.612 124.069 452.03 133.717 458.294C135.626 459.533 137.401 460.605 138.976 461.543V479.565C138.976 486.163 140.275 492.697 142.8 498.793C145.326 504.89 149.027 510.429 153.693 515.095C158.358 519.76 163.898 523.462 169.994 525.987C176.09 528.512 182.624 529.812 189.222 529.812H235.583C256.218 529.812 272.967 513.063 272.967 492.428C272.967 490.251 274.709 488.509 276.853 488.509H336.077C338.221 488.509 339.963 490.251 339.963 492.428C339.963 513.063 356.712 529.812 377.346 529.812H423.707C437.034 529.812 449.814 524.518 459.237 515.095C468.66 505.672 473.954 492.891 473.954 479.565V432.031C485.585 422.373 495.84 411.17 504.437 398.735C523.028 372.037 540.95 330.868 540.95 272.146C540.95 247.827 537.566 226.053 531.135 206.591C524.868 221.167 516.344 234.664 505.877 246.587ZM500.853 102.111C510.904 126.406 512.497 153.373 505.377 178.682C498.257 203.991 482.837 226.173 461.593 241.663C447.189 252.115 428.196 251.378 411.782 244.578L309.949 202.404C293.535 195.604 279.566 182.707 276.786 165.154C272.451 136.866 278.613 107.969 294.11 83.9093C309.607 59.8497 333.368 42.2891 360.917 34.5369C388.466 26.7848 417.898 29.3765 443.668 41.8237C469.438 54.2708 489.765 75.7137 500.819 102.111H500.853ZM441.897 214.597C453.926 205.839 463.405 194.034 469.357 180.397C475.31 166.76 477.521 151.783 475.765 137.007C474.008 122.231 468.346 108.191 459.361 96.3294C450.377 84.4683 438.394 75.2152 424.646 69.5222C410.899 63.8292 395.883 61.9019 381.143 63.9386C366.403 65.9753 352.472 71.9025 340.784 81.1103C329.095 90.318 320.071 102.474 314.639 116.327C309.208 130.18 307.566 145.23 309.882 159.929C310.273 161.829 311.245 163.561 312.662 164.886C314.806 167.164 318.223 169.576 322.778 171.452L424.612 213.659C428.335 215.267 432.347 216.099 436.403 216.104C438.346 216.181 440.265 215.655 441.897 214.597ZM164.099 245.08C170.762 245.08 177.152 242.433 181.864 237.722C186.576 233.01 189.222 226.62 189.222 219.957C189.222 213.294 186.576 206.903 181.864 202.192C177.152 197.48 170.762 194.833 164.099 194.833C157.436 194.833 151.046 197.48 146.334 202.192C141.623 206.903 138.976 213.294 138.976 219.957C138.976 226.62 141.623 233.01 146.334 237.722C151.046 242.433 157.436 245.08 164.099 245.08Z" stroke="#333333" stroke-width="8.87692" mask="url(#path-1-outside-1_179_1725)"/>
</svg>
