<svg width="537" height="537" viewBox="0 0 537 537" fill="none" xmlns="http://www.w3.org/2000/svg">
<path d="M181.7 59.0786C150.668 67.6308 119.848 76.9302 89.2649 86.9687C86.4723 87.8733 83.9899 89.5441 82.1005 91.7906C80.2111 94.0372 78.9906 96.7693 78.5781 99.6756C60.5277 235.118 102.233 333.939 151.985 399.038C173.05 426.876 198.167 451.4 226.5 471.793C237.773 479.743 247.743 485.478 255.595 489.159C259.505 491.017 262.698 492.255 265.142 493.004C266.211 493.379 267.312 493.652 268.433 493.819C269.54 493.639 270.63 493.366 271.691 493.004C274.167 492.255 277.36 491.017 281.27 489.159C289.09 485.478 299.092 479.711 310.366 471.793C338.698 451.399 363.815 426.875 384.88 399.038C434.633 333.972 476.338 235.118 458.287 99.6756C457.878 96.7679 456.659 94.0341 454.769 91.7869C452.879 89.5397 450.395 87.8699 447.6 86.9687C426.39 80.0288 390.582 68.7229 355.166 59.1112C319 49.3041 285.734 42.0383 268.433 42.0383C251.164 42.0383 217.866 49.3041 181.7 59.1112V59.0786ZM173.033 25.5193C208.384 15.9076 245.951 7.27344 268.433 7.27344C290.914 7.27344 328.481 15.9076 363.832 25.5193C399.998 35.2939 436.457 46.8604 457.896 53.8655C466.86 56.8256 474.807 62.2542 480.824 69.5277C486.841 76.8011 490.684 85.6244 491.912 94.9838C511.331 240.853 466.27 348.96 411.597 420.477C388.414 451.071 360.769 478.012 329.589 500.4C318.807 508.147 307.384 514.96 295.443 520.764C286.32 525.065 276.513 528.583 268.433 528.583C260.352 528.583 250.578 525.065 241.422 520.764C229.481 514.96 218.058 508.148 207.276 500.4C176.097 478.011 148.453 451.07 125.268 420.477C70.5955 348.96 25.5348 240.853 44.9536 94.9838C46.1815 85.6244 50.0247 76.8011 56.0418 69.5277C62.0588 62.2542 70.0055 56.8256 78.9691 53.8655C110.091 43.6612 141.455 34.2097 173.033 25.5193V25.5193Z" fill="#333333"/>
<path d="M317.292 219.058C317.298 229.169 314.167 239.033 308.332 247.29C302.496 255.547 294.243 261.791 284.711 265.161L297.255 329.999C297.711 332.358 297.64 334.788 297.047 337.115C296.455 339.443 295.354 341.611 293.826 343.464C292.297 345.316 290.377 346.808 288.204 347.832C286.031 348.855 283.659 349.386 281.257 349.386H255.582C253.183 349.381 250.814 348.847 248.646 347.821C246.477 346.795 244.561 345.303 243.036 343.451C241.511 341.599 240.413 339.433 239.822 337.107C239.232 334.782 239.161 332.355 239.617 329.999L252.129 265.161C243.682 262.175 236.219 256.925 230.555 249.984C224.891 243.043 221.243 234.678 220.011 225.805C218.779 216.931 220.01 207.889 223.569 199.668C227.128 191.446 232.879 184.361 240.193 179.187C247.506 174.012 256.101 170.948 265.039 170.328C273.976 169.708 282.912 171.557 290.87 175.672C298.827 179.788 305.501 186.011 310.161 193.663C314.821 201.314 317.288 210.099 317.292 219.058V219.058Z" fill="#333333"/>
</svg>
