<svg width="287" height="287" viewBox="0 0 287 287" fill="none" xmlns="http://www.w3.org/2000/svg">
<path d="M141.658 0.782981L143.515 0.671875C147.402 0.672388 151.155 2.09969 154.06 4.68305C156.965 7.26641 158.821 10.8262 159.276 14.6871L159.387 16.5442V127.65H270.493C274.381 127.651 278.133 129.078 281.038 131.661C283.944 134.245 285.8 137.805 286.254 141.666L286.366 143.523C286.365 147.41 284.938 151.163 282.354 154.068C279.771 156.973 276.211 158.829 272.35 159.284L270.493 159.395H159.387V270.501C159.387 274.389 157.959 278.141 155.376 281.046C152.793 283.951 149.233 285.807 145.372 286.262L143.515 286.373C139.627 286.373 135.875 284.946 132.97 282.362C130.064 279.779 128.208 276.219 127.754 272.358L127.642 270.501V159.395H16.5364C12.6487 159.394 8.89644 157.967 5.99125 155.384C3.08607 152.8 1.23002 149.241 0.775168 145.38L0.664062 143.523C0.664575 139.635 2.09187 135.883 4.67524 132.977C7.2586 130.072 10.8183 128.216 14.6793 127.761L16.5364 127.65H127.642V16.5442C127.643 12.6565 129.07 8.90425 131.654 5.99906C134.237 3.09388 137.797 1.23784 141.658 0.782981Z" fill="white"/>
</svg>
