<svg width="537" height="537" viewBox="0 0 537 537" fill="none" xmlns="http://www.w3.org/2000/svg">
<path d="M109.13 49.4718L109.138 49.4736L349.002 109.438L421.777 36.6717C432.302 26.1421 446.328 20.344 461.23 20.344H461.23H461.23H461.23H461.231H461.231H461.231H461.231H461.232H461.232H461.232H461.232H461.233H461.233H461.233H461.233H461.234H461.234H461.234H461.234C476.125 20.344 490.141 26.136 500.662 36.6574C522.412 58.4016 522.4 93.7845 500.648 115.538L498.057 112.948L500.648 115.538L427.021 189.166L480.534 421.048L480.535 421.052C481.622 425.786 480.199 430.743 476.767 434.176L439.923 471.019C436.656 474.295 431.964 475.742 427.449 474.923L427.448 474.922C422.903 474.096 419.052 471.099 417.14 466.889L333.432 282.749L250.74 365.445L233.828 481.569L233.828 481.571C233.388 484.576 231.992 487.354 229.848 489.499C229.847 489.499 229.847 489.499 229.847 489.499L205.903 513.448C203.23 516.128 199.631 517.577 195.941 517.577C194.827 517.577 193.698 517.448 192.577 517.171C187.796 515.995 183.973 512.404 182.501 507.701C182.501 507.701 182.501 507.701 182.5 507.7L149.938 403.716L131.349 385.132L29.7945 354.871L29.7934 354.871C25.0411 353.453 21.3822 349.637 20.1653 344.824C18.9481 340.016 20.3513 334.919 23.8591 331.412L23.8594 331.411L47.811 307.465C47.8111 307.465 47.8112 307.464 47.8113 307.464C49.9558 305.32 52.7344 303.923 55.7388 303.484L55.7411 303.484L171.867 286.571L255.206 203.233L62.8842 112.724C62.8836 112.724 62.883 112.724 62.8824 112.723C58.7268 110.77 55.7925 106.918 55.0016 102.403L55.0006 102.397C54.218 97.8849 55.6717 93.2636 58.92 90.0202L58.9226 90.0176M109.13 49.4718L108.249 53.028C104.708 52.1583 100.943 53.1811 98.3514 55.7704L61.5107 92.6109L58.9226 90.0176M109.13 49.4718L109.123 49.47C104.355 48.2989 99.2716 49.6713 95.7617 53.1787L95.7607 53.1796L58.9226 90.0176M109.13 49.4718L58.9226 90.0176M397.812 187.894L397.811 187.89C396.725 183.156 398.147 178.198 401.58 174.765L480.728 95.6177C491.496 84.8495 491.499 67.3291 480.743 56.5699C475.54 51.3671 468.622 48.5041 461.23 48.5041C453.834 48.5041 446.909 51.3709 441.695 56.5852L439.14 54.0299L441.695 56.5852L363.283 134.993C359.781 138.501 354.713 139.904 349.903 138.701C349.903 138.701 349.903 138.701 349.903 138.701L110.04 78.7362L93.0105 95.7694L285.334 186.28L285.335 186.28C289.481 188.232 292.423 192.082 293.215 196.6L293.216 196.605C294 201.12 292.543 205.742 289.294 208.985L188.482 309.797C186.337 311.941 183.558 313.338 180.554 313.777L180.551 313.778L64.4216 330.69L60.4892 334.622L142.813 359.149C145.054 359.817 147.1 361.034 148.755 362.697L172.304 386.246C173.91 387.852 175.108 389.825 175.785 391.997C175.786 391.999 175.786 392.001 175.787 392.002L202.431 477.079L206.621 472.884L223.533 356.759L223.534 356.757C223.973 353.752 225.37 350.974 227.514 348.829L327.884 248.459C327.884 248.459 327.885 248.458 327.886 248.457M397.812 187.894L327.886 248.457M397.812 187.894L451.325 419.775L434.374 436.73L350.666 252.591C348.754 248.382 344.904 245.385 340.36 244.558M397.812 187.894L340.36 244.558M327.886 248.457C331.15 245.188 335.83 243.732 340.36 244.558M327.886 248.457L340.36 244.558" fill="#333333" stroke="#333333" stroke-width="7.32765"/>
</svg>
