<svg width="532" height="576" viewBox="0 0 532 576" fill="none" xmlns="http://www.w3.org/2000/svg">
<path d="M185.159 553.007L248.87 499.412C258.44 491.209 274.3 491.209 283.87 499.412L347.582 553.007C362.348 560.39 380.395 553.007 385.864 537.147L397.895 500.78C400.903 492.029 397.895 479.178 391.333 472.615L329.262 410.27C324.613 405.895 321.058 397.145 321.058 390.856V312.925C321.058 301.441 329.535 295.972 340.199 300.347L474.459 358.316C495.514 367.34 512.741 356.129 512.741 333.16V297.886C512.741 279.565 499.069 258.51 482.115 251.401L329.262 185.501C324.887 183.586 321.058 177.844 321.058 172.922V90.8897C321.058 65.1862 302.191 34.8342 279.222 23.0762C271.019 18.9746 261.448 18.9746 253.245 23.0762C230.276 34.8342 211.409 65.4597 211.409 91.1632V173.196C211.409 178.118 207.581 183.86 203.206 185.774L50.6255 251.674C33.6721 258.51 20 279.565 20 297.886V333.16C20 356.129 37.2268 367.34 58.2818 358.316L192.542 300.347C202.932 295.698 211.682 301.441 211.682 312.925V390.856C211.682 397.145 208.128 405.895 203.753 410.27L141.681 472.615C135.119 479.178 132.111 491.756 135.119 500.78L147.15 537.147C152.072 553.007 170.119 560.663 185.159 553.007Z" stroke="#292D32" stroke-width="38.1701" stroke-linecap="round" stroke-linejoin="round"/>
</svg>
