<svg width="279" height="344" viewBox="0 0 279 344" fill="none" xmlns="http://www.w3.org/2000/svg">
<path d="M114.943 62.4326L130.567 81.006C132.959 83.7961 132.959 88.4195 130.567 91.2096L114.943 109.783C112.791 114.088 114.943 119.349 119.567 120.943L130.169 124.451C132.72 125.328 136.466 124.451 138.379 122.538L156.554 104.442C157.83 103.087 160.381 102.051 162.214 102.051H184.933C188.281 102.051 189.875 104.522 188.6 107.631L171.7 146.771C169.07 152.909 172.338 157.931 179.034 157.931H189.317C194.658 157.931 200.796 153.945 202.869 149.003L222.081 104.442C222.639 103.167 224.313 102.051 225.747 102.051H249.662C257.155 102.051 266.004 96.5505 269.431 89.8544C270.627 87.4629 270.627 84.6729 269.431 82.2815C266.004 75.5854 257.075 70.0853 249.582 70.0853H225.668C224.233 70.0853 222.559 68.9693 222.001 67.6938L202.789 23.2128C200.796 18.2704 194.658 14.2847 189.317 14.2847H179.034C172.338 14.2847 169.07 19.3067 171.7 25.4448L188.6 64.5849C189.955 67.6141 188.281 70.1648 184.933 70.1648H162.214C160.381 70.1648 157.83 69.1287 156.554 67.8533L138.379 49.7579C136.466 47.8448 132.799 46.9679 130.169 47.8448L119.567 51.3522C114.943 52.7871 112.711 58.0483 114.943 62.4326Z" stroke="#4E4E4E" stroke-width="11.1275" stroke-linecap="round" stroke-linejoin="round"/>
<path d="M163.26 281.567L147.636 262.994C145.244 260.204 145.244 255.58 147.636 252.79L163.26 234.217C165.412 229.912 163.26 224.651 158.637 223.057L148.034 219.549C145.484 218.672 141.737 219.549 139.824 221.462L121.649 239.558C120.373 240.913 117.822 241.949 115.989 241.949H93.2701C89.9221 241.949 88.3278 239.478 89.6032 236.369L106.503 197.229C109.133 191.091 105.865 186.069 99.169 186.069H88.8858C83.5449 186.069 77.4068 190.055 75.3342 194.997L56.1226 239.558C55.5646 240.833 53.8906 241.949 52.4557 241.949H28.5412C21.0479 241.949 12.1995 247.45 8.7718 254.146C7.57607 256.537 7.57607 259.327 8.7718 261.719C12.1995 268.415 21.1276 273.915 28.6209 273.915H52.5354C53.9703 273.915 55.6443 275.031 56.2023 276.306L75.4139 320.787C77.4068 325.73 83.5449 329.715 88.8858 329.715H99.169C105.865 329.715 109.133 324.693 106.503 318.555L89.6032 279.415C88.2481 276.386 89.9221 273.835 93.2701 273.835H115.989C117.822 273.835 120.373 274.871 121.649 276.147L139.824 294.242C141.737 296.155 145.404 297.032 148.034 296.155L158.637 292.648C163.26 291.213 165.492 285.952 163.26 281.567Z" stroke="#4E4E4E" stroke-width="11.1275" stroke-linecap="round" stroke-linejoin="round"/>
</svg>
