<svg width="602" height="602" viewBox="0 0 602 602" fill="none" xmlns="http://www.w3.org/2000/svg">
<path d="M172.342 429.07C126.15 396.272 89.5971 353.611 68.9423 326.672C63.1665 319.235 60.0313 310.088 60.0312 300.672C60.0312 291.256 63.1665 282.108 68.9423 274.672C106.321 225.876 196.001 125.406 300.702 125.406C347.67 125.406 391.583 145.61 429.137 172.324" stroke="#333333" stroke-width="41.8723" stroke-linecap="round" stroke-linejoin="round"/>
<path d="M250.623 468.499C266.877 473.337 283.737 475.832 300.695 475.909C405.396 475.909 495.076 375.439 532.455 326.644C538.229 319.201 541.361 310.047 541.356 300.627C541.352 291.207 538.211 282.056 532.43 274.619C519.293 257.481 505.2 241.098 490.219 225.548M354.022 247.755C347.07 240.686 338.786 235.064 329.65 231.213C320.514 227.362 310.705 225.358 300.79 225.316C290.876 225.275 281.051 227.197 271.882 230.971C262.714 234.746 254.384 240.298 247.372 247.308C240.361 254.318 234.806 262.647 231.03 271.814C227.253 280.982 225.329 290.806 225.368 300.721C225.407 310.636 227.409 320.445 231.258 329.582C235.107 338.719 240.727 347.004 247.794 353.958L354.022 247.755ZM100.406 500.945L500.984 100.367L100.406 500.945Z" stroke="#333333" stroke-width="41.8723" stroke-linecap="round" stroke-linejoin="round"/>
</svg>
