<svg width="183" height="160" viewBox="0 0 183 160" fill="none" xmlns="http://www.w3.org/2000/svg">
<path d="M11.8259 68.5464H146.673L105.401 18.9734C103.471 16.6515 102.542 13.658 102.819 10.6515C103.096 7.645 104.557 4.87174 106.879 2.94183C109.201 1.01191 112.194 0.0834158 115.201 0.360612C118.207 0.637808 120.98 2.09799 122.91 4.41992L179.76 72.6396C180.142 73.1822 180.484 73.7523 180.783 74.3451C180.783 74.9136 180.783 75.2547 181.579 75.8232C182.094 77.1268 182.364 78.5146 182.375 79.9164C182.364 81.3181 182.094 82.7059 181.579 84.0095C181.579 84.578 181.579 84.9191 180.783 85.4876C180.484 86.0805 180.142 86.6505 179.76 87.1931L122.91 155.413C121.841 156.696 120.502 157.728 118.989 158.436C117.476 159.143 115.826 159.509 114.155 159.506C111.499 159.511 108.924 158.586 106.879 156.891C105.727 155.936 104.776 154.764 104.078 153.441C103.38 152.118 102.951 150.671 102.813 149.182C102.676 147.693 102.834 146.191 103.278 144.763C103.722 143.335 104.443 142.008 105.401 140.859L146.673 91.2863H11.8259C8.81041 91.2863 5.91841 90.0884 3.78613 87.9561C1.65385 85.8238 0.455963 82.9318 0.455963 79.9164C0.455963 76.9009 1.65385 74.0089 3.78613 71.8766C5.91841 69.7443 8.81041 68.5464 11.8259 68.5464Z" fill="white"/>
</svg>
