<svg width="166" height="205" viewBox="0 0 166 205" fill="none" xmlns="http://www.w3.org/2000/svg">
<path d="M0.818985 116.698C1.25101 114.283 2.76901 110.481 4.11508 108.442C8.58055 101.678 16.4342 97.3729 25.1598 96.9048C27.7289 96.7669 32.0574 97.1107 32.7821 97.5101C32.9578 97.6069 33.447 97.7198 33.8693 97.761C35.098 97.881 39.2166 99.5497 41.327 100.783C43.5269 102.068 45.4344 103.673 47.4876 105.965C48.2624 106.83 49.1345 107.77 49.4256 108.054C49.7167 108.339 51.3842 110.13 53.1311 112.036L56.3074 115.501L56.4642 67.8537C56.6087 23.993 56.6605 20.0729 57.1168 18.5269C57.7836 16.2674 59.3728 12.5842 59.6809 12.5842C59.8175 12.5842 59.9292 12.4376 59.9292 12.2585C59.9292 11.7427 62.3158 8.71287 63.9191 7.19312C64.8645 6.29711 65.5092 5.8772 65.7425 6.00581C65.9569 6.12395 66.03 6.0988 65.9226 5.94428C65.6627 5.56922 67.0525 4.47811 67.4859 4.71694C67.7035 4.83689 67.7676 4.80614 67.6509 4.63769C67.242 4.04766 72.341 1.72141 76.0241 0.817779C82.8774 -0.863633 90.0431 0.0623568 96.4804 3.46108C99.3724 4.98807 103.935 8.90262 104.521 10.3592C104.584 10.5174 104.927 10.9586 105.282 11.3398C106.132 12.2515 107.625 15.479 108.412 18.1054L109.041 20.2067V68.071C109.041 99.8183 109.138 115.93 109.331 115.92C109.49 115.912 110.965 114.424 112.607 112.613C114.25 110.803 116.01 108.9 116.519 108.386C117.027 107.872 117.826 106.978 118.293 106.4C119.196 105.283 123.014 101.942 124.375 101.079C126.402 99.7931 130.99 97.8886 132.378 97.7572C132.783 97.7191 133.258 97.608 133.435 97.5109C134.16 97.1111 138.487 96.7672 141.058 96.9051C147.445 97.2478 153.216 99.4967 157.701 103.391C163.109 108.086 165.952 114.451 165.614 121.103C165.376 125.78 163.608 130.373 160.687 133.903C158.753 136.242 149.445 146.266 148.991 146.501C148.771 146.615 148.591 146.832 148.591 146.984C148.591 147.373 146.791 149.152 146.484 149.066C146.344 149.027 146.298 149.092 146.38 149.211C146.513 149.403 145.546 150.54 142.052 154.304C138.21 158.442 136.925 159.721 136.671 159.659C136.51 159.62 136.462 159.708 136.563 159.854C136.788 160.178 132.075 165.316 131.728 165.124C131.593 165.05 131.518 165.105 131.561 165.247C131.648 165.527 128.593 169.161 128.271 169.161C128.164 169.161 127.818 169.539 127.501 170.001C127.185 170.463 125.445 172.426 123.634 174.363C121.823 176.301 119.375 178.942 118.195 180.232C117.015 181.522 115.948 182.521 115.825 182.453C115.701 182.385 115.506 182.466 115.391 182.632C115.26 182.821 115.307 182.866 115.515 182.75C116.141 182.406 115.853 182.885 114.705 184.099C113.681 185.182 110.083 189.064 107.635 191.728C107.133 192.274 106.364 193.068 105.926 193.492C105.488 193.916 105.129 194.358 105.129 194.474C105.129 194.591 104.755 195.043 104.298 195.479C103.841 195.915 103.519 196.318 103.582 196.375C103.645 196.431 102.545 197.452 101.138 198.644C99.1807 200.302 97.9018 201.125 95.6972 202.144C92.1511 203.784 89.8459 204.427 86.0444 204.838C81.071 205.375 75.8643 204.566 71.3741 202.558C68.7165 201.37 65.9782 199.651 66.2096 199.317C66.3105 199.172 66.265 199.123 66.1084 199.21C65.9518 199.296 65.0557 198.674 64.1169 197.829C63.1782 196.983 62.491 196.29 62.5897 196.29C62.6885 196.29 62.3911 195.929 61.9287 195.488C61.4664 195.047 61.0881 194.536 61.0881 194.353C61.0881 194.17 60.8985 193.955 60.6667 193.876C60.4349 193.797 59.946 193.331 59.5802 192.842C58.9895 192.051 55.9114 188.712 51.7458 184.342C50.9677 183.526 50.4142 182.738 50.5157 182.592C50.6173 182.445 50.5682 182.357 50.4066 182.396C50.245 182.435 49.29 181.582 48.2844 180.501C43.9565 175.845 42.1145 173.739 42.1823 173.525C42.2221 173.398 42.1402 173.324 42.0004 173.36C41.8605 173.395 41.018 172.61 40.1283 171.615C39.2386 170.621 38.2774 169.578 37.9923 169.298C36.356 167.692 34.4904 165.409 34.6387 165.195C34.7334 165.059 34.6752 165.022 34.5092 165.113C34.0998 165.339 33.4591 164.61 33.7271 164.223C33.8563 164.037 33.819 163.981 33.6336 164.083C33.2601 164.289 31.7505 162.758 31.9884 162.415C32.081 162.281 31.9843 162.204 31.773 162.243C31.562 162.282 31.4219 162.169 31.4617 161.991C31.5016 161.813 31.4248 161.697 31.2911 161.733C30.9083 161.834 29.4431 160.159 29.6516 159.858C29.7545 159.71 29.7092 159.62 29.5508 159.659C29.2061 159.744 28.3277 158.843 21.5519 151.452C18.6912 148.331 15.0131 144.335 13.3784 142.571C11.7437 140.807 10.4863 139.249 10.5842 139.108C10.682 138.966 10.6263 138.926 10.4604 139.017C10.2944 139.109 9.99757 139.01 9.80064 138.799C9.60371 138.587 9.55634 138.411 9.69536 138.406C9.8344 138.399 9.72353 138.282 9.44908 138.139C8.82216 137.813 5.54819 134.079 4.3147 132.283C3.80348 131.539 3.48148 130.796 3.59755 130.628C3.72134 130.45 3.68367 130.393 3.50612 130.491C3.14204 130.692 2.1606 128.618 1.36919 125.976C0.715881 123.795 0.425476 118.898 0.818985 116.698V116.698Z" fill="#24BC7C"/>
</svg>
