<svg width="73" height="45" viewBox="0 0 73 45" fill="none" xmlns="http://www.w3.org/2000/svg">
<path d="M2.86853 40.472L2.8683 40.4718C1.7341 39.2782 1.12038 37.683 1.16212 36.037C1.20385 34.391 1.89761 32.829 3.09083 31.6945L3.09095 31.6943L32.6269 3.61908L32.627 3.61896C33.8206 2.48477 35.4157 1.87105 37.0617 1.91279C38.7077 1.95452 40.2697 2.64828 41.4043 3.8415L41.4044 3.84163L69.4797 33.3775L69.4864 33.3846L69.4929 33.3917C70.594 34.5911 71.1799 36.175 71.1245 37.8022C71.0691 39.4294 70.3768 40.9697 69.1967 42.0915C68.0166 43.2132 66.4431 43.8266 64.8152 43.7994C63.1873 43.7723 61.6351 43.1069 60.4931 41.9465L60.4863 41.9396L60.4796 41.9325L36.6818 16.8967L11.6459 40.6944L11.6458 40.6945C10.4523 41.8287 8.85708 42.4425 7.2111 42.4007C5.56511 42.359 4.00309 41.6652 2.86853 40.472Z" fill="#010C80" stroke="#010C80" stroke-width="2.23151"/>
</svg>
