<svg width="74" height="123" viewBox="0 0 74 123" fill="none" xmlns="http://www.w3.org/2000/svg">
<path d="M5.08806 117.99L5.08846 117.99C7.06096 119.962 9.73587 121.07 12.525 121.07C15.3141 121.07 17.989 119.962 19.9615 117.99L19.9617 117.99L68.7725 69.1791L68.7727 69.1789C70.7446 67.2064 71.8523 64.5315 71.8523 61.7424C71.8523 58.9532 70.7446 56.2783 68.7727 54.3058L68.7725 54.3056L19.9617 5.49484L19.9501 5.48323L19.9383 5.47182C17.9545 3.5558 15.2975 2.49561 12.5396 2.51958C9.78172 2.54354 7.14357 3.64973 5.19337 5.59993C3.24317 7.55013 2.13696 10.1883 2.11299 12.9462C2.08902 15.7041 3.14923 18.3611 5.06524 20.3449L5.07665 20.3567L5.08826 20.3683L46.4623 61.7424L5.08826 103.116L5.08806 103.117C3.11616 105.089 2.00841 107.764 2.00841 110.553C2.00841 113.342 3.11616 116.017 5.08806 117.99Z" fill="#010C80" stroke="#010C80" stroke-width="3.78005"/>
</svg>
