<svg width="166" height="205" viewBox="0 0 166 205" fill="none" xmlns="http://www.w3.org/2000/svg">
<path d="M165.462 88.302C165.03 90.717 163.512 94.5192 162.166 96.558C157.701 103.322 149.847 107.627 141.121 108.095C138.552 108.233 134.224 107.889 133.499 107.49C133.323 107.393 132.834 107.28 132.412 107.239C131.183 107.119 127.065 105.45 124.954 104.217C122.754 102.932 120.847 101.327 118.794 99.035C118.019 98.17 117.147 97.2298 116.856 96.9456C116.565 96.6613 114.897 94.8696 113.15 92.9639L109.974 89.499L109.817 137.146C109.673 181.007 109.621 184.927 109.164 186.473C108.498 188.733 106.908 192.416 106.6 192.416C106.464 192.416 106.352 192.562 106.352 192.742C106.352 193.257 103.965 196.287 102.362 197.807C101.417 198.703 100.772 199.123 100.539 198.994C100.324 198.876 100.251 198.901 100.359 199.056C100.619 199.431 99.2288 200.522 98.7954 200.283C98.5777 200.163 98.5136 200.194 98.6303 200.362C99.0393 200.952 93.9403 203.279 90.2572 204.182C83.4039 205.864 76.2382 204.938 69.8009 201.539C66.9088 200.012 62.3462 196.097 61.7607 194.641C61.6971 194.483 61.3544 194.041 60.9991 193.66C60.1492 192.748 58.6564 189.521 57.8697 186.895L57.2403 184.793V136.929C57.2403 105.182 57.1428 89.0698 56.9506 89.0797C56.7912 89.0877 55.3167 90.5763 53.6739 92.3868C52.0312 94.1974 50.271 96.0995 49.7624 96.6138C49.2538 97.1281 48.4555 98.0218 47.9884 98.5998C47.0853 99.7174 43.2671 103.058 41.9062 103.921C39.8797 105.207 35.2909 107.111 33.9036 107.243C33.4984 107.281 33.0228 107.392 32.8466 107.489C32.1213 107.889 27.794 108.233 25.2235 108.095C18.8361 107.752 13.0654 105.503 8.57991 101.609C3.17263 96.9136 0.329516 90.5494 0.667678 83.8971C0.905443 79.2198 2.67312 74.6266 5.5938 71.0966C7.52841 68.7585 16.8359 58.7339 17.2906 58.4989C17.5103 58.3852 17.6901 58.168 17.6901 58.0162C17.6901 57.6269 19.4902 55.8484 19.7973 55.9344C19.9369 55.9732 19.9835 55.908 19.9009 55.7885C19.7683 55.5972 20.7352 54.4597 24.2295 50.6958C28.0714 46.5576 29.3563 45.2789 29.6107 45.3409C29.7712 45.3797 29.8195 45.2918 29.7182 45.1459C29.4933 44.8215 34.2058 39.6844 34.5528 39.8756C34.6885 39.9503 34.7636 39.8955 34.7198 39.7531C34.6337 39.4735 37.6887 35.8392 38.0099 35.8392C38.1171 35.8392 38.4636 35.4612 38.7798 34.9994C39.0961 34.5375 40.8366 32.5743 42.6476 30.6366C44.4585 28.6989 46.9059 26.0583 48.0862 24.7683C49.2665 23.4783 50.3332 22.4786 50.4566 22.5466C50.58 22.6147 50.7754 22.5341 50.8907 22.3678C51.0216 22.1788 50.9747 22.1345 50.7658 22.2496C50.1404 22.5943 50.4286 22.1148 51.576 20.9012C52.6005 19.8177 56.1978 15.9358 58.646 13.272C59.1478 12.7262 59.9168 11.9324 60.3551 11.5082C60.7933 11.0839 61.1519 10.6418 61.1519 10.5257C61.1519 10.4095 61.5259 9.95746 61.983 9.52109C62.4401 9.08472 62.7625 8.68164 62.6995 8.62546C62.6364 8.56906 63.7362 7.54785 65.1434 6.35564C67.1006 4.69756 68.3795 3.87476 70.584 2.85559C74.1301 1.21619 76.4354 0.572922 80.2369 0.162109C85.2103 -0.375412 90.417 0.43367 94.9072 2.44179C97.5647 3.63036 100.303 5.34866 100.072 5.68257C99.9707 5.82816 100.016 5.87663 100.173 5.79036C100.329 5.70409 101.226 6.32556 102.164 7.17151C103.103 8.01744 103.79 8.70956 103.692 8.70956C103.593 8.70956 103.89 9.07069 104.353 9.51205C104.815 9.95337 105.193 10.4641 105.193 10.6471C105.193 10.83 105.383 11.0446 105.615 11.1239C105.846 11.2032 106.335 11.6687 106.701 12.1584C107.292 12.949 110.37 16.2885 114.535 20.6579C115.314 21.474 115.867 22.2617 115.766 22.4083C115.664 22.5548 115.713 22.6428 115.875 22.6037C116.036 22.5649 116.991 23.4178 117.997 24.4995C122.325 29.1548 124.167 31.2606 124.099 31.4755C124.059 31.6018 124.141 31.676 124.281 31.6404C124.421 31.6053 125.263 32.3898 126.153 33.3846C127.043 34.3793 128.004 35.4222 128.289 35.7021C129.925 37.3084 131.791 39.5906 131.643 39.8046C131.548 39.9413 131.606 39.9782 131.772 39.8867C132.181 39.6611 132.822 40.3903 132.554 40.7769C132.425 40.9633 132.462 41.0189 132.648 40.9167C133.021 40.7109 134.531 42.2419 134.293 42.5852C134.2 42.7188 134.297 42.7961 134.508 42.7571C134.719 42.7183 134.859 42.8314 134.82 43.009C134.78 43.1867 134.856 43.3029 134.99 43.2674C135.373 43.1658 136.838 44.841 136.63 45.1418C136.527 45.2904 136.572 45.3799 136.73 45.3409C137.075 45.2559 137.954 46.1572 144.729 53.5484C147.59 56.669 151.268 60.6652 152.903 62.4289C154.538 64.1926 155.795 65.7512 155.697 65.8924C155.599 66.0336 155.655 66.0742 155.821 65.9828C155.987 65.8913 156.284 65.9902 156.481 66.2012C156.678 66.4128 156.725 66.5895 156.586 66.5938C156.447 66.6012 156.558 66.7184 156.832 66.861C157.459 67.1869 160.733 70.9208 161.967 72.7168C162.478 73.4611 162.8 74.2041 162.684 74.3716C162.56 74.5502 162.598 74.6068 162.775 74.5089C163.139 74.3083 164.121 76.382 164.912 79.024C165.565 81.2051 165.856 86.1019 165.462 88.3016V88.302Z" fill="#DC4F4F"/>
</svg>
