<svg width="502" height="395" viewBox="0 0 502 395" fill="none" xmlns="http://www.w3.org/2000/svg">
<path d="M217.614 385.457C223.144 379.908 226.25 372.383 226.25 364.537C226.25 356.69 223.144 349.165 217.614 343.616L71.6105 197.143L217.614 50.6692C222.987 45.0883 225.96 37.6136 225.893 29.8551C225.826 22.0965 222.724 14.6748 217.255 9.18848C211.786 3.70215 204.388 0.590149 196.654 0.522736C188.921 0.455322 181.47 3.4379 175.907 8.82806L9.05014 176.222C3.52057 181.771 0.414215 189.296 0.414215 197.143C0.414215 204.989 3.52057 212.514 9.05014 218.063L175.907 385.457C181.438 391.005 188.939 394.121 196.761 394.121C204.582 394.121 212.083 391.005 217.614 385.457Z" fill="#333333"/>
<path d="M217.614 385.457C223.144 379.908 226.25 372.383 226.25 364.537C226.25 356.69 223.144 349.165 217.614 343.616L71.6105 197.143L217.614 50.6692C222.987 45.0883 225.96 37.6136 225.893 29.8551C225.826 22.0965 222.724 14.6748 217.255 9.18848C211.786 3.70215 204.388 0.590149 196.654 0.522736C188.921 0.455322 181.47 3.4379 175.907 8.82806L9.05014 176.222C3.52057 181.771 0.414215 189.296 0.414215 197.143C0.414215 204.989 3.52057 212.514 9.05014 218.063L175.907 385.457C181.438 391.005 188.939 394.121 196.761 394.121C204.582 394.121 212.083 391.005 217.614 385.457Z" stroke="#333333"/>
<path d="M45.5859 194.102H474.674" stroke="#333333" stroke-width="54.434" stroke-linecap="round"/>
</svg>
