<svg width="536" height="536" viewBox="0 0 536 536" fill="none" xmlns="http://www.w3.org/2000/svg">
<path fill-rule="evenodd" clip-rule="evenodd" d="M61.6508 485.361C92.7785 517.702 134.417 521.34 150.991 521.34H385.46C401.63 521.34 443.673 517.702 474.801 485.361C500.673 458.68 513.205 418.659 511.184 366.914C507.141 260.595 413.354 189.446 373.332 163.573L366.864 159.531L371.715 153.871C388.694 135.275 400.013 113.445 402.843 94.4453C405.269 79.0836 402.035 64.9346 393.141 53.6155C382.226 39.4665 369.29 36.6367 360.396 36.6367C350.694 36.6367 340.183 39.8707 329.673 46.7431L324.822 49.9771L321.183 45.1261C311.481 32.1899 294.502 16.8281 268.226 16.8281H267.417C241.545 17.2324 224.566 32.5941 215.268 45.1261L211.63 49.9771L207.183 46.7431C196.672 40.275 186.162 36.6367 176.46 36.6367C167.566 36.6367 154.63 39.4665 143.715 53.6155C134.821 64.5304 131.183 78.6793 133.608 94.4453C137.651 120.318 154.63 142.552 164.736 153.871L169.587 159.531L163.119 163.573C123.098 189.041 29.3102 260.595 25.2677 366.914C23.6507 418.659 35.7783 458.276 61.6508 485.361ZM49.5231 367.723C53.9699 253.722 179.694 181.36 194.247 173.275L196.672 172.063L199.502 172.871C199.84 172.955 200.16 173.04 200.466 173.121C201.625 173.426 202.585 173.68 203.545 173.68H333.715C334.928 173.68 336.141 173.275 337.354 172.871L340.183 172.063L342.609 173.68C356.758 181.36 482.886 253.722 486.928 368.127C488.546 412.999 478.439 446.957 457.418 468.787C432.758 494.255 398.801 497.085 385.46 497.085H150.991C137.651 497.085 103.693 494.255 79.0338 468.787C58.0125 446.957 47.906 412.999 49.5231 367.723ZM162.311 68.1687C167.97 61.2963 172.821 60.4878 176.055 60.4878C187.779 60.4878 201.928 72.6155 206.375 77.4666C208.8 80.2964 212.034 81.5091 215.268 81.5091C215.672 81.5091 216.077 81.4081 216.481 81.307C216.885 81.206 217.289 81.1049 217.694 81.1049C221.736 80.2964 224.97 77.4666 226.587 73.424C226.992 72.2113 238.715 41.4878 267.417 41.0835H268.226C295.715 41.0835 308.247 69.7857 309.46 73.424C310.673 77.4666 314.311 80.2964 318.354 81.1049C319.162 81.5091 319.971 81.5091 320.779 81.5091C324.013 81.5091 327.247 79.8921 329.673 77.4666C334.12 72.6155 348.269 60.4878 359.992 60.4878C363.63 60.4878 368.481 61.2963 373.737 68.1687C378.184 74.2325 379.801 81.5091 378.588 90.807C375.354 114.254 354.332 138.914 341.8 149.02L339.375 151.041L335.332 149.828C334.859 149.828 334.385 149.69 333.993 149.575C333.715 149.494 333.478 149.424 333.311 149.424H203.141C202.641 149.424 202.141 149.579 201.451 149.792C201.024 149.924 200.524 150.078 199.906 150.233L196.672 151.041L194.247 149.02C181.715 138.914 160.694 114.254 157.46 90.807C155.842 81.5091 157.46 74.2325 162.311 68.1687ZM278.656 309.499C277.607 304.254 276.296 300.059 274.722 296.912H351.031V279.605H180.582V296.912H244.566C253.657 302.506 258.202 310.898 258.202 322.086C258.202 330.128 255.667 336.771 250.597 342.015C245.528 347.085 238.972 349.62 230.93 349.62C226.385 349.62 221.927 348.134 217.557 345.162L203.659 333.1L187.4 349.095L263.971 410.981H298.848L246.664 368.763C264.845 362.819 275.771 350.844 279.443 332.837C282.764 330.04 287.222 328.642 292.816 328.642C298.41 328.642 303.043 330.827 306.714 335.197C310.386 339.393 312.221 344.375 312.221 350.144C312.221 355.739 310.473 360.808 306.977 365.354C303.48 369.724 298.935 371.909 293.341 371.909C290.194 371.909 285.561 370.249 279.443 366.927V391.314C285.037 393.062 289.757 393.937 293.603 393.937C305.141 393.937 314.669 389.304 322.186 380.038C329.353 371.472 332.937 361.333 332.937 349.62C332.937 337.907 329.091 327.855 321.399 319.464C313.882 310.898 304.354 306.614 292.816 306.614C287.746 306.614 283.026 307.576 278.656 309.499Z" fill="#333333"/>
</svg>
