<svg width="545" height="537" viewBox="0 0 545 537" fill="none" xmlns="http://www.w3.org/2000/svg">
<path fill-rule="evenodd" clip-rule="evenodd" d="M265.856 51.8274C265.216 51.9288 264.896 52.0351 264.853 52.0494L264.85 52.0502L264.848 52.051L56.7622 135.285C55.8096 135.666 54.1961 136.818 52.7668 138.938C51.3332 141.065 50.877 142.991 50.877 143.965V220.727C50.877 225.817 55.0986 230.038 60.1881 230.038H82.6258C82.8547 230.027 83.085 230.021 83.3167 230.021C83.5484 230.021 83.7788 230.027 84.0076 230.038H175.094C175.323 230.027 175.553 230.021 175.785 230.021C176.016 230.021 176.247 230.027 176.476 230.038H267.577C267.806 230.027 268.036 230.021 268.268 230.021C268.5 230.021 268.73 230.027 268.959 230.038H476.363C481.453 230.038 485.674 225.817 485.674 220.727V143.965C485.674 142.991 485.218 141.065 483.785 138.938C482.355 136.818 480.742 135.666 479.789 135.285L271.702 52.0503L276.826 39.2401L271.702 52.0502C271.705 52.0516 271.704 52.0513 271.699 52.0494C271.656 52.0352 271.336 51.9288 270.696 51.8274C270.012 51.7191 269.177 51.6507 268.276 51.6507C267.374 51.6507 266.54 51.7191 265.856 51.8274ZM282.078 257.658H347.415V315.254C347.415 315.43 347.418 315.606 347.425 315.781C330.262 335.503 319.87 361.272 319.87 389.469C319.87 390.274 319.878 391.078 319.895 391.879H282.078V257.658ZM432.17 277.169C411.307 277.169 391.773 282.858 375.034 292.77V257.658H440.666V277.486C437.861 277.276 435.028 277.169 432.17 277.169ZM468.285 257.658V283.103C512.589 298.141 544.47 340.082 544.47 389.469C544.47 428.88 524.168 463.549 493.452 483.59L500.265 484.362H522.601C530.228 484.362 536.411 490.545 536.411 498.172C536.411 505.799 530.228 511.982 522.601 511.982L499.484 511.982H37.0673L13.9425 511.982C6.31564 511.982 0.132812 505.799 0.132812 498.172C0.132812 490.545 6.31564 484.362 13.9425 484.362H23.2575V428.809C23.2575 408.466 39.8447 391.879 60.1881 391.879H69.507V257.658H60.1881C39.8447 257.658 23.2575 241.07 23.2575 220.727V143.965C23.2575 136.385 26.0382 129.177 29.8646 123.501C33.6954 117.818 39.3649 112.496 46.5046 109.641L51.6334 122.463L46.5046 109.641L254.592 26.4062C259.063 24.618 264.072 24.0312 268.276 24.0312C272.479 24.0312 277.489 24.618 281.959 26.4062L490.047 109.641L484.918 122.463L490.047 109.641C497.187 112.496 502.856 117.818 506.687 123.501C510.513 129.177 513.294 136.385 513.294 143.965V220.727C513.294 241.07 496.707 257.658 476.363 257.658H468.285ZM372.088 484.362C348.878 469.636 331.44 446.63 323.93 419.498H60.1881C55.0986 419.498 50.877 423.72 50.877 428.809V484.362H372.088ZM432.17 473.953C421.745 473.953 411.762 472.065 402.543 468.612C373.834 450.754 363.271 436.162 358.558 426.441C356.205 421.589 355.109 417.638 353.957 413.481C353.735 412.68 353.51 411.872 353.275 411.048C353.242 410.933 353.208 410.813 353.172 410.688C352.473 408.226 351.247 403.909 348.326 399.923C347.904 396.498 347.686 393.009 347.686 389.469C347.686 342.81 385.511 304.985 432.17 304.985C478.829 304.985 516.653 342.81 516.653 389.469C516.653 436.128 478.829 473.953 432.17 473.953ZM254.458 257.658H189.594V391.879H254.458V257.658ZM97.1265 257.658H161.975V391.879H97.1265V257.658ZM268.27 102.874C241.49 102.874 219.779 124.584 219.779 151.365C219.779 178.146 241.49 199.856 268.27 199.856C295.05 199.856 316.761 178.146 316.761 151.365C316.761 124.584 295.05 102.874 268.27 102.874ZM247.398 151.365C247.398 139.838 256.743 130.493 268.27 130.493C279.797 130.493 289.141 139.838 289.141 151.365C289.141 162.892 279.797 172.237 268.27 172.237C256.743 172.237 247.398 162.892 247.398 151.365ZM421.797 341.605C426.117 337.337 426.159 330.374 421.891 326.054C417.623 321.733 410.661 321.691 406.34 325.959L384.214 347.818C383.623 348.403 383.111 349.038 382.68 349.71C381.591 351.404 380.953 353.418 380.94 355.582C380.921 358.785 382.273 361.676 384.445 363.699L405.979 385.495C410.247 389.816 417.21 389.858 421.53 385.59C425.85 381.322 425.893 374.359 421.624 370.039L418.431 366.806L468.844 367.112C474.917 367.149 479.87 362.256 479.906 356.183C479.943 350.11 475.05 345.156 468.977 345.12L418.549 344.814L421.797 341.605ZM476.344 414.357C480.612 418.678 480.57 425.64 476.249 429.908L454.123 451.767C449.803 456.036 442.84 455.993 438.572 451.673C434.304 447.353 434.346 440.39 438.667 436.122L441.899 432.929L391.469 432.622C385.396 432.586 380.503 427.633 380.54 421.56C380.577 415.486 385.53 410.593 391.603 410.63L442.048 410.936L438.839 407.688C434.571 403.368 434.613 396.405 438.934 392.137C443.254 387.869 450.216 387.911 454.485 392.231L476.344 414.357Z" fill="#333333"/>
</svg>
