<svg width="537" height="537" viewBox="0 0 537 537" fill="none" xmlns="http://www.w3.org/2000/svg">
<path d="M268.823 164.374C277.908 164.374 286.62 160.684 293.044 154.116C299.468 147.547 303.076 138.639 303.076 129.35C303.076 120.061 299.468 111.152 293.044 104.584C286.62 98.0156 277.908 94.3255 268.823 94.3255C259.739 94.3255 251.026 98.0156 244.602 104.584C238.179 111.152 234.57 120.061 234.57 129.35C234.57 138.639 238.179 147.547 244.602 154.116C251.026 160.684 259.739 164.374 268.823 164.374ZM289.147 7.81562C283.259 3.37826 276.137 0.984375 268.823 0.984375C261.509 0.984375 254.387 3.37826 248.5 7.81562L31.5622 171.379C4.98164 191.436 18.8428 234.586 51.8858 234.586H63.3035V403.683C49.775 409.447 38.2184 419.177 30.0906 431.647C21.9629 444.118 17.628 458.769 17.6325 473.755V508.779C17.6325 518.446 25.3052 526.291 34.7591 526.291H502.887C507.429 526.291 511.786 524.446 514.997 521.162C518.209 517.878 520.014 513.424 520.014 508.779V473.755C520.014 458.773 515.677 444.127 507.549 431.661C499.422 419.195 487.868 409.469 474.343 403.706V234.586H485.738C518.803 234.586 532.665 191.436 506.061 171.379L289.147 7.81562ZM97.5568 397.869V234.586H154.646V397.869H97.5568ZM440.089 234.586V397.869H383.001V234.586H440.089ZM348.747 234.586V397.869H285.95V234.586H348.747ZM251.696 234.586V397.869H188.899V234.586H251.696ZM51.8858 199.562L268.823 35.9985L485.738 199.562H51.8858ZM51.8858 473.755C51.8858 451.199 69.7888 432.893 91.8479 432.893H445.798C467.857 432.893 485.76 451.199 485.76 473.755V491.267H51.8858V473.755Z" fill="#333333"/>
</svg>
