<svg width="399" height="455" viewBox="0 0 399 455" fill="none" xmlns="http://www.w3.org/2000/svg">
<path d="M123.341 45.2079C96.2614 52.671 69.3658 60.7862 42.6776 69.5463C40.2406 70.3357 38.0743 71.7937 36.4255 73.7542C34.7767 75.7146 33.7116 78.0988 33.3517 80.635C17.6 198.83 53.9938 285.066 97.4104 341.874C115.793 366.167 137.711 387.568 162.436 405.364C172.274 412.302 180.974 417.306 187.826 420.519C191.238 422.14 194.025 423.22 196.157 423.874C197.09 424.201 198.051 424.439 199.029 424.585C199.995 424.428 200.946 424.19 201.872 423.874C204.033 423.22 206.819 422.14 210.231 420.519C217.055 417.306 225.784 412.274 235.622 405.364C260.346 387.568 282.265 366.167 300.647 341.874C344.064 285.094 380.458 198.83 364.706 80.635C364.349 78.0976 363.285 75.7119 361.636 73.7509C359.987 71.7899 357.819 70.3327 355.38 69.5463C336.87 63.4901 305.623 53.624 274.716 45.2364C243.156 36.6781 214.126 30.3376 199.029 30.3376C183.959 30.3376 154.901 36.6781 123.341 45.2364V45.2079ZM115.778 15.9223C146.627 7.53466 179.41 0 199.029 0C218.647 0 251.43 7.53466 282.28 15.9223C313.84 24.4521 345.656 34.5457 364.365 40.6587C372.187 43.2418 379.121 47.9791 384.372 54.3263C389.623 60.6735 392.977 68.3731 394.048 76.5407C410.994 203.834 371.672 298.173 323.962 360.583C303.73 387.281 279.607 410.791 252.397 430.328C242.988 437.089 233.02 443.034 222.599 448.099C214.638 451.852 206.08 454.923 199.029 454.923C191.977 454.923 183.448 451.852 175.458 448.099C165.038 443.034 155.069 437.089 145.661 430.328C118.451 410.79 94.3278 387.28 74.0956 360.583C26.3857 298.173 -12.9367 203.834 4.00916 76.5407C5.08071 68.3731 8.4345 60.6735 13.6853 54.3263C18.936 47.9791 25.8708 43.2418 33.6928 40.6587C60.8515 31.7539 88.2212 23.506 115.778 15.9223Z" fill="#4E4E4E"/>
<path d="M241.673 184.81C241.678 193.634 238.945 202.241 233.853 209.447C228.761 216.652 221.559 222.101 213.24 225.042L224.187 281.623C224.585 283.681 224.523 285.802 224.006 287.833C223.489 289.864 222.529 291.756 221.194 293.373C219.86 294.99 218.185 296.291 216.289 297.185C214.393 298.078 212.323 298.541 210.226 298.541H187.822C185.728 298.537 183.661 298.071 181.768 297.176C179.875 296.28 178.204 294.978 176.873 293.362C175.542 291.746 174.584 289.856 174.069 287.826C173.553 285.797 173.492 283.679 173.89 281.623L184.808 225.042C177.437 222.436 170.924 217.855 165.981 211.797C161.038 205.74 157.855 198.441 156.78 190.697C155.705 182.954 156.779 175.064 159.885 167.889C162.991 160.714 168.009 154.532 174.391 150.016C180.774 145.501 188.274 142.827 196.073 142.286C203.873 141.745 211.671 143.358 218.615 146.949C225.559 150.541 231.383 155.972 235.449 162.649C239.516 169.326 241.669 176.992 241.673 184.81Z" fill="#4E4E4E"/>
</svg>
