<svg width="568" height="568" viewBox="0 0 568 568" fill="none" xmlns="http://www.w3.org/2000/svg">
<g clip-path="url(#clip0_27_2675)">
<path d="M434.621 126.879C430.26 119.276 420.644 116.704 413.041 120.953C408.344 123.636 403.536 126.096 398.728 128.445L380.054 35.9712C373.345 4.88589 339.576 -8.75588 313.97 5.89225C295.52 16.5149 272.485 16.5149 254.036 5.89225C224.963 -9.76224 193.318 7.90497 187.839 36.0831L169.166 128.556C164.358 126.208 159.549 123.748 154.853 121.065C147.249 116.704 137.633 119.387 133.272 126.991C128.911 134.595 131.595 144.211 139.199 148.572C150.604 155.057 162.457 160.76 174.533 165.68C176.546 252.898 223.733 320.436 283.891 320.436C344.049 320.436 391.348 252.898 393.249 165.68C405.325 160.872 417.178 155.169 428.583 148.572C436.299 144.099 438.982 134.483 434.621 126.879ZM284.003 288.678C245.09 288.678 211.768 238.584 206.737 176.19C258.285 190.055 309.833 190.055 361.381 176.19C356.237 238.696 322.915 288.678 284.003 288.678ZM198.909 140.856L218.813 42.3449C220.378 34.1822 229.659 29.0385 238.381 33.5113C266.559 49.613 301.558 49.613 329.736 33.5113C339.353 28.4795 347.963 35.3003 349.304 42.3449L369.208 140.856C314.082 159.754 253.924 159.754 198.909 140.856Z" fill="#333333"/>
<path d="M255.708 195.648H242.626C233.904 195.648 226.859 202.693 226.859 211.415C226.859 220.137 233.904 227.181 242.626 227.181H255.597C264.318 227.181 271.363 220.137 271.363 211.415C271.363 202.693 264.318 195.648 255.708 195.648Z" fill="#333333"/>
<path d="M325.268 195.648H312.298C303.576 195.648 296.531 202.693 296.531 211.415C296.531 220.137 303.576 227.181 312.298 227.181H325.268C333.99 227.181 341.035 220.137 341.035 211.415C341.035 202.693 333.99 195.648 325.268 195.648Z" fill="#333333"/>
<path d="M448.72 361.363C417.97 350.74 386.102 343.136 354.122 338.664C347.413 337.769 341.04 341.123 337.909 347.05L284.013 451.6L230.116 346.938C227.097 341.012 220.5 337.545 213.903 338.552C181.699 343.024 149.831 350.74 119.305 361.251C87.9959 372.097 67.0859 401.952 67.0859 435.61V552.236C67.0859 560.957 74.1305 568.002 82.8523 568.002H485.173C493.895 568.002 500.939 560.957 500.939 552.236V435.61C500.939 401.952 479.917 372.098 448.72 361.363ZM469.406 536.582H98.6186V507.398H122.324C131.046 507.398 138.09 500.353 138.09 491.631C138.09 482.91 131.046 475.865 122.324 475.865H98.6186V448.805H161.684C170.406 448.805 177.45 441.761 177.45 433.039C177.45 424.317 170.406 417.273 161.684 417.273H102.42C107.452 405.308 117.069 395.692 129.592 391.331C154.751 382.609 180.805 376.012 207.305 371.763L270.035 493.532C276.073 504.938 291.504 505.273 298.102 493.532L360.831 371.875C387.109 376.124 413.162 382.721 438.433 391.443C456.995 397.816 469.406 415.707 469.406 435.946V536.582Z" fill="#333333"/>
</g>
<defs>
<clipPath id="clip0_27_2675">
<rect width="568" height="568" fill="white"/>
</clipPath>
</defs>
</svg>
