<svg width="537" height="548" viewBox="0 0 537 548" fill="none" xmlns="http://www.w3.org/2000/svg">
<g clip-path="url(#clip0_179_1702)">
<path d="M188.011 445.57V477.728C188.011 486.257 184.623 494.435 178.592 500.466C172.562 506.497 164.382 509.886 155.853 509.886C147.325 509.886 139.145 506.497 133.114 500.466C127.083 494.435 123.695 486.257 123.695 477.728V448.038" stroke="#333333" stroke-width="37.9626" stroke-linecap="round" stroke-linejoin="round"/>
<path d="M348.773 445.57V477.728C348.773 486.257 352.161 494.435 358.191 500.466C364.222 506.497 372.403 509.886 380.931 509.886C389.46 509.886 397.641 506.497 403.671 500.466C409.702 494.435 413.089 486.257 413.089 477.728V445.57" stroke="#333333" stroke-width="37.9626" stroke-linecap="round" stroke-linejoin="round"/>
<path d="M27.2031 220.482V156.166C27.2031 147.637 30.5912 139.457 36.622 133.427C42.6526 127.396 50.8323 124.008 59.361 124.008H88.5043" stroke="#333333" stroke-width="37.9626" stroke-linecap="round" stroke-linejoin="round"/>
<path d="M509.566 220.482V156.166C509.566 147.637 506.178 139.457 500.148 133.427C494.117 127.396 485.936 124.008 477.408 124.008H447.93" stroke="#333333" stroke-width="37.9626" stroke-linecap="round" stroke-linejoin="round"/>
<path d="M402.407 27.5234H134.424C110.744 27.5234 91.5469 46.7202 91.5469 70.4007V402.699C91.5469 426.38 110.744 445.576 134.424 445.576H402.407C426.088 445.576 445.284 426.38 445.284 402.699V70.4007C445.284 46.7202 426.088 27.5234 402.407 27.5234Z" stroke="#333333" stroke-width="37.9626" stroke-linecap="round" stroke-linejoin="round"/>
<path d="M445.284 316.961H91.5469" stroke="#333333" stroke-width="37.9626" stroke-linecap="round" stroke-linejoin="round"/>
<path d="M316.625 381.281H380.941" stroke="#333333" stroke-width="37.9626" stroke-linecap="round" stroke-linejoin="round"/>
<path d="M155.852 381.281H220.167" stroke="#333333" stroke-width="37.9626" stroke-linecap="round" stroke-linejoin="round"/>
<path d="M269.359 44.3438L269.359 317.164" stroke="#333333" stroke-width="37.9626" stroke-linecap="round" stroke-linejoin="round"/>
</g>
<defs>
<clipPath id="clip0_179_1702">
<rect width="535.965" height="535.965" fill="white" transform="translate(0.421875 11.4531)"/>
</clipPath>
</defs>
</svg>
