<svg width="548" height="547" viewBox="0 0 548 547" fill="none" xmlns="http://www.w3.org/2000/svg">
<g clip-path="url(#clip0_167_1780)">
<path d="M191.9 443.148V475.934C191.9 484.629 188.446 492.968 182.297 499.116C176.149 505.265 167.809 508.72 159.114 508.72C150.419 508.72 142.079 505.265 135.931 499.116C129.782 492.968 126.328 484.629 126.328 475.934V445.664" stroke="#333333" stroke-width="33.4978" stroke-linecap="round" stroke-linejoin="round"/>
<path d="M355.852 443.148V475.934C355.852 484.629 359.305 492.968 365.453 499.116C371.602 505.265 379.943 508.72 388.638 508.72C397.332 508.72 405.673 505.265 411.822 499.116C417.97 492.968 421.424 484.629 421.424 475.934V443.148" stroke="#333333" stroke-width="33.4978" stroke-linecap="round" stroke-linejoin="round"/>
<path d="M28 213.647V148.075C28 139.38 31.4542 131.04 37.6028 124.892C43.7513 118.743 52.0907 115.289 60.786 115.289H90.4984" stroke="#333333" stroke-width="33.4978" stroke-linecap="round" stroke-linejoin="round"/>
<path d="M519.785 213.647V148.075C519.785 139.38 516.332 131.04 510.183 124.892C504.035 118.743 495.694 115.289 486.999 115.289H456.945" stroke="#333333" stroke-width="33.4978" stroke-linecap="round" stroke-linejoin="round"/>
<path d="M410.478 16.9375H137.262C113.119 16.9375 93.5469 36.5092 93.5469 60.6522V399.441C93.5469 423.584 113.119 443.156 137.262 443.156H410.478C434.622 443.156 454.193 423.584 454.193 399.441V60.6522C454.193 36.5092 434.622 16.9375 410.478 16.9375Z" stroke="#333333" stroke-width="33.4978" stroke-linecap="round" stroke-linejoin="round"/>
<path d="M454.193 312.016H93.5469" stroke="#333333" stroke-width="33.4978" stroke-linecap="round" stroke-linejoin="round"/>
<path d="M323.055 377.586H388.627" stroke="#333333" stroke-width="33.4978" stroke-linecap="round" stroke-linejoin="round"/>
<path d="M159.141 377.586H224.713" stroke="#333333" stroke-width="33.4978" stroke-linecap="round" stroke-linejoin="round"/>
<path d="M274.875 34.0781L274.875 312.226" stroke="#333333" stroke-width="33.4978" stroke-linecap="round" stroke-linejoin="round"/>
</g>
<defs>
<clipPath id="clip0_167_1780">
<rect width="546.433" height="546.433" fill="white" transform="translate(0.65625 0.539062)"/>
</clipPath>
</defs>
</svg>
