<?xml version="1.0" encoding="UTF-8"?>
<svg id="Layer_2" data-name="Layer 2" xmlns="http://www.w3.org/2000/svg" viewBox="0 0 356.07 115.34">
  <g id="Layer_1-2" data-name="Layer 1">
    <g>
      <path d="m262.35,10.23c1.05.15,2.11.43,3.16.43,19.53.03,39.06,0,58.59.05,1.29,0,2.83.1,3.81.79,1.06.74,2.04,2.15,2.25,3.41.27,1.56.96,1.65,2.17,1.67,3.01.03,6.03.05,9.03.25,6.11.42,12.56,4.75,14.16,9.99.09.3.25.59.26.89.11,4.47.19,8.94.29,13.41-.69.87-1.39,1.75-2.26,2.85.08.02-.34-.07-.76-.15-.51-.49-1.02-.98-1.53-1.47-.25.26-.74.7-.69.76.28.41.69.74,1.05,1.1,0,.36,0,.73,0,1.09-2.56.13-3.43-.79-3.44-4.16,0-2.86.11-5.73.43-8.57.1-.84,1.1-1.57,1.95-2.69-1.3-3.96-6-7.28-11.05-7.29-1.8,0-3.6,0-5.4,0-2.82,0-3.31.7-2.96,3.45.5,3.94.79,7.91,1.18,11.87.38,3.83.77,7.65,1.14,11.48.15,1.58.29,3.16.37,4.75.14,2.73.24,5.47.36,8.2-.69,1.27-1.38,2.53-2.07,3.8.12.15.24.3.36.44h-2.02c-.15-1.64-.36-3.28-.44-4.92-.16-3.44-.24-6.88-.38-10.32-.11-2.6-.25-5.21-.41-7.81-.37-5.76-.82-11.51-1.11-17.27-.08-1.69-.8-2.28-2.35-2.28-9.18,0-18.37,0-27.55.02-2.09,0-2.54.52-2.55,2.65-.03,3.53-.04,7.06-.06,10.59-1.12-.26-2.24-.51-3.37-.77-.02-3.02-.05-6.04-.07-9.05-.02-2.7-.71-3.42-3.39-3.43-13.11,0-26.22,0-39.33,0-2.83,0-3.51.68-3.51,3.49,0,8.93,0,17.86,0,26.8,0,2.91.56,3.46,3.42,3.47,7.32.03,14.65.06,21.97.09-.14.88-.11,1.83-.44,2.63-.75,1.81-.04,3.57,1.89,4.31,1.51.58,3.77-.52,4.13-2.13.09-.39-.34-.93-.6-1.36-.34-.55-.76-1.05-1.15-1.58.12-.1.24-.21.35-.31,1.03,1.17,2.16,1.84,3.74,1.11,1.21-.56,1.48-1.5,1.36-2.68,2.76-.03,5.52-.06,8.28-.08,2.51-.03,3.25-.78,3.27-3.34.02-2.5.05-5.01.08-7.51.56-.37,1.2-.67,1.67-1.13.75-.72,1.39-1.56,2.07-2.34.02,5.46.06,10.93.05,16.39,0,1.41.48,2.46,1.82,3.02,3.64,1.51,7.3,3,10.93,4.55,3.87,1.65,7.71,3.36,11.57,5.04-.22.51-.44,1.03-.68,1.58.34.49.69.99,1.01,1.45-1.51,2.43-1.3,4.43.48,5.41,1.91,1.04,3.52.23,5.14-2.99-.47-.31-1.22-.64-1.73-1.18-1.2-1.27-2.3-2.65-3.44-3.98.9.38,1.81.77,2.71,1.15-.03,1.7,1.19,2.56,2.5,2.91.7.19,1.66-.56,2.5-.89,1.54-.28,2.02-1.32,1.99-2.74.58-.28,1.23-.49,1.74-.87.72-.54,1.34-1.21,2-1.83.15,1.83.36,3.65.43,5.48.28,6.96.47,13.92.77,20.87.25,5.72-2.4,7.18-6.83,8.36-1.21.32-2.52.36-3.78.36-10.73,0-21.47-.03-32.2-.05-.13-.18-.27-.35-.4-.53-.13.18-.27.36-.4.54-.89,0-1.78,0-2.67,0-.11-.28-.21-.56-.32-.83-.16.28-.33.56-.49.84-.24-.48-.67-.95-.68-1.44-.06-2.89-.17-5.79,0-8.68.6-10.93-5.68-18.76-15.95-21.41-8.9-2.29-16.73-.19-23.25,6.44-1.97,2.01-3.45,4.29-4.16,7.03-2.29-.08-.97,2.08-1.94,3.14-.66-.64-1.24-1.28-1.91-1.81-.27-.22-.75-.18-1.13-.25-.04.4-.28,1-.1,1.18,1.4,1.36,2.87,2.63,4.32,3.93,0,.38.01.77.02,1.15-.42.12-.83.26-1.25.35-.77.16-1.79.65-2.25.34-.85-.57-.91-1.58.02-2.43.19-.17.02-.73,0-1.11-.44.09-1.21.08-1.27.29-.41,1.35-.68,2.74-.99,4.12-1.68-.77-3.14-.51-4.17,1.06-.93,1.41-.45,2.69.7,3.75,1.26,1.17,2.64,1.13,3.96.14,1.54-1.15,1.07-2.68.66-4.18,1.71.84,3.17.18,4.59-.76,0,2.96,0,5.91,0,8.87-.11.1-.23.2-.34.31-3.6,0-7.19,0-10.79,0-.98-3.38-3.59-.79-5.82-1.31.73-.8,1.24-1.23,1.57-1.77.17-.28.04-.75.04-1.14-.34.03-.75-.05-1,.11-1.49.97-2.01,2.39-1.76,4.12-14.66.02-29.32.05-43.99.05-5.4,0-10.8-.05-16.2-.08.52-.22,1.04-.44,1.56-.67.64-.29,1.27-.59,1.91-.89-.07-.16-.14-.32-.21-.48-1.16-.25-2.32-.5-3.53-.76-.09-.92-.17-1.75-.25-2.58-.18-.02-.37-.05-.55-.07-.24.99-.48,1.99-.85,3.52-.76-.96-1.2-1.71-1.83-2.22-.36-.29-1.02-.21-1.55-.29.07.53-.02,1.17.25,1.56.69,1.02,1.55,1.94,2.34,2.89-.51,0-1.02,0-1.53,0-.2-.34-.4-.68-.6-1.02-.32.34-.64.67-.96,1.01-12.01.02-24.03.04-36.04.05-.11,0-.22-.09-.52-.22,0-3.82,0-7.73,0-11.63,0-4.01-.75-7.8-3.19-11.11-3.64-4.96-8.51-7.96-14.56-9.02-4.1-.72-8.2-.72-12.12.78-7.31,2.81-12.52,7.62-14.12,15.61-.2.98-.03,2.04-.03,3.06,0,3.91,0,7.82,0,12.04-13.87-.39-27.67.92-41.36-1.45.07-.83.14-1.65.2-2.4.83-.29,1.84-.63,2.85-.98.04-.28.07-.55.11-.83-2.85.49-4.47-.41-3.96-3.7l-.85.33c-.21,1.05-.41,2.1-.77,3.89-.62-.88-1.02-1.5-1.47-2.09-.44-.58-.91-1.56-1.71-.58-.24.3.09,1.3.44,1.79,1.01,1.44,2.15,2.79,3.23,4.18-2.24-.25-4.49-.46-6.72-.76-3.41-.46-6.82-.97-10.23-1.48-4.09-.61-8.18-1.25-12.28-1.87-1.18-.18-2.37-.26-3.53-.49-2.16-.42-3.29-1.76-3.41-3.93-.02-.45,0-.9,0-1.35.02-17.87-.08-35.75.11-53.62.06-5.54.87-11.07,1.35-16.6.23-2.7.4-5.41.78-8.09.4-2.8,2.33-4.3,5.3-4.31,5.79-.02,11.57,0,17.36,0,10.03,0,20.06,0,30.09,0h1.66c.39-1.24.68-2.29,1.06-3.31.52-1.38,1.7-1.8,3.05-1.8,5.79-.01,11.57-.08,17.36.02,2.75.05,5.01,1.35,6.26,3.87.53,1.06,1.15,1.24,2.18,1.24,10.54-.03,21.09-.02,31.63-.01.7,0,1.41.05,2.11.08.74,1.68,1.42,3.39,2.24,5.02.27.53.89.88,1.35,1.31.1-.55.31-1.1.28-1.65-.08-1.64.82-2.35,2.36-1.99.55.13,1.23-.28,2.01-.48-.62-.77-.96-1.18-1.29-1.58.52-.22,1.04-.43,1.56-.65,4.56-.02,9.15-.33,13.68.02,4.11.31,7.13-.83,9.82-4,1.62-1.91,4.01-3.23,6.2-4.56,2.58-1.56,5.51-2.11,8.51-2.11,10.86-.02,21.73-.01,32.59,0,.19,0,.38.07.57.1.81,1.57,1.63,3.14,2.44,4.7.2-.03.4-.06.6-.1.12-.49.44-1.02.34-1.45-.45-1.88.46-2.36,2.12-2.39.49,0,.96-.49,1.44-.75,16.04-.54,32-.4,47.08,6.28-.07.56-.42,1.4-.18,1.62,1.22,1.15.66,2.07-.03,3.16-.27.43-.37,1.32-.11,1.65.7.88,1.52,1.89,2.51,2.27,1.63.62,2.66-.79,3.31-1.96.27-.49-.4-1.65-.88-2.36-.8-1.19-1.78-2.25-2.69-3.37.77.3,1.54.59,2.31.89.69.86,1.3,1.83,2.13,2.53.23.19,1.14-.43,1.74-.67ZM44.3,26.07c-1.12,0-2.23,0-3.35,0-.89-.69-1.77-1.95-2.68-1.97-8.03-.15-16.07-.09-24.1-.08-1.78,0-2.49.99-2.48,2.66,0,3.73,0,7.46-.01,11.18-.03,5.71-.07,11.43-.1,17.14-1.34.04-2.9.29-2.47,1.97.48,1.87,1.61,3.59,2.54,5.32.19.35.75.49,1.14.72.12-.43.35-.86.33-1.28-.06-1.41.85-2.68,1.99-2.32,1.66.53,1.84-.54,2.19-1.58,6.74-.02,13.47-.04,20.21-.07,2.81-.01,3.38-.58,3.39-3.37.03-7.38.05-14.76.07-22.14,1.33-.13,2.66-.26,3.99-.39.02,7.39.05,14.77.07,22.16,0,3.41.33,3.73,3.74,3.73,9.31.03,18.63.06,27.94.09,0,.6,0,1.2,0,1.8-1.17-.83-2.31-.81-3.58-.12-.44.24-1.12.06-1.68.09-.5.03-1,.09-1.5.13.1.45.08,1.01.34,1.35.66.86,1.44,1.62,2.18,2.42-.44-.04-.9-.03-1.33-.12-1.55-.32-2.59.37-3.25,1.69-.89,1.77.09,3.02,1.44,3.87,1.25.79,2.77.64,3.51-.72.56-1.03.53-2.37.77-3.58,2.09,1.34,3.4.9,4-1.51.21-.85-.08-1.82-.14-2.73,3.11.49,4.37-.16,5.03-2.58,1.86-.03,3.71-.05,5.57-.08,2.3-.03,3.06-.79,3.1-3.15.04-2.05.08-4.09.13-6.14.73-.26,1.51-.42,2.16-.8.66-.39,1.18-1.01,1.76-1.53.03,2.95.04,5.91.08,8.86.02,1.56.53,2.76,2.39,2.76,13.68,0,27.37.01,41.05,0,1.85,0,2.73-.87,2.74-2.7.03-9.44.03-18.89,0-28.33,0-1.72-.89-2.71-2.74-2.71-13.56.01-27.11,0-40.67.02-1.99,0-2.74.84-2.77,2.84-.04,3.72-.06,7.45-.09,11.17-2.67.53-1.54,2.96-2.16,4.6-.64-.13-1.19-.23-1.74-.34-.04-4.68-.1-9.36-.12-14.04-.02-3.76-.48-4.24-4.32-4.24-11.11,0-22.21,0-33.32,0-.76,0-1.53-.1-2.29-.15-.15-.51-.31-1.02-.47-1.56q2.47.48,3.48-1.14c-1.06-.2-2.27-.1-2.94-.65-.7-.58-.87-1.78-1.28-2.71-.13-.03-.26-.07-.39-.1-.19,1.01-.37,2.02-.67,3.65-.87-1.03-1.47-1.85-2.2-2.52-.28-.25-.88-.14-1.34-.2.01.5-.1,1.06.07,1.49.25.62.71,1.16,1.08,1.73-2.06.41-2.9,1.94-2.32,4.23Zm152.06,46.32c-.94-.87-1.84-1.79-2.84-2.59-.32-.26-.89-.2-1.35-.29-.06.45-.15.9-.18,1.36-.04.76.12,1.56-.09,2.26-.52,1.71-.17,3.17,1.38,3.96,1.28.66,2.7.63,3.84-.65,1.26-1.42.67-2.55-.39-3.67.68.13,1.36.31,2.05.37,1.81.16,2.9-.84,2.97-2.66.06-1.51-1.57-3.44-2.92-3.45-1.64,0-2.98,1.43-2.85,3.12.06.75.25,1.5.38,2.24Zm9.26-8.89c1.16.7,2.29,2,3.66.38.59-.71,2.04-1.24.81-2.58-.87.52-1.68,1.01-2.49,1.5-.08-.11-.16-.22-.23-.33.72-.82,1.45-1.65,2.18-2.48-2.58-2.02-4.13-1.87-4.81.45-.22.78.32,1.77.51,2.67-1.61-.26-3.28-.97-4.56.78-.31-.21-.5-.41-.73-.46-.59-.14-1.19-.21-1.79-.3.19.6.23,1.33.61,1.76,1.1,1.25,2.36,2.35,3.5,3.58.82.88,1.4.88,2.41.11,1.93-1.49,1.24-3.28.94-5.08Zm-56.72-5.67c.7-.03,1.41-.08,2.11-.08,12.46,0,24.93,0,37.39,0,2.58,0,3.39-.69,3.39-2.99.02-9.25.02-18.5,0-27.75,0-2.23-.77-2.98-3.03-3-3.28-.03-6.55-.02-9.83-.02-10.09,0-20.17,0-30.26.02-2.53,0-3.04.51-3.06,3.05-.03,6.1,0,12.21-.02,18.31,0,2.82-.07,5.64-.11,8.46-.19-.02-.38-.04-.57-.07-.62-.12-1.25-.24-1.87-.37.08.56.16,1.12.23,1.69.04.31.17.68.05.91-1,1.83-.93,3.53.6,5.16-1.69-.59-3.18-1.32-4.73-1.87-.45-.16-1.22.03-1.6.35-.3.26-.46,1.05-.29,1.44.74,1.69,1.59,3.33,2.48,4.94.21.37.77.54,1.17.81.15-.43.44-.88.41-1.3-.09-1.54.73-2.62,2.12-2.32,2,.43,1.79-.58,1.44-1.84,2.62-.42,3.72-1.4,3.96-3.53Zm70.01-.08c6.62,0,13.24,0,19.85,0,2.54,0,3.38-.81,3.38-3.29.01-9.06.01-18.12,0-27.18,0-2.37-.86-3.28-3.17-3.28-13.3-.01-26.6-.01-39.9,0-2.6,0-3.12.56-3.12,3.17,0,9.12,0,18.25,0,27.37,0,2.62.61,3.21,3.3,3.21,6.55,0,13.11,0,19.66,0Zm-155.1,12.83c-.6,2.54,1.69,3.19,3.39,2.92,1.4-.22,2.94-2.33,2.27-3.09-1.44-1.61-3.02-3.11-4.58-4.62-.17-.16-.63-.22-.82-.11-.22.13-.4.51-.39.79.01,1.37.09,2.73.15,4.1Zm130.58,8.45c-.03-.23-.06-.45-.09-.68-2.06-.98-4.1-2.01-6.2-2.91-.38-.16-1.12.04-1.43.35-.31.31-.54,1.07-.37,1.43.96,2.05,2.04,4.04,3.08,6.05.19-.01.39-.02.58-.03.15-.5.45-1.01.42-1.5-.09-1.58.62-2.32,2.12-2.25.62.03,1.26-.29,1.89-.45Zm62.16-62.21c-.03-.25-.06-.5-.09-.76-1.9-.87-3.78-1.78-5.71-2.57-.52-.21-1.48-.28-1.75.02-.35.4-.45,1.32-.24,1.85.64,1.59,1.46,3.12,2.29,4.63.21.38.69.61,1.05.91.13-.49.4-.99.36-1.46-.12-1.65.8-2.45,2.43-2.17.51.09,1.1-.28,1.65-.45Zm16.89,49.81c.05-.25.09-.51.14-.76-2.21-1.03-4.36-2.24-6.66-3-.95-.31-1.77.66-1.21,1.9.78,1.75,1.58,3.49,2.43,5.2.16.32.64.47.98.69.16-.38.52-.81.44-1.12-.51-2.05.73-2.42,2.3-2.58.53-.05,1.05-.22,1.57-.33Zm49.12,16.11c-.02-.19-.05-.37-.07-.56-1.99-.99-3.96-2.03-5.98-2.94-.41-.18-1.24-.08-1.48.21-.33.4-.53,1.23-.34,1.68.72,1.69,1.61,3.3,2.48,4.92.18.34.57.57.86.85.18-.41.54-.83.52-1.23-.09-1.81.55-2.43,2.38-2.37.54.02,1.09-.36,1.64-.56Zm-257.76-6.92c.17-.11.64-.36,1-.72.07-.07-.22-.73-.47-.86-1.82-.9-3.66-1.78-5.55-2.53-.39-.16-1.1.18-1.5.48-.22.17-.27.84-.12,1.15.83,1.8,1.72,3.57,2.66,5.31.15.28.68.36,1.03.53.12-.37.37-.76.35-1.12-.15-2.12.11-2.42,2.61-2.25Zm168.43,23.93c-.83-.21-1.51-.46-2.21-.51-.32-.03-.98.44-.96.5.33.98-.2,2.37,1.43,2.77.68.17,1.3.74,1.84,1.24,1.54,1.43,1.86,1.39,3.15-.78-1.37-.8-3.99-.5-3.24-3.22Z"/>
      <path d="m265.57,115.22c-9.62.46-18.13-8.54-18.18-18.17-.05-9.98,7.46-18.77,18.29-18.86,11.13-.09,18.48,8,19.04,17.41.69,11.63-8.74,20.21-19.15,19.62Z"/>
      <path d="m87.91,109.43c-2.94-2.77-4.53-6.29-4.96-10.19-.48-4.46.34-8.69,2.84-12.64,3.49-5.51,11.07-9.53,18.11-8.19,4.51.85,8.39,2.44,11.4,5.95v2.37l-.52.33c-.65-.75-1.24-1.57-1.97-2.23-.23-.21-1-.16-1.22.06-.22.23-.21.89-.04,1.23.23.5.7.88,1.07,1.31-2.4.77-2.45,2.81-2.37,4.83-2.81-.37-4.38.52-4.58,2.43-.16,1.56,1.62,3.67,3.12,3.48.7-.09,1.67-.5,1.92-1.04.52-1.11.63-2.41.92-3.66,2.9.42,3.96-.15,4.44-2.58,1.08.02,1.72-.27,1.38-1.58-.11-.42.17-.95.28-1.43,3.79,6.49,2.79,15.48-2.41,21.36-4.93,5.57-13.55,7.62-20.5,4.88v-3.76c3.08.16,4.14-.49,4.61-3.03-1.19.49-2.14.87-2.82,1.15.37-1.04.73-2.09,1.09-3.13-.86-.28-1.94-1.03-2.54-.76-2.04.92-2.03,2.75-1.31,4.38-1.1,0-2.11-.06-3.11.02-.95.07-1.89.28-2.83.42Zm11.8-8.86c-.11-.17-.21-.35-.32-.52.43-.45.92-.86,1.27-1.36.19-.26.26-.71.18-1.03-.05-.2-.64-.48-.71-.42-.74.69-1.69,1.32-2.05,2.19-.27.67-.06,2,.44,2.4.6.48,1.74.36,2.64.35.65-.01,1.3-.28,1.95-.43.15.26.31.52.46.77-.89.59-1.78,1.18-2.76,1.82,1.87,1.6,2.75.22,3.35-.69.47-.71.63-1.95.34-2.74-.41-1.11-1.54-1.42-2.76-.92-.65.26-1.36.39-2.04.58Zm2.04-5.33c.27,1.15.18,2.4.75,2.91,1.24,1.11,2.78,1.91,4.29,2.65.21.1.97-.84,1.41-1.35.05-.05-.34-.69-.48-.67-2.3.27-2.7-1.22-2.71-2.9-.97-.19-1.8-.35-3.27-.64Z"/>
      <path d="m87.91,109.43c.94-.15,1.88-.35,2.83-.42,1-.07,2.01-.02,3.11-.02-.72-1.63-.73-3.46,1.31-4.38.61-.28,1.68.47,2.54.76-.36,1.04-.73,2.08-1.09,3.13.68-.28,1.63-.67,2.82-1.15-.48,2.54-1.53,3.18-4.61,3.03v3.76c-2.62-1.1-5.14-2.36-6.91-4.7Z"/>
      <path d="m256.17,7.49c.91,1.12,1.89,2.18,2.69,3.37.47.7,1.15,1.87.88,2.36-.65,1.17-1.68,2.58-3.31,1.96-.99-.38-1.81-1.38-2.51-2.27-.26-.33-.16-1.22.11-1.65.69-1.09,1.26-2.02.03-3.16-.24-.22.1-1.07.18-1.62.64.34,1.29.68,1.93,1.02Z"/>
      <path d="m330.72,66.59h2.02c-.12-.15-.24-.3-.36-.44.69-1.27,1.38-2.53,2.07-3.8.13,2.7.26,5.41.39,8.11-.66.62-1.28,1.29-2,1.83-.51.38-1.15.59-1.74.87-.13-2.19-.26-4.38-.38-6.57Z"/>
      <path d="m36.18,103.18c-1.09-1.39-2.23-2.73-3.23-4.18-.34-.49-.68-1.49-.44-1.79.8-.99,1.27,0,1.71.58.45.59.86,1.21,1.47,2.09.35-1.78.56-2.84.77-3.89l.85-.33c-.5,3.29,1.12,4.18,3.96,3.7-.04.28-.07.55-.11.83-1.01.35-2.02.7-2.85.98-.06.75-.13,1.57-.2,2.4-.65-.13-1.29-.27-1.94-.4Z"/>
      <path d="m127.27,11.39c.33.41.66.82,1.29,1.58-.78.21-1.46.61-2.01.48-1.54-.36-2.44.35-2.36,1.99.03.54-.18,1.1-.28,1.65-.46-.43-1.08-.78-1.35-1.31-.82-1.64-1.51-3.34-2.24-5.02l5.8-.02c.39.22.78.44,1.16.66h0Z"/>
      <path d="m163.16,105.49c-.79-.96-1.64-1.87-2.34-2.89-.27-.39-.17-1.03-.25-1.56.53.08,1.19,0,1.55.29.63.51,1.06,1.26,1.83,2.22.37-1.53.61-2.53.85-3.52.18.02.37.05.55.07.08.83.16,1.66.25,2.58,1.2.26,2.36.51,3.53.76.07.16.14.32.21.48-.63.3-1.27.6-1.91.89-.52.23-1.04.45-1.56.67-.91,0-1.81.01-2.72.02Z"/>
      <path d="m112.62,87.44c-.37-.43-.83-.82-1.07-1.31-.17-.35-.18-1.01.04-1.23.22-.23.99-.27,1.22-.06.73.66,1.33,1.47,1.97,2.23l.52-.33v-2.37c.81,1.18,1.62,2.36,2.43,3.54-.1.48-.39,1-.28,1.43.33,1.3-.3,1.6-1.38,1.58-.12-.12-.25-.25-.37-.37-.91-.91-1.81-1.81-2.72-2.72-.12-.12-.25-.25-.37-.37Z"/>
      <path d="m226.06,105.49c-.24-1.73.28-3.15,1.76-4.12.25-.16.66-.08,1-.11,0,.39.13.86-.04,1.14-.33.54-.84.97-1.57,1.77,2.23.52,4.84-2.06,5.82,1.31h-6.97Z"/>
      <path d="m238.42,96.31c.31-1.38.57-2.77.99-4.12.06-.21.83-.2,1.27-.29,0,.38.18.94,0,1.11-.93.85-.87,1.86-.02,2.43.47.31,1.49-.18,2.25-.34.42-.09.83-.23,1.25-.35,0,.52,0,1.03,0,1.55-1.41.95-2.87,1.61-4.59.76-.38-.26-.77-.51-1.15-.77Z"/>
      <path d="m244.14,93.61c-1.45-1.3-2.93-2.57-4.32-3.93-.18-.17.05-.77.1-1.18.38.08.86.04,1.13.25.67.53,1.25,1.17,1.91,1.81.97-1.06-.35-3.22,1.94-3.14-.25,2.06-.51,4.12-.76,6.19Z"/>
      <path d="m207.16.19c-.48.26-.96.74-1.44.75-1.66.03-2.56.51-2.12,2.39.1.43-.22.96-.34,1.45-.2.03-.4.06-.6.1-.81-1.57-1.63-3.14-2.44-4.7,2.31,0,4.63.01,6.94.02Z"/>
      <path d="m353.04,43.82c.42.08.84.17.76.15.88-1.1,1.57-1.98,2.26-2.85.07,3.04-.39,3.6-3.16,3.88-.35.04-.69.2-1.03.31,0-.36,0-.73,0-1.09.39-.13.78-.27,1.17-.4Z"/>
      <path d="m262.35,10.23c-.6.25-1.51.87-1.74.67-.83-.69-1.44-1.66-2.13-2.53l3.87,1.85Z"/>
      <path d="m160.06,105.47c.32-.34.64-.67.96-1.01.2.34.4.68.6,1.02-.52,0-1.05,0-1.57,0Z"/>
      <path d="m128.84,10.74c-.52.22-1.04.43-1.56.65,0,0,0,0,0,0-.01-.22-.02-.44-.03-.66.53,0,1.06,0,1.59,0Z"/>
      <path d="m127.25,10.74c.01.22.02.44.03.66-.39-.22-.78-.44-1.16-.66.38,0,.75,0,1.13,0Z"/>
      <path d="m288.96,105.48c.16-.28.33-.56.49-.84.11.28.21.56.32.83-.27,0-.54,0-.81,0Z"/>
      <path d="m292.43,105.49c.13-.18.27-.36.4-.54l.4.53c-.27,0-.54,0-.8.01Z"/>
      <path d="m243.82,105.49c.11-.1.23-.2.34-.31-.11.1-.23.2-.34.31Z"/>
      <path d="m145.49,53.84c.04.5.1.99.13,1.49.1,2.13,1.57,2.47,3.27,2.51-.24,2.14-1.34,3.12-3.96,3.53.35,1.26.56,2.27-1.44,1.84-1.4-.3-2.22.77-2.12,2.32.03.42-.27.87-.41,1.3-.4-.26-.96-.44-1.17-.81-.9-1.61-1.74-3.26-2.48-4.94-.17-.39-.02-1.18.29-1.44.38-.32,1.15-.51,1.6-.35,1.55.55,3.04,1.28,4.73,1.87-1.53-1.63-1.6-3.34-.6-5.16.12-.23-.01-.61-.05-.91-.07-.56-.15-1.13-.23-1.69.62.12,1.24.25,1.87.37.19.04.38.05.57.07Z"/>
      <path d="m275.08,57.84c1.93,0,3.87,0,5.8,0,.11,1.18-.15,2.12-1.36,2.68-1.57.73-2.7.07-3.74-1.11-.12.1-.24.21-.35.31.39.52.8,1.03,1.15,1.58.26.43.69.97.6,1.36-.36,1.6-2.62,2.71-4.13,2.13-1.93-.74-2.63-2.5-1.89-4.31.33-.8.31-1.75.44-2.63.78,0,1.55-.01,2.33-.02.25.3.49.61.74.91.14-.3.27-.6.41-.91Z"/>
      <path d="m205.61,63.5c.29,1.8.99,3.59-.94,5.08-1.01.78-1.59.77-2.41-.11-1.13-1.22-2.4-2.32-3.5-3.58-.38-.43-.42-1.17-.61-1.76.6.1,1.2.17,1.79.3.23.05.42.26.73.46,1.28-1.75,2.95-1.04,4.56-.78.13.13.26.26.38.38Z"/>
      <path d="m72.48,63.51c-.73-.8-1.52-1.56-2.18-2.42-.26-.34-.23-.89-.34-1.35.5-.04,1-.1,1.5-.13.57-.03,1.24.16,1.68-.09,1.26-.69,2.41-.71,3.58.12.26.26.51.51.77.77.06.91.34,1.88.14,2.73-.59,2.41-1.91,2.85-4,1.51-.38-.38-.76-.76-1.15-1.15Z"/>
      <path d="m196.73,72.77c1.07,1.12,1.65,2.26.39,3.67-1.14,1.28-2.55,1.31-3.84.65-1.56-.8-1.9-2.25-1.38-3.96.21-.7.05-1.5.09-2.26.02-.45.12-.91.18-1.36.46.09,1.03.03,1.35.29,1,.8,1.9,1.72,2.84,2.59.13.12.25.25.38.38Z"/>
      <path d="m320.62,72.44c.26.1.52.19.78.29,1.14,1.33,2.23,2.71,3.44,3.98.51.54,1.26.87,1.73,1.18-1.62,3.23-3.23,4.03-5.14,2.99-1.78-.97-1.99-2.98-.48-5.41-.32-.46-.67-.97-1.01-1.45.24-.56.46-1.07.68-1.58Z"/>
      <path d="m63.8,70.59c-.06-1.37-.13-2.73-.15-4.1,0-.27.18-.66.39-.79.19-.12.66-.05.82.11,1.56,1.51,3.14,3,4.58,4.62.68.75-.87,2.86-2.27,3.09-1.7.27-3.99-.38-3.39-2.92Z"/>
      <path d="m194.38,79.04c-.63.16-1.27.48-1.89.45-1.5-.07-2.21.66-2.12,2.25.03.49-.27,1-.42,1.5-.19.01-.39.02-.58.03-1.04-2.01-2.13-4-3.08-6.05-.17-.36.06-1.12.37-1.43.31-.31,1.06-.51,1.43-.35,2.1.9,4.14,1.93,6.2,2.91.03.23.06.45.09.68Z"/>
      <path d="m238.42,96.31c.38.26.77.51,1.15.77.41,1.49.87,3.02-.66,4.18-1.33,1-2.7,1.03-3.96-.14-1.14-1.06-1.63-2.34-.7-3.75,1.04-1.57,2.5-1.83,4.17-1.06Z"/>
      <path d="m72.48,63.51c.38.38.76.76,1.15,1.15-.24,1.2-.21,2.55-.77,3.58-.74,1.36-2.26,1.51-3.51.72-1.35-.85-2.33-2.1-1.44-3.87.66-1.31,1.69-2.01,3.25-1.69.43.09.89.08,1.33.12Z"/>
      <path d="m256.54,16.83c-.55.16-1.14.53-1.65.45-1.63-.28-2.55.52-2.43,2.17.04.48-.23.98-.36,1.46-.36-.3-.84-.53-1.05-.91-.82-1.51-1.64-3.04-2.29-4.63-.21-.53-.11-1.45.24-1.85.26-.3,1.22-.23,1.75-.02,1.93.79,3.81,1.7,5.71,2.57.03.25.06.5.09.76Z"/>
      <path d="m273.43,66.64c-.52.11-1.04.28-1.57.33-1.57.15-2.82.53-2.3,2.58.08.32-.29.75-.44,1.12-.33-.23-.82-.38-.98-.69-.86-1.71-1.65-3.45-2.43-5.2-.56-1.24.26-2.21,1.21-1.9,2.3.76,4.45,1.97,6.66,3-.05.25-.09.51-.14.76Z"/>
      <path d="m322.55,82.75c-.55.2-1.1.58-1.64.56-1.82-.06-2.47.57-2.38,2.37.02.4-.34.82-.52,1.23-.29-.28-.68-.51-.86-.85-.87-1.62-1.76-3.23-2.48-4.92-.19-.45,0-1.28.34-1.68.24-.3,1.08-.4,1.48-.21,2.03.91,4,1.95,5.98,2.94.02.19.05.37.07.56Z"/>
      <path d="m64.79,75.83c-2.5-.17-2.76.13-2.61,2.25.03.36-.22.75-.35,1.12-.35-.17-.88-.25-1.03-.53-.94-1.74-1.83-3.51-2.66-5.31-.15-.32-.1-.99.12-1.15.41-.31,1.11-.64,1.5-.48,1.89.75,3.72,1.63,5.55,2.53.25.12.54.78.47.86-.35.36-.82.61-1,.72Z"/>
      <path d="m196.73,72.77c-.13-.13-.25-.25-.38-.38-.13-.75-.32-1.49-.38-2.24-.13-1.7,1.22-3.13,2.85-3.12,1.35,0,2.99,1.94,2.92,3.45-.08,1.83-1.16,2.82-2.97,2.66-.69-.06-1.37-.24-2.05-.37Z"/>
      <path d="m11.57,55c.54,2.56.78,2.76,3.42,2.77.76,0,1.53.04,2.29.06-.35,1.04-.53,2.11-2.19,1.58-1.13-.36-2.05.91-1.99,2.32.02.42-.21.85-.33,1.28-.39-.24-.96-.38-1.14-.72-.93-1.74-2.06-3.45-2.54-5.32-.43-1.68,1.13-1.93,2.47-1.97Z"/>
      <path d="m91.31,48.47c0-2.06,0-4.13,0-6.19.55.11,1.1.22,1.74.34.63-1.64-.51-4.07,2.16-4.6,0,1.93,0,3.86,0,5.79-.2.1-.39.2-.59.3.2.16.4.31.6.47,0,.51,0,1.03,0,1.54-.58.52-1.1,1.14-1.76,1.53-.65.39-1.43.54-2.16.8Z"/>
      <path d="m51.26,23.86c-.91.01-1.82.03-2.73.04-.52-.56-1.03-1.12-1.55-1.69-.12-.12-.24-.25-.37-.37-.37-.57-.83-1.11-1.08-1.73-.18-.44-.06-.99-.07-1.49.46.05,1.06-.06,1.34.2.74.67,1.33,1.5,2.2,2.52.3-1.62.48-2.63.67-3.65.13.03.26.07.39.1.4.93.58,2.14,1.28,2.71.67.55,1.88.45,2.94.65q-1.01,1.62-3.48,1.14c.16.54.31,1.05.47,1.56Z"/>
      <path d="m40.96,32.25c0-2.06,0-4.13-.01-6.19,1.12,0,2.23,0,3.35,0,.22,0,.45,0,.67,0,0,1.93,0,3.86-.01,5.79-1.33.13-2.66.26-3.99.39Z"/>
      <path d="m205.61,63.5c-.13-.13-.26-.26-.38-.38-.19-.9-.74-1.9-.51-2.67.68-2.33,2.22-2.48,4.81-.45-.73.83-1.45,1.66-2.18,2.48.08.11.16.22.23.33.81-.49,1.63-.98,2.49-1.5,1.23,1.34-.21,1.87-.81,2.58-1.37,1.62-2.49.32-3.66-.38Z"/>
      <path d="m233.21,99.76c-.74,2.72,1.87,2.42,3.24,3.22-1.29,2.17-1.6,2.21-3.15.78-.54-.5-1.16-1.08-1.84-1.24-1.63-.4-1.1-1.79-1.43-2.77-.02-.06.64-.53.96-.5.7.05,1.38.31,2.21.51Z"/>
      <path d="m77.48,60.42c-.26-.26-.51-.51-.77-.77,0-.6,0-1.2,0-1.8,1.94,0,3.87,0,5.81-.01-.66,2.42-1.92,3.07-5.03,2.58Z"/>
      <path d="m295.86,37.26c.12.23.24.46.36.69-.78.39-.91.77,0,1.16,0,.93,0,1.86,0,2.79-.55-.39-1.16-.73-1.65-1.18-.84-.78-1.41-.81-1.75.4-.11,0-.23,0-.34,0,0-1.55,0-3.09.01-4.64,1.12.26,2.24.51,3.37.77Z"/>
      <path d="m292.48,41.12c.11,0,.23,0,.34,0,1.14.51,2.28,1.03,3.41,1.54,0,.26,0,.52,0,.78-.69.79-1.33,1.62-2.07,2.34-.48.46-1.11.76-1.67,1.13,0-1.93-.01-3.86-.02-5.79Z"/>
      <path d="m324.11,73.88c1.67.67,3.34,1.34,5,2.02-.84.33-1.8,1.08-2.5.89-1.31-.35-2.53-1.21-2.5-2.91Z"/>
      <path d="m44.97,26.07c-.22,0-.45,0-.67,0-.59-2.29.25-3.83,2.32-4.23.12.12.24.25.37.37-.12.62-.24,1.24-.37,1.86l-1.65,2Z"/>
      <path d="m353.04,43.82c-.39.13-.78.27-1.17.4-.36-.36-.77-.69-1.05-1.1-.04-.06.45-.5.69-.76.51.49,1.02.98,1.53,1.47Z"/>
      <path d="m115.71,90.52c.12.12.25.25.37.37-.49,2.43-1.54,3-4.44,2.58-.29,1.25-.4,2.55-.92,3.66-.25.54-1.23.96-1.92,1.04-1.5.19-3.28-1.92-3.12-3.48.2-1.91,1.77-2.8,4.58-2.43-.08-2.02-.03-4.06,2.37-4.83.12.12.25.25.37.37-.27.61-.65,1.19-.78,1.83-.12.59-.18,1.44.15,1.79.29.31,1.19.22,1.74.06.58-.16,1.07-.63,1.6-.96Z"/>
      <path d="m99.71,100.57c.68-.19,1.39-.32,2.04-.58,1.22-.5,2.35-.18,2.76.92.29.79.13,2.03-.34,2.74-.6.91-1.49,2.29-3.35.69.98-.65,1.87-1.23,2.76-1.82-.15-.26-.31-.52-.46-.77-.65.15-1.3.42-1.95.43-.9.01-2.04.13-2.64-.35-.5-.4-.71-1.73-.44-2.4.36-.87,1.3-1.51,2.05-2.19.07-.06.66.22.71.42.08.31.01.76-.18,1.03-.36.5-.84.91-1.27,1.36.11.17.21.35.32.52Z"/>
      <path d="m101.75,95.24c1.48.29,2.3.45,3.27.64,0,1.68.41,3.18,2.71,2.9.14-.02.52.62.48.67-.44.51-1.2,1.45-1.41,1.35-1.51-.74-3.05-1.54-4.29-2.65-.57-.51-.49-1.76-.75-2.91Z"/>
      <path d="m115.71,90.52c-.53.33-1.02.8-1.6.96-.56.16-1.45.25-1.74-.06-.33-.35-.26-1.2-.15-1.79.12-.63.51-1.22.78-1.83.91.91,1.81,1.81,2.72,2.72Z"/>
      <path d="m95.23,44.59c-.2-.16-.4-.31-.6-.47.2-.1.39-.2.59-.3,0,.26,0,.51.01.77Z"/>
      <path d="m275.08,57.84c-.14.3-.27.6-.41.91-.25-.3-.49-.61-.74-.91.38,0,.77,0,1.15,0Z"/>
      <path d="m46.62,24.07c.12-.62.24-1.24.37-1.86.52.56,1.03,1.12,1.55,1.69-.64.06-1.28.12-1.92.17Z"/>
      <path d="m296.24,42.66c-1.14-.51-2.28-1.03-3.41-1.54.34-1.21.92-1.18,1.75-.4.49.46,1.1.79,1.65,1.18,0,.25,0,.51.01.76Z"/>
      <path d="m296.22,39.11c-.91-.38-.79-.77,0-1.16,0,.39,0,.77,0,1.16Z"/>
    </g>
  </g>
</svg>