<?xml version="1.0" encoding="UTF-8"?>
<svg id="Layer_2" data-name="Layer 2" xmlns="http://www.w3.org/2000/svg" viewBox="0 0 98.61 152.41">
  <g id="Layer_1-2" data-name="Layer 1">
    <g>
      <path d="m89.6,71.6c1.78.13,3.37.24,4.96.37,2.1.18,3.99,2.51,3.99,4.83.01,13.11.15,26.21-.07,39.31-.08,4.69-2.62,8.17-7.99,9.11-.88.15-1.78.25-2.67.25-25.88.01-51.76-.03-77.64.05-5.37.02-9.19-3.38-10.07-7.74-.11-.56-.12-1.14-.12-1.71,0-13.15,0-26.29,0-39.44,0-2.76,2.18-4.9,4.96-4.9,1.28,0,2.56,0,3.99,0,0-.48,0-.92,0-1.36,0-19.2-.01-38.4.05-57.6,0-2.6,1.13-4.96,2.66-7.05C14.6,1.71,18.74.08,23.53.07c17.29-.04,34.59-.15,51.88.05,7.25.08,12.48,4.23,13.91,11.76.23,1.2.27,2.45.27,3.67.02,18.25.01,36.5.01,54.74,0,.45,0,.89,0,1.31Zm-67.34,22.49c.06.05.12.1.19.15.16.02.32.07.49.07,17.57,0,35.13,0,52.7,0,.11,0,.22,0,.33,0,.13-.36.36-.71.36-1.07.02-4.06.01-8.13,0-12.19,0-.28-.05-.57-.04-.85.09-1.78,0-3.59.34-5.33.39-2.07,2.19-2.8,4.01-3.31,0-19.42,0-38.79,0-58.15,0-.08,0-.17,0-.25-.18-2.5-1.97-4.16-4.48-4.16-18.04,0-36.08,0-54.12,0-2.41,0-4.12,1.72-4.12,4.13,0,19.12,0,38.24,0,57.35v1.09c2.75,1,4.22,2.32,4.24,4.6.02,2.24.07,4.47.08,6.71.02,3.73,0,7.46.01,11.19Zm62.62-13.36c0,.4,0,.69,0,.97.04,5.47,0,10.95.16,16.41.09,3.21-2.42,4.89-4.66,4.88-20.24-.03-40.47-.02-60.71-.03-.87,0-1.74-.07-2.61-.07-1.51,0-3.44-1.92-3.43-3.53.05-5.55.02-11.11.02-16.66,0-.64,0-1.29,0-1.92h-4.62v35.69h80.5v-35.74h-4.66Z"/>
      <path d="m22.11,130.26c-.43,2.62-.78,5.26-1.31,7.86-.36,1.76-.97,3.48-1.48,5.24h59.83c-.63-2.17-1.34-4.26-1.83-6.4-.5-2.16-.79-4.36-1.18-6.64.58-.1.85-.19,1.12-.19,2.2,0,4.4.06,6.59,0,.79-.02,1.09.33,1.25.99,1.34,5.29,2.69,10.59,4.04,15.88.54,2.13-.88,4.56-3.04,5.08-.74.18-1.53.27-2.29.27-23.1.01-46.2-.02-69.3.05-2.71,0-4.79-1.81-5.43-4.05-.08-.26-.11-.58-.04-.84,1.15-4.1,2.35-8.19,3.49-12.3.38-1.36.72-2.74.91-4.14.12-.87.55-.98,1.24-.97,2.4.02,4.81,0,7.21,0,.08.05.16.09.24.14Z"/>
    </g>
  </g>
</svg>