<svg width="676" height="675" viewBox="0 0 676 675" fill="none" xmlns="http://www.w3.org/2000/svg">
<path d="M527.65 134.073H527.649H452.855V97.1988C452.855 93.5688 451.413 90.0874 448.846 87.5206C446.279 84.9538 442.798 83.5118 439.168 83.5118C435.538 83.5118 432.056 84.9538 429.49 87.5206C426.923 90.0874 425.481 93.5688 425.481 97.1988V134.073H250.612V97.1988C250.612 93.5688 249.17 90.0874 246.603 87.5206C244.036 84.9538 240.555 83.5118 236.925 83.5118C233.295 83.5118 229.813 84.9538 227.246 87.5206C224.68 90.0874 223.238 93.5688 223.238 97.1988V134.073H148.443H148.442C131.409 134.093 115.079 140.868 103.035 152.912C90.9911 164.957 84.2158 181.286 84.1954 198.319V198.32L84.1954 526.966L84.1954 526.967C84.2158 544 90.9911 560.329 103.035 572.373C115.079 584.418 131.409 591.193 148.442 591.213H148.443H527.649H527.65C544.685 591.2 561.019 584.426 573.064 572.381C585.11 560.335 591.883 544.001 591.897 526.966V526.966V198.32V198.32C591.883 181.284 585.11 164.951 573.064 152.905C561.019 140.859 544.685 134.086 527.65 134.073ZM564.523 526.966C564.523 536.745 560.638 546.124 553.723 553.039C546.808 559.954 537.429 563.839 527.649 563.839H148.443C138.664 563.839 129.285 559.954 122.369 553.039C115.454 546.124 111.569 536.745 111.569 526.966V313.129H564.523V526.966ZM564.523 285.755H111.569V198.32C111.569 177.965 128.039 161.447 148.443 161.447H223.238V198.32C223.238 201.95 224.68 205.432 227.246 207.999C229.813 210.565 233.295 212.007 236.925 212.007C240.555 212.007 244.036 210.565 246.603 207.999C249.17 205.432 250.612 201.95 250.612 198.32V161.447H425.481V198.32C425.481 201.95 426.923 205.432 429.49 207.999C432.056 210.565 435.538 212.007 439.168 212.007C442.798 212.007 446.279 210.565 448.846 207.999C451.413 205.432 452.855 201.95 452.855 198.32V161.447H527.649C537.429 161.447 546.808 165.331 553.723 172.247C560.638 179.162 564.523 188.541 564.523 198.32V285.755Z" fill="#333333" stroke="#333333" stroke-width="2.09361"/>
<rect x="184.812" y="367.988" width="50.2467" height="50.2467" rx="25.1234" fill="#333333"/>
<rect x="184.812" y="459.922" width="50.2467" height="50.2467" rx="25.1234" fill="#333333"/>
<rect x="307.398" y="367.988" width="50.2467" height="50.2467" rx="25.1234" fill="#333333"/>
<rect x="307.398" y="459.922" width="50.2467" height="50.2467" rx="25.1234" fill="#333333"/>
<rect x="429.984" y="367.988" width="50.2467" height="50.2467" rx="25.1234" fill="#333333"/>
</svg>
