<svg width="267" height="267" viewBox="0 0 267 267" fill="none" xmlns="http://www.w3.org/2000/svg">
<path d="M241.633 113.43L241.631 113.432L225.782 127.3V139.619L241.381 153.897C241.383 153.899 241.384 153.9 241.385 153.901C244.381 156.529 246.371 160.117 247.013 164.05C247.656 167.985 246.911 172.021 244.905 175.467C244.905 175.467 244.905 175.467 244.905 175.468L225.883 208.839L225.882 208.841C224.375 211.451 222.208 213.62 219.598 215.128C216.989 216.636 214.03 217.432 211.016 217.435M241.633 113.43L170.704 236.64L174.909 215.858C178.582 214.07 182.137 212.05 185.553 209.811L205.514 216.574L205.518 216.576C207.292 217.159 209.149 217.449 211.016 217.435M241.633 113.43C244.674 110.75 246.67 107.08 247.268 103.07C247.865 99.0612 247.027 94.9706 244.901 91.5203C244.9 91.519 244.899 91.5176 244.898 91.5163L225.214 58.1537C225.214 58.1531 225.214 58.1525 225.213 58.1518L241.633 113.43ZM211.016 217.435C211.016 217.435 211.015 217.435 211.015 217.435L211.014 216.935L211.018 217.435C211.017 217.435 211.017 217.435 211.016 217.435ZM204.847 50.4206L204.85 50.4193C206.624 49.8361 208.481 49.5458 210.349 49.56C210.349 49.56 210.35 49.56 210.35 49.56L210.347 50.06C213.273 50.063 216.147 50.8354 218.681 52.2999L204.847 50.4206ZM204.847 50.4206L184.803 57.1842M204.847 50.4206L184.803 57.1842M62.1431 50.0825L62.1647 50.0903L81.7874 57.1809C85.2018 54.9426 88.755 52.9238 92.4257 51.1366L96.6316 30.3547L62.1431 50.0825ZM62.1431 50.0825L62.1208 50.0767M62.1431 50.0825L62.1208 50.0767M62.1208 50.0767C60.3327 49.6108 58.4812 49.4364 56.6375 49.56C53.6293 49.566 50.6752 50.3615 48.0705 51.867C45.4618 53.375 43.2953 55.5423 41.7883 58.1515C41.7879 58.1523 41.7875 58.153 41.7871 58.1537L22.0982 91.5246L22.0967 91.5272M62.1208 50.0767L22.0967 91.5272M22.0967 91.5272C20.0908 94.9732 19.3455 99.0094 19.9883 102.945C20.6307 106.878 22.6202 110.466 25.616 113.094C25.6174 113.095 25.6188 113.096 25.6202 113.097L41.2195 127.376V139.698L25.6241 153.56C25.6231 153.561 25.622 153.562 25.621 153.563C22.5399 156.21 20.4956 159.862 19.8508 163.872C19.2059 167.883 20.0025 171.993 22.0992 175.472C22.0997 175.473 22.1002 175.474 22.1006 175.474L41.7871 208.841C41.7875 208.842 41.7879 208.843 41.7882 208.843L22.0967 91.5272ZM62.1547 216.574L62.151 216.576C60.3771 217.159 58.52 217.449 56.6528 217.435C56.6522 217.435 56.6516 217.435 56.651 217.435L56.6548 216.935C53.7284 216.932 50.8543 216.16 48.3207 214.695L62.1547 216.574ZM62.1547 216.574L82.198 209.811M62.1547 216.574L82.198 209.811M184.803 57.1842C181.416 54.9454 177.888 52.9258 174.242 51.1375L170.036 30.3547L184.803 57.1842ZM152.853 16.5187C156.885 16.4426 160.815 17.7862 163.956 20.3147C167.097 22.8438 169.25 26.3971 170.036 30.353L152.853 16.5187ZM152.853 16.5187H113.814C109.783 16.4426 105.853 17.7862 102.712 20.3147C99.5703 22.8438 97.418 26.3971 96.6319 30.353L152.853 16.5187ZM82.198 209.811C85.5858 212.05 89.1135 214.069 92.7593 215.857L96.9653 236.64L82.198 209.811ZM103.046 246.68C99.904 244.151 97.7518 240.598 96.9657 236.642L103.046 246.68ZM103.046 246.68C106.187 249.209 110.117 250.552 114.148 250.476M103.046 246.68L114.148 250.476M114.148 250.476H153.521C157.552 250.552 161.482 249.209 164.623 246.68C167.765 244.151 169.917 240.598 170.703 236.642L114.148 250.476ZM181.888 190.095L181.62 190.005L181.404 190.187C174.75 195.824 167.145 200.229 158.946 203.198L158.68 203.294L158.626 203.571L152.781 233.123H114.219L108.376 203.904L108.321 203.632L108.061 203.534C99.9235 200.48 92.3569 196.08 85.6772 190.518L85.465 190.342L85.2025 190.427L56.8815 199.648L37.6041 166.974L59.9893 147.222L60.2002 147.036L60.1507 146.76C58.6184 138.181 58.6184 129.398 60.1507 120.819L60.1994 120.547L59.9947 120.361L37.601 100.026L56.8791 67.3512L85.1137 76.8999L85.3814 76.9904L85.597 76.8077C92.2512 71.1715 99.8562 66.7656 108.056 63.7967L108.321 63.7005L108.376 63.4235L114.22 33.8724H152.782L158.626 63.0908L158.68 63.3633L158.94 63.4609C167.078 66.5152 174.645 70.9151 181.324 76.4767L181.536 76.6534L181.799 76.5679L210.12 67.3471L229.397 100.021L207.012 119.773L206.801 119.959L206.851 120.235C208.383 128.814 208.383 137.597 206.851 146.176L206.802 146.448L207.007 146.634L229.4 166.969L210.122 199.644L181.888 190.095Z" fill="#263238" stroke="black"/>
<path d="M133.497 184.063C123.498 184.062 113.723 181.097 105.409 175.541C97.094 169.985 90.6133 162.089 86.7864 152.849C82.9594 143.61 81.9581 133.444 83.9091 123.636C85.86 113.828 90.6756 104.818 97.7469 97.7469C104.818 90.6756 113.828 85.86 123.636 83.9091C133.444 81.9581 143.61 82.9594 152.849 86.7864C162.089 90.6133 169.985 97.094 175.541 105.409C181.097 113.723 184.062 123.498 184.063 133.497M133.497 184.063C140.156 184.13 146.761 182.868 152.926 180.351C159.092 177.834 164.693 174.111 169.402 169.402C174.111 164.693 177.834 159.092 180.351 152.926C182.868 146.761 184.13 140.156 184.063 133.497M133.497 184.063C133.496 184.063 133.496 184.063 133.495 184.063L133.5 183.563M184.063 133.497C184.063 133.498 184.063 133.499 184.063 133.5H183.563L184.063 133.495C184.063 133.496 184.063 133.496 184.063 133.497ZM133.488 100.625L133.5 100.625L133.512 100.625C137.855 100.524 142.174 101.305 146.207 102.92C150.24 104.536 153.903 106.953 156.975 110.025C160.047 113.097 162.464 116.76 164.08 120.793C165.695 124.826 166.476 129.145 166.375 133.488L166.375 133.5L166.375 133.512C166.476 137.855 165.695 142.174 164.08 146.207C162.464 150.24 160.047 153.903 156.975 156.975C153.903 160.047 150.24 162.464 146.207 164.08C142.174 165.695 137.855 166.476 133.512 166.375L133.5 166.375L133.488 166.375C129.145 166.476 124.826 165.695 120.793 164.08C116.76 162.464 113.097 160.047 110.025 156.975C106.953 153.903 104.536 150.24 102.92 146.207C101.305 142.174 100.524 137.855 100.625 133.512L100.625 133.5L100.625 133.488C100.524 129.145 101.305 124.826 102.92 120.793C104.536 116.76 106.953 113.097 110.025 110.025C113.097 106.953 116.76 104.536 120.793 102.92C124.826 101.305 129.145 100.524 133.488 100.625Z" fill="#263238" stroke="black"/>
</svg>
