<svg width="137" height="172" viewBox="0 0 137 172" fill="none" xmlns="http://www.w3.org/2000/svg">
<path d="M117.129 0.90625C121.981 0.905654 126.653 2.74746 130.201 6.05945C133.748 9.37144 135.905 13.9066 136.237 18.7484L136.28 20.0594V151.986C136.281 156.839 134.439 161.512 131.127 165.059C127.816 168.606 123.281 170.764 118.44 171.096L117.129 171.139H19.2449C14.3922 171.14 9.72023 169.298 6.17316 165.986C2.62609 162.674 0.46845 158.139 0.136309 153.297L0.0937501 151.986V20.0594C0.093154 15.2062 1.93478 10.5337 5.24644 6.98627C8.55809 3.43884 13.0928 1.28099 17.9341 0.948812L19.2449 0.90625H117.129ZM117.129 13.675H19.2449C17.7023 13.6751 16.2119 14.2338 15.0493 15.2478C13.8867 16.2619 13.1306 17.6626 12.9208 19.1911L12.8612 20.0594V151.986C12.8612 155.221 15.2615 157.894 18.3768 158.311L19.2449 158.37H117.129C118.671 158.37 120.162 157.812 121.324 156.797C122.487 155.783 123.243 154.383 123.453 152.854L123.513 151.986V20.0594C123.512 18.5166 122.954 17.026 121.94 15.8633C120.926 14.7006 119.525 13.9444 117.997 13.7346L117.129 13.675ZM76.9028 120.285C75.2314 120.02 73.7339 119.101 72.7396 117.731C71.7452 116.362 71.3353 114.653 71.6 112.982L72.4852 107.363H59.888L58.6794 114.982C58.3772 116.62 57.4471 118.075 56.0873 119.037C54.7276 119.998 53.0459 120.39 51.4011 120.129C49.7564 119.868 48.2787 118.975 47.2834 117.639C46.2881 116.304 45.854 114.633 46.0736 112.982L46.9588 107.363H40.5751C38.882 107.363 37.2583 106.691 36.0611 105.494C34.8639 104.296 34.1914 102.672 34.1914 100.979C34.1914 99.2859 34.8639 97.662 36.0611 96.4647C37.2583 95.2674 38.882 94.5947 40.5751 94.5947H48.9846L51.0019 81.826H44.8224C43.1293 81.826 41.5056 81.1534 40.3084 79.9561C39.1113 78.7588 38.4387 77.1349 38.4387 75.4416C38.4387 73.7484 39.1113 72.1245 40.3084 70.9272C41.5056 69.7299 43.1293 69.0573 44.8224 69.0573H53.0191L54.7214 58.3315C54.819 57.4749 55.0889 56.647 55.5151 55.8976C55.9412 55.1482 56.5147 54.4929 57.2009 53.9711C57.8872 53.4494 58.672 53.0721 59.508 52.8619C60.344 52.6518 61.2139 52.6131 62.0653 52.7483C62.9167 52.8835 63.7318 53.1898 64.4616 53.6486C65.1914 54.1074 65.8208 54.7093 66.3117 55.4179C66.8026 56.1266 67.1449 56.9273 67.3179 57.7719C67.491 58.6164 67.4913 59.4873 67.3187 60.332L65.9483 69.0402H78.5625L80.2649 58.323C80.3624 57.4664 80.6323 56.6385 81.0585 55.8891C81.4846 55.1397 82.0581 54.4844 82.7444 53.9626C83.4306 53.4409 84.2154 53.0636 85.0514 52.8534C85.8875 52.6433 86.7574 52.6046 87.6087 52.7398C88.4601 52.875 89.2752 53.1812 90.005 53.6401C90.7348 54.0989 91.3642 54.7007 91.8551 55.4094C92.346 56.1181 92.6883 56.9188 92.8614 57.7634C93.0344 58.6079 93.0347 59.4788 92.8621 60.3234L91.4832 69.0402H95.9093C97.6023 69.0402 99.2261 69.7129 100.423 70.9102C101.62 72.1075 102.293 73.7314 102.293 75.4246C102.293 77.1178 101.62 78.7417 100.423 79.939C99.2261 81.1363 97.6023 81.809 95.9093 81.809H89.466L87.4487 94.5777H91.6449C93.338 94.5777 94.9617 95.2503 96.1589 96.4476C97.3561 97.6449 98.0287 99.2688 98.0287 100.962C98.0287 102.655 97.3561 104.279 96.1589 105.476C94.9617 106.674 93.338 107.346 91.6449 107.346H85.4229L84.2143 114.974C83.9485 116.645 83.03 118.143 81.6605 119.137C80.2911 120.132 78.5828 120.542 76.9113 120.277L76.9028 120.285ZM63.9225 81.809L61.9053 94.5777H74.5025L76.5283 81.809H63.9225Z" fill="#4E4E4E"/>
</svg>
