<svg width="537" height="537" viewBox="0 0 537 537" fill="none" xmlns="http://www.w3.org/2000/svg">
<path d="M268.169 526.621C229.493 518.4 197.533 493.479 179.395 457.398C176.633 451.904 173.604 446.769 172.665 445.988C171.418 444.951 167.905 444.623 159.657 444.77C110.817 445.645 67.4338 417.25 43.1311 368.5C31.4626 345.094 23.8166 309.313 23.8658 278.344C23.9161 246.699 32.1654 217.755 48.0305 193.557C54.6247 183.499 69.7212 167.816 79.3711 160.998C87.5695 155.206 88.8994 153.138 88.9165 146.158C88.9552 130.647 95.8539 106.426 105.299 88.6457C113.341 73.5088 119.224 65.5855 131.366 53.5391C160.535 24.6003 203.509 7.18024 245.597 7.23423C261.198 7.25549 273.717 9.14482 284.848 13.1601C316.883 24.7172 341.378 46.7473 357.092 78.1314C360.323 84.5846 362.631 87.9457 364.17 88.4363C365.426 88.8357 372.85 89.2917 380.668 89.4473C401.28 89.8577 413.374 92.7091 430.812 101.272C454.957 113.128 477.052 135.199 490.885 161.279C503.977 185.962 512.32 222.452 512.269 254.803C512.227 280.972 507.548 301.997 496.925 323.747C487.207 343.642 475.847 357.708 458.121 371.792L448.592 379.363L447.862 389.104C446.143 412.057 441.837 427.239 431.408 447.125C412.022 484.088 381.948 507.81 336.158 522.254C330.691 523.977 321.781 526.135 316.358 527.047C302.92 529.306 279.847 529.102 268.169 526.621ZM298.376 479.727C303.731 478.585 312.911 476.151 318.777 474.319C371.042 458.003 405.022 432.662 416.646 401.334C419.872 392.638 419.241 392.309 405.539 395.56C382.257 401.083 359.91 400.194 338.086 392.879C331.272 390.595 325.522 388.725 325.307 388.725C325.092 388.725 322.196 392.364 318.871 396.813C312.59 405.216 311.426 406.434 309.675 406.431C306.98 406.426 305.882 403.984 304.018 393.857C296.043 350.514 294.614 342.352 294.617 340.182C294.625 335.311 296.236 335.152 315.671 338.113C325.659 339.634 339.405 341.711 346.217 342.726C358.562 344.567 360.44 345.427 360.469 349.254C360.474 350.214 357.42 353.238 353.677 355.975C349.934 358.712 346.871 361.543 346.869 362.268C346.867 364.099 355.383 367.741 364.113 369.641C369.354 370.783 375.139 371.1 384.503 370.765C395.518 370.37 399.222 369.769 408.038 366.947C413.793 365.105 419.162 362.967 419.97 362.196C421.228 360.996 420.956 358.938 418.087 347.925C409.739 315.888 396.474 297.647 373.656 286.827C362.401 281.49 351.68 279.755 333.516 280.331C318.68 280.801 299.098 283.999 296.099 286.44C295.276 287.11 294.867 292.29 294.84 302.375C294.82 310.594 294.261 320.325 293.6 324C283.68 379.176 255.348 416.776 210.284 434.568C198.714 439.137 198.811 439.015 202.094 444.799C212.741 463.555 228.902 475.759 249.427 480.543C260.944 483.227 283.751 482.848 298.376 479.727ZM163.374 416.223C163.692 415.396 163.169 410.107 162.211 404.466C160.91 396.806 160.569 389.715 160.862 376.448L161.254 358.687L150.124 355.924C137.111 352.693 136.689 352.486 136.694 349.33C136.697 347.437 141.029 343.64 157.151 331.401C186.383 309.209 186.792 308.937 189.057 310.152C191.297 311.355 210.217 367.266 209.67 371.067C209.152 374.664 205.61 374.417 198.593 370.292C195.111 368.245 191.804 366.57 191.243 366.57C189.794 366.567 189.261 368.363 187.82 378.107C185.841 391.481 187.941 410.796 191.525 412.176C192.332 412.486 198.014 410.289 204.153 407.29C226.176 396.533 239.999 378.357 246.088 352.147C247.959 344.093 249.483 303.328 247.97 301.812C247.386 301.226 241.585 301.254 233.162 301.887C182.933 305.626 142.069 285.376 113.605 242.639C108.473 234.933 99.4698 214.522 95.9684 202.653C94.0615 196.189 91.9927 190.896 91.3712 190.891C88.4829 190.869 77.8082 209.816 74.9082 220.113C70.1586 236.979 68.3852 255.589 69.8164 273.551C72.0259 301.284 78.4971 333.168 85.8329 352.467C100.004 389.746 119.383 409.809 146.856 415.643C158.146 418.041 162.613 418.199 163.374 416.227L163.374 416.223ZM450.14 337.985C466.287 314.248 470.7 280.299 463.549 234.83C456.174 187.939 442.975 155.884 423.079 136.55C414.219 127.939 404.481 122.402 392.81 119.338C384.716 117.212 372.34 116.356 372.374 117.923C372.384 118.355 373.11 122.94 373.99 128.113C374.87 133.287 375.772 144.337 375.996 152.67C376.22 161.003 376.414 168.174 376.429 168.605C376.446 169.037 381.068 169.394 386.705 169.403C401.793 169.427 402.662 171.184 393.47 183.08C370.471 212.846 358.244 227.87 357.019 227.868C354.739 227.864 352.473 224.986 348.479 217.021C346.422 212.919 339.835 200.466 333.84 189.347C319.602 162.938 319.855 160.95 336.722 166.712C340.948 168.155 344.717 169.337 345.1 169.337C349.862 169.345 350.709 128.284 346.062 122.672C342.948 118.911 316.922 133.948 308.199 144.55C298.83 155.936 291.961 172.13 289.078 189.623C287.32 200.296 286.913 231.033 288.491 233.99C289.39 235.675 290.052 235.775 293.98 234.813C300.42 233.239 330.462 233.395 339.641 235.059C361.259 238.963 380.534 248.27 397.223 262.862C416.785 279.967 430.235 301.185 439.19 329.071C442.265 338.644 444.115 342.909 445.201 342.923C446.064 342.935 448.286 340.711 450.14 337.985ZM223.489 259.344C228.874 258.486 234.994 257.195 237.088 256.476L240.896 255.169L241.539 234.898C242.075 217.975 242.658 212.581 245.068 202.239C256.084 154.953 284.821 120.466 326.606 104.385C331.056 102.672 334.984 100.808 335.335 100.242C336.415 98.5013 329.366 87.8987 322.219 80.5138C313.816 71.8311 303.67 65.7577 291.399 62.0649C282.974 59.5296 280.298 59.2274 265.782 59.172C251.783 59.1252 247.933 59.4916 237.543 61.9019C192.177 72.4295 152.743 93.2503 133.642 116.762C127.959 123.758 118.201 141.547 118.195 144.922C118.193 146.363 118.381 146.344 137.022 142.938C157.359 139.221 174.897 139.933 194.98 145.291L203.266 147.5L205.266 144.988C206.366 143.608 210.451 137.309 214.343 130.994C219.353 122.865 222.078 119.416 223.674 119.183C226.504 118.771 227.028 119.944 231.766 137.291C233.808 144.765 237.543 158.406 240.067 167.605C242.59 176.804 244.657 185.095 244.659 186.03C244.67 190.319 242.673 190.464 216.672 188.067C203.023 186.808 189.479 185.782 186.575 185.788C183.67 185.793 180.73 185.23 180.041 184.541C178.142 182.637 178.542 179.404 180.999 176.798C182.212 175.512 182.924 174.007 182.583 173.452C181.193 171.199 166.725 168.598 155.805 168.639C144.431 168.67 125.972 172.282 119.168 175.784C115.234 177.809 115.146 180.517 118.577 194.055C124.242 216.416 134.534 234.423 147.777 245.147C160.32 255.305 172.703 259.888 190.691 261.029C203.758 261.857 209.599 261.558 223.489 259.344Z" fill="#333333"/>
</svg>
