<svg width="537" height="537" viewBox="0 0 537 537" fill="none" xmlns="http://www.w3.org/2000/svg">
<path d="M434.359 504.637H103.801C77.8283 504.637 56.5781 483.386 56.5781 457.414V126.855C56.5781 100.883 77.8283 79.6328 103.801 79.6328H434.359C460.332 79.6328 481.582 100.883 481.582 126.855V457.414C481.582 483.386 460.332 504.637 434.359 504.637Z" stroke="#333333" stroke-width="33.2885" stroke-linecap="round" stroke-linejoin="round"/>
<path d="M363.547 32.3906V79.6133" stroke="#333333" stroke-width="33.2885" stroke-linecap="round" stroke-linejoin="round"/>
<path d="M174.617 32.3906V79.6133" stroke="#333333" stroke-width="33.2885" stroke-linecap="round" stroke-linejoin="round"/>
<path d="M269.084 315.699C308.204 315.699 339.918 283.986 339.918 244.865C339.918 205.745 308.204 174.031 269.084 174.031C229.963 174.031 198.25 205.745 198.25 244.865C198.25 283.986 229.963 315.699 269.084 315.699Z" stroke="#333333" stroke-width="33.2885" stroke-linecap="round" stroke-linejoin="round"/>
<path d="M387.144 421.979C354.089 398.368 313.949 386.562 269.088 386.562C224.226 386.562 184.087 400.729 151.031 421.979" stroke="#333333" stroke-width="33.2885" stroke-linecap="round" stroke-linejoin="round"/>
</svg>
