<svg width="536" height="537" viewBox="0 0 536 537" fill="none" xmlns="http://www.w3.org/2000/svg">
<path d="M344.015 40.8672C382.829 45.1791 417.758 63.9571 445.39 91.5546C473.023 119.152 491.716 154.12 496.078 192.93M331.343 129.57C350.027 133.215 368.571 141.454 382.031 154.914C395.491 168.373 403.73 186.919 407.375 205.601M171.69 365.242C-3.13038 190.401 21.7288 110.338 40.158 84.5384C42.5253 80.3684 100.88 -6.98484 163.431 44.265C318.692 172.134 128.594 167.586 252.509 284.453C376.425 401.321 364.833 218.272 492.679 373.501C543.932 436.077 456.574 494.429 452.431 496.77C426.631 515.226 346.537 540.083 171.69 365.242Z" stroke="#333333" stroke-width="31.4152" stroke-linecap="round" stroke-linejoin="round"/>
</svg>
