<svg width="537" height="537" viewBox="0 0 537 537" fill="none" xmlns="http://www.w3.org/2000/svg">
<path d="M57.4271 110.349L117.769 50.0631C122.025 45.7878 127.085 42.3956 132.656 40.0814C138.228 37.7672 144.201 36.5767 150.234 36.5781C162.529 36.5781 174.088 41.3942 182.756 50.0631L247.688 114.995C251.963 119.252 255.355 124.311 257.669 129.883C259.983 135.454 261.174 141.428 261.172 147.461C261.172 159.756 256.356 171.315 247.688 179.984L200.207 227.465C211.321 251.962 226.773 274.248 245.818 293.247C264.814 312.337 287.098 327.846 311.599 339.028L359.079 291.547C363.335 287.271 368.395 283.879 373.966 281.565C379.538 279.251 385.511 278.06 391.544 278.062C403.839 278.062 415.398 282.878 424.067 291.547L489.054 356.422C493.335 360.687 496.73 365.755 499.044 371.337C501.358 376.918 502.546 382.903 502.539 388.945C502.539 401.24 497.723 412.799 489.054 421.467L428.826 481.697C415.001 495.578 395.907 503.454 376.303 503.454C372.167 503.454 368.201 503.114 364.291 502.434C287.915 489.856 212.162 449.231 151.027 388.152C89.9492 327.129 49.3815 251.432 36.6333 174.828C32.7805 151.427 40.5428 127.347 57.4271 110.349Z" fill="#333333"/>
</svg>
