<svg width="537" height="537" viewBox="0 0 537 537" fill="none" xmlns="http://www.w3.org/2000/svg">
<g clip-path="url(#clip0_168_1897)">
<path d="M131.243 57.9902C126.486 49.7944 129.3 39.276 137.496 34.5194C145.692 29.7627 156.21 32.5541 160.967 40.7723L183.031 78.9598C187.788 87.1556 184.974 97.6739 176.778 102.431C168.582 107.187 158.064 104.396 153.307 96.1777L131.243 57.9902ZM268.428 114.624C310.881 114.624 349.292 131.819 377.117 159.645C404.92 187.47 422.138 225.904 422.138 268.334C422.138 310.787 404.943 349.198 377.117 377.023C349.292 404.849 310.881 422.045 268.428 422.045C225.975 422.045 187.564 404.849 159.739 377.023C131.935 349.198 114.718 310.787 114.718 268.334C114.718 225.881 131.913 187.47 159.739 159.645C187.564 131.842 225.997 114.624 268.428 114.624ZM353.892 182.87C332.029 161.007 301.814 147.474 268.428 147.474C235.042 147.474 204.827 161.007 182.964 182.87C161.101 204.733 147.568 234.948 147.568 268.334C147.568 301.72 161.101 331.935 182.964 353.798C204.827 375.661 235.042 389.194 268.428 389.194C301.814 389.194 332.029 375.661 353.892 353.798C375.755 331.935 389.288 301.72 389.288 268.334C389.288 234.948 375.755 204.733 353.892 182.87ZM254.761 17.5694C254.761 8.05606 262.465 0.351562 271.979 0.351562C281.492 0.351562 289.197 8.05606 289.197 17.5694V61.6749C289.197 71.1883 281.492 78.8928 271.979 78.8928C262.465 78.8928 254.761 71.1883 254.761 61.6749V17.5694ZM382.03 44.39C386.742 36.1942 397.216 33.3581 405.434 38.0701C413.63 42.7821 416.466 53.2558 411.754 61.4739L389.69 99.6615C384.978 107.857 374.504 110.693 366.286 105.981C358.091 101.269 355.254 90.7957 359.966 82.5776L382.03 44.39ZM478.772 131.149C486.968 126.393 497.486 129.207 502.243 137.402C507 145.598 504.208 156.116 495.99 160.873L457.802 182.937C449.607 187.694 439.088 184.88 434.332 176.684C429.575 168.488 432.366 157.97 440.584 153.213L478.772 131.149ZM519.193 254.667C528.706 254.667 536.411 262.372 536.411 271.885C536.411 281.398 528.706 289.103 519.193 289.103H475.087C465.574 289.103 457.869 281.398 457.869 271.885C457.869 262.372 465.574 254.667 475.087 254.667H519.193ZM492.372 381.937C500.568 386.649 503.404 397.122 498.692 405.34C493.98 413.536 483.506 416.372 475.288 411.66L437.101 389.596C428.905 384.884 426.069 374.411 430.781 366.193C435.493 357.997 445.966 355.161 454.185 359.873L492.372 381.937ZM405.613 478.678C410.369 486.874 407.556 497.392 399.36 502.149C391.164 506.906 380.646 504.114 375.889 495.896L353.825 457.709C349.068 449.513 351.882 438.995 360.078 434.238C368.274 429.481 378.792 432.273 383.549 440.491L405.613 478.678ZM282.095 519.099C282.095 528.612 274.391 536.317 264.877 536.317C255.364 536.317 247.659 528.612 247.659 519.099V474.993C247.659 465.48 255.364 457.776 264.877 457.776C274.391 457.776 282.095 465.48 282.095 474.993V519.099ZM154.826 492.278C150.114 500.474 139.64 503.31 131.422 498.598C123.226 493.886 120.39 483.413 125.102 475.194L147.166 437.007C151.878 428.811 162.352 425.975 170.57 430.687C178.765 435.399 181.602 445.873 176.89 454.091L154.826 492.278ZM58.0839 405.519C49.8881 410.276 39.3698 407.462 34.6131 399.266C29.8564 391.07 32.6479 380.552 40.866 375.795L79.0536 353.731C87.2494 348.975 97.7677 351.788 102.524 359.984C107.281 368.18 104.49 378.698 96.2714 383.455L58.0839 405.519ZM17.6632 282.001C8.14981 282.001 0.445312 274.297 0.445312 264.783C0.445312 255.27 8.14981 247.566 17.6632 247.566H61.7687C71.2821 247.566 78.9866 255.27 78.9866 264.783C78.9866 274.297 71.2821 282.001 61.7687 282.001H17.6632ZM44.4838 154.732C36.288 150.02 33.4518 139.546 38.1639 131.328C42.8759 123.132 53.3496 120.296 61.5677 125.008L99.7552 147.072C107.951 151.784 110.787 162.258 106.075 170.476C101.363 178.672 90.8895 181.508 82.6713 176.796L44.4838 154.732Z" fill="#333333"/>
</g>
<defs>
<clipPath id="clip0_168_1897">
<rect width="535.965" height="535.965" fill="white" transform="translate(0.460938 0.34375)"/>
</clipPath>
</defs>
</svg>
