<svg width="594" height="593" viewBox="0 0 594 593" fill="none" xmlns="http://www.w3.org/2000/svg">
<path d="M297.242 55.5938V536.994" stroke="#333333" stroke-width="31.4042" stroke-miterlimit="10" stroke-linecap="round" stroke-linejoin="round"/>
<path d="M297.248 425.895C225.594 425.895 167.641 367.942 167.641 296.288C167.641 224.633 225.594 166.68 297.248 166.68" stroke="#333333" stroke-width="31.4042" stroke-miterlimit="10" stroke-linecap="round" stroke-linejoin="round"/>
<path d="M127.062 126.094L166.315 165.346" stroke="#333333" stroke-width="31.4042" stroke-miterlimit="10" stroke-linecap="round" stroke-linejoin="round"/>
<path d="M56.5625 296.281H112.109" stroke="#333333" stroke-width="31.4042" stroke-miterlimit="10" stroke-linecap="round" stroke-linejoin="round"/>
<path d="M127.062 466.44L166.315 427.188" stroke="#333333" stroke-width="31.4042" stroke-miterlimit="10" stroke-linecap="round" stroke-linejoin="round"/>
<path d="M297.242 232.409C319.461 193.157 361.676 166.68 410.001 166.68C412.963 166.68 415.741 166.865 418.703 167.05C387.783 183.344 366.86 215.746 366.86 252.961C366.86 306.656 410.371 350.167 464.066 350.167C493.691 350.167 520.168 336.836 537.942 315.914C528.314 378.311 474.805 425.895 410.001 425.895C361.676 425.895 319.461 399.418 297.242 360.166" stroke="#333333" stroke-width="31.4042" stroke-miterlimit="10" stroke-linecap="round" stroke-linejoin="round"/>
</svg>
