<svg width="537" height="537" viewBox="0 0 537 537" fill="none" xmlns="http://www.w3.org/2000/svg">
<path d="M276.1 450.902C48.1953 450.902 48.1953 412.719 48.1953 305.33V176.463C48.1953 69.073 91.1511 26.1172 198.541 26.1172H284.452C391.842 26.1172 434.798 69.073 434.798 176.463V331.581" stroke="#333333" stroke-width="27.8378" stroke-linecap="round" stroke-linejoin="round"/>
<path d="M338.168 145.967V167.445C338.168 185.057 323.778 199.662 305.951 199.662H177.084C159.472 199.662 144.867 185.271 144.867 167.445V145.967C144.867 128.355 159.257 113.75 177.084 113.75H305.951C323.778 113.75 338.168 128.14 338.168 145.967Z" stroke="#333333" stroke-width="27.8378" stroke-linecap="round" stroke-linejoin="round"/>
<path d="M158.508 283.844H158.761" stroke="#333333" stroke-width="41.6075" stroke-linecap="round" stroke-linejoin="round"/>
<path d="M241.398 283.844H241.653" stroke="#333333" stroke-width="41.6075" stroke-linecap="round" stroke-linejoin="round"/>
<path d="M324.281 283.844H324.533" stroke="#333333" stroke-width="41.6075" stroke-linecap="round" stroke-linejoin="round"/>
<path d="M158.508 359.023H158.761" stroke="#333333" stroke-width="41.6075" stroke-linecap="round" stroke-linejoin="round"/>
<path d="M241.398 359.023H241.653" stroke="#333333" stroke-width="41.6075" stroke-linecap="round" stroke-linejoin="round"/>
<circle cx="382.887" cy="424.059" r="95.4574" stroke="#333333" stroke-width="22.6711"/>
<path d="M327.569 400.327C327.569 393.129 329.614 387.648 333.704 383.886C337.794 380.041 343.152 378.119 349.778 378.119C356.322 378.119 361.598 380.041 365.606 383.886C369.696 387.648 371.741 393.129 371.741 400.327C371.741 407.526 369.696 413.007 365.606 416.769C361.598 420.532 356.322 422.414 349.778 422.414C343.152 422.414 337.794 420.532 333.704 416.769C329.614 413.007 327.569 407.526 327.569 400.327ZM418.49 379.346L372.723 466.586H346.71L392.478 379.346H418.49ZM349.532 393.947C346.751 393.947 345.361 396.074 345.361 400.327C345.361 404.499 346.751 406.585 349.532 406.585C351.005 406.585 352.109 406.054 352.845 404.99C353.663 403.927 354.072 402.372 354.072 400.327C354.072 398.201 353.663 396.606 352.845 395.542C352.109 394.479 351.005 393.947 349.532 393.947ZM393.459 445.604C393.459 438.406 395.504 432.925 399.594 429.162C403.684 425.318 409.001 423.395 415.545 423.395C422.171 423.395 427.488 425.318 431.497 429.162C435.505 432.925 437.509 438.406 437.509 445.604C437.509 452.803 435.505 458.324 431.497 462.169C427.488 465.932 422.171 467.813 415.545 467.813C409.001 467.813 403.684 465.932 399.594 462.169C395.504 458.324 393.459 452.803 393.459 445.604ZM415.423 439.224C412.56 439.224 411.128 441.35 411.128 445.604C411.128 449.858 412.56 451.985 415.423 451.985C416.813 451.985 417.877 451.453 418.613 450.389C419.431 449.326 419.84 447.731 419.84 445.604C419.84 443.559 419.431 442.005 418.613 440.941C417.877 439.796 416.813 439.224 415.423 439.224Z" fill="#333333"/>
</svg>
