<svg width="514" height="510" viewBox="0 0 514 510" fill="none" xmlns="http://www.w3.org/2000/svg">
<path d="M446.778 177.562L336.432 67.2162M446.778 177.562L308.887 315.45C290.716 333.621 268.66 347.966 243.339 352.333C217.771 356.744 186.043 358.212 170.912 343.081C155.781 327.95 157.248 296.22 161.658 270.652C166.025 245.331 180.371 223.275 198.541 205.104L336.432 67.2162M446.778 177.562C446.778 177.562 529.534 94.8026 474.361 39.6297C419.188 -15.5432 336.432 67.2162 336.432 67.2162M489.688 255.149C489.688 434.461 434.515 489.634 255.204 489.634C75.8916 489.634 20.7188 434.461 20.7188 255.149C20.7188 75.837 75.8916 20.6641 255.204 20.6641" stroke="#333333" stroke-width="39.7787" stroke-linecap="round" stroke-linejoin="round"/>
</svg>
