<svg width="537" height="537" viewBox="0 0 537 537" fill="none" xmlns="http://www.w3.org/2000/svg">
<path d="M206.102 382.086V430.034C206.102 438.512 209.452 446.644 215.416 452.638C221.38 458.633 229.47 462 237.904 462H301.509C309.943 462 318.033 458.633 323.998 452.638C329.962 446.644 333.311 438.512 333.311 430.034V386.67" stroke="#333333" stroke-width="42.7097" stroke-linecap="round" stroke-linejoin="round"/>
<path d="M269.711 28.1953V60.8132" stroke="#333333" stroke-width="42.7097" stroke-linecap="round" stroke-linejoin="round"/>
<path d="M44.6484 253.258H77.2663" stroke="#333333" stroke-width="42.7097" stroke-linecap="round" stroke-linejoin="round"/>
<path d="M93.5625 91.8125L116.395 114.645" stroke="#333333" stroke-width="42.7097" stroke-linecap="round" stroke-linejoin="round"/>
<path d="M494.774 253.258H462.156" stroke="#333333" stroke-width="42.7097" stroke-linecap="round" stroke-linejoin="round"/>
<path d="M445.856 91.8125L423.023 114.645" stroke="#333333" stroke-width="42.7097" stroke-linecap="round" stroke-linejoin="round"/>
<path d="M203.386 382.108H336.052C360.012 370.222 380.121 351.812 394.065 328.999C408.006 306.188 415.216 279.9 414.857 253.171C414.18 214.912 398.67 178.41 371.597 151.353C344.524 124.296 308.001 108.796 269.719 108.117C231.424 108.797 194.889 124.309 167.814 151.384C140.739 178.46 125.239 214.983 124.582 253.257C124.241 279.973 131.456 306.239 145.399 329.035C159.34 351.831 179.441 370.228 203.386 382.108Z" stroke="#333333" stroke-width="42.7097" stroke-linecap="round" stroke-linejoin="round"/>
<path d="M269.711 462.008V510.935" stroke="#333333" stroke-width="42.7097" stroke-linecap="round" stroke-linejoin="round"/>
<path d="M269.711 302.18V382.094" stroke="#333333" stroke-width="42.7097" stroke-linecap="round" stroke-linejoin="round"/>
<path d="M220.797 253.258L269.724 302.185L318.651 253.258" stroke="#333333" stroke-width="42.7097" stroke-linecap="round" stroke-linejoin="round"/>
</svg>
