<svg width="598" height="598" viewBox="0 0 598 598" fill="none" xmlns="http://www.w3.org/2000/svg">
<path d="M249.625 547.522H349.072C473.38 547.522 523.104 497.799 523.104 373.491V224.321C523.104 100.012 473.38 50.2891 349.072 50.2891H249.625C125.317 50.2891 75.5938 100.012 75.5938 224.321V373.491C75.5938 497.799 125.317 547.522 249.625 547.522Z" stroke="#333333" stroke-width="29.9643" stroke-linecap="round" stroke-linejoin="round"/>
<path d="M203.281 348.656H203.569" stroke="#333333" stroke-width="44.5165" stroke-linecap="round" stroke-linejoin="round"/>
<path d="M299.203 348.656H299.492" stroke="#333333" stroke-width="44.5165" stroke-linecap="round" stroke-linejoin="round"/>
<path d="M395.188 348.656H395.473" stroke="#333333" stroke-width="44.5165" stroke-linecap="round" stroke-linejoin="round"/>
<path d="M203.281 435.664H203.569" stroke="#333333" stroke-width="44.5165" stroke-linecap="round" stroke-linejoin="round"/>
<path d="M299.203 435.664H299.492" stroke="#333333" stroke-width="44.5165" stroke-linecap="round" stroke-linejoin="round"/>
<path d="M395.188 435.664H395.473" stroke="#333333" stroke-width="44.5165" stroke-linecap="round" stroke-linejoin="round"/>
<path d="M203.084 182.075V202.794H236.498V222.055H203.084V244.526H240.875V264.516H178.133V162.085H240.875V182.075H203.084ZM373.075 162.085V264.516H348.124V203.086L325.215 264.516H305.079L282.025 202.94V264.516H257.074V162.085H286.548L315.293 232.998L343.746 162.085H373.075ZM415.969 162.085V264.516H391.017V162.085H415.969Z" fill="#333333"/>
</svg>
