<svg width="465" height="465" viewBox="0 0 465 465" fill="none" xmlns="http://www.w3.org/2000/svg">
<path d="M422.727 338.182V147.955H126.818V338.182H422.727ZM422.727 42.2727C433.939 42.2727 444.691 46.7264 452.619 54.6541C460.546 62.5818 465 73.334 465 84.5455V338.182C465 349.393 460.546 360.145 452.619 368.073C444.691 376.001 433.939 380.455 422.727 380.455H126.818C115.607 380.455 104.855 376.001 96.9268 368.073C88.9992 360.145 84.5455 349.393 84.5455 338.182V84.5455C84.5455 73.334 88.9992 62.5818 96.9268 54.6541C104.855 46.7264 115.607 42.2727 126.818 42.2727H147.955V0H190.227V42.2727H359.318V0H401.591V42.2727H422.727ZM349.384 212.632L255.539 306.477L198.893 249.832L221.298 227.427L255.539 261.668L326.98 190.227L349.384 212.632ZM42.2727 422.727H338.182V465H42.2727C31.0613 465 20.3091 460.546 12.3814 452.619C4.45372 444.691 0 433.939 0 422.727V169.091H42.2727V422.727Z" fill="black"/>
</svg>
