<svg width="538" height="479" viewBox="0 0 538 479" fill="none" xmlns="http://www.w3.org/2000/svg">
<g clip-path="url(#clip0_175_1264)">
<path d="M537.379 348.727V448.174C537.379 456.461 534.367 463.505 528.343 469.306C522.319 475.108 515.004 478.008 506.398 478.008H31.3487C22.7427 478.008 15.4276 475.108 9.40345 469.306C3.37927 463.505 0.367188 456.461 0.367188 448.174V348.727C0.367188 340.44 3.37927 333.396 9.40345 327.595C15.4276 321.794 22.7427 318.893 31.3487 318.893H181.415L224.983 361.158C237.462 372.76 252.092 378.561 268.873 378.561C285.655 378.561 300.285 372.76 312.764 361.158L356.654 318.893H506.398C515.004 318.893 522.319 321.794 528.343 327.595C534.367 333.396 537.379 340.44 537.379 348.727ZM432.494 171.899C436.152 180.393 434.646 187.645 427.976 193.653L283.396 332.878C279.523 336.815 274.682 338.783 268.873 338.783C263.064 338.783 258.223 336.815 254.351 332.878L109.771 193.653C103.101 187.645 101.595 180.393 105.252 171.899C108.91 163.819 115.257 159.779 124.293 159.779H206.91V20.5534C206.91 15.1667 208.954 10.5051 213.042 6.56871C217.13 2.63228 221.971 0.664062 227.565 0.664062H310.182C315.776 0.664062 320.617 2.63228 324.704 6.56871C328.792 10.5051 330.836 15.1667 330.836 20.5534V159.779H413.453C422.49 159.779 428.837 163.819 432.494 171.899Z" fill="#333333"/>
</g>
<defs>
<clipPath id="clip0_175_1264">
<rect width="537.012" height="477.344" fill="white" transform="translate(0.367188 0.664062)"/>
</clipPath>
</defs>
</svg>
