<svg width="537" height="541" viewBox="0 0 537 541" fill="none" xmlns="http://www.w3.org/2000/svg">
<path d="M130.96 24.0078H75.3627C60.6174 24.0078 46.4761 29.8653 36.0496 40.2918C25.6232 50.7183 19.7656 64.8596 19.7656 79.6049V135.202M408.945 24.0078H464.542C479.288 24.0078 493.429 29.8653 503.855 40.2918C514.282 50.7183 520.139 64.8596 520.139 79.6049V135.202M381.147 163.001V218.598M158.758 163.001V218.598M186.557 385.389C186.557 385.389 214.355 413.187 269.953 413.187C325.55 413.187 353.348 385.389 353.348 385.389M269.953 163.001V301.993H242.154M130.96 524.382H75.3627C60.6174 524.382 46.4761 518.524 36.0496 508.098C25.6232 497.671 19.7656 483.53 19.7656 468.785V413.187M408.945 524.382H464.542C479.288 524.382 493.429 518.524 503.855 508.098C514.282 497.671 520.139 483.53 520.139 468.785V413.187" stroke="#333333" stroke-width="32.7626" stroke-linecap="round" stroke-linejoin="round"/>
</svg>
