<svg width="520" height="508" viewBox="0 0 520 508" fill="none" xmlns="http://www.w3.org/2000/svg">
<path d="M415.19 171.877V349.068C415.19 366.66 408.201 383.532 395.762 395.971C383.322 408.41 366.451 415.399 348.859 415.399H304.561V481.729L171.668 415.399H83.0728C74.3621 415.399 65.7368 413.683 57.6892 410.35C49.6416 407.016 42.3293 402.13 36.17 395.971C23.7306 383.532 16.7422 366.66 16.7422 349.068V171.877C16.7422 154.285 23.7306 137.414 36.17 124.975C48.6094 112.535 65.4808 105.547 83.0728 105.547H348.859C366.451 105.547 383.322 112.535 395.762 124.975C408.201 137.414 415.19 154.285 415.19 171.877Z" stroke="#333333" stroke-width="31.9695" stroke-miterlimit="10"/>
<path d="M415.188 326.79H438.38C455.731 326.547 472.296 319.515 484.523 307.202C496.749 294.889 503.664 278.275 503.783 260.923V83.2681C503.783 65.6761 496.795 48.8047 484.356 36.3653C471.916 23.9259 455.045 16.9375 437.453 16.9375H171.667C154.075 16.9375 137.203 23.9259 124.764 36.3653C112.324 48.8047 105.336 65.6761 105.336 83.2681V106.461" stroke="#333333" stroke-width="31.9695" stroke-miterlimit="10"/>
<path d="M105.336 216.148H326.593" stroke="#333333" stroke-width="31.9695" stroke-miterlimit="10"/>
<path d="M105.336 304.758H326.593" stroke="#333333" stroke-width="31.9695" stroke-miterlimit="10"/>
</svg>
