<svg width="537" height="537" viewBox="0 0 537 537" fill="none" xmlns="http://www.w3.org/2000/svg">
<g clip-path="url(#clip0_179_1707)">
<path d="M74.4688 49.8594V488.043" stroke="#333333" stroke-width="51.7215" stroke-linecap="round"/>
<path d="M267.266 49.8594V488.043" stroke="#333333" stroke-width="51.7215" stroke-linecap="round"/>
<path d="M460.07 49.8594V488.043" stroke="#333333" stroke-width="51.7215" stroke-linecap="round"/>
<path d="M74.4266 321.947C98.8592 321.947 118.666 302.14 118.666 277.708C118.666 253.275 98.8592 233.469 74.4266 233.469C49.994 233.469 30.1875 253.275 30.1875 277.708C30.1875 302.14 49.994 321.947 74.4266 321.947Z" stroke="#333333" stroke-width="51.7215"/>
<path d="M267.223 151.525C291.656 151.525 311.463 131.719 311.463 107.286C311.463 82.8534 291.656 63.0469 267.223 63.0469C242.791 63.0469 222.984 82.8534 222.984 107.286C222.984 131.719 242.791 151.525 267.223 151.525Z" stroke="#333333" stroke-width="51.7215"/>
<path d="M460.044 474.83C484.476 474.83 504.283 455.023 504.283 430.591C504.283 406.158 484.476 386.352 460.044 386.352C435.611 386.352 415.805 406.158 415.805 430.591C415.805 455.023 435.611 474.83 460.044 474.83Z" stroke="#333333" stroke-width="51.7215"/>
</g>
<defs>
<clipPath id="clip0_179_1707">
<rect width="525.8" height="489.906" fill="white" transform="translate(4.33594 24.0078)"/>
</clipPath>
</defs>
</svg>
