<svg width="537" height="537" viewBox="0 0 537 537" fill="none" xmlns="http://www.w3.org/2000/svg">
<path d="M393.018 76.71C391.136 76.7148 389.288 76.2145 387.666 75.2615C343.024 51.361 304.427 41.2213 258.155 41.2213C212.114 41.2213 168.397 52.5681 128.633 75.2615C123.01 78.4402 116.079 76.2272 112.82 70.3929C111.365 67.5769 111.037 64.3128 111.902 61.2636C112.767 58.2144 114.76 55.6088 117.477 53.9763C160.363 29.653 208.851 16.9355 258.155 17.0793C307.676 17.0793 350.93 28.4261 398.369 53.7752C401.137 55.297 403.198 57.843 404.11 60.8669C405.022 63.8909 404.713 67.1519 403.248 69.9503C402.367 71.9371 400.936 73.6298 399.123 74.8279C397.309 76.026 395.191 76.6791 393.018 76.71V76.71ZM60.2707 203.456C57.8547 203.438 55.5022 202.68 53.531 201.283C50.9665 199.377 49.2418 196.55 48.7202 193.398C48.1986 190.245 48.9207 187.014 50.7346 184.383C73.76 150.585 103.042 124.028 137.937 105.439C210.947 66.3692 304.427 66.0876 377.668 105.198C412.553 123.787 441.845 150.102 464.87 183.659C466.677 186.292 467.394 189.521 466.873 192.672C466.352 195.822 464.632 198.648 462.074 200.558C460.833 201.486 459.414 202.149 457.907 202.507C456.399 202.864 454.834 202.909 453.308 202.637C451.783 202.366 450.329 201.784 449.037 200.928C447.745 200.072 446.643 198.96 445.798 197.661C424.875 167.243 398.369 143.342 366.975 126.684C300.242 91.1952 214.9 91.1952 148.399 126.925C116.773 143.825 90.2671 167.967 69.344 198.345C68.4418 199.944 67.1194 201.265 65.5201 202.166C63.9207 203.067 62.1054 203.513 60.2707 203.456V203.456ZM205.595 494.89C204.059 494.904 202.537 494.589 201.133 493.964C199.729 493.339 198.475 492.42 197.458 491.268C177.229 470.225 166.264 456.665 150.723 427.493C134.628 397.799 126.309 361.586 126.309 322.717C126.309 251.015 185.366 192.592 257.923 192.592C330.48 192.592 389.578 251.015 389.578 322.717C389.623 324.272 389.357 325.821 388.793 327.271C388.229 328.721 387.381 330.043 386.297 331.16C385.213 332.276 383.916 333.163 382.483 333.769C381.05 334.375 379.51 334.687 377.954 334.687C376.398 334.687 374.858 334.375 373.425 333.769C371.992 333.163 370.695 332.276 369.612 331.16C368.528 330.043 367.679 328.721 367.115 327.271C366.552 325.821 366.285 324.272 366.331 322.717C366.331 264.293 317.725 216.734 257.974 216.734C198.222 216.734 149.566 264.293 149.566 322.717C149.566 357.481 157 389.59 171.183 415.664C186.071 443.427 196.331 455.256 214.206 474.087C216.326 476.43 217.5 479.478 217.5 482.638C217.5 485.797 216.326 488.845 214.206 491.188C211.924 493.491 208.837 494.818 205.595 494.89V494.89ZM372.326 450.227C344.653 450.227 320.24 442.984 300.242 428.74C283.205 416.799 269.286 400.938 259.658 382.494C250.03 364.05 244.974 343.563 244.917 322.757C244.851 321.189 245.104 319.625 245.659 318.157C246.214 316.689 247.06 315.349 248.146 314.217C249.232 313.084 250.536 312.183 251.98 311.568C253.423 310.952 254.976 310.635 256.545 310.635C258.114 310.635 259.667 310.952 261.11 311.568C262.554 312.183 263.858 313.084 264.944 314.217C266.03 315.349 266.876 316.689 267.431 318.157C267.986 319.625 268.239 321.189 268.173 322.757C268.213 339.657 272.334 356.297 280.187 371.261C288.041 386.225 299.393 399.07 313.279 408.703C329.786 420.291 349.089 425.803 372.346 425.803C380.446 425.659 388.52 424.852 396.488 423.389C402.765 422.182 408.811 426.528 409.967 433.287C410.557 436.407 409.885 439.633 408.099 442.258C406.313 444.883 403.56 446.692 400.441 447.29C391.179 449.12 381.767 450.09 372.326 450.187V450.227ZM325.581 499.919C324.56 499.877 323.547 499.715 322.563 499.436C285.586 488.814 261.404 474.57 236.055 448.738C203.493 415.181 185.598 370.518 185.598 322.717C185.598 283.607 217.687 251.739 257.209 251.739C296.731 251.739 328.83 283.607 328.83 322.717C328.83 348.549 350.457 369.552 377.195 369.552C403.932 369.552 425.559 348.549 425.559 322.717C425.559 231.702 349.985 157.827 256.978 157.827C190.939 157.827 130.484 195.972 103.284 255.119C94.2304 274.674 89.563 297.609 89.563 322.717C89.563 341.548 91.1825 371.242 105.135 409.87C107.468 416.146 104.44 423.148 98.3949 425.32C96.9582 425.868 95.4256 426.119 93.8894 426.059C92.3532 425.998 90.8449 425.628 89.4553 424.971C88.0657 424.313 86.8234 423.381 85.803 422.231C84.7826 421.081 84.0051 419.737 83.5174 418.279C72.2981 387.667 66.5506 355.32 66.5375 322.717C66.5375 293.747 71.889 267.392 82.3505 244.497C113.282 177.101 181.876 133.444 256.978 133.444C362.78 133.444 448.816 218.182 448.816 322.476C448.816 361.586 416.727 393.453 377.195 393.453C337.662 393.453 305.573 361.586 305.573 322.476C305.584 296.644 283.956 275.6 257.219 275.6C230.482 275.6 208.855 296.603 208.855 322.435C208.855 363.678 224.205 402.345 252.34 431.316C274.471 454.009 295.595 466.523 328.378 475.978C334.654 477.668 338.145 484.428 336.515 490.705C336.008 493.253 334.649 495.553 332.662 497.227C330.675 498.901 328.178 499.851 325.581 499.919V499.919Z" fill="#333333" stroke="#333333" stroke-width="4.18723"/>
</svg>
