<svg width="644" height="644" viewBox="0 0 644 644" fill="none" xmlns="http://www.w3.org/2000/svg">
<mask id="path-1-outside-1_179_1688" maskUnits="userSpaceOnUse" x="62.9141" y="62.7656" width="518" height="518" fill="black">
<rect fill="white" x="62.9141" y="62.7656" width="518" height="518"/>
<path d="M289.873 80.8341C289.873 76.5725 291.566 72.4854 294.579 69.472C297.593 66.4586 301.68 64.7656 305.941 64.7656H402.352C406.614 64.7656 410.701 66.4586 413.715 69.472C416.728 72.4854 418.421 76.5725 418.421 80.8341V112.971C418.421 117.233 416.728 121.32 413.715 124.333C410.701 127.347 406.614 129.04 402.352 129.04H322.01V161.177C364.626 161.177 405.497 178.106 435.631 208.24C465.766 238.374 482.695 279.245 482.695 321.861V353.998H514.832C531.878 353.998 548.227 360.77 560.28 372.824C572.334 384.878 579.106 401.226 579.106 418.272V546.82C579.106 555.344 575.72 563.518 569.693 569.545C563.666 575.572 555.492 578.957 546.969 578.957H97.051C88.5278 578.957 80.3536 575.572 74.3268 569.545C68.2999 563.518 64.9141 555.344 64.9141 546.82V418.272C64.9141 401.226 71.6858 384.878 83.7395 372.824C95.7932 360.77 112.142 353.998 129.188 353.998H161.325V321.861C161.33 284.822 174.125 248.92 197.548 220.227C220.971 191.534 253.584 171.81 289.873 164.39V80.8341ZM514.832 386.135H466.626C462.365 386.135 458.278 384.443 455.264 381.429C452.251 378.416 450.558 374.329 450.558 370.067V321.861C450.558 287.768 437.014 255.072 412.907 230.964C388.8 206.857 356.103 193.314 322.01 193.314C287.917 193.314 255.22 206.857 231.113 230.964C207.005 255.072 193.462 287.768 193.462 321.861V370.067C193.462 374.329 191.769 378.416 188.756 381.429C185.742 384.443 181.655 386.135 177.394 386.135H129.188C120.665 386.135 112.491 389.521 106.464 395.548C100.437 401.575 97.051 409.749 97.051 418.272V546.82H257.736V482.546C257.736 474.023 261.122 465.849 267.149 459.822C273.176 453.795 281.35 450.409 289.873 450.409H354.147C362.67 450.409 370.844 453.795 376.871 459.822C382.898 465.849 386.284 474.023 386.284 482.546V546.82H546.969V418.272C546.969 409.749 543.583 401.575 537.556 395.548C531.529 389.521 523.355 386.135 514.832 386.135ZM193.462 434.341C193.462 430.079 191.769 425.992 188.756 422.979C185.742 419.965 181.655 418.272 177.394 418.272C173.132 418.272 169.045 419.965 166.031 422.979C163.018 425.992 161.325 430.079 161.325 434.341V498.615C161.325 502.877 163.018 506.964 166.031 509.977C169.045 512.99 173.132 514.683 177.394 514.683C181.655 514.683 185.742 512.99 188.756 509.977C191.769 506.964 193.462 502.877 193.462 498.615V434.341ZM482.695 434.341C482.695 430.079 481.002 425.992 477.988 422.979C474.975 419.965 470.888 418.272 466.626 418.272C462.365 418.272 458.278 419.965 455.264 422.979C452.251 425.992 450.558 430.079 450.558 434.341V498.615C450.558 502.877 452.251 506.964 455.264 509.977C458.278 512.99 462.365 514.683 466.626 514.683C470.888 514.683 474.975 512.99 477.988 509.977C481.002 506.964 482.695 502.877 482.695 498.615V434.341ZM273.804 289.725C269.543 289.725 265.456 291.417 262.442 294.431C259.429 297.444 257.736 301.531 257.736 305.793V370.067C257.736 374.329 259.429 378.416 262.442 381.429C265.456 384.443 269.543 386.135 273.804 386.135C278.066 386.135 282.153 384.443 285.167 381.429C288.18 378.416 289.873 374.329 289.873 370.067V305.793C289.873 301.531 288.18 297.444 285.167 294.431C282.153 291.417 278.066 289.725 273.804 289.725ZM386.284 305.793C386.284 301.531 384.591 297.444 381.578 294.431C378.564 291.417 374.477 289.725 370.215 289.725C365.954 289.725 361.867 291.417 358.853 294.431C355.84 297.444 354.147 301.531 354.147 305.793V370.067C354.147 374.329 355.84 378.416 358.853 381.429C361.867 384.443 365.954 386.135 370.215 386.135C374.477 386.135 378.564 384.443 381.578 381.429C384.591 378.416 386.284 374.329 386.284 370.067V305.793ZM289.873 546.82H354.147V482.546H289.873V546.82Z"/>
</mask>
<path d="M289.873 80.8341C289.873 76.5725 291.566 72.4854 294.579 69.472C297.593 66.4586 301.68 64.7656 305.941 64.7656H402.352C406.614 64.7656 410.701 66.4586 413.715 69.472C416.728 72.4854 418.421 76.5725 418.421 80.8341V112.971C418.421 117.233 416.728 121.32 413.715 124.333C410.701 127.347 406.614 129.04 402.352 129.04H322.01V161.177C364.626 161.177 405.497 178.106 435.631 208.24C465.766 238.374 482.695 279.245 482.695 321.861V353.998H514.832C531.878 353.998 548.227 360.77 560.28 372.824C572.334 384.878 579.106 401.226 579.106 418.272V546.82C579.106 555.344 575.72 563.518 569.693 569.545C563.666 575.572 555.492 578.957 546.969 578.957H97.051C88.5278 578.957 80.3536 575.572 74.3268 569.545C68.2999 563.518 64.9141 555.344 64.9141 546.82V418.272C64.9141 401.226 71.6858 384.878 83.7395 372.824C95.7932 360.77 112.142 353.998 129.188 353.998H161.325V321.861C161.33 284.822 174.125 248.92 197.548 220.227C220.971 191.534 253.584 171.81 289.873 164.39V80.8341ZM514.832 386.135H466.626C462.365 386.135 458.278 384.443 455.264 381.429C452.251 378.416 450.558 374.329 450.558 370.067V321.861C450.558 287.768 437.014 255.072 412.907 230.964C388.8 206.857 356.103 193.314 322.01 193.314C287.917 193.314 255.22 206.857 231.113 230.964C207.005 255.072 193.462 287.768 193.462 321.861V370.067C193.462 374.329 191.769 378.416 188.756 381.429C185.742 384.443 181.655 386.135 177.394 386.135H129.188C120.665 386.135 112.491 389.521 106.464 395.548C100.437 401.575 97.051 409.749 97.051 418.272V546.82H257.736V482.546C257.736 474.023 261.122 465.849 267.149 459.822C273.176 453.795 281.35 450.409 289.873 450.409H354.147C362.67 450.409 370.844 453.795 376.871 459.822C382.898 465.849 386.284 474.023 386.284 482.546V546.82H546.969V418.272C546.969 409.749 543.583 401.575 537.556 395.548C531.529 389.521 523.355 386.135 514.832 386.135ZM193.462 434.341C193.462 430.079 191.769 425.992 188.756 422.979C185.742 419.965 181.655 418.272 177.394 418.272C173.132 418.272 169.045 419.965 166.031 422.979C163.018 425.992 161.325 430.079 161.325 434.341V498.615C161.325 502.877 163.018 506.964 166.031 509.977C169.045 512.99 173.132 514.683 177.394 514.683C181.655 514.683 185.742 512.99 188.756 509.977C191.769 506.964 193.462 502.877 193.462 498.615V434.341ZM482.695 434.341C482.695 430.079 481.002 425.992 477.988 422.979C474.975 419.965 470.888 418.272 466.626 418.272C462.365 418.272 458.278 419.965 455.264 422.979C452.251 425.992 450.558 430.079 450.558 434.341V498.615C450.558 502.877 452.251 506.964 455.264 509.977C458.278 512.99 462.365 514.683 466.626 514.683C470.888 514.683 474.975 512.99 477.988 509.977C481.002 506.964 482.695 502.877 482.695 498.615V434.341ZM273.804 289.725C269.543 289.725 265.456 291.417 262.442 294.431C259.429 297.444 257.736 301.531 257.736 305.793V370.067C257.736 374.329 259.429 378.416 262.442 381.429C265.456 384.443 269.543 386.135 273.804 386.135C278.066 386.135 282.153 384.443 285.167 381.429C288.18 378.416 289.873 374.329 289.873 370.067V305.793C289.873 301.531 288.18 297.444 285.167 294.431C282.153 291.417 278.066 289.725 273.804 289.725ZM386.284 305.793C386.284 301.531 384.591 297.444 381.578 294.431C378.564 291.417 374.477 289.725 370.215 289.725C365.954 289.725 361.867 291.417 358.853 294.431C355.84 297.444 354.147 301.531 354.147 305.793V370.067C354.147 374.329 355.84 378.416 358.853 381.429C361.867 384.443 365.954 386.135 370.215 386.135C374.477 386.135 378.564 384.443 381.578 381.429C384.591 378.416 386.284 374.329 386.284 370.067V305.793ZM289.873 546.82H354.147V482.546H289.873V546.82Z" fill="#333333"/>
<path d="M289.873 80.8341C289.873 76.5725 291.566 72.4854 294.579 69.472C297.593 66.4586 301.68 64.7656 305.941 64.7656H402.352C406.614 64.7656 410.701 66.4586 413.715 69.472C416.728 72.4854 418.421 76.5725 418.421 80.8341V112.971C418.421 117.233 416.728 121.32 413.715 124.333C410.701 127.347 406.614 129.04 402.352 129.04H322.01V161.177C364.626 161.177 405.497 178.106 435.631 208.24C465.766 238.374 482.695 279.245 482.695 321.861V353.998H514.832C531.878 353.998 548.227 360.77 560.28 372.824C572.334 384.878 579.106 401.226 579.106 418.272V546.82C579.106 555.344 575.72 563.518 569.693 569.545C563.666 575.572 555.492 578.957 546.969 578.957H97.051C88.5278 578.957 80.3536 575.572 74.3268 569.545C68.2999 563.518 64.9141 555.344 64.9141 546.82V418.272C64.9141 401.226 71.6858 384.878 83.7395 372.824C95.7932 360.77 112.142 353.998 129.188 353.998H161.325V321.861C161.33 284.822 174.125 248.92 197.548 220.227C220.971 191.534 253.584 171.81 289.873 164.39V80.8341ZM514.832 386.135H466.626C462.365 386.135 458.278 384.443 455.264 381.429C452.251 378.416 450.558 374.329 450.558 370.067V321.861C450.558 287.768 437.014 255.072 412.907 230.964C388.8 206.857 356.103 193.314 322.01 193.314C287.917 193.314 255.22 206.857 231.113 230.964C207.005 255.072 193.462 287.768 193.462 321.861V370.067C193.462 374.329 191.769 378.416 188.756 381.429C185.742 384.443 181.655 386.135 177.394 386.135H129.188C120.665 386.135 112.491 389.521 106.464 395.548C100.437 401.575 97.051 409.749 97.051 418.272V546.82H257.736V482.546C257.736 474.023 261.122 465.849 267.149 459.822C273.176 453.795 281.35 450.409 289.873 450.409H354.147C362.67 450.409 370.844 453.795 376.871 459.822C382.898 465.849 386.284 474.023 386.284 482.546V546.82H546.969V418.272C546.969 409.749 543.583 401.575 537.556 395.548C531.529 389.521 523.355 386.135 514.832 386.135ZM193.462 434.341C193.462 430.079 191.769 425.992 188.756 422.979C185.742 419.965 181.655 418.272 177.394 418.272C173.132 418.272 169.045 419.965 166.031 422.979C163.018 425.992 161.325 430.079 161.325 434.341V498.615C161.325 502.877 163.018 506.964 166.031 509.977C169.045 512.99 173.132 514.683 177.394 514.683C181.655 514.683 185.742 512.99 188.756 509.977C191.769 506.964 193.462 502.877 193.462 498.615V434.341ZM482.695 434.341C482.695 430.079 481.002 425.992 477.988 422.979C474.975 419.965 470.888 418.272 466.626 418.272C462.365 418.272 458.278 419.965 455.264 422.979C452.251 425.992 450.558 430.079 450.558 434.341V498.615C450.558 502.877 452.251 506.964 455.264 509.977C458.278 512.99 462.365 514.683 466.626 514.683C470.888 514.683 474.975 512.99 477.988 509.977C481.002 506.964 482.695 502.877 482.695 498.615V434.341ZM273.804 289.725C269.543 289.725 265.456 291.417 262.442 294.431C259.429 297.444 257.736 301.531 257.736 305.793V370.067C257.736 374.329 259.429 378.416 262.442 381.429C265.456 384.443 269.543 386.135 273.804 386.135C278.066 386.135 282.153 384.443 285.167 381.429C288.18 378.416 289.873 374.329 289.873 370.067V305.793C289.873 301.531 288.18 297.444 285.167 294.431C282.153 291.417 278.066 289.725 273.804 289.725ZM386.284 305.793C386.284 301.531 384.591 297.444 381.578 294.431C378.564 291.417 374.477 289.725 370.215 289.725C365.954 289.725 361.867 291.417 358.853 294.431C355.84 297.444 354.147 301.531 354.147 305.793V370.067C354.147 374.329 355.84 378.416 358.853 381.429C361.867 384.443 365.954 386.135 370.215 386.135C374.477 386.135 378.564 384.443 381.578 381.429C384.591 378.416 386.284 374.329 386.284 370.067V305.793ZM289.873 546.82H354.147V482.546H289.873V546.82Z" stroke="#333333" stroke-width="2.62457" mask="url(#path-1-outside-1_179_1688)"/>
<path d="M272.267 288.734V384.814M368.347 288.734V384.814M176.188 417.945V514.025M467.74 417.945V514.025" stroke="#333333" stroke-width="39.3686" stroke-linecap="round"/>
</svg>
