<svg width="537" height="537" viewBox="0 0 537 537" fill="none" xmlns="http://www.w3.org/2000/svg">
<path d="M39.4219 215.859H499.568" stroke="#333333" stroke-width="31.0274" stroke-linecap="round"/>
<path d="M107.078 324.148H161.213" stroke="#333333" stroke-width="31.0274" stroke-linecap="round"/>
<path d="M242.422 324.148H296.557" stroke="#333333" stroke-width="31.0274" stroke-linecap="round"/>
<path d="M25.8828 188.809C25.8828 137.77 25.8828 112.25 41.7386 96.3949C57.5942 80.5391 83.1137 80.5391 134.153 80.5391H269.49H404.827C455.865 80.5391 481.385 80.5391 497.241 96.3949C513.097 112.25 513.097 137.77 513.097 188.809V270.011V351.213C513.097 402.252 513.097 427.771 497.241 443.627C481.385 459.483 455.865 459.483 404.827 459.483H269.49H134.153C83.1137 459.483 57.5942 459.483 41.7386 443.627C25.8828 427.771 25.8828 402.252 25.8828 351.213V270.011V188.809Z" stroke="#333333" stroke-width="31.0274" stroke-linejoin="round"/>
</svg>
