<svg width="374" height="524" viewBox="0 0 374 524" fill="none" xmlns="http://www.w3.org/2000/svg">
<path d="M331.912 255.419C326.975 255.419 322.24 256.305 317.846 257.924C310.725 245.263 297.301 236.701 281.934 236.701C276.998 236.701 272.262 237.586 267.87 239.204C260.75 226.543 247.324 217.983 231.957 217.983C228.991 217.983 226.099 218.308 223.308 218.914V188.654C223.308 165.532 204.768 146.719 181.98 146.719C159.191 146.719 140.651 165.532 140.651 188.654V322.03C133.254 320.102 124.176 318.822 113.049 318.634C81.9685 318.093 66.4005 336.692 64.9904 354.185C63.5019 372.639 76.5684 388.611 95.3831 391.336C116.48 394.395 127.248 412.025 143.069 440.537C163.577 477.493 189.095 523.485 259.287 523.485C305.885 523.485 340.018 502.95 357.998 464.096C371.659 434.575 373.239 400.35 373.239 377.176V297.352C373.239 274.231 354.699 255.419 331.912 255.419ZM340.561 377.176C340.561 455.762 315.495 490.806 259.287 490.806C208.335 490.806 191.332 460.164 171.643 424.681C156 396.488 138.269 364.531 100.069 358.996C98.285 358.737 97.4647 358.022 97.5644 356.813C97.7556 354.422 102.514 351.177 112.494 351.306C131.911 351.638 140.28 356.159 142.233 358.175C145.295 364.628 152.298 368.427 159.513 367.302C167.467 366.059 173.33 359.21 173.33 351.159V188.654C173.33 183.549 177.21 179.397 181.98 179.397C186.749 179.397 190.63 183.549 190.63 188.654V259.916V336.933C190.63 345.955 197.946 353.272 206.969 353.272C215.992 353.272 223.308 345.955 223.308 336.933V259.916C223.308 254.813 227.187 250.661 231.957 250.661C236.726 250.661 240.607 254.813 240.607 259.916V278.634V336.933C240.607 345.955 247.923 353.272 256.946 353.272C265.969 353.272 273.285 345.955 273.285 336.933V278.634C273.285 273.531 277.164 269.379 281.934 269.379C286.703 269.379 290.582 273.531 290.582 278.634V294.986C290.582 295.251 290.582 296.821 290.582 297.352V336.933C290.582 345.955 297.899 353.272 306.921 353.272C315.944 353.272 323.261 345.955 323.261 336.933V297.352C323.261 292.25 327.141 288.098 331.912 288.098C336.682 288.098 340.561 292.25 340.561 297.352V377.176Z" fill="#333333"/>
<path d="M47.4163 95.7723C73.2439 95.7723 94.2546 74.4283 94.2546 48.1956C94.2546 21.9612 73.2439 0.617188 47.4163 0.617188C21.5888 0.617188 0.578125 21.9612 0.578125 48.1956C0.578125 74.43 21.5888 95.7723 47.4163 95.7723ZM47.4163 33.2958C55.2233 33.2958 61.576 39.9802 61.576 48.1956C61.576 56.4093 55.2233 63.0938 47.4163 63.0938C39.6094 63.0938 33.2567 56.4093 33.2567 48.1956C33.2567 39.9802 39.6094 33.2958 47.4163 33.2958Z" fill="#333333"/>
<path d="M181.512 95.7723C207.339 95.7723 228.35 74.4283 228.35 48.1956C228.35 21.9612 207.339 0.617188 181.512 0.617188C155.684 0.617188 134.672 21.9612 134.672 48.1956C134.672 74.43 155.686 95.7723 181.512 95.7723ZM181.512 33.2958C189.319 33.2958 195.671 39.9802 195.671 48.1956C195.671 56.4093 189.319 63.0938 181.512 63.0938C173.703 63.0938 167.35 56.4093 167.35 48.1956C167.35 39.9802 173.703 33.2958 181.512 33.2958Z" fill="#333333"/>
<path d="M315.604 95.7723C341.431 95.7723 362.442 74.4283 362.442 48.1956C362.442 21.9612 341.431 0.617188 315.604 0.617188C289.776 0.617188 268.766 21.9612 268.766 48.1956C268.766 74.43 289.776 95.7723 315.604 95.7723ZM315.604 33.2958C323.411 33.2958 329.763 39.9802 329.763 48.1956C329.763 56.4093 323.411 63.0938 315.604 63.0938C307.797 63.0938 301.444 56.4093 301.444 48.1956C301.444 39.9802 307.797 33.2958 315.604 33.2958Z" fill="#333333"/>
<path d="M94.2546 185.538C94.2546 159.303 73.2439 137.961 47.4163 137.961C21.5888 137.961 0.578125 159.303 0.578125 185.538C0.578125 211.774 21.5888 233.116 47.4163 233.116C73.2439 233.116 94.2546 211.774 94.2546 185.538ZM47.4163 200.438C39.6094 200.438 33.2567 193.753 33.2567 185.538C33.2567 177.324 39.6094 170.64 47.4163 170.64C55.2233 170.64 61.576 177.324 61.576 185.538C61.576 193.753 55.2233 200.438 47.4163 200.438Z" fill="#333333"/>
<path d="M315.604 233.116C341.431 233.116 362.442 211.772 362.442 185.538C362.442 159.303 341.431 137.961 315.604 137.961C289.776 137.961 268.766 159.305 268.766 185.538C268.766 211.774 289.776 233.116 315.604 233.116ZM315.604 170.64C323.411 170.64 329.763 177.324 329.763 185.538C329.763 193.753 323.411 200.438 315.604 200.438C307.797 200.438 301.444 193.753 301.444 185.538C301.444 177.324 307.797 170.64 315.604 170.64Z" fill="#333333"/>
</svg>
