<svg width="469" height="534" viewBox="0 0 469 534" fill="none" xmlns="http://www.w3.org/2000/svg">
<path d="M249.179 451.226C15.1953 451.226 15.1953 412.025 15.1953 301.77V169.465C15.1953 59.2111 59.297 15.1094 169.551 15.1094H257.755C368.009 15.1094 412.111 59.2111 412.111 169.465V328.722" stroke="#333333" stroke-width="28.5804" stroke-linecap="round" stroke-linejoin="round"/>
<path d="M312.887 138.147V160.197C312.887 178.279 298.113 193.275 279.811 193.275H147.506C129.424 193.275 114.43 178.5 114.43 160.197V138.147C114.43 120.065 129.204 105.07 147.506 105.07H279.811C298.113 105.07 312.887 119.844 312.887 138.147Z" stroke="#333333" stroke-width="28.5804" stroke-linecap="round" stroke-linejoin="round"/>
<path d="M128.438 279.727H128.695" stroke="#333333" stroke-width="42.7174" stroke-linecap="round" stroke-linejoin="round"/>
<path d="M213.547 279.727H213.805" stroke="#333333" stroke-width="42.7174" stroke-linecap="round" stroke-linejoin="round"/>
<path d="M298.648 279.727H298.905" stroke="#333333" stroke-width="42.7174" stroke-linecap="round" stroke-linejoin="round"/>
<path d="M128.438 356.891H128.695" stroke="#333333" stroke-width="42.7174" stroke-linecap="round" stroke-linejoin="round"/>
<path d="M213.547 356.891H213.805" stroke="#333333" stroke-width="42.7174" stroke-linecap="round" stroke-linejoin="round"/>
<circle cx="358.806" cy="423.665" r="98.0038" stroke="#333333" stroke-width="23.2759"/>
<path d="M302.036 399.701C302.036 392.31 304.136 386.683 308.335 382.82C312.534 378.873 318.035 376.899 324.837 376.899C331.556 376.899 336.973 378.873 341.088 382.82C345.287 386.683 347.387 392.31 347.387 399.701C347.387 407.091 345.287 412.718 341.088 416.581C336.973 420.444 331.556 422.376 324.837 422.376C318.035 422.376 312.534 420.444 308.335 416.581C304.136 412.718 302.036 407.091 302.036 399.701ZM395.383 378.159L348.395 467.727H321.688L368.676 378.159H395.383ZM324.585 393.15C321.73 393.15 320.302 395.333 320.302 399.701C320.302 403.984 321.73 406.125 324.585 406.125C326.097 406.125 327.231 405.579 327.987 404.488C328.827 403.396 329.246 401.8 329.246 399.701C329.246 397.517 328.827 395.879 327.987 394.788C327.231 393.696 326.097 393.15 324.585 393.15ZM369.684 446.185C369.684 438.795 371.784 433.168 375.983 429.304C380.182 425.357 385.641 423.384 392.359 423.384C399.162 423.384 404.621 425.357 408.736 429.304C412.851 433.168 414.909 438.795 414.909 446.185C414.909 453.575 412.851 459.244 408.736 463.191C404.621 467.055 399.162 468.986 392.359 468.986C385.641 468.986 380.182 467.055 375.983 463.191C371.784 459.244 369.684 453.575 369.684 446.185ZM392.234 439.634C389.294 439.634 387.824 441.818 387.824 446.185C387.824 450.552 389.294 452.736 392.234 452.736C393.661 452.736 394.753 452.19 395.509 451.098C396.349 450.006 396.769 448.369 396.769 446.185C396.769 444.085 396.349 442.49 395.509 441.398C394.753 440.222 393.661 439.634 392.234 439.634Z" fill="#333333"/>
</svg>
