<svg width="463" height="525" viewBox="0 0 463 525" fill="none" xmlns="http://www.w3.org/2000/svg">
<path d="M307.406 375.586L307.406 428.434" stroke="#333333" stroke-width="26.4759" stroke-linecap="round"/>
<circle cx="306.767" cy="340.994" r="14.4703" fill="#333333"/>
<path d="M374.439 119.169L381.893 111.239C390.893 97.7541 395.643 82.0419 395.643 65.8327V39.699C395.643 25.0796 383.759 13.1953 369.139 13.1953C354.52 13.1953 342.635 25.0796 342.635 39.699V50.3001C342.635 53.217 340.251 55.6017 337.334 55.6017C334.417 55.6017 332.032 53.2148 332.032 50.3001V39.699C332.032 25.0796 320.148 13.1953 305.528 13.1953C290.909 13.1953 279.025 25.0796 279.025 39.699V50.3001C279.025 53.217 276.64 55.6017 273.723 55.6017C270.806 55.6017 268.422 53.2148 268.422 50.3001V39.699C268.422 25.0796 255.716 13.1953 241.096 13.1953C226.477 13.1953 215.414 25.0796 215.414 39.699V65.8327C215.414 82.0419 220.164 97.7432 229.164 111.239" stroke="#333333" stroke-width="25.824"/>
<path d="M186.107 266.341H153.054V108.57V107.317H151.801H2.6875H1.43391V108.57V310.001V311.255H2.6875H151.801H153.054V310.001V290.051H180.807L201.747 300.519L203.561 301.426V299.398V293.819L216.36 279.014L218.153 276.939L215.411 276.94L207.607 276.942L186.668 266.474L186.403 266.341H186.107ZM129.345 287.546H25.1454V131.026H129.345V287.546Z" fill="#333333" stroke="#333333" stroke-width="2.50719"/>
<path d="M253.43 195.57C253.43 225.073 228.959 254.472 205.584 277.805C179.08 304.25 164.853 339.136 165.539 376.024C166.859 447.545 227.813 508.082 301.405 510.961C303.389 511.044 305.353 511.077 307.325 511.077C344.122 511.077 378.769 497.584 405.412 472.741C433.507 446.552 448.978 411.314 448.978 373.517C448.978 336.659 434.163 302.068 407.234 276.08" stroke="#333333" stroke-width="27.0776"/>
<path d="M299.327 177.485L254.606 213.264L253.627 214.047L252.844 213.068L239.602 196.508L238.819 195.529L239.798 194.746L300.216 146.41L301.092 145.709L301.886 146.502L323.28 167.896C328.903 173.51 337.926 174.148 344.265 169.393L344.267 169.391C347.778 166.766 350.018 162.915 350.569 158.566L351.812 158.723L350.569 158.566C351.119 154.219 349.913 149.936 347.177 146.51L299.327 177.485ZM299.327 177.485L306.507 184.672L306.507 184.673C307.586 185.751 308.775 186.659 309.889 187.507C309.912 187.525 309.935 187.543 309.958 187.56C310.791 194.864 313.455 199.444 317.407 203.988C312.558 209.727 309.554 217.091 309.554 225.194C309.554 233.3 312.57 240.668 317.412 246.398C312.561 252.135 309.554 259.472 309.554 267.581C309.554 285.83 324.385 300.64 342.613 300.64H385.019C403.245 300.64 418.078 285.83 418.078 267.603C418.078 259.493 415.061 252.147 410.219 246.41C415.071 240.672 418.078 233.324 418.078 225.205C418.078 217.087 415.061 209.738 410.219 204.002C415.071 198.262 418.078 190.905 418.078 182.796C418.076 174.693 415.059 167.345 410.217 161.61C415.07 155.869 418.076 148.491 418.076 140.386C418.076 122.16 403.247 107.305 385.017 107.305H346.161L339.157 98.5516L338.908 98.2394L338.523 98.1295L255.672 74.4354L255.035 74.253L254.525 74.6774L189.897 128.507H141.18H139.926V129.761V150.965V152.218H141.18H198.026H198.48L198.828 151.928L260.572 100.499L325.121 118.95L347.176 146.509L299.327 177.485ZM394.365 267.583V267.583C394.366 272.733 390.168 276.93 385.017 276.93H342.611C337.461 276.93 333.263 272.731 333.263 267.583C333.263 262.433 337.462 258.236 342.611 258.236H385.017C390.167 258.236 394.365 262.435 394.365 267.583ZM394.365 225.177V225.177C394.366 230.326 390.168 234.524 385.017 234.524H342.611C337.461 234.524 333.263 230.325 333.263 225.177C333.263 220.027 337.462 215.829 342.611 215.829H385.017C390.167 215.829 394.365 220.028 394.365 225.177ZM365.682 131.703L365.132 131.016H385.017C390.167 131.016 394.365 135.216 394.365 140.364V140.364C394.366 145.512 390.167 149.711 385.017 149.711H373.651C372.538 143.223 369.947 137.038 365.683 131.704L365.682 131.703ZM385.017 192.118H352.379C354.498 191.076 356.546 189.832 358.49 188.374C363.796 184.394 367.758 179.221 370.462 173.423H385.017C390.167 173.423 394.365 177.622 394.365 182.77C394.365 187.918 390.167 192.118 385.017 192.118Z" fill="#333333" stroke="#333333" stroke-width="2.50719"/>
</svg>
