<svg width="458" height="520" viewBox="0 0 458 520" fill="none" xmlns="http://www.w3.org/2000/svg">
<path d="M370.257 120.392L377.592 112.59C386.448 99.3207 391.121 83.8604 391.121 67.9109V42.1961C391.121 27.811 379.428 16.1172 365.043 16.1172C350.657 16.1172 338.964 27.811 338.964 42.1961V52.6273C338.964 55.4974 336.617 57.8439 333.747 57.8439C330.877 57.8439 328.53 55.4952 328.53 52.6273V42.1961C328.53 27.811 316.836 16.1172 302.451 16.1172C288.066 16.1172 276.372 27.811 276.372 42.1961V52.6273C276.372 55.4974 274.026 57.8439 271.156 57.8439C268.286 57.8439 265.939 55.4952 265.939 52.6273V42.1961C265.939 27.811 253.437 16.1172 239.052 16.1172C224.667 16.1172 213.781 27.811 213.781 42.1961V67.9109C213.781 83.8604 218.455 99.3099 227.311 112.59" stroke="#333333" stroke-width="31.8644"/>
<path d="M184.941 264.335H153.278V109.953V107.86H151.184H4.46094H2.36732V109.953V308.156V310.249H4.46094H151.184H153.278V308.156V289.385H179.523L199.945 299.595L202.975 301.11V297.722V292.553L215.359 278.227L218.354 274.763L213.775 274.764L206.299 274.766L185.877 264.556L185.435 264.335H184.941ZM128.228 285.2H27.419V132.909H128.228V285.2Z" fill="#333333" stroke="#333333" stroke-width="4.18723"/>
<path d="M251.177 195.57C251.177 224.6 227.099 253.528 204.098 276.487C178.019 302.508 164.019 336.835 164.695 373.132C165.994 443.506 225.971 503.073 298.383 505.906C300.335 505.987 302.268 506.02 304.209 506.02C340.416 506.02 374.507 492.744 400.723 468.299C428.368 442.53 443.591 407.856 443.591 370.665C443.591 334.398 429.013 300.361 402.516 274.79" stroke="#333333" stroke-width="27.6776"/>
<path d="M335.801 99.0476L336.218 99.5689L342.851 107.859H380.671C399.085 107.859 414.061 122.862 414.061 141.27C414.061 149.204 411.21 156.444 406.584 162.155C411.199 167.856 414.061 175.067 414.063 183V183.001C414.063 190.939 411.211 198.16 406.586 203.867C411.201 209.57 414.063 216.783 414.063 224.73C414.063 232.678 411.211 239.89 406.586 245.596C411.201 251.298 414.063 258.509 414.063 266.448C414.063 284.859 399.081 299.816 380.674 299.816H338.947C320.536 299.816 305.558 284.858 305.558 266.426C305.558 258.488 308.41 251.286 313.034 245.583C308.417 239.884 305.558 232.654 305.558 224.719C305.558 216.792 308.403 209.569 313.02 203.862C309.371 199.544 306.859 195.047 306.004 188.152C304.971 187.363 303.841 186.485 302.812 185.455L302.811 185.454L296.29 178.927L252.888 213.652L251.253 214.96L249.945 213.324L236.915 197.03L235.608 195.395L237.243 194.088L296.692 146.526L298.156 145.355L299.481 146.68L320.531 167.731L335.801 99.0476ZM335.801 99.0476L335.159 98.864M335.801 99.0476L335.159 98.864M335.159 98.864L253.636 75.5496L252.572 75.2451M335.159 98.864L252.572 75.2451M252.572 75.2451L251.721 75.9538M252.572 75.2451L251.721 75.9538M251.721 75.9538L188.367 128.721H140.742H138.649M251.721 75.9538L138.649 128.721M138.649 128.721V130.815M138.649 128.721V130.815M138.649 130.815V151.679V153.773M138.649 130.815V153.773M138.649 153.773H140.742M138.649 153.773H140.742M140.742 153.773H196.677H197.435M140.742 153.773H197.435M197.435 153.773L198.017 153.288M197.435 153.773L198.017 153.288M198.017 153.288L258.422 102.974L321.235 120.929L342.765 147.832C345.313 151.022 346.435 155.004 345.922 159.051C345.409 163.099 343.327 166.678 340.059 169.122L340.056 169.124M198.017 153.288L340.056 169.124M340.056 169.124C334.162 173.546 325.764 172.953 320.532 167.732L340.056 169.124ZM389.009 266.428V266.429C389.011 271.021 385.265 274.766 380.671 274.766H338.945C334.352 274.766 330.607 271.019 330.607 266.428C330.607 261.836 334.354 258.091 338.945 258.091H380.671C385.264 258.091 389.009 261.838 389.009 266.428ZM389.009 224.702V224.703C389.011 229.294 385.265 233.039 380.671 233.039H338.945C334.352 233.039 330.607 229.292 330.607 224.702C330.607 220.109 334.354 216.364 338.945 216.364H380.671C385.264 216.364 389.009 220.111 389.009 224.702ZM370.207 149.586C369.079 143.619 366.69 137.916 362.881 132.911H380.671C385.264 132.911 389.009 136.658 389.009 141.248V141.249C389.011 145.838 385.264 149.586 380.671 149.586H370.207ZM380.671 191.313H351.921C353.001 190.659 354.058 189.948 355.086 189.177C360.279 185.282 364.187 180.257 366.894 174.638H380.671C385.264 174.638 389.009 178.384 389.009 182.975C389.009 187.566 385.264 191.313 380.671 191.313Z" fill="#333333" stroke="#333333" stroke-width="4.18723"/>
<path d="M237.122 345.398C237.122 335.89 239.823 328.651 245.226 323.681C250.628 318.602 257.705 316.063 266.456 316.063C275.1 316.063 282.069 318.602 287.363 323.681C292.765 328.651 295.466 335.89 295.466 345.398C295.466 354.906 292.765 362.145 287.363 367.115C282.069 372.085 275.1 374.57 266.456 374.57C257.705 374.57 250.628 372.085 245.226 367.115C239.823 362.145 237.122 354.906 237.122 345.398ZM357.214 317.684L296.763 432.914H262.405L322.856 317.684H357.214ZM266.132 336.97C262.459 336.97 260.622 339.779 260.622 345.398C260.622 350.908 262.459 353.663 266.132 353.663C268.077 353.663 269.536 352.961 270.508 351.556C271.589 350.152 272.129 348.099 272.129 345.398C272.129 342.588 271.589 340.482 270.508 339.077C269.536 337.672 268.077 336.97 266.132 336.97ZM324.152 405.201C324.152 395.693 326.854 388.454 332.256 383.483C337.658 378.405 344.681 375.866 353.325 375.866C362.076 375.866 369.099 378.405 374.393 383.483C379.688 388.454 382.335 395.693 382.335 405.201C382.335 414.708 379.688 422.002 374.393 427.08C369.099 432.05 362.076 434.535 353.325 434.535C344.681 434.535 337.658 432.05 332.256 427.08C326.854 422.002 324.152 414.708 324.152 405.201ZM353.162 396.773C349.381 396.773 347.49 399.582 347.49 405.201C347.49 410.819 349.381 413.628 353.162 413.628C354.999 413.628 356.404 412.926 357.376 411.521C358.457 410.117 358.997 408.01 358.997 405.201C358.997 402.499 358.457 400.447 357.376 399.042C356.404 397.529 354.999 396.773 353.162 396.773Z" fill="#333333"/>
</svg>
