<svg width="521" height="386" viewBox="0 0 521 386" fill="none" xmlns="http://www.w3.org/2000/svg">
<path d="M167.173 155.842C168.943 159.383 170.418 164.103 171.598 170.003C176.515 167.84 181.825 166.758 187.529 166.758C200.51 166.758 211.229 171.577 219.686 181.214C228.34 190.655 232.667 201.964 232.667 215.142C232.667 228.319 228.635 239.727 220.572 249.364C212.114 259.788 201.395 265 188.414 265C184.087 265 178.777 264.017 172.483 262.05V234.613C179.367 238.35 184.579 240.219 188.119 240.219C194.413 240.219 199.527 237.76 203.46 232.843C207.394 227.729 209.361 222.026 209.361 215.732C209.361 209.241 207.296 203.636 203.165 198.915C199.035 193.998 193.823 191.54 187.529 191.54C181.235 191.54 176.22 193.113 172.483 196.26C168.353 216.518 156.06 229.991 135.605 236.678L194.315 284.177H155.077L68.9303 214.552L87.2217 196.555L102.858 210.126C107.775 213.47 112.79 215.142 117.904 215.142C126.951 215.142 134.327 212.29 140.031 206.586C145.734 200.686 148.586 193.212 148.586 184.164C148.586 171.577 143.473 162.136 133.245 155.842H61.2598V136.371H253.024V155.842H167.173Z" fill="#333333"/>
<path fill-rule="evenodd" clip-rule="evenodd" d="M81.9856 0.359375C37.0989 0.359375 0.710938 36.7472 0.710938 81.634V304.31C0.710938 349.196 37.0988 385.584 81.9856 385.584H438.829C483.715 385.584 520.103 349.197 520.103 304.31V81.6341C520.103 36.7473 483.715 0.359375 438.829 0.359375H81.9856ZM28.3905 81.634C28.3905 52.0342 52.3858 28.0389 81.9856 28.0389H438.829C468.428 28.0389 492.424 52.0343 492.424 81.6341V304.31C492.424 333.91 468.428 357.905 438.829 357.905H81.9856C52.3859 357.905 28.3905 333.909 28.3905 304.31V81.634ZM282.649 89.9578C275.086 89.9578 268.956 96.0882 268.956 103.65C268.956 111.213 275.086 117.343 282.649 117.343H416.816C424.378 117.343 430.509 111.213 430.509 103.65C430.509 96.0882 424.378 89.9578 416.816 89.9578H282.649ZM268.956 193.071C268.956 185.508 275.086 179.378 282.649 179.378H416.816C424.378 179.378 430.509 185.508 430.509 193.071C430.509 200.633 424.378 206.763 416.816 206.763H282.649C275.086 206.763 268.956 200.633 268.956 193.071ZM282.649 268.853C275.086 268.853 268.956 274.983 268.956 282.545C268.956 290.107 275.086 296.238 282.649 296.238H416.816C424.378 296.238 430.509 290.107 430.509 282.545C430.509 274.983 424.378 268.853 416.816 268.853H282.649Z" fill="#333333"/>
</svg>
