<svg width="380" height="566" viewBox="0 0 380 566" fill="none" xmlns="http://www.w3.org/2000/svg">
<path d="M243.767 36.0997L243.77 36.1059L300.371 131.726L346.587 132.004C353.309 132.043 359.623 134.708 364.353 139.494L364.353 139.494L364.353 139.494L364.353 139.494L364.353 139.494L364.353 139.494L364.353 139.494L364.353 139.494L364.353 139.494L364.354 139.494L364.354 139.494L364.354 139.495L364.354 139.495L364.354 139.495L364.354 139.495L364.354 139.495L364.354 139.495L364.354 139.495C369.08 144.278 371.668 150.618 371.628 157.336C371.547 171.223 360.179 182.449 346.289 182.367L346.299 180.614L346.289 182.367L299.527 182.089L242.305 272.443L242.304 272.445C241.114 274.319 239.046 275.449 236.826 275.436L213.398 275.297C211.283 275.287 209.305 274.226 208.121 272.495L208.121 272.494C206.929 270.751 206.666 268.536 207.42 266.562L239.806 181.731L187.407 181.42L144.948 212.692L144.947 212.693C143.829 213.515 142.477 213.954 141.091 213.946C141.091 213.946 141.091 213.946 141.091 213.946L125.864 213.857L243.767 36.0997ZM243.767 36.0997C242.616 34.1735 240.536 32.9616 238.268 32.9473L238.267 32.9473M243.767 36.0997L238.267 32.9473M238.267 32.9473L214.842 32.8077C212.743 32.7931 210.773 33.8054 209.557 35.5098L209.555 35.5122M238.267 32.9473L209.555 35.5122M209.555 35.5122C208.341 37.2198 208.032 39.4115 208.732 41.3904C208.732 41.3907 208.732 41.3909 208.732 41.3912L240.519 131.369L187.707 131.055L145.623 99.2788L145.622 99.2781M209.555 35.5122L145.622 99.2781M145.622 99.2781C144.514 98.4425 143.167 97.9877 141.781 97.9795L126.552 97.8872L126.551 97.8872M145.622 99.2781L126.551 97.8872M126.551 97.8872C124.284 97.8737 122.176 99.055 121.004 100.996C119.83 102.937 119.765 105.353 120.831 107.354L120.831 107.354M126.551 97.8872L120.831 107.354M120.831 107.354L143.237 149.377M120.831 107.354L143.237 149.377M290.556 172.183L290.557 172.181C291.747 170.307 293.816 169.177 296.035 169.19L346.366 169.49C353.155 169.53 358.713 164.04 358.754 157.257C358.774 153.977 357.514 150.886 355.197 148.541C352.879 146.195 349.8 144.898 346.512 144.878L346.522 143.126L346.512 144.878L296.651 144.58L290.556 172.183ZM290.556 172.183L233.335 262.537M290.556 172.183L233.335 262.537M233.335 262.537L222.763 262.476L255.149 177.645C255.149 177.645 255.149 177.645 255.149 177.645C255.903 175.671 255.641 173.456 254.449 171.712C253.262 169.975 251.285 168.921 249.174 168.91L233.335 262.537ZM154.371 147.814L156.124 147.824L156.124 147.826C156.124 147.827 156.124 147.827 156.124 147.828L156.034 162.803C156.028 163.842 155.771 164.866 155.282 165.785L136.573 201.042L139.031 201.056L181.49 169.784L181.491 169.783C182.609 168.961 183.961 168.522 185.347 168.53L249.172 168.91L137.276 110.829L135.284 110.817L153.822 145.581M154.371 147.814C154.378 147.036 154.188 146.267 153.822 145.581M154.371 147.814L154.282 162.792C154.278 163.55 154.09 164.294 153.735 164.96L154.371 147.814ZM153.822 145.581L155.368 144.756L155.368 144.756L153.822 145.581ZM143.237 149.377L143.168 161.144L120.213 204.401C119.157 206.39 119.218 208.786 120.37 210.718C120.641 211.172 120.962 211.582 121.32 211.944C122.505 213.143 124.132 213.848 125.862 213.857L143.237 149.377ZM139.566 110.842L181.652 142.62L181.653 142.62C182.761 143.456 184.108 143.911 185.494 143.919L249.6 144.301C251.699 144.315 253.669 143.304 254.885 141.599L254.887 141.597C256.102 139.888 256.408 137.694 255.71 135.719L255.71 135.718L223.924 45.739L234.546 45.8012L291.147 141.421C292.301 143.371 294.384 144.568 296.649 144.58L139.566 110.842Z" fill="#333333" stroke="#333333" stroke-width="3.50462"/>
<path d="M133.115 530.069L133.112 530.062L78.9995 433.012L32.8065 431.54C26.0874 431.328 19.8444 428.501 15.2401 423.595L15.24 423.594L15.24 423.594L15.2399 423.594L15.2398 423.594L15.2397 423.594L15.2396 423.594L15.2395 423.594L15.2395 423.594L15.2394 423.594L15.2393 423.594L15.2392 423.594L15.2391 423.594L15.239 423.593L15.239 423.593L15.2389 423.593L15.2388 423.593L15.2387 423.593C10.6379 418.69 8.21444 412.285 8.42819 405.57C8.86757 391.69 20.522 380.762 34.4057 381.202L34.3501 382.954L34.4058 381.202L81.1444 382.688L140.681 293.842L140.682 293.84C141.92 291.997 144.017 290.921 146.236 290.991L169.653 291.736C171.767 291.801 173.716 292.912 174.855 294.673L174.856 294.674C176.002 296.447 176.207 298.668 175.402 300.622L140.836 384.588L193.21 386.252L236.462 356.088L236.463 356.087C237.602 355.294 238.965 354.89 240.35 354.934C240.351 354.934 240.351 354.934 240.351 354.934L255.571 355.417L133.115 530.069ZM133.115 530.069C134.216 532.024 136.264 533.289 138.531 533.362L138.531 533.362M133.115 530.069L138.531 533.362M138.531 533.362L161.945 534.107C164.043 534.176 166.039 533.215 167.298 531.542L167.3 531.54M138.531 533.362L167.3 531.54M167.3 531.54C168.558 529.864 168.924 527.681 168.275 525.685C168.275 525.685 168.275 525.684 168.275 525.684L138.823 434.915L191.609 436.593L232.858 469.446L232.859 469.446M167.3 531.54L232.859 469.446M232.859 469.446C233.945 470.31 235.28 470.8 236.665 470.844L251.887 471.33L251.887 471.33M232.859 469.446L251.887 471.33M251.887 471.33C254.154 471.402 256.292 470.275 257.514 468.366C258.737 466.455 258.865 464.041 257.851 462.014L257.85 462.013M251.887 471.33L257.85 462.013M257.85 462.013L236.538 419.426M257.85 462.013L236.538 419.426M89.8563 392.822L89.8552 392.824C88.6172 394.667 86.5199 395.743 84.3018 395.673L33.9962 394.073C27.2097 393.857 21.5124 399.202 21.2958 405.982C21.1916 409.261 22.3712 412.383 24.6268 414.787C26.8835 417.191 29.9278 418.568 33.2141 418.672L33.1584 420.424L33.2141 418.672L83.0506 420.259L89.8563 392.822ZM89.8563 392.822L149.393 303.976M89.8563 392.822L149.393 303.976M149.393 303.976L159.959 304.311L125.393 388.277C125.393 388.277 125.393 388.277 125.393 388.277C124.588 390.231 124.793 392.452 125.94 394.225C127.081 395.993 129.03 397.097 131.14 397.163L149.393 303.976ZM225.366 420.701L223.615 420.645L223.615 420.644C223.615 420.643 223.615 420.642 223.615 420.641L224.091 405.674C224.124 404.635 224.407 403.618 224.921 402.713L244.534 367.95L242.077 367.873L198.824 398.038L198.823 398.039C197.685 398.832 196.322 399.236 194.936 399.192L131.142 397.163L241.5 458.115L243.491 458.179L225.858 422.947M225.366 420.701C225.34 421.479 225.51 422.252 225.858 422.947M225.366 420.701L225.842 405.73C225.867 404.973 226.073 404.233 226.445 403.577L225.366 420.701ZM225.858 422.947L224.291 423.732L224.291 423.732L225.858 422.947ZM236.538 419.426L236.91 407.665L260.975 365.015C262.082 363.054 262.083 360.657 260.981 358.696C260.722 358.235 260.412 357.817 260.063 357.446C258.91 356.216 257.301 355.47 255.573 355.417L236.538 419.426ZM239.211 458.043L197.961 425.189L197.96 425.188C196.874 424.324 195.539 423.835 194.154 423.791L130.079 421.753C127.981 421.684 125.985 422.644 124.725 424.318L124.724 424.32C123.465 425.997 123.103 428.182 123.749 430.174L123.749 430.175L153.2 520.945L142.584 520.609L88.4717 423.559C87.3684 421.58 85.3162 420.329 83.0523 420.259L239.211 458.043Z" fill="#333333" stroke="#333333" stroke-width="3.50462"/>
</svg>
