<svg width="241" height="374" viewBox="0 0 241 374" fill="none" xmlns="http://www.w3.org/2000/svg">
<rect x="12.6094" y="247.035" width="192.225" height="22.6147" fill="#263238"/>
<path d="M203.413 128.675V327.945C203.413 346.093 191.209 360.805 176.155 360.805H39.867C24.813 360.805 12.6094 346.093 12.6094 327.945V65.0598C12.6094 46.9114 24.813 32.1992 39.867 32.1992H111.612" stroke="#263238" stroke-width="25.218" stroke-linecap="round" stroke-linejoin="round"/>
<circle cx="168.908" cy="72.2202" r="62.1781" stroke="#263238" stroke-width="19.7248"/>
<circle cx="110.988" cy="311.488" r="19.2225" fill="#373737"/>
<path d="M172.218 55.5434C172.967 57.0416 173.592 59.0392 174.091 61.5363C176.172 60.6207 178.419 60.1629 180.833 60.1629C186.327 60.1629 190.863 62.2021 194.442 66.2806C198.104 70.2759 199.935 75.0619 199.935 80.6386C199.935 86.2153 198.229 91.043 194.816 95.1215C191.237 99.5329 186.701 101.739 181.208 101.739C179.376 101.739 177.129 101.322 174.466 100.49V88.8789C177.379 90.4603 179.585 91.251 181.083 91.251C183.746 91.251 185.91 90.2106 187.575 88.1297C189.24 85.9656 190.072 83.5518 190.072 80.8883C190.072 78.1416 189.198 75.7694 187.45 73.7718C185.702 71.6909 183.497 70.6505 180.833 70.6505C178.17 70.6505 176.047 71.3163 174.466 72.6481C172.718 81.2213 167.516 86.9228 158.859 89.7528L183.705 109.854H167.099L130.643 80.3889L138.383 72.7729L145.001 78.5161C147.081 79.9311 149.204 80.6386 151.368 80.6386C155.197 80.6386 158.318 79.4317 160.732 77.0179C163.146 74.5209 164.353 71.358 164.353 67.5292C164.353 62.2021 162.188 58.2069 157.86 55.5434H127.396V47.3031H208.55V55.5434H172.218Z" fill="#292D32"/>
</svg>
