<svg width="483" height="520" viewBox="0 0 483 520" fill="none" xmlns="http://www.w3.org/2000/svg">
<path d="M429.308 243.427V140.257C429.308 42.6562 406.543 18.1953 314.997 18.1953H131.905C40.3591 18.1953 17.5938 42.6562 17.5938 140.257V412.957C17.5938 477.378 52.953 492.636 95.8197 446.621L96.0614 446.378C115.921 425.308 146.194 427.004 163.389 450.011L187.85 482.706" stroke="#333333" stroke-width="34.754" stroke-linecap="round" stroke-linejoin="round"/>
<path d="M373.601 488.045C416.402 488.045 451.1 453.347 451.1 410.546C451.1 367.745 416.402 333.047 373.601 333.047C330.799 333.047 296.102 367.745 296.102 410.546C296.102 453.347 330.799 488.045 373.601 488.045Z" stroke="#333333" stroke-width="34.754" stroke-linecap="round" stroke-linejoin="round"/>
<path d="M465.609 502.578L441.391 478.359" stroke="#333333" stroke-width="34.754" stroke-linecap="round" stroke-linejoin="round"/>
<path d="M126.555 139.289H320.303" stroke="#333333" stroke-width="34.754" stroke-linecap="round" stroke-linejoin="round"/>
<path d="M125.516 236.172H296.093" stroke="#333333" stroke-width="34.754" stroke-linecap="round" stroke-linejoin="round"/>
</svg>
