<svg width="510" height="510" viewBox="0 0 510 510" fill="none" xmlns="http://www.w3.org/2000/svg">
<path d="M103.614 340.633C150.651 340.633 188.782 302.502 188.782 255.465C188.782 208.428 150.651 170.297 103.614 170.297C56.5764 170.297 18.4453 208.428 18.4453 255.465C18.4453 302.502 56.5764 340.633 103.614 340.633Z" stroke="#333333" stroke-width="35.8427" stroke-linecap="round" stroke-linejoin="round"/>
<path d="M406.426 492.04C453.463 492.04 491.594 453.908 491.594 406.871C491.594 359.834 453.463 321.703 406.426 321.703C359.389 321.703 321.258 359.834 321.258 406.871C321.258 453.908 359.389 492.04 406.426 492.04Z" stroke="#333333" stroke-width="35.8427" stroke-linecap="round" stroke-linejoin="round"/>
<path d="M406.426 189.227C453.463 189.227 491.594 151.096 491.594 104.059C491.594 57.0217 453.463 18.8906 406.426 18.8906C359.389 18.8906 321.258 57.0217 321.258 104.059C321.258 151.096 359.389 189.227 406.426 189.227Z" stroke="#333333" stroke-width="35.8427" stroke-linecap="round" stroke-linejoin="round"/>
<path d="M179.391 293.402L330.801 369.107M179.391 217.697L330.801 141.992" stroke="#333333" stroke-width="35.8427" stroke-linecap="round" stroke-linejoin="round"/>
</svg>
