<svg width="1877" height="356" viewBox="0 0 1877 356" fill="none" xmlns="http://www.w3.org/2000/svg">
<g clip-path="url(#clip0_129_1853)">
<rect width="195.977" height="195.977" transform="matrix(0 1 -1 0 1129.45 0.648438)" fill="#F4F4F9"/>
<path d="M1115.35 79.3823C1122.21 82.8119 1129.45 88.9974 1129.45 98.637C1129.45 108.277 1122.19 114.462 1115.35 117.892C1108.26 121.432 1099.67 123.134 1092.7 123.134H1047.49L1015.83 186.459C1014.3 189.514 1011.96 192.083 1009.05 193.879C1006.15 195.674 1002.8 196.626 999.39 196.626H982.462C981.573 196.625 980.695 196.431 979.889 196.057C979.082 195.683 978.367 195.138 977.792 194.46C977.218 193.781 976.798 192.986 976.561 192.129C976.325 191.272 976.278 190.374 976.424 189.497L987.668 122.044L960.072 117.451L943.928 133.594C943.072 134.453 941.98 135.038 940.79 135.275C939.601 135.513 938.368 135.391 937.247 134.927C936.127 134.463 935.17 133.676 934.497 132.667C933.824 131.658 933.466 130.471 933.468 129.258V68.0156C933.466 66.8027 933.824 65.6166 934.497 64.6074C935.17 63.5983 936.127 62.8116 937.247 62.3472C938.368 61.8827 939.601 61.7614 940.79 61.9986C941.98 62.2359 943.072 62.8209 943.928 63.6796L960.072 79.8355L987.668 75.23L976.424 7.77711C976.278 6.90015 976.325 6.00196 976.561 5.14494C976.798 4.28791 977.218 3.49261 977.792 2.81427C978.367 2.13593 979.082 1.59082 979.889 1.21681C980.695 0.842794 981.573 0.648847 982.462 0.648438L999.39 0.648438C1002.8 0.648553 1006.15 1.59982 1009.05 3.39553C1011.96 5.19124 1014.3 7.76037 1015.83 10.8148L1047.49 74.1399H1092.7C1099.66 74.1399 1108.27 75.8547 1115.35 79.3823ZM1109.86 90.3325C1104.7 87.7481 1097.98 86.3885 1092.7 86.3885H1043.71C1042.57 86.3884 1041.45 86.0722 1040.49 85.4752C1039.52 84.8781 1038.74 84.0238 1038.23 83.0079L1004.87 16.2776C1004.36 15.2616 1003.57 14.4073 1002.61 13.8103C1001.64 13.2133 1000.53 12.8971 999.39 12.897L989.689 12.897L1000.75 79.2598C1001.02 80.8594 1000.64 82.4992 999.695 83.8195C998.753 85.1398 997.327 86.0328 995.728 86.3027L958.982 92.427C958.018 92.5893 957.028 92.5183 956.097 92.2199C955.166 91.9216 954.32 91.4046 953.629 90.7122L945.717 82.8119V114.487L953.629 106.562C954.318 105.871 955.163 105.355 956.092 105.057C957.021 104.759 958.007 104.687 958.97 104.847L995.715 110.971C996.509 111.104 997.27 111.391 997.952 111.817C998.635 112.243 999.227 112.8 999.695 113.455C1000.16 114.111 1000.5 114.852 1000.68 115.636C1000.86 116.42 1000.88 117.233 1000.75 118.027L989.689 184.377H999.39C1000.53 184.377 1001.64 184.061 1002.61 183.464C1003.57 182.867 1004.36 182.012 1004.87 180.996L1038.23 114.266C1038.74 113.25 1039.52 112.396 1040.49 111.799C1041.45 111.202 1042.57 110.886 1043.71 110.886H1092.7C1097.99 110.886 1104.69 109.538 1109.86 106.942C1115.25 104.247 1117.2 101.246 1117.2 98.637C1117.2 96.0281 1115.26 93.0272 1109.86 90.3325Z" fill="#4E4E4E"/>
</g>
<g clip-path="url(#clip1_129_1853)">
<rect width="195.977" height="195.977" transform="matrix(0 1 1 0 746.828 159.297)" fill="#F4F4F9"/>
<path d="M760.926 238.031C754.067 241.46 746.828 247.646 746.828 257.285C746.828 266.925 754.079 273.111 760.926 276.54C768.018 280.08 776.604 281.783 783.574 281.783H828.783L860.446 345.108C861.971 348.162 864.316 350.731 867.22 352.527C870.123 354.323 873.47 355.274 876.884 355.274H893.811C894.7 355.274 895.578 355.08 896.385 354.706C897.191 354.332 897.907 353.787 898.481 353.108C899.056 352.43 899.476 351.635 899.712 350.778C899.949 349.921 899.995 349.022 899.85 348.145L888.605 280.693L916.201 276.099L932.345 292.243C933.202 293.102 934.294 293.687 935.483 293.924C936.673 294.161 937.906 294.04 939.026 293.575C940.147 293.111 941.104 292.324 941.777 291.315C942.45 290.306 942.808 289.12 942.805 287.907V226.664C942.808 225.451 942.45 224.265 941.777 223.256C941.104 222.247 940.147 221.46 939.026 220.996C937.906 220.531 936.673 220.41 935.483 220.647C934.294 220.884 933.202 221.469 932.345 222.328L916.201 238.484L888.605 233.878L899.85 166.426C899.995 165.549 899.949 164.65 899.712 163.793C899.476 162.936 899.056 162.141 898.481 161.463C897.907 160.784 897.191 160.239 896.385 159.865C895.578 159.491 894.7 159.297 893.811 159.297H876.884C873.47 159.297 870.123 160.248 867.22 162.044C864.316 163.84 861.971 166.409 860.446 169.463L828.783 232.788H783.574C776.617 232.788 768.006 234.503 760.926 238.031ZM766.414 248.981C771.57 246.396 778.295 245.037 783.574 245.037H832.568C833.705 245.037 834.819 244.721 835.785 244.124C836.752 243.527 837.534 242.672 838.043 241.656L871.408 174.926C871.917 173.91 872.699 173.056 873.666 172.459C874.633 171.862 875.747 171.545 876.884 171.545H886.584L875.524 237.908C875.258 239.508 875.637 241.148 876.579 242.468C877.52 243.788 878.947 244.681 880.546 244.951L917.292 251.075C918.256 251.238 919.245 251.167 920.176 250.868C921.107 250.57 921.954 250.053 922.644 249.361L930.557 241.46V273.135L922.644 265.21C921.955 264.52 921.111 264.004 920.182 263.706C919.253 263.407 918.266 263.335 917.304 263.496L880.558 269.62C879.764 269.752 879.004 270.039 878.321 270.466C877.638 270.892 877.046 271.448 876.578 272.104C876.111 272.759 875.777 273.5 875.596 274.284C875.415 275.069 875.391 275.881 875.524 276.675L886.584 343.026H876.884C875.747 343.025 874.633 342.709 873.666 342.112C872.699 341.515 871.917 340.661 871.408 339.645L838.043 272.915C837.534 271.899 836.752 271.044 835.785 270.447C834.819 269.85 833.705 269.534 832.568 269.534H783.574C778.282 269.534 771.582 268.187 766.414 265.59C761.024 262.895 759.077 259.894 759.077 257.285C759.077 254.677 761.012 251.676 766.414 248.981Z" fill="#4E4E4E"/>
</g>
<circle cx="9.59006" cy="177.961" r="9.33225" fill="#A9ADBC"/>
<circle cx="1082.79" cy="177.961" r="9.33225" fill="#A9ADBC"/>
<circle cx="46.9182" cy="177.961" r="9.33225" fill="#A9ADBC"/>
<circle cx="1120.13" cy="177.961" r="9.33225" fill="#A9ADBC"/>
<circle cx="84.2541" cy="177.961" r="9.33225" fill="#A9ADBC"/>
<circle cx="1157.46" cy="177.961" r="9.33225" fill="#A9ADBC"/>
<circle cx="121.567" cy="177.961" r="9.33225" fill="#A9ADBC"/>
<circle cx="1194.79" cy="177.961" r="9.33225" fill="#A9ADBC"/>
<circle cx="158.903" cy="177.961" r="9.33225" fill="#A9ADBC"/>
<circle cx="1232.12" cy="177.961" r="9.33225" fill="#A9ADBC"/>
<circle cx="196.231" cy="177.961" r="9.33225" fill="#A9ADBC"/>
<circle cx="1269.45" cy="177.961" r="9.33225" fill="#A9ADBC"/>
<circle cx="233.559" cy="177.961" r="9.33225" fill="#A9ADBC"/>
<circle cx="1306.77" cy="177.961" r="9.33225" fill="#A9ADBC"/>
<circle cx="270.895" cy="177.961" r="9.33225" fill="#A9ADBC"/>
<circle cx="1344.1" cy="177.961" r="9.33225" fill="#A9ADBC"/>
<circle cx="308.223" cy="177.961" r="9.33225" fill="#A9ADBC"/>
<circle cx="1381.43" cy="177.961" r="9.33225" fill="#A9ADBC"/>
<circle cx="345.551" cy="177.961" r="9.33225" fill="#A9ADBC"/>
<circle cx="1418.76" cy="177.961" r="9.33225" fill="#A9ADBC"/>
<circle cx="382.871" cy="177.961" r="9.33225" fill="#A9ADBC"/>
<circle cx="1456.09" cy="177.961" r="9.33225" fill="#A9ADBC"/>
<circle cx="420.215" cy="177.961" r="9.33225" fill="#A9ADBC"/>
<circle cx="1493.42" cy="177.961" r="9.33225" fill="#A9ADBC"/>
<circle cx="457.535" cy="177.961" r="9.33225" fill="#A9ADBC"/>
<circle cx="1530.74" cy="177.961" r="9.33225" fill="#A9ADBC"/>
<circle cx="494.863" cy="177.961" r="9.33225" fill="#A9ADBC"/>
<circle cx="1568.08" cy="177.961" r="9.33225" fill="#A9ADBC"/>
<circle cx="532.192" cy="177.961" r="9.33225" fill="#A9ADBC"/>
<circle cx="1605.4" cy="177.961" r="9.33225" fill="#A9ADBC"/>
<circle cx="569.52" cy="177.961" r="9.33225" fill="#A9ADBC"/>
<circle cx="1642.73" cy="177.961" r="9.33225" fill="#A9ADBC"/>
<circle cx="606.856" cy="177.961" r="9.33225" fill="#A9ADBC"/>
<circle cx="1680.07" cy="177.961" r="9.33225" fill="#A9ADBC"/>
<circle cx="644.184" cy="177.961" r="9.33225" fill="#A9ADBC"/>
<circle cx="1717.39" cy="177.961" r="9.33225" fill="#A9ADBC"/>
<circle cx="681.504" cy="177.961" r="9.33225" fill="#A9ADBC"/>
<circle cx="1754.72" cy="177.961" r="9.33225" fill="#A9ADBC"/>
<circle cx="718.84" cy="177.961" r="9.33225" fill="#A9ADBC"/>
<circle cx="1792.05" cy="177.961" r="9.33225" fill="#A9ADBC"/>
<circle cx="756.168" cy="177.961" r="9.33225" fill="#A9ADBC"/>
<circle cx="1829.37" cy="177.961" r="9.33225" fill="#A9ADBC"/>
<circle cx="793.504" cy="177.961" r="9.33225" fill="#A9ADBC"/>
<circle cx="1866.71" cy="177.961" r="9.33225" fill="#A9ADBC"/>
<defs>
<clipPath id="clip0_129_1853">
<rect width="195.977" height="195.977" fill="white" transform="matrix(0 1 -1 0 1129.45 0.648438)"/>
</clipPath>
<clipPath id="clip1_129_1853">
<rect width="195.977" height="195.977" fill="white" transform="matrix(0 1 1 0 746.828 159.297)"/>
</clipPath>
</defs>
</svg>
