<svg width="502" height="395" viewBox="0 0 502 395" fill="none" xmlns="http://www.w3.org/2000/svg">
<path d="M217.614 385.459C223.144 379.91 226.25 372.385 226.25 364.539C226.25 356.692 223.144 349.167 217.614 343.618L71.6105 197.145L217.614 50.6711C222.987 45.0903 225.96 37.6156 225.893 29.857C225.826 22.0985 222.724 14.6768 217.255 9.19043C211.786 3.7041 204.388 0.592102 196.654 0.524689C188.921 0.457275 181.47 3.43985 175.907 8.83002L9.05014 176.224C3.52057 181.773 0.414215 189.298 0.414215 197.145C0.414215 204.991 3.52057 212.516 9.05014 218.065L175.907 385.459C181.438 391.007 188.939 394.123 196.761 394.123C204.582 394.123 212.083 391.007 217.614 385.459Z" fill="#333333"/>
<path d="M217.614 385.459C223.144 379.91 226.25 372.385 226.25 364.539C226.25 356.692 223.144 349.167 217.614 343.618L71.6105 197.145L217.614 50.6711C222.987 45.0903 225.96 37.6156 225.893 29.857C225.826 22.0985 222.724 14.6768 217.255 9.19043C211.786 3.7041 204.388 0.592102 196.654 0.524689C188.921 0.457275 181.47 3.43985 175.907 8.83002L9.05014 176.224C3.52057 181.773 0.414215 189.298 0.414215 197.145C0.414215 204.991 3.52057 212.516 9.05014 218.065L175.907 385.459C181.438 391.007 188.939 394.123 196.761 394.123C204.582 394.123 212.083 391.007 217.614 385.459Z" stroke="#333333"/>
<path d="M45.5869 194.104H474.675" stroke="#333333" stroke-width="54.434" stroke-linecap="round"/>
</svg>
