<svg width="528" height="478" viewBox="0 0 528 478" fill="none" xmlns="http://www.w3.org/2000/svg">
<path d="M19.0078 189.985V140.994C19.0078 55.2591 67.9991 18.5156 141.486 18.5156H386.442C459.929 18.5156 508.921 55.2591 508.921 140.994V287.968C508.921 373.702 459.929 410.446 386.442 410.446H263.964" stroke="#333333" stroke-width="36.7435" stroke-miterlimit="10" stroke-linecap="round" stroke-linejoin="round"/>
<path d="M19.0078 300.211H149.815C165.493 300.211 178.23 312.949 178.23 328.626V359.98" stroke="#333333" stroke-width="36.7435" stroke-miterlimit="10" stroke-linecap="round" stroke-linejoin="round"/>
<path d="M48.8918 270.336L19.0078 300.218L48.8918 330.103" stroke="#333333" stroke-width="36.7435" stroke-miterlimit="10" stroke-linecap="round" stroke-linejoin="round"/>
<path d="M178.23 429.535H47.422C31.7448 429.535 19.0078 416.797 19.0078 401.12V369.766" stroke="#333333" stroke-width="36.7435" stroke-miterlimit="10" stroke-linecap="round" stroke-linejoin="round"/>
<path d="M148.344 459.441L178.228 429.557L148.344 399.672" stroke="#333333" stroke-width="36.7435" stroke-miterlimit="10" stroke-linecap="round" stroke-linejoin="round"/>
<path d="M350.663 188.908V182.639C350.663 158.244 330.819 138.35 306.424 138.35H300.103V113.07H274.823V138.35H268.502C244.107 138.35 224.266 158.195 224.266 182.587C224.266 206.982 244.11 226.827 268.502 226.827H306.421C316.875 226.827 325.381 235.332 325.381 245.786C325.381 256.239 316.875 264.745 306.421 264.745H268.505C258.052 264.745 249.546 256.289 249.546 245.836V239.465H224.266V245.836C224.266 270.23 244.11 290.023 268.502 290.023H274.823V315.303H300.103V290.023H306.424C330.819 290.023 350.663 270.178 350.663 245.786C350.663 221.391 330.819 201.547 306.424 201.547H268.505C258.052 201.547 249.546 193.041 249.546 182.587C249.546 172.134 258.052 163.628 268.505 163.628H306.424C316.877 163.628 325.383 172.186 325.383 182.637V188.905L350.663 188.908Z" fill="#333333"/>
</svg>
