<svg width="518" height="518" viewBox="0 0 518 518" fill="none" xmlns="http://www.w3.org/2000/svg">
<path d="M17.5 114.275C17.5 88.6276 27.6885 64.0303 45.8243 45.8946C63.96 27.7589 88.5573 17.5703 114.205 17.5703H404.32C429.968 17.5703 454.565 27.7589 472.701 45.8946C490.837 64.0303 501.025 88.6276 501.025 114.275V404.391C501.025 430.038 490.837 454.636 472.701 472.771C454.565 490.907 429.968 501.096 404.32 501.096H114.205C88.5573 501.096 63.96 490.907 45.8243 472.771C27.6885 454.636 17.5 430.038 17.5 404.391V114.275Z" stroke="#333333" stroke-width="33.7072" stroke-linecap="round" stroke-linejoin="round"/>
<path d="M174.659 235.163C208.04 235.163 235.1 208.102 235.1 174.722C235.1 141.341 208.04 114.281 174.659 114.281C141.279 114.281 114.219 141.341 114.219 174.722C114.219 208.102 141.279 235.163 174.659 235.163Z" stroke="#333333" stroke-width="33.7072" stroke-linecap="round" stroke-linejoin="round"/>
<path d="M320.346 274.308L114.219 501.057H407.549C432.344 501.057 456.124 491.207 473.657 473.674C491.189 456.142 501.039 432.362 501.039 407.567V404.352C501.039 393.086 496.808 388.758 489.193 380.417L391.762 274.163C387.221 269.209 381.698 265.257 375.544 262.557C369.39 259.858 362.742 258.471 356.022 258.484C349.302 258.498 342.659 259.912 336.516 262.637C330.374 265.361 324.866 269.336 320.346 274.308V274.308Z" stroke="#333333" stroke-width="33.7072" stroke-linecap="round" stroke-linejoin="round"/>
</svg>
