<svg width="524" height="514" viewBox="0 0 524 514" fill="none" xmlns="http://www.w3.org/2000/svg">
<path d="M41.6875 329.53V151.824C41.6875 134.621 55.762 120.547 72.9642 120.547H448.285C482.689 120.547 510.838 148.696 510.838 183.1V422.889C510.838 457.293 482.689 485.442 448.285 485.442H171.168" stroke="#333333" stroke-width="24.8721" stroke-miterlimit="10"/>
<circle cx="118.961" cy="394.352" r="105.973" stroke="#333333" stroke-width="25.9608"/>
<path d="M99.8281 335.352L76.3913 358.506L99.5454 381.942" stroke="#333333" stroke-width="22.3537" stroke-linecap="round" stroke-linejoin="round"/>
<path d="M134.062 452.051L157.499 428.897L134.345 405.46" stroke="#333333" stroke-width="22.3537" stroke-linecap="round" stroke-linejoin="round"/>
<path d="M157.906 359L76.3721 358.505M75.948 428.392L157.482 428.886" stroke="#333333" stroke-width="20.2662" stroke-linecap="round" stroke-linejoin="round"/>
<path d="M393.29 16.2891L80.7834 42.353C59.1503 42.353 41.6875 59.8158 41.6875 81.4489C41.6875 103.082 59.1503 120.545 80.7834 120.545H458.711V78.3212C458.711 43.9168 429.519 16.2891 393.29 16.2891Z" stroke="#333333" stroke-width="32.1579" stroke-miterlimit="10"/>
<path d="M504.968 225.719H345.026C320.93 225.719 301.414 244.17 301.414 266.952V339.109C301.414 361.89 320.955 380.342 345.026 380.342H504.968V225.719Z" stroke="#333333" stroke-width="27.9707" stroke-miterlimit="10" stroke-linecap="round"/>
<path d="M41.3359 158.928V83.8984" stroke="#333333" stroke-width="29.0577" stroke-miterlimit="10" stroke-linecap="round"/>
<path d="M385.781 312.039H386.034" stroke="#333333" stroke-width="37.5148" stroke-linecap="round" stroke-linejoin="round"/>
</svg>
