<svg width="505" height="539" viewBox="0 0 505 539" fill="none" xmlns="http://www.w3.org/2000/svg">
<path d="M415.334 234.846V135.363C415.334 41.2507 393.383 17.6641 305.109 17.6641H128.561C40.2876 17.6641 18.3359 41.2507 18.3359 135.363V398.315C18.3359 460.434 52.4313 475.146 93.7659 430.776L93.9989 430.542C113.148 410.225 142.339 411.86 158.92 434.045L182.506 465.572" stroke="#333333" stroke-width="35.0293" stroke-linecap="round" stroke-linejoin="round"/>
<path d="M123.43 134.438H310.252" stroke="#333333" stroke-width="35.0293" stroke-linecap="round" stroke-linejoin="round"/>
<path d="M122.422 227.852H286.902" stroke="#333333" stroke-width="35.0293" stroke-linecap="round" stroke-linejoin="round"/>
<g clip-path="url(#clip0_167_1808)">
<path d="M469.396 339.208L469.396 339.194L469.395 339.181C468.693 330.166 464.231 322.431 458.294 316.287C451.876 309.644 443.206 304.246 433.485 299.99L433.212 300.614L433.485 299.99C414.004 291.462 387.985 286.507 359.921 286.507C331.857 286.507 305.838 291.462 286.357 299.99C276.636 304.246 267.966 309.644 261.549 316.287C255.072 322.99 250.351 331.586 250.351 341.668V462.737V462.75L250.351 462.763L250.446 465.197L250.446 465.21L250.447 465.224C251.15 474.239 255.612 481.974 261.548 488.118C267.966 494.761 276.636 500.159 286.357 504.414C305.838 512.943 331.857 517.898 359.921 517.898C387.985 517.898 414.004 512.943 433.485 504.414C443.206 500.159 451.876 494.761 458.294 488.118C464.77 481.415 469.491 472.818 469.491 462.737V341.668V341.655L469.491 341.642L469.396 339.208ZM275.91 438.595C279.2 440.521 282.703 442.28 286.357 443.88C305.838 452.409 331.857 457.364 359.921 457.364C387.985 457.364 414.004 452.409 433.485 443.88C437.138 442.28 440.642 440.521 443.933 438.595V462.737C443.933 464.359 443.234 466.91 439.918 470.342C436.54 473.839 431.035 477.572 423.24 480.984C407.69 487.792 385.313 492.323 359.921 492.323C334.529 492.323 312.153 487.792 296.602 480.984C288.808 477.572 283.303 473.839 279.924 470.342C276.608 466.91 275.91 464.359 275.91 462.737V438.595ZM275.91 378.061C279.2 379.986 282.703 381.746 286.357 383.346C305.838 391.875 331.857 396.83 359.921 396.83C387.985 396.83 414.004 391.875 433.485 383.346L433.212 382.722L433.485 383.346C437.138 381.746 440.642 379.986 443.933 378.06V402.202C443.933 403.825 443.234 406.376 439.918 409.808C436.54 413.305 431.035 417.038 423.24 420.45C407.69 427.258 385.313 431.789 359.921 431.789C334.529 431.789 312.153 427.258 296.602 420.45C288.808 417.038 283.303 413.305 279.924 409.808C276.608 406.376 275.91 403.825 275.91 402.202V378.061ZM296.602 323.421C312.153 316.613 334.529 312.082 359.921 312.082C385.313 312.082 407.69 316.613 423.24 323.421C431.035 326.833 436.54 330.566 439.918 334.062C443.234 337.495 443.933 340.046 443.933 341.668C443.933 343.29 443.234 345.841 439.918 349.274C436.54 352.771 431.035 356.504 423.24 359.916C407.69 366.724 385.313 371.255 359.921 371.255C334.529 371.255 312.153 366.724 296.602 359.916C288.808 356.504 283.303 352.771 279.924 349.274C276.608 345.841 275.91 343.29 275.91 341.668C275.91 340.046 276.608 337.495 279.924 334.062C283.303 330.566 288.808 326.833 296.602 323.421Z" fill="#333333" stroke="#333333" stroke-width="1.36112"/>
</g>
<defs>
<clipPath id="clip0_167_1808">
<rect width="287.197" height="287.197" fill="white" transform="translate(217.047 251.781)"/>
</clipPath>
</defs>
</svg>
