<svg width="531" height="531" viewBox="0 0 531 531" fill="none" xmlns="http://www.w3.org/2000/svg">
<path d="M191.309 463.857H116.883C62.0773 463.857 17.6484 419.427 17.6484 364.622V141.344C17.6484 86.5382 62.0773 42.1094 116.883 42.1094H389.779C444.583 42.1094 489.013 86.5382 489.013 141.344V215.77" stroke="#333333" stroke-width="33.4978" stroke-linecap="round" stroke-linejoin="round"/>
<path d="M166.492 17.2969V66.9142" stroke="#333333" stroke-width="33.4978" stroke-linecap="round" stroke-linejoin="round"/>
<path d="M340.188 17.2969V66.9142" stroke="#333333" stroke-width="33.4978" stroke-linecap="round" stroke-linejoin="round"/>
<path d="M17.6484 166.148H489.013" stroke="#333333" stroke-width="33.4978" stroke-linecap="round" stroke-linejoin="round"/>
<path d="M426.971 355.758L389.758 392.971" stroke="#333333" stroke-width="33.4978" stroke-linecap="round" stroke-linejoin="round"/>
<path d="M389.778 513.477C458.285 513.477 513.821 457.941 513.821 389.434C513.821 320.927 458.285 265.391 389.778 265.391C321.27 265.391 265.734 320.927 265.734 389.434C265.734 457.941 321.27 513.477 389.778 513.477Z" stroke="#333333" stroke-width="33.4978" stroke-linecap="round" stroke-linejoin="round"/>
</svg>
