<svg width="537" height="537" viewBox="0 0 537 537" fill="none" xmlns="http://www.w3.org/2000/svg">
<path d="M289.338 46.6531V47.6167L290.298 47.6963C427.113 59.041 534.989 173.937 534.989 313.631V335.963C534.989 347.712 525.453 357.248 513.704 357.248C501.955 357.248 492.419 347.712 492.419 335.963C492.419 316.771 474.262 301.418 452.291 301.418C430.32 301.418 412.163 316.771 412.163 335.963C412.163 347.712 402.627 357.248 390.878 357.248C379.129 357.248 369.593 347.712 369.593 335.963C369.593 316.771 351.437 301.418 329.466 301.418C307.494 301.418 289.338 316.771 289.338 335.963V481.12C289.338 511.326 264.761 535.903 234.555 535.903C204.349 535.903 179.772 511.326 179.772 481.12V469.954C179.772 458.205 189.308 448.669 201.057 448.669C212.806 448.669 222.342 458.205 222.342 469.954V481.12C222.342 487.851 227.825 493.333 234.555 493.333C241.286 493.333 246.768 487.851 246.768 481.12V335.963C246.768 316.771 228.612 301.418 206.64 301.418C184.669 301.418 166.513 316.771 166.513 335.963C166.513 347.712 156.977 357.248 145.228 357.248C133.479 357.248 123.942 347.712 123.942 335.963C123.942 316.771 105.786 301.418 83.8149 301.418C61.8436 301.418 43.6873 316.771 43.6873 335.963C43.6873 347.712 34.1513 357.248 22.4022 357.248C10.6531 357.248 1.11712 347.712 1.11712 335.963V313.631C1.11712 173.937 108.993 59.041 245.808 47.6963L246.768 47.6167V46.6531V23.3163C246.768 11.5672 256.304 2.03118 268.053 2.03118C279.802 2.03118 289.338 11.5672 289.338 23.3163V46.6531ZM390.135 283.617L390.878 284.366L391.621 283.617C406.734 268.394 428.33 258.848 452.291 258.848C464.101 258.848 475.333 261.166 485.503 265.335L487.365 266.098L486.922 264.136C464.328 164.159 374.775 89.2651 268.053 89.2651C161.331 89.2651 71.7778 164.159 49.1843 264.136L48.7408 266.098L50.6025 265.335C60.7728 261.166 72.005 258.848 83.8149 258.848C107.776 258.848 129.372 268.394 144.485 283.617L145.228 284.366L145.97 283.617C161.083 268.394 182.679 258.848 206.64 258.848C230.602 258.848 252.197 268.394 267.31 283.617L268.053 284.366L268.796 283.617C283.909 268.394 305.504 258.848 329.466 258.848C353.427 258.848 375.023 268.394 390.135 283.617Z" fill="#333333" stroke="#333333" stroke-width="2.09361"/>
</svg>
