<svg width="638" height="521" viewBox="0 0 638 521" fill="none" xmlns="http://www.w3.org/2000/svg">
<path d="M197.638 346.663C213.166 330.01 231.941 316.717 252.806 307.6C273.669 298.487 296.196 293.75 318.966 293.67C341.732 293.59 364.276 298.177 385.202 307.147C406.129 316.117 425.002 329.277 440.646 345.82M124.526 245.13C149.371 218.487 179.411 197.22 212.794 182.634C246.177 168.049 282.189 160.463 318.616 160.336C355.046 160.209 391.099 167.55 424.582 181.901C458.066 196.253 488.269 217.313 513.302 243.783M27 154.212C64.2673 114.247 109.328 82.3428 159.402 60.4661C209.476 38.5894 263.476 27.1934 318.119 27.0024C372.766 26.8118 426.906 37.8241 477.132 59.3508C527.359 80.8774 572.649 112.486 610.196 152.189M319.546 493.67C301.136 493.67 286.212 478.747 286.212 460.337C286.212 441.927 301.136 427.003 319.546 427.003C337.956 427.003 352.879 441.927 352.879 460.337C352.879 478.747 337.956 493.67 319.546 493.67Z" stroke="#333333" stroke-width="53.67" stroke-linecap="round" stroke-linejoin="round"/>
</svg>
