<svg width="537" height="537" viewBox="0 0 537 537" fill="none" xmlns="http://www.w3.org/2000/svg">
<path d="M277.27 357.485V344.835C277.27 334.684 279.456 325.314 283.829 316.725C288.28 308.136 294.722 301.226 303.155 295.994C311.588 290.762 321.856 288.147 333.959 288.147C346.374 288.147 356.798 290.723 365.231 295.877C373.742 301.03 380.184 307.902 384.557 316.491C388.93 325.08 391.116 334.528 391.116 344.835V357.485C391.116 367.636 388.89 377.006 384.44 385.595C380.067 394.184 373.625 401.094 365.114 406.326C356.603 411.558 346.218 414.173 333.959 414.173C321.7 414.173 311.354 411.558 302.921 406.326C294.488 401.094 288.085 394.184 283.712 385.595C279.417 377.006 277.27 367.636 277.27 357.485ZM318.03 344.835V357.485C318.03 361.936 319.123 366.347 321.309 370.72C323.574 375.015 327.79 377.162 333.959 377.162C340.44 377.162 344.695 375.054 346.725 370.837C348.834 366.621 349.888 362.17 349.888 357.485V344.835C349.888 340.15 348.912 335.621 346.96 331.249C345.008 326.876 340.674 324.69 333.959 324.69C327.79 324.69 323.574 326.876 321.309 331.249C319.123 335.621 318.03 340.15 318.03 344.835ZM151.712 220.214V207.565C151.712 197.258 153.937 187.809 158.388 179.22C162.917 170.631 169.398 163.76 177.831 158.606C186.264 153.453 196.454 150.876 208.4 150.876C220.816 150.876 231.24 153.453 239.673 158.606C248.184 163.76 254.626 170.631 258.999 179.22C263.371 187.809 265.558 197.258 265.558 207.565V220.214C265.558 230.521 263.332 239.93 258.881 248.441C254.509 256.952 248.067 263.746 239.556 268.821C231.045 273.896 220.66 276.434 208.4 276.434C196.141 276.434 185.795 273.857 177.362 268.704C168.929 263.55 162.526 256.718 158.154 248.207C153.859 239.696 151.712 230.365 151.712 220.214ZM192.94 207.565V220.214C192.94 224.899 194.033 229.35 196.219 233.566C198.406 237.783 202.466 239.891 208.4 239.891C214.881 239.891 219.137 237.783 221.167 233.566C223.275 229.35 224.33 224.899 224.33 220.214V207.565C224.33 202.88 223.353 198.351 221.401 193.978C219.449 189.605 215.116 187.419 208.4 187.419C202.232 187.419 198.093 189.683 195.985 194.212C193.955 198.663 192.94 203.114 192.94 207.565ZM171.623 402.461L336.536 162.588H369.799L204.887 402.461H171.623Z" fill="#333333"/>
<circle cx="268.311" cy="268.967" r="248.47" stroke="#333333" stroke-width="39.025"/>
</svg>
