<svg width="306" height="306" viewBox="0 0 306 306" fill="none" xmlns="http://www.w3.org/2000/svg">
<g clip-path="url(#clip0_160_1702)">
<path d="M222.429 259.891L222.429 259.89C221.327 257.754 220.337 255.444 219.44 253.02H208.13C208.862 253.862 209.622 254.68 210.41 255.467L222.429 259.891ZM222.429 259.891C223.563 262.084 224.803 264.11 226.143 265.951C220.214 263.516 214.878 259.934 210.41 255.467L222.429 259.891ZM266.384 183.052L266.384 183.053C267.485 185.19 268.476 187.499 269.373 189.924H280.684C279.952 189.081 279.192 188.264 278.404 187.476C278.404 187.476 278.404 187.476 278.404 187.476M266.384 183.052L278.867 187.013L278.404 187.476M266.384 183.052C265.25 180.86 264.01 178.834 262.671 176.993M266.384 183.052L262.671 176.993M278.404 187.476C273.935 183.01 268.599 179.429 262.671 176.993M278.404 187.476L262.671 176.993M188.056 221.472V221.472C188.058 252.594 213.283 277.82 244.406 277.822C275.531 277.82 300.756 252.594 300.758 221.472C300.756 190.349 275.531 165.124 244.406 165.122H244.406C213.283 165.124 188.058 190.349 188.056 221.472ZM241.14 269.438C240.604 269.403 240.07 269.359 239.54 269.305C238.347 268.76 237.158 268.02 235.974 267.054L235.973 267.054C232.42 264.16 229.067 259.305 226.44 253.02H241.14V269.438ZM224.131 246.488C222.223 240.056 221.027 232.656 220.766 224.738H241.14V246.488H224.131ZM239.54 173.638C240.071 173.585 240.604 173.541 241.141 173.505L241.14 189.924H226.462C227.023 188.563 227.607 187.259 228.232 186.051L228.233 186.05C230.519 181.619 233.193 178.16 235.974 175.89C237.158 174.924 238.347 174.183 239.54 173.638ZM252.84 175.89L252.84 175.89C256.394 178.783 259.746 183.638 262.373 189.923H247.672V173.506C248.208 173.541 248.742 173.586 249.272 173.639C250.466 174.186 251.655 174.924 252.84 175.89ZM249.272 269.305C248.742 269.358 248.208 269.402 247.672 269.438V253.02H262.351C261.79 254.381 261.206 255.685 260.581 256.893L260.58 256.894C258.294 261.324 255.62 264.783 252.839 267.054C251.654 268.019 250.466 268.758 249.272 269.305ZM278.404 255.467C273.933 259.937 268.592 263.52 262.659 265.955C265.306 262.315 267.552 257.939 269.381 253.02H280.684C279.951 253.863 279.192 254.68 278.404 255.467ZM210.41 187.476C214.881 183.007 220.222 179.424 226.154 176.989C223.508 180.629 221.26 185.005 219.432 189.924H208.13C208.862 189.081 209.622 188.264 210.41 187.476ZM203.352 196.456H217.351C215.563 203.067 214.474 210.419 214.232 218.206H196.44C196.972 210.267 199.432 202.872 203.352 196.456ZM217.335 246.489L203.352 246.488C199.432 240.072 196.972 232.677 196.44 224.738H214.251C214.492 232.516 215.551 239.88 217.335 246.489ZM241.14 218.206H220.782C221.043 210.284 222.245 202.89 224.154 196.456H241.141L241.14 218.206ZM271.478 196.456H285.463C289.383 202.872 291.842 210.267 292.374 218.206H274.563C274.322 210.428 273.263 203.064 271.478 196.456ZM247.672 196.456H264.682C266.589 202.888 267.787 210.288 268.047 218.206H247.672V196.456ZM247.672 224.738H268.03C267.77 232.66 266.568 240.054 264.658 246.489H247.672V224.738ZM292.374 224.738C291.842 232.677 289.383 240.072 285.463 246.488H271.461C273.249 239.877 274.339 232.523 274.58 224.738H292.374Z" fill="#292D32" stroke="#292D32" stroke-width="1.31049"/>
</g>
<path fill-rule="evenodd" clip-rule="evenodd" d="M151.108 34.4897C151.132 34.4818 151.309 34.4232 151.661 34.3673C152.039 34.3075 152.499 34.2698 152.996 34.2698C153.493 34.2698 153.953 34.3075 154.331 34.3673C154.683 34.4232 154.86 34.4818 154.883 34.4897L154.885 34.4902L154.885 34.4902L154.886 34.4906L269.635 80.3898C270.16 80.5999 271.05 81.2354 271.838 82.4047C272.629 83.5775 272.881 84.6392 272.881 85.1766V127.507C272.881 130.314 270.553 132.642 267.746 132.642H153.166C153.109 132.64 153.052 132.64 152.995 132.64C152.938 132.64 152.881 132.64 152.824 132.642H102.164C102.107 132.64 102.051 132.64 101.993 132.64C101.936 132.64 101.879 132.64 101.823 132.642H51.1651C51.1378 132.641 51.1105 132.641 51.0832 132.64C51.0536 132.64 51.024 132.64 50.9943 132.64C50.9372 132.64 50.8803 132.64 50.8235 132.642H38.246C35.4394 132.642 33.1114 130.314 33.1114 127.507V85.1766C33.1114 84.6392 33.363 83.5775 34.1535 82.4047C34.9417 81.2354 35.8315 80.5999 36.3568 80.3898L151.107 34.4902C151.105 34.4909 151.106 34.4907 151.108 34.4897ZM196.637 147.872H160.611V221.889H181.464C181.455 221.446 181.45 221.002 181.45 220.556C181.45 205.009 187.18 190.799 196.643 179.924C196.639 179.827 196.637 179.729 196.637 179.631V147.872ZM211.868 167.233C221.099 161.766 231.872 158.629 243.378 158.629C244.954 158.629 246.516 158.687 248.061 158.803V147.872H211.868V167.233ZM263.292 161.9V147.872H267.746C278.964 147.872 288.111 138.725 288.111 127.507V85.1766C288.111 80.9964 286.578 77.0219 284.468 73.8915C282.355 70.7577 279.229 67.8232 275.292 66.2484L272.463 73.3191L275.292 66.2483L160.542 20.3487C158.076 19.3626 155.314 19.0391 152.996 19.0391C150.678 19.0391 147.915 19.3626 145.45 20.3487L30.7002 66.2483L33.4398 73.0972L30.7002 66.2484C26.763 67.8232 23.6366 70.7577 21.5241 73.8915C19.414 77.0219 17.8806 80.9964 17.8806 85.1766V127.507C17.8806 138.725 27.0276 147.872 38.246 147.872H43.3789V221.889H38.246C27.0276 221.889 17.8806 231.036 17.8806 242.254V272.891H12.7443C8.53843 272.891 5.12891 276.3 5.12891 280.506C5.12891 284.712 8.53843 288.121 12.7443 288.121H293.244C297.45 288.121 300.86 284.712 300.86 280.506C300.86 276.3 297.45 272.891 293.244 272.891H280.942L277.167 272.463C294.109 261.412 305.306 242.292 305.306 220.556C305.306 193.321 287.725 170.192 263.292 161.9ZM183.69 237.12C187.833 252.082 197.451 264.769 210.252 272.889H33.1114V242.254C33.1114 239.448 35.4394 237.12 38.246 237.12H50.879C50.9174 237.12 50.9558 237.121 50.9943 237.121C51.0177 237.121 51.0412 237.12 51.0646 237.12L51.1095 237.12H101.878C101.917 237.12 101.955 237.121 101.993 237.121C102.016 237.121 102.039 237.12 102.062 237.12L102.109 237.12H152.88C152.918 237.12 152.957 237.121 152.995 237.121C153.034 237.121 153.072 237.12 153.11 237.12H183.69ZM227.019 264.192C232.109 266.101 237.622 267.145 243.378 267.145C269.108 267.145 289.967 246.287 289.967 220.556C289.967 194.826 269.108 173.968 243.378 173.968C217.648 173.968 196.79 194.826 196.79 220.556C196.79 222.512 196.91 224.439 197.144 226.33C198.752 228.527 199.427 230.905 199.812 232.261L199.869 232.46C199.999 232.914 200.122 233.36 200.245 233.801C200.881 236.094 201.485 238.272 202.782 240.949C205.38 246.307 211.201 254.349 227.019 264.192ZM109.609 147.872H145.38V221.889H109.609V147.872ZM94.3781 147.872H58.6097V221.889H94.3781V147.872ZM126.255 89.2561C126.255 74.4876 138.227 62.5157 152.995 62.5157C167.763 62.5157 179.736 74.4876 179.736 89.2561C179.736 104.024 167.763 115.996 152.995 115.996C138.227 115.996 126.255 104.024 126.255 89.2561ZM152.995 77.7464C146.639 77.7464 141.486 82.8995 141.486 89.2561C141.486 95.6126 146.639 100.766 152.995 100.766C159.351 100.766 164.505 95.6126 164.505 89.2561C164.505 82.8995 159.351 77.7464 152.995 77.7464Z" fill="#292D32"/>
<defs>
<clipPath id="clip0_160_1702">
<rect width="111.392" height="111.392" fill="white" transform="translate(188.711 165.777)"/>
</clipPath>
</defs>
</svg>
