<svg width="393" height="393" viewBox="0 0 393 393" fill="none" xmlns="http://www.w3.org/2000/svg">
<path d="M178.421 255.891C170.676 255.891 164.398 262.176 164.398 269.92C164.398 277.665 170.676 283.943 178.421 283.943C186.165 283.943 192.45 277.665 192.45 269.92C192.45 262.176 186.165 255.891 178.421 255.891Z" fill="black"/>
<path d="M243.378 255.891C235.634 255.891 229.355 262.176 229.355 269.92C229.355 277.665 235.634 283.943 243.378 283.943C251.122 283.943 257.407 277.665 257.407 269.92C257.407 262.176 251.122 255.891 243.378 255.891Z" fill="black"/>
<path d="M308.315 255.891C300.572 255.891 294.293 262.176 294.293 269.92C294.293 277.665 300.572 283.943 308.315 283.943C316.066 283.943 322.344 277.665 322.344 269.92C322.344 262.176 316.066 255.891 308.315 255.891Z" fill="black"/>
<path d="M178.421 210.181C170.676 210.181 164.398 216.466 164.398 224.21C164.398 231.954 170.676 238.233 178.421 238.233C186.165 238.233 192.45 231.955 192.45 224.21C192.45 216.466 186.165 210.181 178.421 210.181Z" fill="black"/>
<path d="M243.378 210.181C235.634 210.181 229.355 216.466 229.355 224.21C229.355 231.954 235.634 238.233 243.378 238.233C251.122 238.233 257.407 231.955 257.407 224.21C257.407 216.466 251.122 210.181 243.378 210.181Z" fill="black"/>
<path d="M308.315 210.181C300.572 210.181 294.293 216.466 294.293 224.21C294.293 231.954 300.572 238.233 308.315 238.233C316.066 238.233 322.344 231.955 322.344 224.21C322.344 216.466 316.066 210.181 308.315 210.181Z" fill="black"/>
<path d="M178.421 164.484C170.676 164.484 164.398 170.77 164.398 178.514C164.398 186.257 170.676 192.536 178.421 192.536C186.165 192.536 192.45 186.257 192.45 178.514C192.45 170.77 186.165 164.484 178.421 164.484Z" fill="black"/>
<path d="M243.378 164.484C235.634 164.484 229.355 170.77 229.355 178.514C229.355 186.257 235.634 192.536 243.378 192.536C251.122 192.536 257.407 186.257 257.407 178.514C257.407 170.77 251.122 164.484 243.378 164.484Z" fill="black"/>
<path d="M308.315 164.484C300.572 164.484 294.293 170.77 294.293 178.514C294.293 186.257 300.572 192.536 308.315 192.536C316.066 192.536 322.344 186.257 322.344 178.514C322.344 170.77 316.066 164.484 308.315 164.484Z" fill="black"/>
<path d="M309.021 114.385H179.142C171.172 114.385 164.711 120.846 164.711 128.815C164.711 136.785 171.172 143.246 179.142 143.246H309.022C316.991 143.246 323.453 136.785 323.453 128.815C323.452 120.846 316.99 114.385 309.021 114.385Z" fill="black"/>
<path d="M313.848 44.8574V44.8643H120.261C107.654 30.694 89.3277 21.6182 68.8717 21.6182L68.1955 21.6258C30.1727 21.6327 0.014584 52.5239 0 90.5467V292.229C0.014584 335.889 35.4859 371.368 79.1527 371.382H313.848C357.508 371.367 392.986 335.888 393 292.229V124.017C392.986 80.3502 357.507 44.8719 313.848 44.8574ZM25.2472 90.5467C25.2472 66.8277 44.4773 47.5984 68.1955 47.5984H68.8717C92.5899 47.5984 111.82 66.8277 111.82 90.5467V214.74C111.82 238.458 92.5899 257.688 68.8717 257.688H68.1955C44.4773 257.688 25.2472 238.458 25.2472 214.74V90.5467ZM367.027 292.229C367.027 321.598 343.216 345.409 313.847 345.409H79.1527C49.7836 345.409 25.9733 321.599 25.9733 292.229V263.515C37.3112 273.345 52.0525 279.334 68.1962 279.334H68.8725C104.493 279.334 133.467 250.36 133.467 214.74V197.074V111.841V70.8376H313.849C343.218 70.8376 367.028 94.6478 367.028 124.017V292.229H367.027Z" fill="black"/>
</svg>
