<svg width="537" height="518" viewBox="0 0 537 518" fill="none" xmlns="http://www.w3.org/2000/svg">
<mask id="path-1-outside-1_168_1881" maskUnits="userSpaceOnUse" x="0.296875" y="0" width="537" height="518" fill="black">
<rect fill="white" x="0.296875" width="537" height="518"/>
<path d="M175.964 328.572H71.959C56.6383 328.56 41.9486 322.469 31.1153 311.635C20.2819 300.802 14.1904 286.112 14.1782 270.792V62.7808C14.1904 47.4601 20.2819 32.7705 31.1153 21.9371C41.9486 11.1038 56.6383 5.01224 71.959 5H279.97C295.29 5.01224 309.98 11.1038 320.814 21.9371C331.647 32.7705 337.738 47.4601 337.751 62.7808V166.786H314.638V62.7808C314.626 53.5899 310.97 44.7789 304.471 38.28C297.972 31.781 289.161 28.1245 279.97 28.1123H71.959C62.7681 28.1245 53.9571 31.781 47.4582 38.28C40.9592 44.7789 37.3027 53.5899 37.2905 62.7808V270.792C37.3027 279.983 40.9592 288.793 47.4582 295.292C53.9571 301.791 62.7681 305.448 71.959 305.46H175.964V328.572ZM175.086 217.379C149.4 237.322 119.709 251.481 88.0452 258.889L82.452 236.47C109.915 230.044 135.745 217.987 158.307 201.062C130.952 172.23 112.161 136.354 104.039 97.4493H83.5151V74.3369H159.3L146.727 61.7639L163.068 45.4234L191.958 74.3369H268.414V97.4493H247.289C241.548 123.306 231.333 147.96 217.104 170.299C197.804 180.329 182.841 197.075 175.04 217.379H175.086ZM175.826 185.415C199.351 160.919 215.832 130.529 223.53 97.4493H127.937C135.702 130.543 152.245 160.931 175.826 185.415ZM522.649 454.465V248.904C522.735 241.204 521.295 233.562 518.414 226.421C515.532 219.279 511.266 212.778 505.86 207.293C500.454 201.808 494.017 197.447 486.918 194.462C479.819 191.476 472.2 189.926 464.499 189.899H258.082C242.439 189.917 227.441 196.139 216.379 207.201C205.318 218.263 199.095 233.261 199.077 248.904V454.465C199.095 470.109 205.318 485.107 216.379 496.168C227.441 507.23 242.439 513.453 258.082 513.471H463.643C479.287 513.453 494.285 507.23 505.347 496.168C516.408 485.107 522.631 470.109 522.649 454.465ZM464.499 213.011C473.789 213.017 482.698 216.71 489.268 223.28C495.837 229.85 499.531 238.758 499.537 248.049V455.32C499.531 464.611 495.837 473.52 489.268 480.089C482.698 486.659 473.789 490.353 464.499 490.359H257.227C247.936 490.353 239.028 486.659 232.458 480.089C225.889 473.52 222.195 464.611 222.189 455.32V248.049C222.195 238.758 225.889 229.85 232.458 223.28C239.028 216.71 247.936 213.017 257.227 213.011H464.499ZM416.286 397.909H305.44L278.652 449.45L258.175 438.818L360.863 241.092L463.551 438.818L443.073 449.45L416.286 397.909ZM404.268 374.797L360.863 291.246L317.458 374.797H404.268ZM129.74 490.59C117.486 490.571 105.739 485.695 97.0743 477.031C88.4094 468.366 83.5335 456.619 83.5151 444.365V391.137L121.558 429.18L137.898 412.84L72.0976 347.062L6.29688 412.84L22.6373 429.18L60.4028 391.438V444.411C60.4212 462.795 67.7322 480.42 80.7314 493.42C93.7306 506.419 111.356 513.73 129.74 513.748H177.305V490.636L129.74 490.59ZM514.467 89.2906L476.425 127.333V74.3369C476.406 55.9533 469.095 38.3278 456.096 25.3286C443.097 12.3294 425.471 5.01836 407.088 5H360.863V28.1123H407.088C419.341 28.1307 431.088 33.0066 439.753 41.6715C448.418 50.3363 453.294 62.083 453.312 74.3369V127.056L415.547 89.2675L399.206 105.608L465.007 171.432L530.831 105.608L514.467 89.2906Z"/>
</mask>
<path d="M175.964 328.572H71.959C56.6383 328.56 41.9486 322.469 31.1153 311.635C20.2819 300.802 14.1904 286.112 14.1782 270.792V62.7808C14.1904 47.4601 20.2819 32.7705 31.1153 21.9371C41.9486 11.1038 56.6383 5.01224 71.959 5H279.97C295.29 5.01224 309.98 11.1038 320.814 21.9371C331.647 32.7705 337.738 47.4601 337.751 62.7808V166.786H314.638V62.7808C314.626 53.5899 310.97 44.7789 304.471 38.28C297.972 31.781 289.161 28.1245 279.97 28.1123H71.959C62.7681 28.1245 53.9571 31.781 47.4582 38.28C40.9592 44.7789 37.3027 53.5899 37.2905 62.7808V270.792C37.3027 279.983 40.9592 288.793 47.4582 295.292C53.9571 301.791 62.7681 305.448 71.959 305.46H175.964V328.572ZM175.086 217.379C149.4 237.322 119.709 251.481 88.0452 258.889L82.452 236.47C109.915 230.044 135.745 217.987 158.307 201.062C130.952 172.23 112.161 136.354 104.039 97.4493H83.5151V74.3369H159.3L146.727 61.7639L163.068 45.4234L191.958 74.3369H268.414V97.4493H247.289C241.548 123.306 231.333 147.96 217.104 170.299C197.804 180.329 182.841 197.075 175.04 217.379H175.086ZM175.826 185.415C199.351 160.919 215.832 130.529 223.53 97.4493H127.937C135.702 130.543 152.245 160.931 175.826 185.415ZM522.649 454.465V248.904C522.735 241.204 521.295 233.562 518.414 226.421C515.532 219.279 511.266 212.778 505.86 207.293C500.454 201.808 494.017 197.447 486.918 194.462C479.819 191.476 472.2 189.926 464.499 189.899H258.082C242.439 189.917 227.441 196.139 216.379 207.201C205.318 218.263 199.095 233.261 199.077 248.904V454.465C199.095 470.109 205.318 485.107 216.379 496.168C227.441 507.23 242.439 513.453 258.082 513.471H463.643C479.287 513.453 494.285 507.23 505.347 496.168C516.408 485.107 522.631 470.109 522.649 454.465ZM464.499 213.011C473.789 213.017 482.698 216.71 489.268 223.28C495.837 229.85 499.531 238.758 499.537 248.049V455.32C499.531 464.611 495.837 473.52 489.268 480.089C482.698 486.659 473.789 490.353 464.499 490.359H257.227C247.936 490.353 239.028 486.659 232.458 480.089C225.889 473.52 222.195 464.611 222.189 455.32V248.049C222.195 238.758 225.889 229.85 232.458 223.28C239.028 216.71 247.936 213.017 257.227 213.011H464.499ZM416.286 397.909H305.44L278.652 449.45L258.175 438.818L360.863 241.092L463.551 438.818L443.073 449.45L416.286 397.909ZM404.268 374.797L360.863 291.246L317.458 374.797H404.268ZM129.74 490.59C117.486 490.571 105.739 485.695 97.0743 477.031C88.4094 468.366 83.5335 456.619 83.5151 444.365V391.137L121.558 429.18L137.898 412.84L72.0976 347.062L6.29688 412.84L22.6373 429.18L60.4028 391.438V444.411C60.4212 462.795 67.7322 480.42 80.7314 493.42C93.7306 506.419 111.356 513.73 129.74 513.748H177.305V490.636L129.74 490.59ZM514.467 89.2906L476.425 127.333V74.3369C476.406 55.9533 469.095 38.3278 456.096 25.3286C443.097 12.3294 425.471 5.01836 407.088 5H360.863V28.1123H407.088C419.341 28.1307 431.088 33.0066 439.753 41.6715C448.418 50.3363 453.294 62.083 453.312 74.3369V127.056L415.547 89.2675L399.206 105.608L465.007 171.432L530.831 105.608L514.467 89.2906Z" fill="#333333"/>
<path d="M175.964 328.572H71.959C56.6383 328.56 41.9486 322.469 31.1153 311.635C20.2819 300.802 14.1904 286.112 14.1782 270.792V62.7808C14.1904 47.4601 20.2819 32.7705 31.1153 21.9371C41.9486 11.1038 56.6383 5.01224 71.959 5H279.97C295.29 5.01224 309.98 11.1038 320.814 21.9371C331.647 32.7705 337.738 47.4601 337.751 62.7808V166.786H314.638V62.7808C314.626 53.5899 310.97 44.7789 304.471 38.28C297.972 31.781 289.161 28.1245 279.97 28.1123H71.959C62.7681 28.1245 53.9571 31.781 47.4582 38.28C40.9592 44.7789 37.3027 53.5899 37.2905 62.7808V270.792C37.3027 279.983 40.9592 288.793 47.4582 295.292C53.9571 301.791 62.7681 305.448 71.959 305.46H175.964V328.572ZM175.086 217.379C149.4 237.322 119.709 251.481 88.0452 258.889L82.452 236.47C109.915 230.044 135.745 217.987 158.307 201.062C130.952 172.23 112.161 136.354 104.039 97.4493H83.5151V74.3369H159.3L146.727 61.7639L163.068 45.4234L191.958 74.3369H268.414V97.4493H247.289C241.548 123.306 231.333 147.96 217.104 170.299C197.804 180.329 182.841 197.075 175.04 217.379H175.086ZM175.826 185.415C199.351 160.919 215.832 130.529 223.53 97.4493H127.937C135.702 130.543 152.245 160.931 175.826 185.415ZM522.649 454.465V248.904C522.735 241.204 521.295 233.562 518.414 226.421C515.532 219.279 511.266 212.778 505.86 207.293C500.454 201.808 494.017 197.447 486.918 194.462C479.819 191.476 472.2 189.926 464.499 189.899H258.082C242.439 189.917 227.441 196.139 216.379 207.201C205.318 218.263 199.095 233.261 199.077 248.904V454.465C199.095 470.109 205.318 485.107 216.379 496.168C227.441 507.23 242.439 513.453 258.082 513.471H463.643C479.287 513.453 494.285 507.23 505.347 496.168C516.408 485.107 522.631 470.109 522.649 454.465ZM464.499 213.011C473.789 213.017 482.698 216.71 489.268 223.28C495.837 229.85 499.531 238.758 499.537 248.049V455.32C499.531 464.611 495.837 473.52 489.268 480.089C482.698 486.659 473.789 490.353 464.499 490.359H257.227C247.936 490.353 239.028 486.659 232.458 480.089C225.889 473.52 222.195 464.611 222.189 455.32V248.049C222.195 238.758 225.889 229.85 232.458 223.28C239.028 216.71 247.936 213.017 257.227 213.011H464.499ZM416.286 397.909H305.44L278.652 449.45L258.175 438.818L360.863 241.092L463.551 438.818L443.073 449.45L416.286 397.909ZM404.268 374.797L360.863 291.246L317.458 374.797H404.268ZM129.74 490.59C117.486 490.571 105.739 485.695 97.0743 477.031C88.4094 468.366 83.5335 456.619 83.5151 444.365V391.137L121.558 429.18L137.898 412.84L72.0976 347.062L6.29688 412.84L22.6373 429.18L60.4028 391.438V444.411C60.4212 462.795 67.7322 480.42 80.7314 493.42C93.7306 506.419 111.356 513.73 129.74 513.748H177.305V490.636L129.74 490.59ZM514.467 89.2906L476.425 127.333V74.3369C476.406 55.9533 469.095 38.3278 456.096 25.3286C443.097 12.3294 425.471 5.01836 407.088 5H360.863V28.1123H407.088C419.341 28.1307 431.088 33.0066 439.753 41.6715C448.418 50.3363 453.294 62.083 453.312 74.3369V127.056L415.547 89.2675L399.206 105.608L465.007 171.432L530.831 105.608L514.467 89.2906Z" stroke="#333333" stroke-width="8.37446" mask="url(#path-1-outside-1_168_1881)"/>
</svg>
