<svg width="458" height="520" viewBox="0 0 458 520" fill="none" xmlns="http://www.w3.org/2000/svg">
<path d="M370.253 120.392L377.588 112.59C386.444 99.3207 391.118 83.8604 391.118 67.9109V42.1961C391.118 27.811 379.424 16.1172 365.039 16.1172C350.654 16.1172 338.96 27.811 338.96 42.1961V52.6273C338.96 55.4974 336.613 57.8439 333.743 57.8439C330.873 57.8439 328.526 55.4952 328.526 52.6273V42.1961C328.526 27.811 316.833 16.1172 302.447 16.1172C288.062 16.1172 276.369 27.811 276.369 42.1961V52.6273C276.369 55.4974 274.022 57.8439 271.152 57.8439C268.282 57.8439 265.935 55.4952 265.935 52.6273V42.1961C265.935 27.811 253.433 16.1172 239.048 16.1172C224.663 16.1172 213.777 27.811 213.777 42.1961V67.9109C213.777 83.8604 218.451 99.3099 227.307 112.59" stroke="#333333" stroke-width="31.8644"/>
<path d="M184.941 264.332H153.278V109.95V107.857H151.184H4.46094H2.36732V109.95V308.153V310.246H4.46094H151.184H153.278V308.153V289.382H179.523L199.945 299.592L202.975 301.107V297.719V292.55L215.359 278.224L218.354 274.76L213.775 274.761L206.299 274.763L185.877 264.553L185.435 264.332H184.941ZM128.228 285.197H27.419V132.906H128.228V285.197Z" fill="#333333" stroke="#333333" stroke-width="4.18723"/>
<path d="M251.181 195.57C251.181 224.6 227.102 253.528 204.102 276.487C178.023 302.508 164.023 336.835 164.699 373.132C165.998 443.506 225.975 503.073 298.387 505.906C300.339 505.987 302.271 506.02 304.213 506.02C340.42 506.02 374.511 492.744 400.727 468.299C428.372 442.53 443.595 407.856 443.595 370.665C443.595 334.398 429.017 300.361 402.52 274.79" stroke="#333333" stroke-width="27.6776"/>
<path d="M335.801 99.0515L336.218 99.5728L342.851 107.863H380.671C399.085 107.863 414.061 122.866 414.061 141.274C414.061 149.208 411.21 156.448 406.584 162.158C411.199 167.86 414.061 175.071 414.063 183.004V183.005C414.063 190.943 411.211 198.164 406.586 203.87C411.201 209.574 414.063 216.787 414.063 224.734C414.063 232.682 411.211 239.894 406.586 245.599C411.201 251.302 414.063 258.513 414.063 266.452C414.063 284.863 399.081 299.819 380.674 299.819H338.947C320.536 299.819 305.558 284.862 305.558 266.43C305.558 258.492 308.41 251.29 313.034 245.587C308.417 239.888 305.558 232.658 305.558 224.723C305.558 216.796 308.403 209.572 313.02 203.866C309.371 199.548 306.859 195.051 306.004 188.156C304.971 187.367 303.841 186.489 302.812 185.459L302.811 185.458L296.29 178.931L252.888 213.655L251.253 214.964L249.945 213.328L236.915 197.034L235.608 195.399L237.243 194.092L296.692 146.53L298.156 145.359L299.481 146.684L320.531 167.735L335.801 99.0515ZM335.801 99.0515L335.159 98.8679M335.801 99.0515L335.159 98.8679M335.159 98.8679L253.636 75.5535L252.572 75.249M335.159 98.8679L252.572 75.249M252.572 75.249L251.721 75.9577M252.572 75.249L251.721 75.9577M251.721 75.9577L188.367 128.725H140.742H138.649M251.721 75.9577L138.649 128.725M138.649 128.725V130.819M138.649 128.725V130.819M138.649 130.819V151.683V153.777M138.649 130.819V153.777M138.649 153.777H140.742M138.649 153.777H140.742M140.742 153.777H196.677H197.435M140.742 153.777H197.435M197.435 153.777L198.017 153.292M197.435 153.777L198.017 153.292M198.017 153.292L258.422 102.978L321.235 120.933L342.765 147.836C345.313 151.025 346.435 155.008 345.922 159.054C345.409 163.103 343.327 166.682 340.059 169.126L340.056 169.128M198.017 153.292L340.056 169.128M340.056 169.128C334.162 173.55 325.764 172.957 320.532 167.736L340.056 169.128ZM389.009 266.432V266.433C389.011 271.024 385.265 274.77 380.671 274.77H338.945C334.352 274.77 330.607 271.023 330.607 266.432C330.607 261.84 334.354 258.095 338.945 258.095H380.671C385.264 258.095 389.009 261.842 389.009 266.432ZM389.009 224.706V224.706C389.011 229.298 385.265 233.043 380.671 233.043H338.945C334.352 233.043 330.607 229.296 330.607 224.706C330.607 220.113 334.354 216.368 338.945 216.368H380.671C385.264 216.368 389.009 220.115 389.009 224.706ZM370.207 149.59C369.079 143.623 366.69 137.92 362.881 132.915H380.671C385.264 132.915 389.009 136.661 389.009 141.252V141.253C389.011 145.842 385.264 149.59 380.671 149.59H370.207ZM380.671 191.316H351.921C353.001 190.663 354.058 189.952 355.086 189.181C360.279 185.286 364.187 180.261 366.894 174.641H380.671C385.264 174.641 389.009 178.388 389.009 182.979C389.009 187.57 385.264 191.316 380.671 191.316Z" fill="#333333" stroke="#333333" stroke-width="4.18723"/>
<path d="M237.122 345.401C237.122 335.893 239.823 328.654 245.226 323.684C250.628 318.605 257.705 316.066 266.456 316.066C275.1 316.066 282.069 318.605 287.363 323.684C292.765 328.654 295.466 335.893 295.466 345.401C295.466 354.909 292.765 362.148 287.363 367.118C282.069 372.088 275.1 374.573 266.456 374.573C257.705 374.573 250.628 372.088 245.226 367.118C239.823 362.148 237.122 354.909 237.122 345.401ZM357.214 317.687L296.763 432.917H262.405L322.856 317.687H357.214ZM266.132 336.973C262.459 336.973 260.622 339.782 260.622 345.401C260.622 350.911 262.459 353.666 266.132 353.666C268.077 353.666 269.536 352.964 270.508 351.559C271.589 350.155 272.129 348.102 272.129 345.401C272.129 342.591 271.589 340.485 270.508 339.08C269.536 337.675 268.077 336.973 266.132 336.973ZM324.152 405.203C324.152 395.695 326.854 388.456 332.256 383.486C337.658 378.408 344.681 375.869 353.325 375.869C362.076 375.869 369.099 378.408 374.393 383.486C379.688 388.456 382.335 395.695 382.335 405.203C382.335 414.711 379.688 422.004 374.393 427.083C369.099 432.053 362.076 434.538 353.325 434.538C344.681 434.538 337.658 432.053 332.256 427.083C326.854 422.004 324.152 414.711 324.152 405.203ZM353.162 396.776C349.381 396.776 347.49 399.585 347.49 405.203C347.49 410.822 349.381 413.631 353.162 413.631C354.999 413.631 356.404 412.929 357.376 411.524C358.457 410.12 358.997 408.013 358.997 405.203C358.997 402.502 358.457 400.449 357.376 399.045C356.404 397.532 354.999 396.776 353.162 396.776Z" fill="#333333"/>
</svg>
