<svg width="537" height="537" viewBox="0 0 537 537" fill="none" xmlns="http://www.w3.org/2000/svg">
<path d="M270.504 17.7422C167.514 17.7422 80.2891 105.473 80.2891 209.377C80.2891 318.196 181.395 429.48 249.401 507.695C249.668 508.009 260.659 520.21 274.194 520.21H275.388C288.939 520.21 299.852 508.009 300.119 507.695C363.932 434.332 457.14 313.344 457.14 209.377C457.14 105.457 389.102 17.7422 270.504 17.7422ZM276.801 486.622C276.251 487.171 275.451 487.784 274.744 488.302C274.022 487.799 273.237 487.171 272.656 486.622L264.443 477.169C199.971 403.21 111.678 301.912 111.678 209.361C111.678 122.494 184.41 49.116 270.489 49.116C377.718 49.116 425.72 129.592 425.72 209.361C425.72 279.614 375.614 372.919 276.801 486.622ZM269.264 112.821C217.243 112.821 175.051 154.999 175.051 207.037C175.051 259.075 217.243 301.253 269.264 301.253C321.285 301.253 363.477 259.06 363.477 207.037C363.477 155.014 321.301 112.821 269.264 112.821ZM269.264 269.847C234.625 269.847 205.733 240.986 205.733 206.346C205.733 171.706 233.903 143.536 268.542 143.536C303.196 143.536 331.35 171.706 331.35 206.346C331.366 240.986 303.918 269.847 269.264 269.847Z" fill="#333333" stroke="#333333" stroke-width="8.37446"/>
</svg>
