<svg width="537" height="537" viewBox="0 0 537 537" fill="none" xmlns="http://www.w3.org/2000/svg">
<path d="M268.666 534.856C231.267 502.908 196.602 467.883 165.032 430.149C117.657 373.48 61.3985 289.086 61.3985 208.665C61.3779 167.593 73.5238 127.439 96.2991 93.2828C119.074 59.127 151.455 32.5054 189.344 16.7871C227.232 1.06879 268.925 -3.03964 309.146 4.98175C349.366 13.0031 386.307 32.7938 415.293 61.849C434.591 81.0901 449.887 103.973 460.296 129.174C470.705 154.375 476.02 181.393 475.933 208.665C475.933 289.086 419.675 373.48 372.299 430.149C340.73 467.883 306.064 502.908 268.666 534.856ZM268.666 119.703C245.107 119.703 222.513 129.076 205.854 145.76C189.196 162.443 179.837 185.071 179.837 208.665C179.837 232.259 189.196 254.886 205.854 271.57C222.513 288.253 245.107 297.626 268.666 297.626C292.225 297.626 314.819 288.253 331.477 271.57C348.136 254.886 357.495 232.259 357.495 208.665C357.495 185.071 348.136 162.443 331.477 145.76C314.819 129.076 292.225 119.703 268.666 119.703Z" fill="#333333"/>
</svg>
