<svg width="537" height="537" viewBox="0 0 537 537" fill="none" xmlns="http://www.w3.org/2000/svg">
<path d="M400.15 370.823L515.258 255.716M515.258 255.716L400.15 140.609M515.258 255.716H112.383" stroke="#333333" stroke-width="38.433" stroke-linecap="round" stroke-linejoin="round"/>
<path d="M308.924 383.977V412.754C308.924 435.65 299.828 457.609 283.638 473.799C267.448 489.989 245.49 499.085 222.594 499.085H107.487C84.5903 499.085 62.6319 489.989 46.4418 473.799C30.2517 457.609 21.1563 435.65 21.1562 412.754V124.987C21.1563 102.09 30.2517 80.1319 46.4418 63.9418C62.6319 47.7517 84.5903 38.6563 107.487 38.6562H222.594C245.49 38.6562 267.448 47.7517 283.638 63.9418C299.828 80.1319 308.924 102.09 308.924 124.987V153.763" stroke="#333333" stroke-width="41.4385" stroke-linecap="round" stroke-linejoin="round"/>
</svg>
