<?xml version="1.0" encoding="UTF-8"?>
<svg id="Layer_2" data-name="Layer 2" xmlns="http://www.w3.org/2000/svg" viewBox="0 0 116.96 126.01">
  <defs>
    <style>
      .cls-1 {
        fill: #161617;
      }

      .cls-2 {
        fill: #040404;
      }

      .cls-3 {
        fill: #ebeaeb;
      }

      .cls-4 {
        fill: #020202;
      }

      .cls-5 {
        fill: #0d0c0c;
      }

      .cls-6 {
        fill: #8e8e8e;
      }

      .cls-7 {
        fill: #2c2b2b;
      }

      .cls-8 {
        fill: #010101;
      }
    </style>
  </defs>
  <g id="Layer_1-2" data-name="Layer 1">
    <g>
      <path d="m39.77,114.51c-.92.11-1.84.3-2.76.3-6.24.03-12.48.02-18.73.04-.49,0-.99.18-1.47.12-.7-.09-1.39-.31-2.08-.48-.25-.75-.5-1.5-.75-2.25-.57-1.16-1.72-1.37-2.78-1.48-3.49-.39-6.99-.65-10.49-.96-.25-.51-.69-1.02-.7-1.54-.05-1.85.07-3.7.07-5.56,0-22.74.03-45.48-.04-68.23-.01-3.99,1.4-7,5.06-8.62,1.3-.58,2.87-.71,4.33-.71,12.95-.05,25.9-.03,38.86,0,2.66,0,5.33-.07,7.98.16,4.21.37,7.47,3.87,7.47,8.4-.01,13.62.06,27.23.04,40.85,0,.5-.52,1-.8,1.51-2.32-.02-4.43.79-6.52,1.67-.55.18-1.1.36-1.74.56,0-.37,0-.58,0-.78,0-14.32,0-28.63,0-42.95,0-.33.09-.71-.03-.99-.14-.31-.45-.74-.72-.77-.89-.1-1.79-.04-2.72-.04-.03.59-.06,1-.06,1.42,0,5.16-.01,10.32-.02,15.48,0,10.24-.01,20.47-.02,30.71-.19.22-.37.43-.56.65-1.49,1.67-3.07,3.27-4.44,5.03-.67.85-.97,2-1.43,3.01-.03-1.25-.07-2.5-.07-3.75-.01-12.98,0-25.97-.03-38.95,0-4.2-.11-8.4-.13-12.6,0-.86-.41-1.04-1.17-1.01-2.3.11-2.13-.57-2.25,2.19,0,.21,0,.42,0,.62,0,23.31.02,46.62.02,69.93-.3,2.33-.61,4.66-.91,6.99-.14.67-.28,1.35-.42,2.02Zm-8.79-81.73c-.06,1.03-.17,1.96-.17,2.89-.01,22.44-.01,44.88-.01,67.32,0,1.11,0,2.22.08,3.32.02.24.35.64.56.66.93.07,1.87.03,2.8.03V32.78h-3.26Zm-10.25,74.16c.37.03.62.06.86.06,3.05-.07,2.66.53,2.66-2.63.03-22.99.02-45.98,0-68.97,0-.87-.19-1.75-.29-2.61-.32-.02-.48-.04-.65-.04-2.98.05-2.57-.44-2.58,2.57-.02,23.11,0,46.23,0,69.34,0,.71,0,1.41,0,2.27Zm-9.96.06c.89,0,1.68-.02,2.46,0,.66.03.87-.26.86-.89-.03-1.33.01-2.66.01-4,0-22.03.01-44.06.01-66.09,0-.83-.02-1.67-.16-2.48-.05-.3-.43-.73-.71-.76-.8-.1-1.63-.04-2.48-.04v74.26Z"/>
      <path d="m63.72,77.29c7.52-1.21,15.11-.87,22.66-.73,5.86.11,11.69,1.07,16.97,3.81,1.98,1.03,3.63,2.73,5.29,4.28.33.31.11,1.34-.03,2.01-.33,1.61-.76,3.2-1.16,4.81-.07.14-.15.27-.22.41-1.08,2.36-2.06,4.79-3.3,7.07-.5.91-1.56,1.52-2.24,2.14-.59-.93-1.02-1.59-1.44-2.26-1.68.01-3.37-.05-5.04.1-.36.03-.64.86-.96,1.33-.1,1.24-.2,2.47-.31,3.71l-7.48.81c-4.17.09-8.34.18-12.51.27-1.5-.17-3-.34-4.5-.52-1.47-.15-2.95-.3-4.42-.45-.22-.19-.43-.39-.65-.58-.06-1.39-.05-2.79-.2-4.17-.06-.57-.34-1.26-1.22-1.03-.97-.09-1.93-.26-2.9-.26-1.84,0-2.57.75-2.86,2.58-.05.32-.47.58-.72.87l-1.24-1c-.75-.92-1.5-1.83-2.25-2.75-.61-1.34-1.21-2.68-1.82-4.01-.64-2.37-1.33-4.72-1.89-7.11-.28-1.2-.15-2.37,1.06-3.16.61-.4,1.11-.95,1.66-1.43,1.65-.94,3.3-1.87,4.95-2.81,2.25-.64,4.5-1.28,6.75-1.93Z"/>
      <path d="m64.47,125.75c0-3.02,0-6.05.02-9.07,0-.73.12-1.45.19-2.18-.09-.42-.18-.83-.27-1.25-.21-.69-.42-1.38-.62-2.08,1.12-1.67.96-3.56.94-5.42,1.33.14,2.66.28,4,.42,1.58.18,3.17.36,4.75.54.3.1.61.28.91.28,2.48,0,4.97,0,7.45-.09,1.3-.04,2.59-.26,3.89-.4.41-.03.83-.06,1.24-.08.59-.07,1.18-.14,1.77-.22l5.24-.19c.09,1.5.18,3,.28,4.49.31.74.62,1.49.93,2.23-.4.67-1.11,1.33-1.14,2.02-.08,1.58.17,3.17.28,4.75.04,2.01.07,4.03.11,6.04l-.04.05.03.06c-1.73.1-3.46.29-5.19.3-8.16.02-16.32,0-24.48-.02-.09-.06-.18-.13-.27-.19Z"/>
      <path class="cls-8" d="m57.15,125.97c-4.19.01-8.39.03-12.58.03-2.66,0-3.83-1.02-3.8-3.69.02-2.11.37-4.23.57-6.34.04-.4.07-.81.11-1.21.08-.75.17-1.51.25-2.26.33-2.17.67-4.33,1-6.5,1.1-4.83,2.21-9.66,3.31-14.49.46-1.19.91-2.39,1.37-3.58.09.02.19.04.28.07.38,1.17.75,2.34,1.13,3.51,1.03,2.5,2.05,5,3.08,7.5.47,1.2,1.24,2.14,2.36,2.78.92.5,1.83,1,2.75,1.49.01,1.83.03,3.66.04,5.48.19.65.43,1.29.55,1.95.11.59.09,1.2.13,1.8-.24,1.04-.68,2.07-.69,3.11-.04,3.45.08,6.91.14,10.37Z"/>
      <path class="cls-8" d="m108.69,92.25c.46-1.66.93-3.32,1.44-5.16.27.33.52.5.58.73,1.24,4.52,2.57,9.01,3.64,13.57.66,2.8,1.02,5.68,1.35,8.54.5,4.31.91,8.63,1.24,12.96.15,2.03-.93,3.05-2.97,3.07-3.87.03-7.74.02-11.62.06-.83,0-1.18-.16-1.15-1.11.07-2.2,0-4.41.02-6.62,0-.6.14-1.19.22-1.79,0-.67-.01-1.33-.02-2-.14-.46-.33-.91-.41-1.38-.09-.53-.09-1.08-.12-1.63,1.03-2.2.64-4.55.44-6.79-.09-1.06.18-1.5.89-1.95,1.82-1.17,3.34-2.62,4.2-4.62.83-1.93,1.5-3.92,2.24-5.88Z"/>
      <path class="cls-8" d="m46.23,6c-1.22,0-2.34.07-3.44-.04-.29-.03-.76-.59-.76-.91-.01-1.48-.25-1.81-1.79-1.83-2.83-.02-5.66,0-8.49,0-2.66,0-5.33.05-7.99-.04-1.3-.05-2.13.22-2.21,1.66-.02.36-.08.72-.13,1.12h-4.16c0-1.5-.07-3.02.04-4.53.04-.59.31-1.2,1.26-1.2,2.94,0,5.89-.17,8.83-.2,4.2-.04,8.41-.03,12.61,0,1.77.01,3.55.17,5.32.21.69.02.96.25.94.96-.04,1.54-.01,3.08-.01,4.8Z"/>
      <path class="cls-8" d="m13.03,114.51c-.17,1.07-.3,2.16-.53,3.22-.22,1.03-.98,1.48-1.99,1.48-1.91.01-3.82.03-5.73-.05-.46-.02-1.03-.3-1.34-.64-1.72-1.89-2.57-4.23-3.19-6.66-.03-.1.15-.25.23-.38,2.13.26,4.27.48,6.4.79,1.88.27,3.75.65,5.63.98.17.42.35.84.52,1.27Z"/>
      <path class="cls-5" d="m20.34,23.44c-2.01.1-2.02.1-2.02-1.64-.02-4.07-.03-8.14-.03-12.21,0-.57.08-1.15.13-1.78h1.92v15.63Z"/>
      <path class="cls-8" d="m59.23,125.8c-.09-.17-.25-.33-.25-.5-.02-2.88-.01-5.77-.01-8.8h3.74v9.29h-3.48Z"/>
      <path class="cls-5" d="m45.27,23.39c-1.85.21-1.91.09-1.89-1.97.03-2.87-.02-5.73-.05-8.6-.01-1.14-.1-2.27-.11-3.41-.02-1.69.09-1.77,2.04-1.57v15.54Z"/>
      <path class="cls-8" d="m99.77,118.75v6.92h-3.84v-6.42c.03-.65.06-1.29.1-2.13,1.33.13,2.54.25,3.74.37,0,.25,0,.5,0,.75,0,.17,0,.33,0,.5Z"/>
      <path class="cls-5" d="m85.92,68.47v1.89c-2.23-.12-4.4-.32-6.57-.32-2.3,0-4.59.23-6.89.32-.36.01-.73-.18-1.1-.28.14-.44.18-1.2.43-1.27,1.22-.37,2.5-.77,3.75-.76,3.43.03,6.86.27,10.37.43Z"/>
      <path class="cls-4" d="m11.62,120.92c.23,2.19-.93,3.89-2.63,4.09-2.46.28-4.6-1.1-4.72-3.12-.02-.31.44-.92.69-.93,2.23-.07,4.46-.04,6.67-.04Z"/>
      <path class="cls-5" d="m86.98,70.1c1.88-.19,3,1.99,2.67,5.01-.9.45-1.29-.14-1.51-.84-.42-1.35-.76-2.73-1.16-4.17Z"/>
      <path class="cls-1" d="m69.9,70.07c-.45,1.96-.84,3.64-1.25,5.41-.99-.77-.2-4.4,1.25-5.41Z"/>
      <path class="cls-3" d="m99.77,118.75c0-.17,0-.33,0-.5,0,.17,0,.33,0,.5Z"/>
      <path class="cls-6" d="m94.41,125.66l-.03-.06.04-.05s.07.01.1.02c-.04.03-.08.06-.12.09Z"/>
      <path class="cls-7" d="m64.47,125.75c.09.06.18.13.27.19-.09-.06-.18-.13-.27-.19Z"/>
      <path class="cls-2" d="m99.44,110.49c-.88,1.23-.48,2.48-.09,3.73.13.42.23.84.34,1.26h-3.61c.12-1.37.23-2.68.35-3.98-.23-.59-.47-1.19-.7-1.78q-.48-3.01,2.55-2.98c1.53.02,2,.61,1.64,2.11-.13.55-.32,1.09-.49,1.63Z"/>
      <path class="cls-4" d="m96.02,100.51c1.15,0,2.29,0,3.44,0,.09,1.13.17,2.27.27,3.4.06.76-.16,1.11-1.03,1.11-3.29-.02-2.68.33-2.71-2.64,0-.62.02-1.24.04-1.86Z"/>
      <path class="cls-2" d="m59.44,110.5c-.23-.67-.46-1.34-.69-2.01v-2.43h4.42c-.24,1.45-.48,2.81-.71,4.18-.74.96-.54,1.95-.12,2.97.21.51.34,1.06.52,1.66h-4.15c.6-1.51,1.61-2.81.72-4.37Z"/>
      <path class="cls-8" d="m62.47,99.77c.11,1.24.22,2.49.33,3.73.01,1.2-1.05.78-1.61.95-.63.2-1.38.05-2.23.05,0-1.38-.05-2.7.04-4.01.02-.26.54-.67.86-.71.86-.09,1.74-.02,2.61-.01Z"/>
    </g>
  </g>
</svg>