<svg width="321" height="366" viewBox="0 0 321 366" fill="none" xmlns="http://www.w3.org/2000/svg">
<path d="M285.333 87.1429H249.667C249.667 38.3429 210.433 0 160.5 0C110.567 0 71.3333 38.3429 71.3333 87.1429H35.6667C16.05 87.1429 0 102.829 0 122V331.143C0 350.314 16.05 366 35.6667 366H285.333C304.95 366 321 350.314 321 331.143V122C321 102.829 304.95 87.1429 285.333 87.1429ZM160.5 34.8571C190.817 34.8571 214 57.5143 214 87.1429H107C107 57.5143 130.183 34.8571 160.5 34.8571ZM285.333 331.143H35.6667V122H285.333V331.143ZM160.5 191.714C130.183 191.714 107 169.057 107 139.429H71.3333C71.3333 188.229 110.567 226.571 160.5 226.571C210.433 226.571 249.667 188.229 249.667 139.429H214C214 169.057 190.817 191.714 160.5 191.714Z" fill="#A4A4A4"/>
</svg>
