<svg width="652" height="653" viewBox="0 0 652 653" fill="none" xmlns="http://www.w3.org/2000/svg">
<g clip-path="url(#clip0_175_1254)">
<path d="M582.236 132.802L419.457 553.314C417.847 557.478 415.234 561.182 411.849 564.094C408.465 567.007 404.414 569.039 400.055 570.011C395.697 570.982 391.166 570.863 386.865 569.663C382.564 568.464 378.625 566.221 375.399 563.134L283.646 475.37L227.379 531.61C225.48 533.502 223.063 534.79 220.433 535.31C217.803 535.83 215.078 535.559 212.602 534.532C210.126 533.504 208.01 531.766 206.521 529.537C205.032 527.307 204.237 524.687 204.237 522.006V399.406L63.4063 264.707C59.9121 261.364 57.3749 257.148 56.0575 252.495C54.74 247.842 54.6902 242.922 55.9131 238.243C57.136 233.565 59.5872 229.298 63.013 225.885C66.4388 222.472 70.7146 220.036 75.3977 218.831L550.168 96.7471C554.995 95.5106 560.069 95.6273 564.834 97.0843C569.599 98.5413 573.871 101.282 577.18 105.007C580.49 108.732 582.71 113.296 583.597 118.199C584.484 123.102 584.004 128.154 582.209 132.802H582.236ZM516.229 163.73L218.67 357.735L265.74 402.771L516.229 163.703V163.73Z" fill="#333333"/>
</g>
<defs>
<clipPath id="clip0_175_1254">
<rect width="651.114" height="651.114" fill="white" transform="translate(0.75 0.90625)"/>
</clipPath>
</defs>
</svg>
