<?xml version="1.0" encoding="UTF-8"?>
<svg id="Layer_2" data-name="Layer 2" xmlns="http://www.w3.org/2000/svg" viewBox="0 0 491.86 414.69">
  <g id="Layer_1-2" data-name="Layer 1">
    <g>
      <path d="m249.6,204.8c44.87-.22,85.52,6.29,125,19.64,24.09,8.15,46.7,19.43,66.62,35.42,19.16,15.37,35.19,33.33,44.39,56.63,14.88,37.68,2.15,71.77-26.85,96.01-2.54,2.12-5.48,2.63-8.67,1.81-18.62-4.79-37.23-9.58-55.86-14.35-11.02-2.82-21.94-6.18-33.1-8.26-16.01-2.97-22.66-13.59-23.33-28.34-.45-9.85,1.55-19.5,2.97-29.18.86-5.86,1.79-11.75.55-17.66-1.15-5.47-3.83-9.19-9.8-10.87-33.37-9.38-67.27-14.24-101.95-12.63-24.81,1.15-48.98,5.91-72.64,13.49-5.26,1.69-7.4,5.1-8.08,10.16-1.18,8.86.79,17.48,1.79,26.17.92,7.92,1.99,15.8,1.05,23.84-1.5,12.9-8.46,21.05-22.01,24.78-15.24,4.2-30.54,8.18-45.81,12.29-10.43,2.81-20.85,5.68-31.28,8.5-9.57,2.59-18.24.54-26.21-5.11-11.22-7.94-17.06-19.49-21.83-31.9-7.31-19.03-5.37-37.7,2.56-55.81,16.25-37.09,42.19-64.99,79.36-82.03,21.64-9.92,44.34-16.31,67.4-21.8,20.76-4.94,41.71-8.54,62.99-9.99,11.94-.81,23.9-1.26,32.72-.82Z"/>
      <path d="m384.09.06c8.85-.45,11.13,1.77,10.32,9.63-1.49,14.5-3.24,28.97-4.89,43.45-1.74,15.28-3.5,30.55-5.25,45.83-.26,2.26-.48,4.53-.77,6.79-.37,2.91-1.66,5.28-4.52,6.32-2.84,1.04-5.29.22-7.44-1.94-8.28-8.33-16.63-16.58-24.92-24.9-3.86-3.87-3.91-4.02-7.8-.14-17.09,17.09-34.11,34.25-51.16,51.37-7.64,7.67-15.24,15.4-22.97,22.98-5.12,5.02-10.68,9.16-18.47,9.09-5.11-.05-9.39-1.89-13.09-5.05-8.57-7.33-17.02-14.82-25.45-22.31-32.99-29.28-65.95-58.6-98.94-87.88-5.38-4.77-10.13-9.82-10.85-17.52-.72-7.67,1.58-14.1,7.94-18.48,6.76-4.65,14.12-6.3,21.86-2.07,6.18,3.38,10.96,8.53,16.14,13.13,32.47,28.84,64.82,57.79,97.23,86.7,4.39,3.92,4.47,3.93,8.45-.13,19.63-20.02,39.17-40.13,59.64-59.31,3.41-3.2,3.42-4.29.17-7.57-7.71-7.77-15.49-15.47-23.23-23.2-.8-.8-1.62-1.62-2.3-2.52-4.17-5.5-2.38-10.7,4.41-11.66,10.37-1.47,20.81-2.42,31.22-3.57,18-1.99,36-3.98,54.01-5.95,3.96-.43,7.94-.81,10.65-1.09Z"/>
    </g>
  </g>
</svg>