<svg width="201" height="312" viewBox="0 0 201 312" fill="none" xmlns="http://www.w3.org/2000/svg">
<rect x="9" y="207.57" width="161.633" height="19.0157" fill="#263238"/>
<path d="M169.438 108.044V275.601C169.438 290.861 159.177 303.232 146.518 303.232H31.9197C19.2615 303.232 9 290.861 9 275.601V54.5529C9 39.2927 19.2615 26.9219 31.9197 26.9219H92.2472" stroke="#263238" stroke-width="16.2" stroke-linecap="round" stroke-linejoin="round"/>
<circle cx="140.423" cy="60.5756" r="54.2806" stroke="#263238" stroke-width="12.59"/>
<circle cx="91.718" cy="261.769" r="16.1633" fill="#373737"/>
<path d="M143.2 46.4684C143.83 47.7282 144.355 49.4079 144.775 51.5076C146.524 50.7377 148.414 50.3528 150.444 50.3528C155.063 50.3528 158.877 52.0675 161.887 55.4969C164.966 58.8563 166.506 62.8807 166.506 67.5699C166.506 72.2591 165.071 76.3184 162.202 79.7478C159.192 83.4572 155.378 85.3119 150.759 85.3119C149.219 85.3119 147.329 84.962 145.09 84.2621V74.4987C147.539 75.8285 149.394 76.4934 150.654 76.4934C152.893 76.4934 154.713 75.6185 156.113 73.8688C157.512 72.0491 158.212 70.0195 158.212 67.7798C158.212 65.4702 157.477 63.4756 156.008 61.7958C154.538 60.0461 152.683 59.1713 150.444 59.1713C148.204 59.1713 146.419 59.7312 145.09 60.851C143.62 68.0598 139.246 72.854 131.967 75.2336L152.858 92.1358H138.896L108.241 67.3599L114.75 60.956L120.314 65.7852C122.063 66.975 123.848 67.5699 125.668 67.5699C128.887 67.5699 131.512 66.555 133.541 64.5254C135.571 62.4257 136.586 59.7662 136.586 56.5467C136.586 52.0675 134.766 48.708 131.127 46.4684H105.511V39.5396H173.75V46.4684H143.2Z" fill="#292D32"/>
</svg>
