<svg width="531" height="525" viewBox="0 0 531 525" fill="none" xmlns="http://www.w3.org/2000/svg">
<path d="M83.0177 351.416H448.176C502.13 351.416 530.773 323.883 530.773 269.929V82.2052C530.773 28.2515 502.13 0.71875 448.176 0.71875H83.0177C31.5666 0.71875 0.140625 28.2515 0.140625 82.2052V269.929C0.140625 323.883 28.7864 351.416 83.0177 351.416ZM82.4612 309.7C57.7087 309.7 44.9159 296.628 44.9159 272.154V79.9803C44.9159 55.5066 57.7087 42.7138 82.4612 42.7138H448.731C473.206 42.7138 485.999 55.5066 485.999 79.9803V272.154C485.999 296.628 473.206 309.7 448.731 309.7H82.4612ZM362.24 524.122C391.163 524.122 415.915 505.489 425.093 479.625H509.636C521.039 479.625 530.773 469.891 530.773 457.376C530.773 444.583 521.039 434.849 509.636 434.849H425.093C415.915 408.985 391.163 390.629 362.24 390.629C333.316 390.629 308.565 408.985 299.109 434.849H22.6671C10.152 434.849 0.140625 444.583 0.140625 457.376C0.140625 469.891 10.152 479.625 22.6671 479.625H299.109C308.286 505.489 333.316 524.122 362.24 524.122ZM362.24 489.915C343.884 489.915 329.701 475.453 329.701 457.376C329.701 438.743 343.884 424.559 362.24 424.559C380.595 424.559 394.779 438.743 394.779 457.376C394.779 475.453 380.595 489.915 362.24 489.915Z" fill="#333333"/>
</svg>
