<svg width="449" height="449" viewBox="0 0 449 449" fill="none" xmlns="http://www.w3.org/2000/svg">
<path d="M177.727 257.24C177.727 275.387 191.758 289.98 208.969 289.98H244.141C259.108 289.98 271.268 277.258 271.268 261.356C271.268 244.331 263.785 238.158 252.747 234.229L196.435 214.585C185.397 210.656 177.914 204.67 177.914 187.458C177.914 171.743 190.074 158.834 205.041 158.834H240.212C257.424 158.834 271.455 173.426 271.455 191.574" stroke="#292D32" stroke-width="28.0625" stroke-linecap="round" stroke-linejoin="round"/>
<path d="M224.5 140.312V308.688" stroke="#292D32" stroke-width="28.0625" stroke-linecap="round" stroke-linejoin="round"/>
<path d="M411.581 224.499C411.581 327.769 327.767 411.583 224.497 411.583C121.227 411.583 37.4141 327.769 37.4141 224.499C37.4141 121.229 121.227 37.416 224.497 37.416" stroke="#292D32" stroke-width="28.0625" stroke-linecap="round" stroke-linejoin="round"/>
<path d="M411.583 112.249V37.416H336.75" stroke="#292D32" stroke-width="28.0625" stroke-linecap="round" stroke-linejoin="round"/>
<path d="M318.039 130.958L411.581 37.416" stroke="#292D32" stroke-width="28.0625" stroke-linecap="round" stroke-linejoin="round"/>
</svg>
