<svg width="602" height="602" viewBox="0 0 602 602" fill="none" xmlns="http://www.w3.org/2000/svg">
<path d="M187.998 338.652C197.958 338.652 207.51 334.696 214.553 327.653C221.596 320.61 225.552 311.058 225.552 301.098C225.552 291.138 221.596 281.586 214.553 274.543C207.51 267.501 197.958 263.544 187.998 263.544C178.038 263.544 168.486 267.501 161.443 274.543C154.4 281.586 150.444 291.138 150.444 301.098C150.444 311.058 154.4 320.61 161.443 327.653C168.486 334.696 178.038 338.652 187.998 338.652ZM300.661 338.652C310.621 338.652 320.173 334.696 327.216 327.653C334.258 320.61 338.215 311.058 338.215 301.098C338.215 291.138 334.258 281.586 327.216 274.543C320.173 267.501 310.621 263.544 300.661 263.544C290.701 263.544 281.149 267.501 274.106 274.543C267.063 281.586 263.106 291.138 263.106 301.098C263.106 311.058 267.063 320.61 274.106 327.653C281.149 334.696 290.701 338.652 300.661 338.652ZM450.877 301.098C450.877 311.058 446.921 320.61 439.878 327.653C432.835 334.696 423.283 338.652 413.323 338.652C403.363 338.652 393.811 334.696 386.768 327.653C379.726 320.61 375.769 311.058 375.769 301.098C375.769 291.138 379.726 281.586 386.768 274.543C393.811 267.501 403.363 263.544 413.323 263.544C423.283 263.544 432.835 267.501 439.878 274.543C446.921 281.586 450.877 291.138 450.877 301.098ZM563.54 301.098C563.54 446.283 445.845 563.978 300.661 563.978C155.476 563.978 37.7812 446.283 37.7812 301.098C37.7812 155.914 155.476 38.2188 300.661 38.2188C445.845 38.2188 563.54 155.914 563.54 301.098ZM525.986 301.098C525.986 176.662 425.097 75.773 300.661 75.773C176.225 75.773 75.3355 176.662 75.3355 301.098C75.3355 425.534 176.225 526.423 300.661 526.423C425.097 526.423 525.986 425.534 525.986 301.098Z" fill="#333333"/>
</svg>
