<svg width="246" height="200" viewBox="0 0 246 200" fill="none" xmlns="http://www.w3.org/2000/svg">
<g filter="url(#filter0_d_948_1711)">
<path d="M206.3 142.2L206.3 168C206.3 181.2 195.59 192 182.5 192L63.5 192C50.41 192 39.7 181.2 39.7 168L39.7 142.08C53.504 137.16 63.5 123.96 63.5 108.36L63.5 84L182.5 84L182.5 108.48C182.5 123.96 192.496 137.28 206.3 142.2ZM27.8 132C40.89 132 51.6 121.2 51.6 108L51.6 72L194.4 72L194.4 108C194.4 114.365 196.907 120.47 201.371 124.971C205.834 129.471 211.888 132 218.2 132C224.512 132 230.566 129.471 235.029 124.971C239.493 120.47 242 114.365 242 108L242 48C242 34.8 231.29 24 218.2 24L218.2 1.31781e-05L194.4 1.10975e-05L194.4 24L51.6 24L51.6 -1.38651e-06L27.8 -3.46717e-06L27.8 24C14.71 24 4 34.8 4 48L3.99999 108C3.99999 121.2 14.71 132 27.8 132Z" fill="black"/>
</g>
<defs>
<filter id="filter0_d_948_1711" x="0" y="0" width="246" height="200" filterUnits="userSpaceOnUse" color-interpolation-filters="sRGB">
<feFlood flood-opacity="0" result="BackgroundImageFix"/>
<feColorMatrix in="SourceAlpha" type="matrix" values="0 0 0 0 0 0 0 0 0 0 0 0 0 0 0 0 0 0 127 0" result="hardAlpha"/>
<feOffset dy="4"/>
<feGaussianBlur stdDeviation="2"/>
<feComposite in2="hardAlpha" operator="out"/>
<feColorMatrix type="matrix" values="0 0 0 0 0 0 0 0 0 0 0 0 0 0 0 0 0 0 0.25 0"/>
<feBlend mode="normal" in2="BackgroundImageFix" result="effect1_dropShadow_948_1711"/>
<feBlend mode="normal" in="SourceGraphic" in2="effect1_dropShadow_948_1711" result="shape"/>
</filter>
</defs>
</svg>
