<svg width="555" height="526" viewBox="0 0 555 526" fill="none" xmlns="http://www.w3.org/2000/svg">
<path d="M449.167 191.6C449.167 146.089 431.08 102.442 398.887 70.2605C366.693 38.0792 323.029 20 277.5 20C231.971 20 188.307 38.0792 156.113 70.2605C123.92 102.442 105.833 146.089 105.833 191.6C105.833 391.8 20 449 20 449H535C535 449 449.167 391.8 449.167 191.6Z" stroke="#333333" stroke-width="39.39" stroke-linecap="round" stroke-linejoin="round"/>
<path d="M354 455C347.293 466.513 337.666 489.218 326.083 495.861C314.5 502.504 301.367 506 288 506C274.633 506 261.5 502.504 249.917 495.861C238.334 489.218 228.707 466.513 222 455" stroke="#333333" stroke-width="39.39" stroke-linecap="round" stroke-linejoin="round"/>
</svg>
