<svg width="598" height="598" viewBox="0 0 598 598" fill="none" xmlns="http://www.w3.org/2000/svg">
<path d="M298.802 149.758C280.362 149.758 262.337 155.226 247.005 165.47C231.673 175.715 219.724 190.275 212.667 207.311C205.611 224.347 203.764 243.092 207.362 261.178C210.959 279.263 219.839 295.875 232.877 308.914C245.916 321.952 262.528 330.832 280.613 334.429C298.698 338.026 317.444 336.18 334.48 329.124C351.515 322.067 366.076 310.117 376.321 294.786C386.565 279.454 392.033 261.428 392.033 242.989C392.033 218.263 382.21 194.549 364.726 177.065C347.242 159.58 323.528 149.758 298.802 149.758ZM298.802 298.928C287.738 298.928 276.923 295.647 267.724 289.5C258.525 283.354 251.355 274.617 247.121 264.396C242.887 254.174 241.779 242.927 243.938 232.076C246.096 221.225 251.424 211.258 259.247 203.434C267.07 195.611 277.037 190.284 287.889 188.125C298.74 185.967 309.987 187.075 320.208 191.308C330.43 195.542 339.166 202.712 345.313 211.911C351.46 221.11 354.74 231.925 354.74 242.989C354.726 257.82 348.827 272.04 338.34 282.527C327.853 293.015 313.633 298.913 298.802 298.928Z" fill="#333333"/>
<path d="M298.813 37.8594C247.183 37.8594 196.712 53.1695 153.783 81.8538C110.854 110.538 77.3949 151.308 57.6368 199.008C37.8787 246.709 32.7091 299.196 42.7817 349.835C52.8543 400.473 77.7166 446.987 114.225 483.495C150.733 520.004 197.247 544.866 247.885 554.938C298.524 565.011 351.012 559.841 398.712 540.083C446.412 520.325 487.182 486.866 515.866 443.937C544.551 401.008 559.861 350.537 559.861 298.907C559.782 229.697 532.253 163.344 483.315 114.406C434.376 65.4668 368.023 37.9383 298.813 37.8594V37.8594ZM186.936 492.399V466.723C186.951 451.892 192.849 437.672 203.336 427.185C213.824 416.698 228.043 410.799 242.875 410.784H354.752C369.583 410.799 383.803 416.698 394.29 427.185C404.778 437.672 410.676 451.892 410.691 466.723V492.399C376.739 512.224 338.129 522.671 298.813 522.671C259.497 522.671 220.887 512.224 186.936 492.399V492.399ZM447.834 465.343C447.463 440.886 437.498 417.553 420.087 400.372C402.676 383.191 379.212 373.538 354.752 373.492H242.875C218.414 373.538 194.951 383.191 177.54 400.372C160.129 417.553 150.164 440.886 149.792 465.343C115.979 435.15 92.1332 395.399 81.4135 351.353C70.6939 307.306 73.6057 261.043 89.7634 218.688C105.921 176.333 134.563 139.885 171.895 114.17C209.228 88.4553 253.491 74.6862 298.823 74.6862C344.155 74.6862 388.417 88.4553 425.75 114.17C463.083 139.885 491.724 176.333 507.882 218.688C524.039 261.043 526.951 307.306 516.232 351.353C505.512 395.399 481.667 435.15 447.853 465.343H447.834Z" fill="#333333"/>
</svg>
