<svg width="322" height="322" viewBox="0 0 322 322" fill="none" xmlns="http://www.w3.org/2000/svg">
<path d="M250.306 156.912C247.265 156.912 244.349 157.457 241.643 158.454C237.258 150.657 228.99 145.384 219.526 145.384C216.487 145.384 213.57 145.929 210.866 146.926C206.48 139.128 198.212 133.856 188.748 133.856C186.922 133.856 185.141 134.057 183.422 134.43V115.794C183.422 101.555 172.004 89.9688 157.97 89.9688C143.936 89.9688 132.518 101.555 132.518 115.794V197.933C127.963 196.746 122.372 195.958 115.519 195.842C96.3786 195.509 86.791 206.963 85.9226 217.736C85.0059 229.101 93.0529 238.937 104.64 240.615C117.633 242.499 124.264 253.357 134.007 270.916C146.637 293.675 162.352 321.999 205.58 321.999C234.277 321.999 255.298 309.352 266.37 285.425C274.784 267.244 275.757 246.167 275.757 231.895V182.736C275.757 168.496 264.339 156.912 250.306 156.912ZM255.632 231.895C255.632 280.292 240.195 301.874 205.58 301.874C174.201 301.874 163.73 283.003 151.605 261.151C141.971 243.788 131.051 224.108 107.526 220.699C106.427 220.54 105.922 220.099 105.983 219.354C106.101 217.882 109.031 215.884 115.177 215.963C127.136 216.168 132.29 218.952 133.492 220.194C135.378 224.167 139.691 226.507 144.134 225.814C149.033 225.049 152.643 220.831 152.643 215.873V115.794C152.643 112.651 155.033 110.094 157.97 110.094C160.907 110.094 163.297 112.651 163.297 115.794V159.681V207.111C163.297 212.668 167.803 217.174 173.36 217.174C178.916 217.174 183.422 212.668 183.422 207.111V159.681C183.422 156.538 185.811 153.981 188.748 153.981C191.686 153.981 194.075 156.538 194.075 159.681V171.208V207.111C194.075 212.668 198.581 217.174 204.138 217.174C209.694 217.174 214.2 212.668 214.2 207.111V171.208C214.2 168.066 216.589 165.509 219.526 165.509C222.464 165.509 224.853 168.066 224.853 171.208V181.279C224.853 181.442 224.853 182.409 224.853 182.736V207.111C224.853 212.668 229.359 217.174 234.915 217.174C240.472 217.174 244.978 212.668 244.978 207.111V182.736C244.978 179.593 247.367 177.037 250.306 177.037C253.243 177.037 255.632 179.593 255.632 182.736V231.895Z" fill="#4E4E4E"/>
<path d="M75.0952 58.601C91.001 58.601 103.94 45.4563 103.94 29.301C103.94 13.1446 91.001 0 75.0952 0C59.1894 0 46.25 13.1446 46.25 29.301C46.25 45.4573 59.1894 58.601 75.0952 58.601ZM75.0952 20.125C79.903 20.125 83.8153 24.2416 83.8153 29.301C83.8153 34.3594 79.903 38.476 75.0952 38.476C70.2873 38.476 66.375 34.3594 66.375 29.301C66.375 24.2416 70.2873 20.125 75.0952 20.125Z" fill="#4E4E4E"/>
<path d="M157.674 58.601C173.58 58.601 186.519 45.4563 186.519 29.301C186.519 13.1446 173.58 0 157.674 0C141.768 0 128.828 13.1446 128.828 29.301C128.828 45.4573 141.77 58.601 157.674 58.601ZM157.674 20.125C162.482 20.125 166.394 24.2416 166.394 29.301C166.394 34.3594 162.482 38.476 157.674 38.476C152.865 38.476 148.953 34.3594 148.953 29.301C148.953 24.2416 152.865 20.125 157.674 20.125Z" fill="#4E4E4E"/>
<path d="M240.251 58.601C256.157 58.601 269.097 45.4563 269.097 29.301C269.097 13.1446 256.157 0 240.251 0C224.346 0 211.406 13.1446 211.406 29.301C211.406 45.4573 224.346 58.601 240.251 58.601ZM240.251 20.125C245.059 20.125 248.972 24.2416 248.972 29.301C248.972 34.3594 245.059 38.476 240.251 38.476C235.444 38.476 231.531 34.3594 231.531 29.301C231.531 24.2416 235.444 20.125 240.251 20.125Z" fill="#4E4E4E"/>
<path d="M103.94 113.878C103.94 97.7218 91.001 84.5781 75.0952 84.5781C59.1894 84.5781 46.25 97.7218 46.25 113.878C46.25 130.035 59.1894 143.179 75.0952 143.179C91.001 143.179 103.94 130.035 103.94 113.878ZM75.0952 123.054C70.2873 123.054 66.375 118.938 66.375 113.878C66.375 108.82 70.2873 104.703 75.0952 104.703C79.903 104.703 83.8153 108.82 83.8153 113.878C83.8153 118.938 79.903 123.054 75.0952 123.054Z" fill="#4E4E4E"/>
<path d="M240.251 143.179C256.157 143.179 269.097 130.034 269.097 113.878C269.097 97.7218 256.157 84.5781 240.251 84.5781C224.346 84.5781 211.406 97.7228 211.406 113.878C211.406 130.035 224.346 143.179 240.251 143.179ZM240.251 104.703C245.059 104.703 248.972 108.82 248.972 113.878C248.972 118.938 245.059 123.054 240.251 123.054C235.444 123.054 231.531 118.938 231.531 113.878C231.531 108.82 235.444 104.703 240.251 104.703Z" fill="#4E4E4E"/>
</svg>
