<svg width="555" height="555" viewBox="0 0 555 555" fill="none" xmlns="http://www.w3.org/2000/svg">
<path d="M239.214 28.3113L112.144 75.931C82.8589 86.881 58.9219 121.513 58.9219 152.836V342.041C58.9219 372.09 78.785 411.561 102.977 429.641L212.477 511.387C248.384 538.38 307.461 538.38 343.367 511.387L452.87 429.641C477.062 411.561 496.922 372.09 496.922 342.041V152.836C496.922 121.513 472.985 86.881 443.7 75.931L316.631 28.3113C294.985 20.4171 260.35 20.4171 239.214 28.3113Z" stroke="#333333" stroke-width="31.4042" stroke-linecap="round" stroke-linejoin="round"/>
<path d="M277.628 249.63C276.609 249.63 275.336 249.63 274.317 249.63C250.38 248.866 231.281 229.003 231.281 204.811C231.281 180.11 251.399 159.992 276.1 159.992C300.801 159.992 320.919 180.11 320.919 204.811C320.664 229.258 301.565 248.866 277.628 249.63Z" stroke="#333333" stroke-width="31.4042" stroke-linecap="round" stroke-linejoin="round"/>
<path d="M226.969 320.903C202.521 337.201 202.521 363.939 226.969 380.235C254.726 398.827 300.308 398.827 328.065 380.235C352.512 363.939 352.512 337.201 328.065 320.903C300.563 302.314 254.98 302.314 226.969 320.903Z" stroke="#333333" stroke-width="31.4042" stroke-linecap="round" stroke-linejoin="round"/>
</svg>
