<svg width="537" height="537" viewBox="0 0 537 537" fill="none" xmlns="http://www.w3.org/2000/svg">
<rect x="109.266" y="361.023" width="268.948" height="31.641" fill="#333333"/>
<path d="M376.225 195.435V474.24C376.225 499.632 359.151 520.217 338.088 520.217H147.403C126.34 520.217 109.266 499.632 109.266 474.24V106.429C109.266 81.0374 126.34 60.4531 147.403 60.4531H247.784" stroke="#333333" stroke-width="29.0594" stroke-linecap="round" stroke-linejoin="round"/>
<circle cx="327.958" cy="116.435" r="89.269" stroke="#333333" stroke-width="23.0507"/>
<circle cx="246.91" cy="451.207" r="26.8948" fill="#333333"/>
<path d="M332.516 93.1809C333.564 95.2772 334.438 98.0721 335.137 101.566C338.048 100.285 341.192 99.6443 344.569 99.6443C352.256 99.6443 358.602 102.497 363.61 108.204C368.734 113.794 371.296 120.49 371.296 128.293C371.296 136.095 368.909 142.85 364.134 148.556C359.127 154.728 352.78 157.814 345.094 157.814C342.531 157.814 339.387 157.232 335.661 156.067V139.822C339.737 142.034 342.823 143.141 344.919 143.141C348.645 143.141 351.673 141.685 354.002 138.774C356.332 135.746 357.496 132.369 357.496 128.642C357.496 124.799 356.273 121.48 353.828 118.685C351.382 115.773 348.296 114.318 344.569 114.318C340.843 114.318 337.873 115.249 335.661 117.113C333.215 129.108 325.936 137.085 313.825 141.045L348.587 169.169H325.354L274.346 127.943L285.177 117.287L294.435 125.323C297.346 127.303 300.316 128.293 303.344 128.293C308.701 128.293 313.068 126.604 316.445 123.227C319.823 119.733 321.511 115.308 321.511 109.951C321.511 102.497 318.483 96.9075 312.428 93.1809H269.804V81.6518H383.349V93.1809H332.516Z" fill="#333333"/>
</svg>
