<svg width="320" height="320" viewBox="0 0 320 320" fill="none" xmlns="http://www.w3.org/2000/svg">
<path d="M112.727 174.545C121.407 174.545 129.731 177.994 135.869 184.131C142.007 190.269 145.455 198.593 145.455 207.273V287.273C145.455 295.953 142.007 304.277 135.869 310.414C129.731 316.552 121.407 320 112.727 320H32.7273C24.0475 320 15.7232 316.552 9.5856 310.414C3.44804 304.277 0 295.953 0 287.273V207.273C0 198.593 3.44804 190.269 9.5856 184.131C15.7232 177.994 24.0475 174.545 32.7273 174.545H112.727ZM223.055 174.545V223.025H271.52V271.52H223.055V319.985H174.545V271.505H223.025V223.025H174.545V174.545H223.04H223.055ZM320 271.505V320H271.52V271.52H320V271.505ZM112.727 196.364H32.7273C29.834 196.364 27.0592 197.513 25.0134 199.559C22.9675 201.605 21.8182 204.379 21.8182 207.273V287.273C21.8182 293.295 26.7055 298.182 32.7273 298.182H112.727C115.621 298.182 118.395 297.032 120.441 294.987C122.487 292.941 123.636 290.166 123.636 287.273V207.273C123.636 204.379 122.487 201.605 120.441 199.559C118.395 197.513 115.621 196.364 112.727 196.364ZM94.5455 225.455V269.091H50.9091V225.455H94.5455ZM320 174.545V223.025H271.52V174.545H320ZM112.727 0C121.407 0 129.731 3.44804 135.869 9.5856C142.007 15.7232 145.455 24.0475 145.455 32.7273V112.727C145.455 121.407 142.007 129.731 135.869 135.869C129.731 142.007 121.407 145.455 112.727 145.455H32.7273C24.0475 145.455 15.7232 142.007 9.5856 135.869C3.44804 129.731 0 121.407 0 112.727V32.7273C0 24.0475 3.44804 15.7232 9.5856 9.5856C15.7232 3.44804 24.0475 0 32.7273 0H112.727ZM287.273 0C295.953 0 304.277 3.44804 310.414 9.5856C316.552 15.7232 320 24.0475 320 32.7273V112.727C320 121.407 316.552 129.731 310.414 135.869C304.277 142.007 295.953 145.455 287.273 145.455H207.273C198.593 145.455 190.269 142.007 184.131 135.869C177.994 129.731 174.545 121.407 174.545 112.727V32.7273C174.545 24.0475 177.994 15.7232 184.131 9.5856C190.269 3.44804 198.593 0 207.273 0H287.273ZM112.727 21.8182H32.7273C29.834 21.8182 27.0592 22.9675 25.0134 25.0134C22.9675 27.0592 21.8182 29.834 21.8182 32.7273V112.727C21.8182 118.749 26.7055 123.636 32.7273 123.636H112.727C115.621 123.636 118.395 122.487 120.441 120.441C122.487 118.395 123.636 115.621 123.636 112.727V32.7273C123.636 29.834 122.487 27.0592 120.441 25.0134C118.395 22.9675 115.621 21.8182 112.727 21.8182ZM287.273 21.8182H207.273C204.379 21.8182 201.605 22.9675 199.559 25.0134C197.513 27.0592 196.364 29.834 196.364 32.7273V112.727C196.364 118.749 201.251 123.636 207.273 123.636H287.273C290.166 123.636 292.941 122.487 294.987 120.441C297.032 118.395 298.182 115.621 298.182 112.727V32.7273C298.182 29.834 297.032 27.0592 294.987 25.0134C292.941 22.9675 290.166 21.8182 287.273 21.8182ZM94.5455 50.9091V94.5455H50.9091V50.9091H94.5455ZM269.091 50.9091V94.5455H225.455V50.9091H269.091Z" fill="white"/>
</svg>
