<svg width="579" height="578" viewBox="0 0 579 578" fill="none" xmlns="http://www.w3.org/2000/svg">
<path d="M229.594 331.088C229.594 354.443 247.651 373.222 269.802 373.222H315.066C334.327 373.222 349.977 356.85 349.977 336.385C349.977 314.475 340.346 306.53 326.141 301.474L253.67 276.194C239.465 271.138 229.835 263.433 229.835 241.283C229.835 221.058 245.484 204.445 264.746 204.445H310.009C332.16 204.445 350.217 223.225 350.217 246.58" stroke="#333333" stroke-width="36.1953" stroke-linecap="round" stroke-linejoin="round"/>
<path d="M289.766 180.633V397.322" stroke="#333333" stroke-width="36.1953" stroke-linecap="round" stroke-linejoin="round"/>
<path d="M530.555 288.961C530.555 421.864 422.692 529.727 289.789 529.727C156.886 529.727 49.0234 421.864 49.0234 288.961C49.0234 156.058 156.886 48.1953 289.789 48.1953" stroke="#333333" stroke-width="36.1953" stroke-linecap="round" stroke-linejoin="round"/>
<path d="M410.172 72.2891V168.595H506.478" stroke="#333333" stroke-width="36.1953" stroke-linecap="round" stroke-linejoin="round"/>
<path d="M530.555 48.1953L410.172 168.578" stroke="#333333" stroke-width="36.1953" stroke-linecap="round" stroke-linejoin="round"/>
</svg>
