<svg width="537" height="537" viewBox="0 0 537 537" fill="none" xmlns="http://www.w3.org/2000/svg">
<path d="M510.702 264.039H283.546C254.675 264.039 231.188 287.504 231.188 316.344C231.188 338.905 245.562 358.176 265.64 365.498L234.473 385.12L134.165 321.971C109.742 306.599 77.3472 313.935 61.9554 338.335C46.562 362.735 53.9115 395.097 78.3348 410.473L206.557 491.197C223.611 501.933 245.323 501.941 262.389 491.197L457.039 368.65H510.702C517.377 368.65 522.785 363.245 522.785 356.579V276.11C522.785 269.443 517.377 264.039 510.702 264.039ZM498.619 344.509H453.549C451.269 344.509 449.035 345.152 447.107 346.368L249.504 470.774C240.324 476.555 228.63 476.559 219.442 470.774L91.2198 390.05C78.0673 381.769 74.1106 364.344 82.3978 351.207C90.6882 338.07 108.131 334.118 121.282 342.396L228.03 409.601C231.966 412.079 236.98 412.079 240.915 409.601L305.959 368.651H327.853C334.528 368.651 339.936 363.247 339.936 356.581C339.936 349.915 334.528 344.51 327.853 344.51C302.882 344.51 308.255 344.51 283.546 344.51C268.002 344.51 255.353 331.875 255.353 316.346C255.353 300.817 268.002 288.182 283.546 288.182H498.619V344.509Z" fill="#333333" stroke="#333333" stroke-width="12.513"/>
<path d="M135.767 134.543C137.129 137.265 138.263 140.895 139.17 145.433C142.952 143.769 147.036 142.937 151.422 142.937C161.405 142.937 169.649 146.643 176.153 154.055C182.808 161.315 186.136 170.012 186.136 180.147C186.136 190.281 183.035 199.054 176.833 206.465C170.329 214.482 162.086 218.49 152.103 218.49C148.775 218.49 144.691 217.734 139.851 216.221V195.121C145.145 197.995 149.153 199.432 151.876 199.432C156.716 199.432 160.649 197.541 163.674 193.76C166.699 189.827 168.212 185.441 168.212 180.6C168.212 175.609 166.624 171.298 163.447 167.668C160.271 163.886 156.262 161.996 151.422 161.996C146.582 161.996 142.725 163.206 139.851 165.626C136.675 181.205 127.221 191.566 111.491 196.709L156.641 233.238H126.465L60.2146 179.693L74.2814 165.853L86.3063 176.29C90.0877 178.861 93.9448 180.147 97.8774 180.147C104.835 180.147 110.507 177.953 114.894 173.567C119.28 169.029 121.473 163.281 121.473 156.324C121.473 146.643 117.541 139.383 109.675 134.543H54.3156V119.568H201.791V134.543H135.767Z" fill="#333333"/>
<circle cx="130.493" cy="162.696" r="109.994" stroke="#333333" stroke-width="32.2479"/>
</svg>
