<svg width="537" height="537" viewBox="0 0 537 537" fill="none" xmlns="http://www.w3.org/2000/svg">
<path d="M25.2266 221.405V172.787C25.2266 87.7057 73.8445 51.2422 146.771 51.2422H389.861C462.788 51.2422 511.406 87.7057 511.406 172.787V318.641C511.406 403.722 462.788 440.186 389.861 440.186H268.316" stroke="#333333" stroke-width="36.3242" stroke-miterlimit="10" stroke-linecap="round" stroke-linejoin="round"/>
<path d="M25.2266 330.812H155.037C170.595 330.812 183.235 343.453 183.235 359.011V390.126" stroke="#333333" stroke-width="36.3242" stroke-miterlimit="10" stroke-linecap="round" stroke-linejoin="round"/>
<path d="M54.8828 301.141L25.2266 330.795L54.8828 360.452" stroke="#333333" stroke-width="36.3242" stroke-miterlimit="10" stroke-linecap="round" stroke-linejoin="round"/>
<path d="M183.235 459.165H53.4242C37.8665 459.165 25.2266 446.525 25.2266 430.967V399.852" stroke="#333333" stroke-width="36.3242" stroke-miterlimit="10" stroke-linecap="round" stroke-linejoin="round"/>
<path d="M153.562 488.798L183.219 459.141L153.562 429.484" stroke="#333333" stroke-width="36.3242" stroke-miterlimit="10" stroke-linecap="round" stroke-linejoin="round"/>
<path d="M354.387 220.338V214.117C354.387 189.908 334.694 170.166 310.485 170.166H304.213V145.078H279.125V170.166H272.853C248.644 170.166 228.953 189.859 228.953 214.065C228.953 238.274 248.646 257.967 272.853 257.967H310.483C320.856 257.967 329.297 266.409 329.297 276.782C329.297 287.156 320.856 295.597 310.483 295.597H272.855C262.482 295.597 254.041 287.205 254.041 276.832V270.51H228.953V276.832C228.953 301.041 248.646 320.682 272.853 320.682H279.125V345.769H304.213V320.682H310.485C334.694 320.682 354.387 300.989 354.387 276.782C354.387 252.573 334.694 232.88 310.485 232.88H272.855C262.482 232.88 254.041 224.439 254.041 214.065C254.041 203.691 262.482 195.25 272.855 195.25H310.485C320.859 195.25 329.3 203.743 329.3 214.114V220.335L354.387 220.338Z" fill="#333333"/>
</svg>
