<svg width="541" height="548" viewBox="0 0 541 548" fill="none" xmlns="http://www.w3.org/2000/svg">
<path d="M194.701 528.569H344.813C469.907 528.569 519.944 478.532 519.944 353.438V203.326C519.944 78.2327 469.907 28.1953 344.813 28.1953H194.701C69.6077 28.1953 19.5703 78.2327 19.5703 203.326V353.438C19.5703 478.532 69.6077 528.569 194.701 528.569Z" stroke="#333333" stroke-width="37.528" stroke-linecap="round" stroke-linejoin="round"/>
<path d="M376.825 318.631C348.554 346.902 308.024 355.659 272.247 344.401L207.449 408.949C202.945 413.702 193.689 416.705 186.934 415.704L156.911 411.701C146.904 410.45 137.897 400.943 136.396 391.186L132.393 361.163C131.392 354.658 134.644 345.401 139.148 340.648L203.696 276.1C192.688 240.323 201.194 199.794 229.465 171.523C269.995 130.992 336.044 130.992 376.825 171.523C417.355 211.803 417.355 277.851 376.825 318.631Z" stroke="#333333" stroke-width="37.528" stroke-miterlimit="10" stroke-linecap="round" stroke-linejoin="round"/>
<path d="M230.977 385.454L209.711 363.938" stroke="#333333" stroke-width="37.528" stroke-miterlimit="10" stroke-linecap="round" stroke-linejoin="round"/>
<path d="M304.68 245.836H304.908" stroke="#333333" stroke-width="50.0374" stroke-linecap="round" stroke-linejoin="round"/>
</svg>
