<svg width="557" height="559" viewBox="0 0 557 559" fill="none" xmlns="http://www.w3.org/2000/svg">
<path d="M115.031 366.763L163.192 193.732H210.775C214.708 193.756 218.605 192.976 222.225 191.438C225.846 189.901 229.114 187.639 231.827 184.792L278.546 136.055L381.211 218.245C385.269 221.466 388.384 225.721 390.228 230.563C392.073 235.404 392.579 240.653 391.694 245.758C390.809 250.863 388.565 255.635 385.198 259.572C381.831 263.51 377.465 266.468 372.56 268.135L275.085 300.723C268.168 302.986 262.361 307.78 258.831 314.145C255.301 320.51 254.308 327.974 256.052 335.041L278.546 424.44" stroke="#333333" stroke-width="36.6086" stroke-linecap="round" stroke-linejoin="round"/>
<path d="M365.062 278.516L435.429 366.473" stroke="#333333" stroke-width="36.6086" stroke-linecap="round" stroke-linejoin="round"/>
<path d="M249.708 134.323C281.563 134.323 307.385 108.5 307.385 76.6459C307.385 44.7917 281.563 18.9688 249.708 18.9688C217.854 18.9688 192.031 44.7917 192.031 76.6459C192.031 108.5 217.854 134.323 249.708 134.323Z" stroke="#333333" stroke-width="36.6086" stroke-linecap="round" stroke-linejoin="round"/>
<path d="M105.516 366.758C122.627 366.758 139.354 371.832 153.581 381.338C167.809 390.845 178.898 404.357 185.446 420.165C191.994 435.974 193.707 453.369 190.369 470.152C187.031 486.934 178.791 502.35 166.691 514.449C154.592 526.549 139.176 534.789 122.394 538.127C105.612 541.465 88.2162 539.752 72.4076 533.204C56.5989 526.655 43.087 515.566 33.5805 501.339C24.0741 487.112 19 470.385 19 453.273C19 430.328 28.115 408.322 44.3399 392.098C60.5647 375.873 82.5703 366.758 105.516 366.758ZM365.063 453.273C365.063 470.385 370.137 487.112 379.643 501.339C389.15 515.566 402.662 526.655 418.47 533.204C434.279 539.752 451.674 541.465 468.457 538.127C485.239 534.789 500.655 526.549 512.754 514.449C524.854 502.35 533.093 486.934 536.432 470.152C539.77 453.369 538.057 435.974 531.508 420.165C524.96 404.357 513.871 390.845 499.644 381.338C485.416 371.832 468.69 366.758 451.578 366.758C428.633 366.758 406.627 375.873 390.403 392.098C374.178 408.322 365.063 430.328 365.063 453.273Z" stroke="#333333" stroke-width="36.6086" stroke-linecap="round" stroke-linejoin="round"/>
</svg>
