<svg width="537" height="539" viewBox="0 0 537 539" fill="none" xmlns="http://www.w3.org/2000/svg">
<path d="M207.445 322.452C207.445 345.705 225.424 364.403 247.478 364.403H292.546C311.723 364.403 327.305 348.102 327.305 327.726C327.305 305.911 317.716 298 303.573 292.966L231.417 267.796C217.274 262.762 207.685 255.091 207.685 233.037C207.685 212.9 223.267 196.359 242.444 196.359H287.511C309.566 196.359 327.545 215.057 327.545 238.31" stroke="#333333" stroke-width="35.9578" stroke-linecap="round" stroke-linejoin="round"/>
<path d="M267.375 172.625V388.372" stroke="#333333" stroke-width="35.9578" stroke-linecap="round" stroke-linejoin="round"/>
<path d="M507.11 280.485C507.11 412.809 399.716 520.204 267.391 520.204C135.066 520.204 27.6719 412.809 27.6719 280.485C27.6719 148.16 135.066 40.7656 267.391 40.7656" stroke="#333333" stroke-width="35.9578" stroke-linecap="round" stroke-linejoin="round"/>
<path d="M507.122 136.653V40.7656H411.234" stroke="#333333" stroke-width="35.9578" stroke-linecap="round" stroke-linejoin="round"/>
<path d="M387.242 160.625L507.102 40.7656" stroke="#333333" stroke-width="35.9578" stroke-linecap="round" stroke-linejoin="round"/>
</svg>
