<svg width="563" height="563" viewBox="0 0 563 563" fill="none" xmlns="http://www.w3.org/2000/svg">
<path d="M516.013 281.674C516.013 411.046 411.015 516.044 281.643 516.044C152.271 516.044 47.2734 411.046 47.2734 281.674C47.2734 152.302 152.271 47.3047 281.643 47.3047" stroke="#333333" stroke-width="35.1554" stroke-linecap="round" stroke-linejoin="round"/>
<path d="M516.021 141.053V47.3047H422.273" stroke="#333333" stroke-width="35.1554" stroke-linecap="round" stroke-linejoin="round"/>
<path d="M398.828 164.489L516.013 47.3047" stroke="#333333" stroke-width="35.1554" stroke-linecap="round" stroke-linejoin="round"/>
<path d="M290.561 240.871C292.511 244.77 294.135 249.968 295.435 256.466C300.85 254.084 306.698 252.892 312.98 252.892C327.275 252.892 339.08 258.199 348.394 268.812C357.924 279.209 362.689 291.664 362.689 306.176C362.689 320.688 358.249 333.251 349.368 343.864C340.054 355.344 328.25 361.084 313.954 361.084C309.189 361.084 303.341 360.001 296.41 357.835V327.619C303.991 331.734 309.731 333.792 313.629 333.792C320.561 333.792 326.192 331.085 330.524 325.67C334.856 320.038 337.022 313.757 337.022 306.826C337.022 299.678 334.748 293.505 330.199 288.306C325.651 282.891 319.911 280.184 312.98 280.184C306.048 280.184 300.525 281.917 296.41 285.382C291.861 307.692 278.324 322.529 255.797 329.893L320.452 382.202H277.241L182.37 305.526L202.514 285.707L219.733 300.652C225.148 304.335 230.672 306.176 236.303 306.176C246.267 306.176 254.389 303.035 260.671 296.754C266.952 290.256 270.093 282.025 270.093 272.061C270.093 258.199 264.461 247.802 253.198 240.871H173.923V219.428H385.107V240.871H290.561Z" fill="#333333"/>
</svg>
