<svg width="527" height="527" viewBox="0 0 527 527" fill="none" xmlns="http://www.w3.org/2000/svg">
<g clip-path="url(#clip0_25_1726)">
<path d="M494.31 213.6L452.035 204.229C448.741 193.689 444.427 183.61 439.486 173.91L462.361 135.818C470.892 122.165 475.207 102.106 462.361 89.2277L439.058 65.9409C426.212 53.0788 404.506 55.4009 391.397 64.4916L354.326 88.1078C344.708 83.1178 334.646 78.8359 324.205 75.4598L314.719 32.674C311.886 16.9793 298.168 0 279.97 0H247.032C228.851 0 217.701 17.2428 214.095 32.9375L203.522 75.2128C192.356 78.77 181.651 83.3154 171.441 88.7007L133.431 64.4916C120.338 55.4009 98.6157 53.0953 85.7701 65.9409L62.4668 89.2277C49.6047 102.106 53.9195 122.165 62.4668 135.801L86.5277 175.903C82.0152 184.993 78.0133 194.397 74.9172 204.229L32.6584 213.6C16.9637 216.416 -0.015625 230.151 -0.015625 248.332V281.27C-0.015625 299.468 17.2272 310.617 32.9219 314.207L75.7077 324.896C78.6556 333.97 82.3611 342.682 86.5441 351.13L62.4668 391.281C53.936 404.917 49.6212 424.993 62.4668 437.855L85.7701 461.141C98.6157 474.02 120.322 471.681 133.431 462.607L171.523 438.332C181.783 443.75 192.553 448.345 203.802 451.886L214.342 494.03C217.948 509.724 229.098 526.967 247.279 526.967H280.217C298.415 526.967 312.133 509.971 314.966 494.277L324.468 451.392C334.811 448.049 344.725 443.833 354.244 438.909L391.397 462.591C404.506 471.681 426.212 473.987 439.074 461.125L462.378 437.838C475.223 424.96 470.908 404.901 462.378 391.265L439.486 353.106C444.081 344.065 448.066 334.661 451.278 324.879L494.08 314.191C509.775 310.584 527.017 299.451 527.017 281.253V248.316C527.017 230.134 510.038 216.399 494.327 213.567L494.31 213.6ZM494.08 278.964C492.68 279.969 490.045 281.352 486.702 282.126L425.636 297.376L419.97 314.685C417.418 322.491 414.108 330.396 410.139 338.202L401.871 354.44L434.134 408.244C436.192 411.538 437.147 414.486 437.444 416.231L415.771 437.871C413.679 437.212 411.308 436.356 410.155 435.565L355.94 400.998L339.092 409.71C330.973 413.926 322.64 417.417 314.34 420.101L296.389 425.898L282.819 487.211C282.193 490.489 280.431 493.14 279.229 494.079H249.585C248.58 492.679 247.197 490.044 246.439 486.701L231.272 426.079L213.716 420.513C204.674 417.664 195.65 413.86 186.872 409.248L169.942 400.306L115.71 434.874C113.487 436.372 111.116 437.229 108.975 437.229L87.384 416.215C87.6805 414.502 88.5698 411.702 90.3649 408.82L124.043 352.695L116.023 336.555C112.285 328.947 109.32 321.816 107.015 314.734L101.366 297.409L40.9092 282.291C37.1049 281.434 34.3547 280.002 32.9219 278.997V248.365C32.9219 248.365 32.9548 248.382 33.0042 248.382C33.5642 248.382 36.265 246.455 38.5213 246.043L100.641 232.292L106.34 214.127C108.662 206.732 111.824 199.025 116.023 190.576L124.043 174.437L90.7107 118.888C88.6521 115.578 87.6805 112.63 87.4005 110.901L109.057 89.2606C111.165 89.9358 113.52 90.7922 114.656 91.5662L169.893 126.776L186.806 117.85C195.485 113.272 204.477 109.501 213.518 106.619L231.025 101.052L246.044 40.9578C246.917 37.1535 248.317 34.4032 249.338 32.9704H279.953C279.723 33.2998 281.847 36.1818 282.292 38.5533L296.125 101.036L314.06 106.833C322.475 109.55 330.907 113.091 339.142 117.356L355.989 126.118L409.085 92.3073C411.308 90.7922 413.679 89.9523 415.82 89.9523L437.444 110.966C437.164 112.679 436.258 115.512 434.463 118.377L401.855 172.658L410.172 188.93C414.668 197.707 418.077 205.942 420.629 214.11L426.327 232.292L487.212 245.796C490.901 246.471 493.767 248.612 494.36 249.765L494.08 278.964ZM263.715 164.523C209.022 164.523 164.524 208.939 164.524 263.5C164.524 318.061 209.022 362.477 263.715 362.477C318.408 362.477 362.906 318.061 362.906 263.516C362.906 208.955 318.408 164.539 263.715 164.539V164.523ZM263.501 329.375C227.187 329.375 197.626 299.83 197.626 263.5C197.626 227.17 227.171 197.625 263.501 197.625C299.831 197.625 329.376 227.17 329.376 263.5C329.376 299.83 299.831 329.375 263.501 329.375Z" fill="black"/>
</g>
<defs>
<clipPath id="clip0_25_1726">
<rect width="527" height="527" fill="white"/>
</clipPath>
</defs>
</svg>
