<svg width="291" height="291" viewBox="0 0 291 291" fill="none" xmlns="http://www.w3.org/2000/svg">
<g clip-path="url(#clip0_113_1813)">
<path fill-rule="evenodd" clip-rule="evenodd" d="M224.085 199.835C244.196 199.835 260.551 216.19 260.551 236.301C260.551 256.412 244.196 272.767 224.085 272.767C203.974 272.767 187.618 256.412 187.618 236.301C187.618 233.11 188.165 230.065 188.931 227.111C190.518 221.058 193.562 215.588 197.774 211.176C204.411 204.229 213.728 199.835 224.085 199.835ZM66.8242 108.669C77.0714 108.669 86.2971 112.936 92.9339 119.755C97.1823 124.131 100.227 129.582 101.868 135.636C102.707 138.681 103.29 141.817 103.29 145.135C103.29 148.8 102.579 152.301 101.558 155.638C99.7531 161.618 96.5624 166.997 92.1682 171.263C85.6043 177.627 76.6884 181.601 66.8242 181.601C46.7132 181.601 30.3581 165.246 30.3581 145.135C30.3581 125.024 46.7132 108.669 66.8242 108.669ZM224.085 18.2331C244.196 18.2331 260.551 34.5882 260.551 54.6992C260.551 74.8103 244.196 91.1655 224.085 91.1655C213.856 91.1655 204.648 86.9172 198.029 80.1344C193.763 75.7585 190.7 70.3068 189.059 64.2534C188.22 61.1903 187.618 58.0359 187.618 54.6992C187.618 34.5882 203.974 18.2331 224.085 18.2331ZM224.085 181.601C206.982 181.601 191.867 189.642 181.838 201.986L117.676 164.936C120.083 158.774 121.524 152.137 121.524 145.135C121.524 138.498 120.156 132.226 117.986 126.337L182.094 89.3056C192.14 101.467 207.128 109.398 224.085 109.398C254.242 109.398 278.784 84.8567 278.784 54.6991C278.784 24.5418 254.242 0 224.085 0C193.927 0 169.385 24.5418 169.385 54.6992C169.385 61.3543 170.753 67.663 172.941 73.5522L108.851 110.565C98.8233 98.3857 83.8176 90.4361 66.8242 90.4361C36.6668 90.4361 12.125 114.978 12.125 145.135C12.125 175.293 36.6668 199.835 66.8242 199.835C83.4345 199.835 98.1669 192.231 108.195 180.507L172.813 217.812C170.716 223.629 169.385 229.791 169.385 236.301C169.385 266.458 193.927 291 224.085 291C254.242 291 278.784 266.458 278.784 236.301C278.784 206.143 254.242 181.601 224.085 181.601Z" fill="#010C80"/>
</g>
<defs>
<clipPath id="clip0_113_1813">
<rect width="291" height="291" fill="white"/>
</clipPath>
</defs>
</svg>
