<svg width="248" height="191" viewBox="0 0 248 191" fill="none" xmlns="http://www.w3.org/2000/svg">
<path d="M12.3542 88.6496C10.4418 88.9308 9.11945 90.7091 9.40065 92.6215C9.68186 94.534 11.4602 95.8563 13.3726 95.5751L12.3542 88.6496ZM13.3726 95.5751C13.6229 95.5383 14.2717 95.5196 15.4722 95.6383C16.613 95.751 18.06 95.9668 19.8049 96.2877C23.2917 96.9289 27.7932 97.9572 33.0918 99.2992C43.6796 101.981 57.2638 105.868 71.9078 110.273C101.186 119.081 134.554 129.916 156.346 137.208L158.567 130.57C136.734 123.264 103.293 112.405 73.9242 103.57C59.2449 99.1538 45.5464 95.2327 34.8105 92.5135C29.4472 91.1551 24.7767 90.0846 21.071 89.4031C19.2196 89.0627 17.5652 88.811 16.1608 88.6722C14.8161 88.5393 13.4757 88.4847 12.3542 88.6496L13.3726 95.5751Z" fill="#2CEF1B"/>
<path d="M23.8863 58.4535C21.9593 58.3007 20.2734 59.739 20.1206 61.6659C19.9678 63.5929 21.4061 65.2788 23.333 65.4316L23.8863 58.4535ZM23.333 65.4316C23.5852 65.4516 24.2218 65.5782 25.3656 65.9618C26.4524 66.3264 27.8148 66.8597 29.444 67.562C32.6997 68.9654 36.8581 70.9725 41.7234 73.4634C51.4454 78.4409 63.8193 85.2619 77.1104 92.8248C103.684 107.945 133.792 125.956 153.406 137.929L157.053 131.954C137.401 119.958 107.228 101.908 80.5723 86.7407C67.249 79.1596 54.7714 72.2796 44.9134 67.2326C39.9887 64.7112 35.6749 62.6253 32.2149 61.1338C30.4862 60.3886 28.9297 59.7741 27.5918 59.3252C26.3107 58.8955 25.0163 58.5431 23.8863 58.4535L23.333 65.4316Z" fill="#2CEF1B"/>
<path d="M32.1515 48.2334C30.2389 47.9534 28.4615 49.277 28.1816 51.1896C27.9016 53.1023 29.2252 54.8797 31.1378 55.1596L32.1515 48.2334ZM31.1378 55.1596C31.3882 55.1962 32.015 55.3646 33.1308 55.8231C34.1912 56.2588 35.5153 56.881 37.0945 57.6895C40.2502 59.3052 44.2667 61.5831 48.9566 64.3904C58.3281 70 70.2236 77.6246 82.9853 86.0502C108.5 102.896 137.351 122.859 156.13 136.102L160.164 130.382C141.349 117.113 112.436 97.1061 86.8421 80.2085C74.0495 71.7626 62.0544 64.0723 52.5518 58.3842C47.8047 55.5426 43.6384 53.1758 40.2845 51.4587C38.6089 50.6008 37.0966 49.8847 35.7912 49.3483C34.5413 48.8348 33.2731 48.3975 32.1515 48.2334L31.1378 55.1596Z" fill="#2CEF1B"/>
<path d="M41.0407 45.6218C39.1766 45.1106 37.2509 46.2074 36.7398 48.0716C36.2286 49.9358 37.3254 51.8614 39.1896 52.3726L41.0407 45.6218ZM39.1896 52.3726C39.4336 52.4395 40.0352 52.6831 41.0868 53.2743C42.0861 53.8361 43.3243 54.6153 44.7931 55.6104C47.7281 57.599 51.4367 60.3499 55.749 63.7084C64.3661 70.4195 75.2425 79.4385 86.8809 89.3582C110.15 109.191 136.349 132.525 153.372 147.96L158.074 142.775C141.019 127.309 114.763 103.925 91.4216 84.0307C79.755 74.0871 68.7878 64.9907 60.0502 58.1857C55.6852 54.7862 51.8388 51.9288 48.7195 49.8153C47.1611 48.7594 45.7474 47.8641 44.5172 47.1725C43.3393 46.5103 42.1339 45.9216 41.0407 45.6218L39.1896 52.3726Z" fill="#2CEF1B"/>
<path d="M63.7371 22.6073C62.034 21.6929 59.9122 22.3322 58.9978 24.0353C58.0834 25.7383 58.7227 27.8602 60.4257 28.7745L63.7371 22.6073ZM60.4257 28.7745C60.6486 28.8942 61.1807 29.266 62.0738 30.077C62.9224 30.8477 63.9555 31.8836 65.1651 33.1815C67.5821 35.7751 70.5831 39.2843 74.037 43.5207C80.9385 51.986 89.5273 63.2052 98.6578 75.4725C116.913 99.9987 137.243 128.592 150.39 147.438L156.131 143.433C142.958 124.551 122.585 95.8952 104.273 71.293C95.1206 58.9961 86.4605 47.6812 79.4624 39.0975C75.9664 34.8094 72.8548 31.1655 70.286 28.4091C69.0026 27.0319 67.8244 25.8436 66.7797 24.8949C65.7793 23.9864 64.7358 23.1435 63.7371 22.6073L60.4257 28.7745Z" fill="#2CEF1B"/>
<path d="M75.4131 16.571C73.7743 15.546 71.6148 16.0435 70.5897 17.6824C69.5646 19.3212 70.0622 21.4807 71.701 22.5057L75.4131 16.571ZM71.701 22.5057C71.9155 22.6399 72.4218 23.046 73.2593 23.9143C74.0551 24.7395 75.0174 25.8415 76.1385 27.2165C78.3787 29.9643 81.1409 33.6645 84.307 38.12C90.6334 47.0233 98.4612 58.7861 106.76 71.6305C123.353 97.3106 141.746 127.186 153.619 146.861L159.612 143.244C147.717 123.532 129.284 93.5913 112.64 67.8317C104.321 54.9562 96.428 43.0932 90.0131 34.0654C86.8084 29.5554 83.9447 25.7136 81.5639 22.7933C80.3744 21.3343 79.2774 20.0707 78.2977 19.0549C77.3596 18.0823 76.3741 17.1722 75.4131 16.571L71.701 22.5057Z" fill="#2CEF1B"/>
<circle cx="181.905" cy="120.864" r="60.864" fill="#CA0909"/>
<path d="M152.873 98.7038C157.267 100.901 160.498 103.869 163.945 107.315" stroke="#F80000" stroke-width="24" stroke-linecap="round" stroke-dasharray="48 48"/>
<path d="M166.405 87.6319C168.106 87.8445 168.414 89.9672 168.865 91.3225" stroke="#F80000" stroke-width="24" stroke-linecap="round" stroke-dasharray="48 48"/>
<path d="M157.793 72.8694C155.454 73.1618 154.201 79.7101 152.873 81.4809" stroke="#F80000" stroke-width="24" stroke-linecap="round" stroke-dasharray="48 48"/>
<path d="M147.952 87.6319C146.035 88.111 143.78 94.3706 143.031 96.2433" stroke="#F80000" stroke-width="24" stroke-linecap="round" stroke-dasharray="48 48"/>
<path d="M136.88 111.006V112.236" stroke="#F80000" stroke-width="24" stroke-linecap="round" stroke-dasharray="48 48"/>
<path d="M133.189 120.848V122.078" stroke="#F80000" stroke-width="24" stroke-linecap="round" stroke-dasharray="48 48"/>
<path d="M135.65 130.689C137.402 132.551 141.069 137.105 141.801 139.301" stroke="#F80000" stroke-width="24" stroke-linecap="round" stroke-dasharray="48 48"/>
<path d="M129.235 93.0825C129.235 93.5075 129.271 93.7985 129.45 94.1566" stroke="#F80000" stroke-width="24" stroke-linecap="round" stroke-dasharray="48 48"/>
<path d="M126.442 102.105V103.609" stroke="#F80000" stroke-width="24" stroke-linecap="round" stroke-dasharray="48 48"/>
<path d="M124.509 111.127L124.724 111.557" stroke="#F80000" stroke-width="24" stroke-linecap="round" stroke-dasharray="48 48"/>
<path d="M125.798 119.291C126.07 119.737 126.355 120.156 126.657 120.58" stroke="#F80000" stroke-width="24" stroke-linecap="round" stroke-dasharray="48 48"/>
<path d="M138.257 83.4156V86.2083" stroke="#F80000" stroke-width="24" stroke-linecap="round" stroke-dasharray="48 48"/>
<path d="M164.036 64.5114V65.5855" stroke="#F80000" stroke-width="24" stroke-linecap="round" stroke-dasharray="48 48"/>
<path d="M176.066 62.7928V67.3041" stroke="#F80000" stroke-width="24" stroke-linecap="round" stroke-dasharray="48 48"/>
<path d="M180.792 67.7337L181.007 67.9485" stroke="#F80000" stroke-width="24" stroke-linecap="round" stroke-dasharray="48 48"/>
<path d="M188.955 66.4448C189.244 66.4769 189.403 66.6783 189.599 66.8744" stroke="#F80000" stroke-width="24" stroke-linecap="round" stroke-dasharray="48 48"/>
<path d="M192.177 67.0892C192.212 67.3658 192.688 67.8511 192.822 68.1633" stroke="#F80000" stroke-width="24" stroke-linecap="round" stroke-dasharray="48 48"/>
<path d="M204.207 67.5189C204.253 67.973 204.359 68.7445 204.637 69.0226" stroke="#F80000" stroke-width="24" stroke-linecap="round" stroke-dasharray="48 48"/>
<path d="M207.859 74.608V75.0376" stroke="#F80000" stroke-width="24" stroke-linecap="round" stroke-dasharray="48 48"/>
<path d="M214.089 76.5413C214.757 77.2881 214.967 78.2637 216.022 78.4747" stroke="#F80000" stroke-width="24" stroke-linecap="round" stroke-dasharray="48 48"/>
<path d="M219.245 81.0526V81.697" stroke="#F80000" stroke-width="24" stroke-linecap="round" stroke-dasharray="48 48"/>
<path d="M220.319 85.349L220.534 85.5638" stroke="#F80000" stroke-width="24" stroke-linecap="round" stroke-dasharray="48 48"/>
<path d="M225.904 91.364C225.947 91.7059 226.641 92.0548 226.978 92.2232" stroke="#F80000" stroke-width="24" stroke-linecap="round" stroke-dasharray="48 48"/>
<path d="M231.919 96.7345C231.919 97.4253 232.143 97.8362 232.349 98.453" stroke="#F80000" stroke-width="24" stroke-linecap="round" stroke-dasharray="48 48"/>
<path d="M234.926 104.468C234.944 104.759 235.019 104.869 235.141 105.112" stroke="#F80000" stroke-width="24" stroke-linecap="round" stroke-dasharray="48 48"/>
<path d="M235.141 109.624C235.141 110.455 235.149 110.821 234.497 111.342" stroke="#F80000" stroke-width="24" stroke-linecap="round" stroke-dasharray="48 48"/>
<path d="M230.845 114.565H230.63" stroke="#F80000" stroke-width="24" stroke-linecap="round" stroke-dasharray="48 48"/>
<path d="M217.311 100.816C217.311 101.857 216.289 102.268 215.593 102.964" stroke="#F80000" stroke-width="24" stroke-linecap="round" stroke-dasharray="48 48"/>
<path d="M206.785 94.5863C205.763 94.5863 204.629 94.4423 203.682 94.8966C202.554 95.4374 201.629 96.3358 200.555 96.9493" stroke="#F80000" stroke-width="24" stroke-linecap="round" stroke-dasharray="48 48"/>
<path d="M192.177 89.8602C190.353 90.475 188.421 90.9966 186.687 91.8413C186.465 91.9496 186.377 92.2257 186.377 92.0084" stroke="#F80000" stroke-width="24" stroke-linecap="round" stroke-dasharray="48 48"/>
<path d="M189.385 85.7786C188.168 87.2992 186.205 88.3085 184.682 89.5022C184.543 89.6113 184.014 90.3016 184.014 90.075" stroke="#F80000" stroke-width="24" stroke-linecap="round" stroke-dasharray="48 48"/>
<path d="M174.777 84.06C174.617 84.1668 173.843 84.3165 174.192 84.2391C175.367 83.9779 176.698 83.7195 177.796 83.2127C177.878 83.1749 175.891 82.8291 175.708 82.8189C174.183 82.7336 172.651 82.7711 171.125 82.7711" stroke="#F80000" stroke-width="24" stroke-linecap="round" stroke-dasharray="48 48"/>
<path d="M154.892 134.747C154.892 138.509 161.091 139.861 163.573 142.344" stroke="#F80000" stroke-width="24" stroke-linecap="round" stroke-dasharray="48 48"/>
<path d="M141.869 129.321H142.954" stroke="#F80000" stroke-width="24" stroke-linecap="round" stroke-dasharray="48 48"/>
<path d="M138.613 121.725H141.869" stroke="#F80000" stroke-width="24" stroke-linecap="round" stroke-dasharray="48 48"/>
<path d="M159.233 134.747C161.169 132.703 166.829 127.622 166.829 124.98" stroke="#F80000" stroke-width="24" stroke-linecap="round" stroke-dasharray="48 48"/>
<path d="M206.982 130.406C204.764 132.846 202.641 135.698 202.641 139.088" stroke="#F80000" stroke-width="24" stroke-linecap="round" stroke-dasharray="48 48"/>
<path d="M198.3 116.299C195.976 118.266 193.445 119.465 190.704 120.64" stroke="#F80000" stroke-width="24" stroke-linecap="round" stroke-dasharray="48 48"/>
<path d="M180.937 105.447V107.617" stroke="#F80000" stroke-width="24" stroke-linecap="round" stroke-dasharray="48 48"/>
<path d="M163.573 115.214C163.696 116.314 164.312 117.428 164.659 118.469" stroke="#F80000" stroke-width="24" stroke-linecap="round" stroke-dasharray="48 48"/>
<path d="M158.147 120.64C154.173 124.945 154.195 131.103 150.551 134.747" stroke="#F80000" stroke-width="24" stroke-linecap="round" stroke-dasharray="48 48"/>
<path d="M150.551 155.366C162.873 160.295 180.856 160.29 192.874 154.281" stroke="#F80000" stroke-width="24" stroke-linecap="round" stroke-dasharray="48 48"/>
<path d="M188.533 178.156C192.875 174.175 197.051 170.871 200.29 165.796C202.143 162.893 203.458 159.975 205.897 157.537" stroke="#F80000" stroke-width="24" stroke-linecap="round" stroke-dasharray="48 48"/>
<path d="M218.919 154.281C221.9 152.493 222.045 146.466 223.26 143.429" stroke="#F80000" stroke-width="24" stroke-linecap="round" stroke-dasharray="48 48"/>
<path d="M235.768 126.533C235.284 126.715 234.973 128.478 234.71 129.004" stroke="#F80000" stroke-width="24" stroke-linecap="round" stroke-dasharray="48 48"/>
<path d="M230.474 136.063C230.045 136.17 229.768 138.686 229.768 139.239" stroke="#F80000" stroke-width="24" stroke-linecap="round" stroke-dasharray="48 48"/>
<path d="M229.768 148.769C229.615 149.46 228.416 150.662 228.004 151.24" stroke="#F80000" stroke-width="24" stroke-linecap="round" stroke-dasharray="48 48"/>
<path d="M218.121 162.887C217.343 163.86 216.854 165.05 216.003 165.966C214.994 167.052 213.467 167.139 212.121 167.476" stroke="#F80000" stroke-width="24" stroke-linecap="round" stroke-dasharray="48 48"/>
<path d="M189.179 174.888C188.745 175.81 188.783 175.947 187.767 175.947" stroke="#F80000" stroke-width="24" stroke-linecap="round" stroke-dasharray="48 48"/>
<path d="M174.708 173.123C172.036 173.867 170.297 174.31 167.649 173.829" stroke="#F80000" stroke-width="24" stroke-linecap="round" stroke-dasharray="48 48"/>
<path d="M146.471 167.123V166.77" stroke="#F80000" stroke-width="24" stroke-linecap="round" stroke-dasharray="48 48"/>
<path d="M157.413 174.182C156.813 174.242 156.48 174.648 156.001 174.888" stroke="#F80000" stroke-width="24" stroke-linecap="round" stroke-dasharray="48 48"/>
<path d="M155.295 174.888C153.348 173.636 151.895 170.549 150.589 168.691C149.762 167.515 148.873 166.348 147.883 165.358" stroke="#F80000" stroke-width="24" stroke-linecap="round" stroke-dasharray="48 48"/>
<path d="M142.942 160.77C141.971 160.662 140.632 159.172 139.765 158.652" stroke="#F80000" stroke-width="24" stroke-linecap="round" stroke-dasharray="48 48"/>
<path d="M129.177 149.122H128.824" stroke="#F80000" stroke-width="24" stroke-linecap="round" stroke-dasharray="48 48"/>
<path d="M120 134.651C120.538 135.619 121.186 136.21 122.118 136.769" stroke="#F80000" stroke-width="24" stroke-linecap="round" stroke-dasharray="48 48"/>
<path d="M186.355 126.886C187.462 127.44 186.708 133.598 186.708 135.004" stroke="#F80000" stroke-width="24" stroke-linecap="round" stroke-dasharray="48 48"/>
<path d="M214.238 112.415C214.084 114.417 213.117 115.654 211.768 117.003" stroke="#F80000" stroke-width="24" stroke-linecap="round" stroke-dasharray="48 48"/>
<path d="M211.189 106.288C211.189 108.26 211.361 109.324 210.12 110.564" stroke="#9E1313" stroke-width="7" stroke-linecap="round" stroke-dasharray="48 48"/>
<path d="M215.466 98.8041C215.334 102.219 213.88 105.112 213.327 108.426" stroke="#9E1313" stroke-width="7" stroke-linecap="round" stroke-dasharray="48 48"/>
<path d="M233.641 102.011C233.641 106.809 233.733 111.266 232.572 115.91" stroke="#B54E4E" stroke-width="7" stroke-linecap="round" stroke-dasharray="48 48"/>
<path d="M211.189 127.67C202.393 128.927 194.459 133.074 188.738 139.431" stroke="#BC1212" stroke-width="7" stroke-linecap="round" stroke-dasharray="48 48"/>
<path d="M183.392 102.011C181.611 102.724 181.108 104.835 180.66 106.525C178.706 113.897 176.292 120.389 172.166 126.898C169.287 131.441 163.079 136.861 163.079 142.638" stroke="#E74B4B" stroke-width="7" stroke-linecap="round" stroke-dasharray="48 48"/>
<path d="M162.01 87.0438C160.322 102.232 159.526 119.924 153.457 134.085" stroke="#BC1212" stroke-width="7" stroke-linecap="round" stroke-dasharray="48 48"/>
<path d="M194.083 95.5967C194.083 105.362 194.955 113.691 193.014 123.394" stroke="#C14242" stroke-width="7" stroke-linecap="round" stroke-dasharray="48 48"/>
<path d="M176.977 167.228C178.196 170.478 195.555 168.153 198.36 167.822C206.458 166.866 214.284 164.731 221.88 161.882" stroke="#D22E2E" stroke-width="7" stroke-linecap="round" stroke-dasharray="48 48"/>
</svg>
