<svg width="575" height="575" viewBox="0 0 575 575" fill="none" xmlns="http://www.w3.org/2000/svg">
<path d="M227.758 329.178C227.758 352.363 245.684 371.007 267.674 371.007H312.61C331.732 371.007 347.268 354.754 347.268 334.437C347.268 312.686 337.707 304.798 323.605 299.779L251.66 274.682C237.558 269.662 227.997 262.013 227.997 240.024C227.997 219.946 243.533 203.453 262.655 203.453H307.591C329.581 203.453 347.507 222.097 347.507 245.282" stroke="#333333" stroke-width="35.8531" stroke-linecap="round" stroke-linejoin="round"/>
<path d="M287.523 179.789V394.908" stroke="#333333" stroke-width="35.8531" stroke-linecap="round" stroke-linejoin="round"/>
<path d="M526.534 287.357C526.534 419.296 419.453 526.378 287.513 526.378C155.574 526.378 48.4922 419.296 48.4922 287.357C48.4922 155.417 155.574 48.3359 287.513 48.3359" stroke="#333333" stroke-width="35.8531" stroke-linecap="round" stroke-linejoin="round"/>
<path d="M442.596 205.679C482.764 185.197 514.112 151.278 514.112 110.037C514.112 66.0536 478.457 30.3984 434.474 30.3984C390.491 30.3984 354.836 66.0536 354.836 110.037C354.836 151.278 386.184 185.197 426.352 205.679C431.456 208.281 437.492 208.281 442.596 205.679Z" stroke="#333333" stroke-width="25.5524" stroke-linecap="round" stroke-linejoin="round"/>
<path d="M464.346 110.021C464.346 126.515 450.976 139.885 434.481 139.885C417.987 139.885 404.617 126.515 404.617 110.021C404.617 93.527 417.987 80.1562 434.481 80.1562C450.976 80.1562 464.346 93.527 464.346 110.021Z" stroke="#333333" stroke-width="25.5524" stroke-linecap="round" stroke-linejoin="round"/>
</svg>
