<svg width="537" height="537" viewBox="0 0 537 537" fill="none" xmlns="http://www.w3.org/2000/svg">
<mask id="path-1-outside-1_179_1710" maskUnits="userSpaceOnUse" x="29.6875" y="3.27344" width="479" height="531" fill="black">
<rect fill="white" x="29.6875" y="3.27344" width="479" height="531"/>
<path d="M379.018 7.33487C373.924 7.82775 369.584 11.246 367.914 16.0789C366.244 20.9119 367.544 26.2743 371.246 29.8065L388.213 46.7656H118.743C118.337 46.7474 117.926 46.7474 117.516 46.7656C114.043 46.9254 110.775 48.4542 108.429 51.0235C106.084 53.5883 104.861 56.9837 105.02 60.4566C105.185 63.9297 106.723 67.1926 109.297 69.5292C111.87 71.8704 115.27 73.0889 118.743 72.92H388.213L371.246 89.6735C368.699 92.0922 367.234 95.4374 367.179 98.9469C367.125 102.461 368.489 105.847 370.958 108.344C373.432 110.844 376.804 112.241 380.323 112.227C383.837 112.214 387.196 110.785 389.646 108.266L428.904 69.0367C431.386 66.5814 432.788 63.2316 432.788 59.7405C432.788 56.2493 431.386 52.8995 428.904 50.4443L389.646 11.2149C386.876 8.37629 382.965 6.95154 379.018 7.33487ZM45.5483 138.302C38.8032 138.936 33.6596 144.609 33.6876 151.376V386.743C33.6922 393.963 39.5474 399.818 46.7761 399.818H491.667H491.662C498.891 399.818 504.746 393.962 504.751 386.743V151.376C504.746 144.157 498.891 138.302 491.662 138.302H46.7716H46.7761C46.3654 138.284 45.9545 138.284 45.5483 138.302ZM59.86 164.457H191.119C159.201 188.325 138.368 226.276 138.368 269.061C138.368 311.85 159.201 349.801 191.114 373.67H59.8553V164.45L59.86 164.457ZM269.22 164.457C327.188 164.457 373.903 211.139 373.903 269.066C373.903 326.997 327.189 373.674 269.22 373.674C211.251 373.674 164.538 326.992 164.538 269.066C164.538 211.134 211.251 164.457 269.22 164.457ZM347.324 164.457H478.583V373.677H347.324C379.237 349.804 400.07 311.852 400.07 269.063C400.07 226.274 379.237 188.325 347.324 164.457ZM156.361 425.775C153.481 426.19 150.816 427.559 148.799 429.659L109.541 468.888V468.883C107.059 471.343 105.658 474.688 105.658 478.184C105.658 481.675 107.059 485.021 109.541 487.48L148.799 526.71V526.705C151.249 529.229 154.608 530.657 158.127 530.671C161.641 530.685 165.014 529.288 167.487 526.792C169.961 524.291 171.325 520.905 171.27 517.391C171.216 513.877 169.746 510.536 167.2 508.113L150.232 491.359H419.702C423.202 491.409 426.579 490.054 429.076 487.599C431.572 485.139 432.978 481.784 432.978 478.284C432.978 474.784 431.572 471.429 429.076 468.97C426.579 466.514 423.202 465.159 419.702 465.209H150.232L167.2 448.25C171.362 444.339 172.507 438.182 170.029 433.039C167.551 427.895 162.015 424.958 156.361 425.775Z"/>
</mask>
<path d="M379.018 7.33487C373.924 7.82775 369.584 11.246 367.914 16.0789C366.244 20.9119 367.544 26.2743 371.246 29.8065L388.213 46.7656H118.743C118.337 46.7474 117.926 46.7474 117.516 46.7656C114.043 46.9254 110.775 48.4542 108.429 51.0235C106.084 53.5883 104.861 56.9837 105.02 60.4566C105.185 63.9297 106.723 67.1926 109.297 69.5292C111.87 71.8704 115.27 73.0889 118.743 72.92H388.213L371.246 89.6735C368.699 92.0922 367.234 95.4374 367.179 98.9469C367.125 102.461 368.489 105.847 370.958 108.344C373.432 110.844 376.804 112.241 380.323 112.227C383.837 112.214 387.196 110.785 389.646 108.266L428.904 69.0367C431.386 66.5814 432.788 63.2316 432.788 59.7405C432.788 56.2493 431.386 52.8995 428.904 50.4443L389.646 11.2149C386.876 8.37629 382.965 6.95154 379.018 7.33487ZM45.5483 138.302C38.8032 138.936 33.6596 144.609 33.6876 151.376V386.743C33.6922 393.963 39.5474 399.818 46.7761 399.818H491.667H491.662C498.891 399.818 504.746 393.962 504.751 386.743V151.376C504.746 144.157 498.891 138.302 491.662 138.302H46.7716H46.7761C46.3654 138.284 45.9545 138.284 45.5483 138.302ZM59.86 164.457H191.119C159.201 188.325 138.368 226.276 138.368 269.061C138.368 311.85 159.201 349.801 191.114 373.67H59.8553V164.45L59.86 164.457ZM269.22 164.457C327.188 164.457 373.903 211.139 373.903 269.066C373.903 326.997 327.189 373.674 269.22 373.674C211.251 373.674 164.538 326.992 164.538 269.066C164.538 211.134 211.251 164.457 269.22 164.457ZM347.324 164.457H478.583V373.677H347.324C379.237 349.804 400.07 311.852 400.07 269.063C400.07 226.274 379.237 188.325 347.324 164.457ZM156.361 425.775C153.481 426.19 150.816 427.559 148.799 429.659L109.541 468.888V468.883C107.059 471.343 105.658 474.688 105.658 478.184C105.658 481.675 107.059 485.021 109.541 487.48L148.799 526.71V526.705C151.249 529.229 154.608 530.657 158.127 530.671C161.641 530.685 165.014 529.288 167.487 526.792C169.961 524.291 171.325 520.905 171.27 517.391C171.216 513.877 169.746 510.536 167.2 508.113L150.232 491.359H419.702C423.202 491.409 426.579 490.054 429.076 487.599C431.572 485.139 432.978 481.784 432.978 478.284C432.978 474.784 431.572 471.429 429.076 468.97C426.579 466.514 423.202 465.159 419.702 465.209H150.232L167.2 448.25C171.362 444.339 172.507 438.182 170.029 433.039C167.551 427.895 162.015 424.958 156.361 425.775Z" fill="#333333"/>
<path d="M379.018 7.33487L379.314 10.3994L379.315 10.3993L379.018 7.33487ZM371.246 29.8065L373.422 27.6289L373.397 27.6038L373.371 27.5792L371.246 29.8065ZM388.213 46.7656V49.8444H395.648L390.389 44.5881L388.213 46.7656ZM118.743 46.7656L118.605 49.8413L118.674 49.8444H118.743V46.7656ZM117.516 46.7656L117.379 43.6898L117.374 43.6901L117.516 46.7656ZM108.429 51.0235L110.701 53.1014L110.703 53.0994L108.429 51.0235ZM105.02 60.4566L101.945 60.5981L101.945 60.6021L105.02 60.4566ZM109.297 69.5292L111.368 67.2517L111.366 67.2496L109.297 69.5292ZM118.743 72.92V69.8412H118.669L118.594 69.8448L118.743 72.92ZM388.213 72.92L390.376 75.1108L395.713 69.8412H388.213V72.92ZM371.246 89.6735L373.366 91.9058L373.388 91.8853L373.409 91.8643L371.246 89.6735ZM367.179 98.9469L364.101 98.8989V98.8989L367.179 98.9469ZM370.958 108.344L368.769 110.509L368.769 110.509L370.958 108.344ZM380.323 112.227L380.335 115.306H380.335L380.323 112.227ZM389.646 108.266L387.47 106.088L387.455 106.104L387.44 106.119L389.646 108.266ZM428.904 69.0367L426.739 66.8476L426.733 66.8532L426.728 66.8588L428.904 69.0367ZM428.904 50.4443L426.728 52.6221L426.733 52.6278L426.739 52.6334L428.904 50.4443ZM389.646 11.2149L387.443 13.3652L387.457 13.3791L387.47 13.3927L389.646 11.2149ZM45.5483 138.302L45.41 135.226L45.3349 135.23L45.26 135.237L45.5483 138.302ZM33.6876 151.376H36.7664L36.7664 151.364L33.6876 151.376ZM33.6876 386.743H30.6088L30.6088 386.745L33.6876 386.743ZM504.751 386.743L507.83 386.745V386.743H504.751ZM504.751 151.376H507.83V151.374L504.751 151.376ZM46.7761 138.302V141.381L46.9128 135.226L46.7761 138.302ZM59.86 164.457L57.2979 166.164L58.2118 167.536H59.86V164.457ZM191.119 164.457L192.963 166.922L200.377 161.378H191.119V164.457ZM191.114 373.67V376.749H200.371L192.958 371.204L191.114 373.67ZM59.8553 373.67H56.7765V376.749H59.8553V373.67ZM59.8553 164.45L62.4174 162.742L56.7765 154.277V164.45H59.8553ZM347.324 164.457V161.378H338.067L345.48 166.922L347.324 164.457ZM478.583 164.457H481.662V161.378H478.583V164.457ZM478.583 373.677V376.756H481.662V373.677H478.583ZM347.324 373.677L345.48 371.211L338.068 376.756H347.324V373.677ZM156.361 425.775L156.8 428.822L156.801 428.822L156.361 425.775ZM148.799 429.659L150.975 431.836L150.997 431.814L151.019 431.792L148.799 429.659ZM109.541 468.888H106.463V476.317L111.718 471.066L109.541 468.888ZM109.541 468.883H112.62V461.499L107.374 466.696L109.541 468.883ZM109.541 487.48L111.718 485.303L111.708 485.293L109.541 487.48ZM148.799 526.71L146.622 528.888L151.878 534.139V526.71H148.799ZM148.799 526.705L151.008 524.56L145.72 519.115V526.705H148.799ZM158.127 530.671L158.139 527.592H158.139L158.127 530.671ZM167.487 526.792L169.674 528.959L169.676 528.957L167.487 526.792ZM167.2 508.113L165.036 510.303L165.057 510.323L165.077 510.343L167.2 508.113ZM150.232 491.359V488.28H142.732L148.069 493.55L150.232 491.359ZM419.702 491.359L419.746 488.281L419.724 488.28H419.702V491.359ZM429.076 487.599L431.235 489.794L431.237 489.792L429.076 487.599ZM429.076 468.97L431.237 466.777L431.235 466.775L429.076 468.97ZM419.702 465.209V468.288H419.724L419.746 468.287L419.702 465.209ZM150.232 465.209L148.056 463.031L142.797 468.288H150.232V465.209ZM167.2 448.25L165.091 446.006L165.057 446.039L165.023 446.072L167.2 448.25ZM378.721 4.27037C372.43 4.8792 367.068 9.1012 365.004 15.0732L370.824 17.0846C372.101 13.3908 375.419 10.7763 379.314 10.3994L378.721 4.27037ZM365.004 15.0732C362.94 21.0447 364.548 27.6702 369.12 32.0338L373.371 27.5792C370.541 24.8783 369.547 20.779 370.824 17.0846L365.004 15.0732ZM369.069 31.9841L386.036 48.9432L390.389 44.5881L373.422 27.6289L369.069 31.9841ZM388.213 43.6868H118.743V49.8444H388.213V43.6868ZM118.882 43.6899C118.383 43.6675 117.88 43.6676 117.379 43.6899L117.652 49.8414C117.973 49.8272 118.292 49.8272 118.605 49.8413L118.882 43.6899ZM117.374 43.6901C113.088 43.8872 109.053 45.7745 106.156 48.9477L110.703 53.0994C112.498 51.1338 114.998 49.9635 117.657 49.8412L117.374 43.6901ZM106.158 48.9457C103.257 52.1171 101.748 56.3121 101.945 60.5981L108.096 60.3152C107.974 57.6554 108.91 55.0595 110.701 53.1014L106.158 48.9457ZM101.945 60.6021C102.148 64.8917 104.048 68.9226 107.227 71.8089L111.366 67.2496C109.397 65.4627 108.221 62.9676 108.096 60.3112L101.945 60.6021ZM107.225 71.8068C110.405 74.6991 114.604 76.2038 118.893 75.9952L118.594 69.8448C115.937 69.9741 113.336 69.0417 111.368 67.2517L107.225 71.8068ZM118.743 75.9988H388.213V69.8412H118.743V75.9988ZM386.05 70.7292L369.082 87.4827L373.409 91.8643L390.376 75.1108L386.05 70.7292ZM369.125 87.4412C365.978 90.4305 364.169 94.5633 364.101 98.8989L370.258 98.995C370.3 96.3116 371.42 93.754 373.366 91.9058L369.125 87.4412ZM364.101 98.8989C364.033 103.242 365.72 107.425 368.769 110.509L373.147 106.179C371.259 104.269 370.216 101.68 370.258 98.9949L364.101 98.8989ZM368.769 110.509C371.826 113.599 375.992 115.323 380.335 115.306L380.311 109.148C377.617 109.159 375.038 108.09 373.147 106.179L368.769 110.509ZM380.335 115.306C384.677 115.289 388.827 113.524 391.853 110.413L387.44 106.119C385.565 108.046 382.996 109.138 380.311 109.148L380.335 115.306ZM391.823 110.444L431.08 71.2145L426.728 66.8588L387.47 106.088L391.823 110.444ZM431.069 71.2257C434.135 68.1933 435.866 64.0557 435.866 59.7405H429.709C429.709 62.4075 428.638 64.9695 426.739 66.8476L431.069 71.2257ZM435.866 59.7405C435.866 55.4252 434.135 51.2875 431.069 48.2551L426.739 52.6334C428.638 54.5114 429.709 57.0734 429.709 59.7405H435.866ZM431.08 48.2664L391.823 9.0371L387.47 13.3927L426.728 52.6221L431.08 48.2664ZM391.85 9.06461C388.426 5.55603 383.594 3.79718 378.72 4.27047L379.315 10.3993C382.336 10.1059 385.327 11.1965 387.443 13.3652L391.85 9.06461ZM45.26 135.237C36.9297 136.02 30.5742 143.027 30.6088 151.389L36.7664 151.364C36.745 146.191 40.6767 141.852 45.8365 141.367L45.26 135.237ZM30.6088 151.376V386.743H36.7664V151.376H30.6088ZM30.6088 386.745C30.6144 395.665 37.8481 402.896 46.7761 402.896V396.739C41.2466 396.739 36.7699 392.261 36.7664 386.741L30.6088 386.745ZM46.7761 402.896H491.667V396.739H46.7761V402.896ZM491.667 396.739H491.662V402.896H491.667V396.739ZM491.662 402.896C500.59 402.896 507.824 395.664 507.83 386.745L501.672 386.741C501.668 392.261 497.192 396.739 491.662 396.739V402.896ZM507.83 386.743V151.376H501.672V386.743H507.83ZM507.83 151.374C507.824 142.455 500.59 135.223 491.662 135.223V141.381C497.192 141.381 501.668 145.859 501.672 151.378L507.83 151.374ZM491.662 135.223H46.7716V141.381H491.662V135.223ZM46.7716 141.381H46.7761V135.223H46.7716V141.381ZM46.9128 135.226C46.4115 135.204 45.9088 135.204 45.41 135.226L45.6865 141.378C46.0001 141.363 46.3193 141.363 46.6394 141.378L46.9128 135.226ZM59.86 167.536H191.119V161.378H59.86V167.536ZM189.275 161.991C156.625 186.407 135.289 225.251 135.289 269.061H141.447C141.447 227.302 161.777 190.243 192.963 166.922L189.275 161.991ZM135.289 269.061C135.289 312.876 156.625 351.719 189.27 376.135L192.958 371.204C161.777 347.883 141.447 310.824 141.447 269.061H135.289ZM191.114 370.591H59.8553V376.749H191.114V370.591ZM62.9341 373.67V164.45H56.7765V373.67H62.9341ZM57.2932 166.157L57.2979 166.164L62.4221 162.749L62.4174 162.742L57.2932 166.157ZM269.22 167.536C325.49 167.536 370.824 212.841 370.824 269.066H376.982C376.982 209.436 328.886 161.378 269.22 161.378V167.536ZM370.824 269.066C370.824 325.295 325.491 370.596 269.22 370.596V376.753C328.887 376.753 376.982 328.7 376.982 269.066H370.824ZM269.22 370.596C212.95 370.596 167.617 325.29 167.617 269.066H161.459C161.459 328.695 209.553 376.753 269.22 376.753V370.596ZM167.617 269.066C167.617 212.836 212.95 167.536 269.22 167.536V161.378C209.553 161.378 161.459 209.431 161.459 269.066H167.617ZM347.324 167.536H478.583V161.378H347.324V167.536ZM475.504 164.457V373.677H481.662V164.457H475.504ZM478.583 370.598H347.324V376.756H478.583V370.598ZM349.168 376.142C381.813 351.722 403.149 312.878 403.149 269.063H396.992C396.992 310.827 376.661 347.886 345.48 371.211L349.168 376.142ZM403.149 269.063C403.149 225.248 381.813 186.407 349.168 161.991L345.48 166.922C376.661 190.243 396.992 227.3 396.992 269.063H403.149ZM155.921 422.728C152.362 423.241 149.071 424.932 146.579 427.525L151.019 431.792C152.561 430.186 154.6 429.14 156.8 428.822L155.921 422.728ZM146.622 427.481L107.365 466.71L111.718 471.066L150.975 431.836L146.622 427.481ZM112.62 468.888V468.883H106.463V468.888H112.62ZM107.374 466.696C104.311 469.732 102.579 473.863 102.579 478.184H108.736C108.736 475.514 109.807 472.955 111.708 471.07L107.374 466.696ZM102.579 478.184C102.579 482.501 104.311 486.633 107.374 489.667L111.708 485.293C109.806 483.409 108.736 480.85 108.736 478.184H102.579ZM107.365 489.658L146.622 528.888L150.975 524.532L111.718 485.303L107.365 489.658ZM151.878 526.71V526.705H145.72V526.71H151.878ZM146.59 528.85C149.618 531.968 153.768 533.733 158.115 533.75L158.139 527.592C155.449 527.582 152.881 526.49 151.008 524.56L146.59 528.85ZM158.115 533.75C162.454 533.767 166.619 532.042 169.674 528.959L165.3 524.625C163.408 526.534 160.828 527.603 158.139 527.592L158.115 533.75ZM169.676 528.957C172.73 525.87 174.417 521.686 174.349 517.343L168.192 517.439C168.234 520.123 167.192 522.712 165.298 524.627L169.676 528.957ZM174.349 517.343C174.281 512.999 172.464 508.873 169.322 505.882L165.077 510.343C167.028 512.199 168.15 514.755 168.192 517.439L174.349 517.343ZM169.363 505.922L152.395 489.168L148.069 493.55L165.036 510.303L169.363 505.922ZM150.232 494.438H419.702V488.28H150.232V494.438ZM419.658 494.438C423.982 494.5 428.152 492.826 431.235 489.794L426.917 485.404C425.007 487.282 422.423 488.319 419.746 488.281L419.658 494.438ZM431.237 489.792C434.319 486.754 436.056 482.61 436.056 478.284H429.899C429.899 480.958 428.825 483.523 426.915 485.406L431.237 489.792ZM436.056 478.284C436.056 473.958 434.319 469.814 431.237 466.777L426.915 471.163C428.825 473.045 429.899 475.61 429.899 478.284H436.056ZM431.235 466.775C428.152 463.743 423.982 462.069 419.658 462.13L419.746 468.287C422.423 468.249 425.007 469.286 426.917 471.165L431.235 466.775ZM419.702 462.13H150.232V468.288H419.702V462.13ZM152.409 467.387L169.376 450.427L165.023 446.072L148.056 463.031L152.409 467.387ZM169.308 450.493C174.449 445.663 175.864 438.057 172.803 431.702L167.255 434.375C169.15 438.307 168.275 443.015 165.091 446.006L169.308 450.493ZM172.803 431.702C169.739 425.344 162.9 421.719 155.921 422.728L156.801 428.822C161.13 428.197 165.363 430.446 167.255 434.375L172.803 431.702Z" fill="#333333" mask="url(#path-1-outside-1_179_1710)"/>
<path d="M229.267 218.758C253.148 218.759 288.527 221.412 284.989 251.484C280.832 286.824 236.343 280.376 233.69 279.787L286.704 330.45M216 218.758H319.495" stroke="#333333" stroke-width="20.494" stroke-linecap="round" stroke-linejoin="round"/>
<circle cx="274.509" cy="289.884" r="16.7465" stroke="#333333" stroke-width="17.0874"/>
<path d="M276.703 271.181C285.242 267.082 305.15 272.037 320.52 287.408" stroke="#333333" stroke-width="20.494" stroke-linecap="round" stroke-linejoin="round"/>
</svg>
