<svg width="539" height="537" viewBox="0 0 539 537" fill="none" xmlns="http://www.w3.org/2000/svg">
<path d="M495.975 173.576C490.286 168.668 483.336 165.828 478.124 164.047C472.332 162.069 465.684 160.433 458.655 159.038C444.553 156.24 426.893 154.019 407.271 152.282C367.903 148.798 318.537 147.086 269.474 147.086C220.412 147.086 171.046 148.798 131.679 152.282C112.055 154.019 94.3948 156.24 80.2952 159.038C73.265 160.433 66.6174 162.069 60.8258 164.047C55.6124 165.827 48.6623 168.668 42.9746 173.576C37.6166 178.199 34.5559 183.931 32.813 187.782C30.8786 192.056 29.3904 196.714 28.1979 201.267C25.8065 210.399 24.0001 221.481 22.6226 233.346C19.8505 257.222 18.5156 286.976 18.5156 316.564C18.5156 346.172 19.8522 376.358 22.609 401.122C23.9825 413.462 25.7641 424.971 28.0654 434.61C30.0705 443.007 33.3538 454.145 39.88 462.191C45.8654 469.569 54.4243 472.962 58.8098 474.54C64.4323 476.568 70.9698 478.174 77.7708 479.507C91.4791 482.192 109.103 484.308 128.846 485.956C168.503 489.272 219.144 490.9 269.474 490.9C319.804 490.9 370.445 489.272 410.102 485.956C429.847 484.308 447.469 482.192 461.177 479.507C467.978 478.174 474.515 476.568 480.139 474.54C484.523 472.962 493.084 469.569 499.069 462.191C505.594 454.145 508.879 443.007 510.884 434.61C513.185 424.971 514.967 413.462 516.34 401.122C519.096 376.358 520.433 346.172 520.433 316.564C520.433 286.976 519.098 257.222 516.325 233.346C514.95 221.481 513.143 210.399 510.751 201.267C509.559 196.714 508.071 192.056 506.136 187.782C504.392 183.931 501.333 178.199 495.975 173.576Z" stroke="#333333" stroke-width="36.7368" stroke-linecap="round" stroke-linejoin="round"/>
<path d="M256.551 124.48L179.109 47.0391" stroke="#333333" stroke-width="36.7368" stroke-linecap="round" stroke-linejoin="round"/>
<path d="M282.367 124.469L359.808 47.0282" stroke="#333333" stroke-width="36.7368" stroke-linecap="round" stroke-linejoin="round"/>
</svg>
