<svg width="203" height="203" viewBox="0 0 203 203" fill="none" xmlns="http://www.w3.org/2000/svg">
<path d="M158.063 39.9642H158.062H136.228V29.507C136.228 28.2574 135.732 27.0591 134.848 26.1755C133.965 25.2919 132.766 24.7955 131.517 24.7955C130.267 24.7955 129.069 25.2919 128.185 26.1755C127.302 27.0591 126.805 28.2574 126.805 29.507V39.9642H75.5534V29.507C75.5534 28.2574 75.057 27.0591 74.1735 26.1755C73.2899 25.2919 72.0915 24.7955 70.8419 24.7955C69.5924 24.7955 68.394 25.2919 67.5104 26.1755L68.1605 26.8255L67.5104 26.1755C66.6269 27.0591 66.1305 28.2574 66.1305 29.507V39.9642H44.2968L44.2957 39.9642C39.0254 39.9705 33.9727 42.0669 30.246 45.7936C26.5194 49.5203 24.4229 54.5729 24.4166 59.8432V59.8443L24.4166 158.441L24.4166 158.442C24.4229 163.712 26.5194 168.765 30.246 172.491C33.9727 176.218 39.0254 178.315 44.2957 178.321H44.2968H158.062H158.063C163.334 178.317 168.388 176.221 172.115 172.494C175.842 168.766 177.938 163.712 177.942 158.441V158.441V59.8443V59.8436C177.938 54.5726 175.842 49.5186 172.115 45.7914C168.388 42.0642 163.334 39.9684 158.063 39.9642ZM168.519 158.441C168.519 161.214 167.417 163.874 165.456 165.835C163.495 167.796 160.835 168.898 158.062 168.898H44.2968C41.5234 168.898 38.8635 167.796 36.9024 165.835C34.9413 163.874 33.8396 161.214 33.8396 158.441V94.8932H168.519V158.441ZM168.519 85.4702H33.8396V59.8443C33.8396 54.0714 38.5103 49.3872 44.2968 49.3872H66.1305V59.8443C66.1305 61.0939 66.6269 62.2923 67.5104 63.1759C68.394 64.0594 69.5924 64.5558 70.8419 64.5558C72.0915 64.5558 73.2899 64.0594 74.1735 63.1759C75.057 62.2923 75.5534 61.0939 75.5534 59.8443V49.3872H126.805V59.8443C126.805 61.0939 127.302 62.2923 128.185 63.1759C129.069 64.0594 130.267 64.5558 131.517 64.5558C132.766 64.5558 133.965 64.0594 134.848 63.1759C135.732 62.2923 136.228 61.0939 136.228 59.8443V49.3872H158.062C160.835 49.3872 163.495 50.4889 165.456 52.45C167.417 54.4111 168.519 57.0709 168.519 59.8443V85.4702Z" fill="#9D9D9D" stroke="#9D9D9D" stroke-width="1.83863"/>
<rect x="55.2109" y="110.748" width="18.3863" height="18.3863" rx="9.19313" fill="#9D9D9D"/>
<rect x="55.2109" y="138.328" width="18.3863" height="18.3863" rx="9.19313" fill="#9D9D9D"/>
<rect x="91.9844" y="110.748" width="18.3863" height="18.3863" rx="9.19313" fill="#9D9D9D"/>
<rect x="91.9844" y="138.328" width="18.3863" height="18.3863" rx="9.19313" fill="#9D9D9D"/>
<rect x="128.758" y="110.748" width="18.3863" height="18.3863" rx="9.19313" fill="#9D9D9D"/>
</svg>
