<svg width="566" height="566" viewBox="0 0 566 566" fill="none" xmlns="http://www.w3.org/2000/svg">
<path d="M270.005 323.635C306.557 323.635 336.189 294.003 336.189 257.451C336.189 220.897 306.557 191.266 270.005 191.266C233.452 191.266 203.82 220.897 203.82 257.451C203.82 294.003 233.452 323.635 270.005 323.635Z" stroke="#333333" stroke-width="34.5446" stroke-linecap="round" stroke-linejoin="round"/>
<path d="M392.223 476.031C392.223 421.152 337.58 376.398 269.982 376.398C202.386 376.398 147.742 420.916 147.742 476.031" stroke="#333333" stroke-width="34.5446" stroke-linecap="round" stroke-linejoin="round"/>
<path d="M494.666 294.669C494.666 418.323 394.565 518.424 270.911 518.424C147.257 518.424 47.1562 418.323 47.1562 294.669C47.1562 171.015 147.257 70.9141 270.911 70.9141C301.766 70.9141 331.207 77.0376 358.058 88.3432C354.996 97.7644 353.347 107.657 353.347 118.02C353.347 135.685 358.293 152.408 367.008 166.54C371.719 174.548 377.843 181.849 384.909 187.973C401.396 203.047 423.3 212.233 447.56 212.233C457.923 212.233 467.816 210.584 477.001 207.286C488.307 234.137 494.666 263.814 494.666 294.669Z" stroke="#333333" stroke-width="32.451" stroke-linecap="round" stroke-linejoin="round"/>
<path d="M541.785 118.017C541.785 125.554 540.843 132.856 538.958 139.922C536.838 149.343 533.07 158.529 528.124 166.537C516.818 185.615 498.682 200.453 477.013 207.283C467.828 210.581 457.935 212.23 447.572 212.23C423.312 212.23 401.408 203.044 384.921 187.97C377.855 181.846 371.731 174.545 367.02 166.537C358.306 152.405 353.359 135.682 353.359 118.017C353.359 107.654 355.008 97.7614 358.07 88.3401C362.545 74.6793 370.082 62.4323 379.974 52.3045C397.168 34.6396 421.192 23.8047 447.572 23.8047C475.365 23.8047 500.567 35.8173 517.525 55.1309C532.599 71.8536 541.785 93.9931 541.785 118.017Z" stroke="#333333" stroke-width="28.2638" stroke-miterlimit="10" stroke-linecap="round" stroke-linejoin="round"/>
<path d="M467.843 85.0465C470.129 85.0445 472.392 85.4991 474.5 86.3835C476.608 87.2679 478.519 88.5643 480.119 90.1968C483.417 93.5456 485.266 98.0577 485.266 102.758C485.266 107.459 483.417 111.971 480.119 115.32L447.591 148.263L415.062 115.32C411.764 111.971 409.916 107.459 409.916 102.758C409.916 98.0577 411.764 93.5456 415.062 90.1968C416.664 88.5655 418.575 87.2697 420.682 86.3852C422.79 85.5007 425.053 85.0451 427.339 85.0451C429.625 85.0451 431.888 85.5007 433.996 86.3852C436.104 87.2697 438.014 88.5655 439.616 90.1968L447.591 98.3619L455.535 90.2596C457.13 88.6077 459.043 87.2946 461.158 86.3989C463.272 85.5031 465.546 85.0432 467.843 85.0465ZM467.843 78.7656C464.721 78.763 461.629 79.3838 458.75 80.5918C455.871 81.7997 453.262 83.5705 451.076 85.8002L447.591 89.3174L444.106 85.8002C441.917 83.5745 439.307 81.8068 436.429 80.6002C433.55 79.3936 430.46 78.7722 427.339 78.7722C424.218 78.7722 421.128 79.3936 418.249 80.6002C415.371 81.8068 412.761 83.5745 410.572 85.8002C406.12 90.3338 403.625 96.4348 403.625 102.79C403.625 109.145 406.12 115.246 410.572 119.78L447.591 157.276L484.609 119.78C489.062 115.246 491.557 109.145 491.557 102.79C491.557 96.4348 489.062 90.3338 484.609 85.8002C482.421 83.5733 479.812 81.8044 476.933 80.5967C474.055 79.3889 470.964 78.7665 467.843 78.7656Z" fill="#333333"/>
<path d="M408.101 95.3865C400.176 109.889 429.159 136.289 446.758 150.988C458.073 140.123 481.833 116.669 486.358 109.766C492.015 101.139 484.473 94.4256 481.644 87.7151C479.382 82.3467 468.759 81.6437 463.731 81.9632C454.303 85.7978 448.646 97.3015 446.758 95.3865C424.329 72.6368 412.816 86.7591 408.101 95.3865Z" fill="#333333"/>
</svg>
