<svg width="562" height="562" viewBox="0 0 562 562" fill="none" xmlns="http://www.w3.org/2000/svg">
<path d="M268.358 321.163C304.64 321.163 334.053 291.75 334.053 255.468C334.053 219.186 304.64 189.773 268.358 189.773C232.076 189.773 202.664 219.186 202.664 255.468C202.664 291.75 232.076 321.163 268.358 321.163Z" stroke="#333333" stroke-width="32.1998" stroke-linecap="round" stroke-linejoin="round"/>
<path d="M389.655 472.41C389.655 417.937 335.416 373.516 268.319 373.516C201.223 373.516 146.984 417.704 146.984 472.41" stroke="#333333" stroke-width="32.1998" stroke-linecap="round" stroke-linejoin="round"/>
<path d="M491.375 292.387C491.375 415.125 392.015 514.484 269.277 514.484C146.539 514.484 47.1797 415.125 47.1797 292.387C47.1797 169.649 146.539 70.2891 269.277 70.2891C299.903 70.2891 329.127 76.3673 355.778 87.5891C352.739 96.9405 351.103 106.76 351.103 117.046C351.103 134.58 356.012 151.179 364.662 165.207C369.338 173.155 375.417 180.402 382.43 186.48C398.795 201.443 420.537 210.561 444.617 210.561C454.904 210.561 464.723 208.924 473.841 205.651C485.063 232.303 491.375 261.761 491.375 292.387Z" stroke="#333333" stroke-width="32.1998" stroke-linecap="round" stroke-linejoin="round"/>
<path d="M538.123 117.046C538.123 124.527 537.188 131.774 535.318 138.788C533.214 148.139 529.473 157.257 524.564 165.206C513.342 184.143 495.34 198.871 473.832 205.651C464.714 208.924 454.895 210.561 444.609 210.561C420.528 210.561 398.786 201.442 382.421 186.48C375.408 180.402 369.329 173.155 364.653 165.206C356.003 151.179 351.094 134.58 351.094 117.046C351.094 106.759 352.73 96.9401 355.769 87.5886C360.211 74.029 367.693 61.8728 377.512 51.8199C394.578 34.2859 418.424 23.5312 444.609 23.5312C472.195 23.5312 497.211 35.4549 514.043 54.6254C529.006 71.2243 538.123 93.1998 538.123 117.046Z" stroke="#333333" stroke-width="30.1062" stroke-miterlimit="10" stroke-linecap="round" stroke-linejoin="round"/>
<path d="M479.426 116.586H409.758" stroke="#333333" stroke-width="34.2887" stroke-miterlimit="10" stroke-linecap="round" stroke-linejoin="round"/>
<path d="M444.609 82.4609V152.363" stroke="#333333" stroke-width="34.2887" stroke-miterlimit="10" stroke-linecap="round" stroke-linejoin="round"/>
</svg>
