<svg width="531" height="531" viewBox="0 0 531 531" fill="none" xmlns="http://www.w3.org/2000/svg">
<path d="M190.609 265.335L240.437 315.163L352.55 203.05M195.639 479.618C203.805 478.537 212.053 480.752 218.557 485.762L248.536 508.765C258.445 516.379 272.23 516.379 282.111 508.765L313.223 484.878C319.036 480.421 326.37 478.455 333.623 479.424L372.541 484.544C384.913 486.178 396.845 479.284 401.633 467.742L416.609 431.534C419.404 424.753 424.773 419.384 431.555 416.586L467.76 401.61C479.302 396.849 486.196 384.893 484.562 372.518L479.636 335.01C478.555 326.843 480.77 318.594 485.78 312.089L508.783 282.11C516.394 272.199 516.394 258.414 508.783 248.533L484.893 217.418C480.439 211.606 478.473 204.27 479.442 197.017L484.562 158.098C486.196 145.724 479.302 133.793 467.76 129.004L431.555 114.029C424.773 111.233 419.404 105.863 416.609 99.0805L401.633 62.8733C396.872 51.3301 384.913 44.4374 372.541 46.0705L333.623 51.1916C326.37 52.1881 319.036 50.2227 313.251 45.7937L282.138 21.9047C272.23 14.2922 258.445 14.2922 248.564 21.9047L217.451 45.7937C211.638 50.2227 204.303 52.1881 197.051 51.2471L158.133 46.1261C145.76 44.4927 133.83 51.3854 129.041 62.9286L114.094 99.1358C111.271 105.89 105.901 111.26 99.1469 114.084L62.9416 129.032C51.3989 133.821 44.5067 145.751 46.1398 158.125L51.2606 197.045C52.2016 204.298 50.2364 211.633 45.8077 217.418L21.9199 248.533C14.3079 258.442 14.3079 272.229 21.9199 282.11L45.8077 313.225C50.2641 319.038 52.2293 326.372 51.2606 333.625L46.1398 372.545C44.5067 384.92 51.3989 396.849 62.9416 401.64L99.1469 416.616C105.928 419.411 111.298 424.78 114.094 431.562L129.069 467.769C133.83 479.314 145.788 486.206 158.16 484.574L195.639 479.618Z" stroke="#333333" stroke-width="31.4042" stroke-linecap="round" stroke-linejoin="round"/>
</svg>
