<svg width="538" height="481" viewBox="0 0 538 481" fill="none" xmlns="http://www.w3.org/2000/svg">
<path d="M392.99 39.0191C406.952 39.0073 420.777 41.7831 433.653 47.1838C446.529 52.5845 458.197 60.5013 467.974 70.4702C488.118 90.9208 499.41 118.475 499.41 147.18C499.41 175.886 488.118 203.44 467.974 223.89L269.295 425.062L70.6158 223.89C50.4714 203.44 39.1798 175.886 39.1798 147.18C39.1798 118.475 50.4714 90.9208 70.6158 70.4702C80.3981 60.5085 92.0673 52.5958 104.942 47.1943C117.816 41.7929 131.638 39.0109 145.6 39.0109C159.562 39.0109 173.383 41.7929 186.258 47.1943C199.132 52.5958 210.802 60.5085 220.584 70.4702L269.295 120.332L317.814 70.8538C327.561 60.7661 339.242 52.7476 352.158 47.2777C365.075 41.8078 378.962 38.999 392.99 39.0191ZM392.99 0.664114C373.92 0.647953 355.039 4.43931 337.454 11.8159C319.869 19.1924 303.933 30.0057 290.582 43.6217L269.295 65.1005L248.008 43.6217C234.64 30.0303 218.701 19.2358 201.118 11.8674C183.536 4.49907 164.663 0.704286 145.6 0.704286C126.536 0.704286 107.663 4.49907 90.0812 11.8674C72.4991 19.2358 56.5597 30.0303 43.192 43.6217C15.9959 71.3069 0.757813 108.564 0.757812 147.372C0.757812 186.18 15.9959 223.437 43.192 251.122L269.295 480.102L495.398 251.122C522.594 223.437 537.832 186.18 537.832 147.372C537.832 108.564 522.594 71.3069 495.398 43.6217C482.033 30.023 466.095 19.2211 448.513 11.8458C430.931 4.47046 412.056 0.669357 392.99 0.664114Z" fill="#333333"/>
</svg>
