<svg width="470" height="537" viewBox="0 0 470 537" fill="none" xmlns="http://www.w3.org/2000/svg">
<path d="M145.478 54.2459C113.574 63.0385 81.8871 72.5994 50.4445 82.9201C47.5734 83.8501 45.0212 85.5678 43.0786 87.8776C41.1361 90.1873 39.8813 92.9962 39.4572 95.9842C20.8994 235.235 63.7766 336.834 114.928 403.762C136.585 432.383 162.408 457.596 191.537 478.563C203.128 486.736 213.378 492.632 221.451 496.417C225.471 498.327 228.753 499.6 231.266 500.37C232.365 500.755 233.497 501.036 234.649 501.207C235.787 501.023 236.908 500.742 237.999 500.37C240.545 499.6 243.827 498.327 247.847 496.417C255.887 492.632 266.171 486.703 277.761 478.563C306.89 457.596 332.713 432.382 354.37 403.762C405.521 336.867 448.399 235.235 429.841 95.9842C429.421 92.9948 428.167 90.1841 426.224 87.8737C424.281 85.5633 421.727 83.8466 418.854 82.9201C397.047 75.785 360.232 64.1613 323.82 54.2794C286.638 44.1966 252.436 36.7266 234.649 36.7266C216.895 36.7266 182.66 44.1966 145.478 54.2794V54.2459ZM136.567 19.7432C172.913 9.8613 211.536 0.984375 234.649 0.984375C257.763 0.984375 296.386 9.8613 332.731 19.7432C369.913 29.7925 407.397 41.6842 429.439 48.8863C438.654 51.9296 446.825 57.5108 453.011 64.9887C459.197 72.4666 463.148 81.5379 464.411 91.1605C484.375 241.13 438.048 352.276 381.839 425.804C358.003 457.258 329.582 484.956 297.524 507.974C286.44 515.939 274.695 522.943 262.419 528.91C253.039 533.332 242.957 536.95 234.649 536.95C226.342 536.95 216.292 533.332 206.879 528.91C194.603 522.943 182.858 515.939 171.774 507.974C139.717 484.955 111.296 457.257 87.4596 425.804C31.2502 352.276 -15.0773 241.13 4.88744 91.1605C6.14988 81.5379 10.1011 72.4666 16.2873 64.9887C22.4735 57.5108 30.6436 51.9296 39.8592 48.8863C71.856 38.3951 104.101 28.6779 136.567 19.7432Z" fill="#333333"/>
<path d="M142.938 276.029L199.638 332.729L327.215 205.152" stroke="#333333" stroke-width="37.7625" stroke-linecap="round" stroke-linejoin="round"/>
<path d="M243.213 511.777C20.4104 435.445 13.2502 188.76 40.2345 83.7985L227.736 20.1074C299.363 48.0839 340.238 36.7743 461.072 76.0602C484.874 83.7985 371.782 555.825 243.213 511.777Z" stroke="#333333" stroke-width="1.19048"/>
</svg>
