<svg width="537" height="537" viewBox="0 0 537 537" fill="none" xmlns="http://www.w3.org/2000/svg">
<path d="M57.8578 133.93H446.433C482.052 133.93 511.195 163.073 511.195 198.692V446.948C511.195 482.568 482.052 511.711 446.433 511.711H90.239C54.6197 511.711 25.4766 482.568 25.4766 446.948V166.311C25.4766 148.501 40.0481 133.93 57.8578 133.93Z" stroke="#333333" stroke-width="30.0015" stroke-miterlimit="10"/>
<path d="M25.4766 174.414V93.4609" stroke="#333333" stroke-width="30.0015" stroke-miterlimit="10" stroke-linecap="round"/>
<path d="M389.496 26.0078L65.9531 52.9922C43.5561 52.9922 25.4766 71.0717 25.4766 93.4687C25.4766 115.866 43.5561 133.945 65.9531 133.945H457.226V90.2306C457.226 54.6112 427.004 26.0078 389.496 26.0078Z" stroke="#333333" stroke-width="30.0015" stroke-miterlimit="10"/>
<path d="M511.164 241.875H341.54C315.986 241.875 295.289 261.196 295.289 285.05V360.606C295.289 384.46 316.013 403.781 341.54 403.781H511.164V241.875Z" stroke="#333333" stroke-width="30.0015" stroke-miterlimit="10" stroke-linecap="round"/>
<path d="M376.25 322.844H376.517" stroke="#333333" stroke-width="30.0015" stroke-linecap="round" stroke-linejoin="round"/>
</svg>
