<svg width="588" height="579" viewBox="0 0 588 579" fill="none" xmlns="http://www.w3.org/2000/svg">
<path d="M211.16 173.805H335.691M273.425 173.805V252.711" stroke="#2CA9BC" stroke-width="30" stroke-linecap="round" stroke-linejoin="round"/>
<path d="M107.203 255.911V418.841M397.774 296.643H348.377C344.509 296.67 340.71 295.635 337.41 293.656C334.109 291.676 331.438 288.831 329.697 285.442L320.565 267.112C318.825 263.722 316.153 260.877 312.853 258.898C309.552 256.919 305.754 255.884 301.886 255.911H244.602C240.734 255.884 236.935 256.919 233.634 258.898C230.334 260.877 227.663 263.722 225.922 267.112L216.79 285.442C215.049 288.831 212.378 291.676 209.077 293.656C205.777 295.635 201.978 296.67 198.11 296.643H107.203V378.108H377.019C382.524 378.108 387.803 380.254 391.695 384.073C395.587 387.893 397.774 393.073 397.774 398.474V439.207C397.774 444.608 399.961 449.789 403.853 453.608C407.745 457.427 413.024 459.573 418.529 459.573H460.039C465.544 459.573 470.823 457.427 474.715 453.608C478.608 449.789 480.794 444.608 480.794 439.207V378.108C480.794 356.502 472.048 335.781 456.478 320.504C440.909 305.226 419.792 296.643 397.774 296.643Z" stroke="black" stroke-width="22" stroke-linecap="round" stroke-linejoin="round"/>
</svg>
