<svg width="536" height="537" viewBox="0 0 536 537" fill="none" xmlns="http://www.w3.org/2000/svg">
<path d="M14.6797 261.805V261.103C21.0411 179.039 50.7654 117.485 102.404 78.5691C153.34 38.9518 208.533 19.845 268.661 19.845C331.618 19.1432 390.342 40.3554 442.705 82.8025C495.769 124.548 521.94 186.804 521.94 267.442V272.4C521.94 353.762 495.769 414.592 442.705 456.337C389.64 498.784 330.916 520.019 267.959 520.019H265.129C203.575 519.317 146.979 498.082 94.6387 455.635C42.276 413.89 15.4041 349.506 14.7023 261.782L14.6797 261.805ZM253.085 150.741V38.9518H236.106C232.575 43.2079 229.745 48.1431 226.915 52.3991C224.085 56.6551 221.256 60.8885 218.426 65.8463C215.596 70.1024 212.064 75.762 209.936 79.9954C207.107 84.2514 204.979 88.4848 202.851 93.4426C198.594 100.528 195.063 107.592 192.233 113.953C188.701 120.314 185.872 126.698 183.744 132.358C188 135.188 192.935 138.72 198.594 140.848C204.956 142.976 211.34 145.104 217.701 146.507C224.787 147.933 231.149 148.635 236.808 149.337C243.17 150.039 248.829 150.763 253.085 150.763V150.741ZM282.81 38.9745V150.039C286.341 150.039 290.597 150.741 294.831 150.039C299.087 150.039 304.022 149.337 308.278 148.613C316.065 147.186 325.257 145.081 332.342 142.953C340.13 140.123 347.193 136.592 352.151 132.335C343.662 111.825 334.47 95.548 325.257 79.9727C316.043 64.3975 305.448 50.9729 294.129 39.6536V38.9518H282.81V38.9745ZM206.405 45.3359V44.6341C201.447 46.7621 196.489 50.2937 190.829 52.4217C185.872 54.5497 179.51 57.3795 174.552 60.2094C164.637 65.1672 154.744 70.8268 144.828 77.1882C135.637 83.5496 126.423 90.6354 118.658 97.6986C121.488 100.528 125.02 103.358 127.849 105.486C130.679 107.614 134.211 110.444 137.765 113.274C140.595 114.7 144.126 116.806 147.681 119.635C151.212 121.763 155.468 124.593 159.702 127.423C165.361 114.677 171.021 101.253 178.107 89.2092C185.193 76.4638 192.958 64.4427 200.745 53.8253C201.447 52.3991 202.171 50.9955 203.575 49.5693C204.277 48.8675 205.001 46.7621 206.405 45.3359ZM422.874 97.676V96.9742C405.193 83.527 389.618 72.2077 374.065 65.1445C358.513 58.0813 342.937 50.9955 328.788 45.3359C340.107 56.6551 350.023 70.8042 356.385 84.2514C363.47 98.4004 370.534 113.251 376.193 127.4C379.023 125.974 382.555 124.57 386.811 121.741C390.342 119.613 395.3 117.485 399.556 115.379C403.812 112.549 407.344 109.72 411.577 106.89C415.833 103.358 420.066 100.528 422.896 97.6986L422.874 97.676ZM410.853 255.443H492.215C492.215 229.273 486.556 204.507 475.938 179.039C466.023 154.272 451.874 133.762 434.193 116.081V115.379C430.661 121.039 425.703 125.997 420.746 129.528C415.086 133.06 410.128 135.89 404.469 138.72C400.937 140.848 397.383 143.677 393.851 145.081C390.32 147.209 385.362 148.613 381.83 150.741C384.66 156.4 387.49 162.762 390.32 168.421C392.448 174.783 395.979 181.868 397.405 188.23C401.661 199.549 404.491 211.57 407.321 223.614C409.449 234.231 410.853 245.55 410.853 255.443ZM154.766 150.741V150.039C149.107 147.209 142.745 145.081 137.788 142.251C132.83 138.72 127.872 135.165 123.639 132.335C119.383 130.207 115.149 127.378 111.618 124.548C108.086 121.718 105.256 118.888 102.426 116.058C84.0213 133.739 70.5967 153.548 62.1073 176.911C52.916 200.251 46.532 226.444 43.7022 254.742H130.724C130.724 234.933 133.554 215.826 138.512 196.719C142.768 176.911 149.107 162.06 154.766 150.741ZM253.085 254.742V173.379C247.426 174.081 240.34 174.081 233.978 173.379C226.893 172.677 219.829 170.549 213.468 168.421C207.808 166.995 200.723 165.591 195.063 163.463C188.701 162.037 182.317 159.207 177.382 156.378C173.126 163.463 169.595 171.953 166.765 181.144C163.233 189.633 161.105 198.825 158.977 207.314C157.551 215.803 156.849 224.995 156.147 232.782C155.446 240.57 154.721 248.358 154.721 254.719H253.063L253.085 254.742ZM282.81 174.805V254.742H387.512C387.512 250.486 387.512 245.55 386.811 239.891C385.384 234.933 384.683 228.572 383.981 222.912C381.853 214.423 379.725 205.231 376.895 196.742C374.065 188.954 371.235 181.167 367.704 174.805C366.278 171.274 364.874 167.018 363.448 164.188C361.32 160.656 359.192 158.528 357.788 156.4C350 162.06 339.383 165.591 326.66 168.421C314.639 171.251 300.49 174.081 287.745 174.783H282.787L282.81 174.805ZM130.702 278.082H43.6795C43.6795 290.103 45.8076 303.55 49.3392 319.827C52.8708 336.806 59.9566 352.381 67.7442 369.36C71.2758 377.85 75.5319 386.339 79.7652 394.828C84.7231 402.616 90.3827 411.105 96.0423 418.893C100.298 416.063 104.532 413.935 108.063 411.807C112.319 409.679 117.255 406.849 121.511 404.721C126.468 402.593 131.426 400.465 137.086 397.636C142.044 395.508 148.405 392.678 154.766 389.848C149.107 372.167 142.745 355.188 138.489 336.082C133.532 317.677 130.702 299.294 130.702 278.784V278.082ZM253.085 360.848V278.082H154.744C154.744 283.741 155.446 292.231 156.872 300.72C157.574 309.21 159.702 318.401 161.128 327.615C163.958 337.53 166.086 347.423 168.915 355.913C171.745 364.402 174.575 371.488 177.405 377.85C190.15 372.892 202.873 369.36 211.363 367.232C220.554 364.402 229.043 362.274 237.533 361.572H245.32C248.15 360.871 250.98 360.871 253.108 360.871L253.085 360.848ZM282.81 278.082V360.146C287.767 360.848 293.427 361.572 299.087 362.274C305.448 362.976 313.236 364.402 319.597 365.806L330.214 367.934C333.746 369.36 338.002 370.062 341.534 370.764C345.79 372.19 350.023 372.892 354.279 374.295C357.811 375.721 361.365 376.423 364.195 377.827C373.386 354.487 379.046 335.38 382.6 319.103C386.131 303.527 387.558 290.103 387.558 278.784V278.082H282.855H282.81ZM492.215 278.784V278.082H410.853V282.338C410.151 295.785 408.023 311.338 405.193 327.615C402.363 343.19 396.002 361.572 387.512 384.211C398.832 389.871 409.449 395.53 417.938 401.19C426.428 406.849 434.216 413.211 439.875 418.87C451.896 406.849 462.514 390.572 471.705 369.337C480.896 348.827 487.28 327.592 490.812 304.954C491.513 300.698 491.513 296.464 492.238 292.208V278.761L492.215 278.784ZM253.085 493.849V383.487C235.405 386.316 220.531 389.848 209.212 392.678C197.893 395.508 189.403 398.337 183.744 401.167C188 411.785 192.233 420.976 196.489 429.465C200.745 437.253 205.68 445.742 209.936 452.805C211.363 455.635 214.192 458.465 216.298 461.997C218.426 464.827 219.829 468.358 221.957 471.188C224.085 474.72 226.213 478.976 228.319 483.209C231.149 486.741 233.277 490.997 236.106 493.826L253.085 493.849ZM282.81 493.849H299.087C305.448 488.891 311.832 481.828 316.767 474.04C322.427 466.253 328.788 457.062 333.044 449.274C338.002 440.083 342.96 431.593 347.193 423.104C351.427 414.614 354.981 406.827 357.811 401.167C350.023 398.337 339.406 395.508 328.811 392.678C318.216 389.848 303.343 387.018 282.832 384.188V493.849H282.81ZM422.874 435.849V435.147C421.447 433.019 418.618 430.19 416.512 428.062C414.407 425.934 410.853 423.104 407.321 420.976C404.491 418.848 400.96 416.72 396.704 414.614C392.448 412.509 386.788 409.657 381.853 406.827C379.023 412.486 374.065 422.402 367.002 435.827C360.641 449.274 349.321 465.551 335.172 483.232C352.853 480.402 368.428 474.04 382.577 465.551C398.152 457.763 411.577 447.146 422.896 435.827L422.874 435.849ZM159.702 413.211V412.509C154.744 415.339 146.956 418.87 139.191 422.425C130.702 425.956 121.511 430.212 113.021 435.872C117.979 440.128 122.937 444.361 127.17 447.191C131.426 450.723 136.361 453.553 140.617 456.382C148.405 461.34 157.596 466.298 166.787 470.531C175.979 474.765 187.298 479.021 201.447 483.277C196.489 477.617 192.958 470.531 189.426 464.872C185.894 459.212 181.638 453.553 178.107 447.893C174.575 442.233 171.745 435.872 168.915 430.212C165.384 424.553 162.554 418.893 159.724 413.233L159.702 413.211Z" fill="#333333" stroke="#333333" stroke-width="6.28084"/>
</svg>
